G04 #@! TF.GenerationSoftware,KiCad,Pcbnew,5.1.4+dfsg1-1*
G04 #@! TF.CreationDate,2020-06-16T22:38:04+02:00*
G04 #@! TF.ProjectId,usb_pcb,7573625f-7063-4622-9e6b-696361645f70,0*
G04 #@! TF.SameCoordinates,Original*
G04 #@! TF.FileFunction,Soldermask,Bot*
G04 #@! TF.FilePolarity,Negative*
%FSLAX46Y46*%
G04 Gerber Fmt 4.6, Leading zero omitted, Abs format (unit mm)*
G04 Created by KiCad (PCBNEW 5.1.4+dfsg1-1) date 2020-06-16 22:38:04*
%MOMM*%
%LPD*%
G04 APERTURE LIST*
%ADD10C,0.100000*%
G04 APERTURE END LIST*
D10*
G36*
X58134239Y-99311467D02*
G01*
X58448282Y-99373934D01*
X59039926Y-99619001D01*
X59413249Y-99868448D01*
X59543652Y-99955580D01*
X59572392Y-99974784D01*
X60025216Y-100427608D01*
X60380999Y-100960074D01*
X60626066Y-101551718D01*
X60626066Y-101551719D01*
X60751000Y-102179803D01*
X60751000Y-102820197D01*
X60714640Y-103002989D01*
X60626066Y-103448282D01*
X60380999Y-104039926D01*
X60025216Y-104572392D01*
X59572392Y-105025216D01*
X59039926Y-105380999D01*
X58448282Y-105626066D01*
X58134239Y-105688533D01*
X57820197Y-105751000D01*
X57179803Y-105751000D01*
X56865761Y-105688533D01*
X56551718Y-105626066D01*
X55960074Y-105380999D01*
X55427608Y-105025216D01*
X54974784Y-104572392D01*
X54619001Y-104039926D01*
X54373934Y-103448282D01*
X54285360Y-103002989D01*
X54249000Y-102820197D01*
X54249000Y-102179803D01*
X54373934Y-101551719D01*
X54373934Y-101551718D01*
X54619001Y-100960074D01*
X54974784Y-100427608D01*
X55427608Y-99974784D01*
X55456349Y-99955580D01*
X55586751Y-99868448D01*
X55960074Y-99619001D01*
X56551718Y-99373934D01*
X56865761Y-99311467D01*
X57179803Y-99249000D01*
X57820197Y-99249000D01*
X58134239Y-99311467D01*
X58134239Y-99311467D01*
G37*
G36*
X143401000Y-103401000D02*
G01*
X141599000Y-103401000D01*
X141599000Y-101599000D01*
X143401000Y-101599000D01*
X143401000Y-103401000D01*
X143401000Y-103401000D01*
G37*
G36*
X140070443Y-101605519D02*
G01*
X140136627Y-101612037D01*
X140306466Y-101663557D01*
X140462991Y-101747222D01*
X140498729Y-101776552D01*
X140600186Y-101859814D01*
X140673378Y-101949000D01*
X140712778Y-101997009D01*
X140796443Y-102153534D01*
X140847963Y-102323373D01*
X140865359Y-102500000D01*
X140847963Y-102676627D01*
X140796443Y-102846466D01*
X140712778Y-103002991D01*
X140683448Y-103038729D01*
X140600186Y-103140186D01*
X140498729Y-103223448D01*
X140462991Y-103252778D01*
X140306466Y-103336443D01*
X140136627Y-103387963D01*
X140070442Y-103394482D01*
X140004260Y-103401000D01*
X139915740Y-103401000D01*
X139849558Y-103394482D01*
X139783373Y-103387963D01*
X139613534Y-103336443D01*
X139457009Y-103252778D01*
X139421271Y-103223448D01*
X139319814Y-103140186D01*
X139236552Y-103038729D01*
X139207222Y-103002991D01*
X139123557Y-102846466D01*
X139072037Y-102676627D01*
X139054641Y-102500000D01*
X139072037Y-102323373D01*
X139123557Y-102153534D01*
X139207222Y-101997009D01*
X139246622Y-101949000D01*
X139319814Y-101859814D01*
X139421271Y-101776552D01*
X139457009Y-101747222D01*
X139613534Y-101663557D01*
X139783373Y-101612037D01*
X139849557Y-101605519D01*
X139915740Y-101599000D01*
X140004260Y-101599000D01*
X140070443Y-101605519D01*
X140070443Y-101605519D01*
G37*
G36*
X168134239Y-96811467D02*
G01*
X168448282Y-96873934D01*
X169039926Y-97119001D01*
X169572392Y-97474784D01*
X170025216Y-97927608D01*
X170380999Y-98460074D01*
X170626066Y-99051718D01*
X170626066Y-99051719D01*
X170751000Y-99679803D01*
X170751000Y-100320197D01*
X170724657Y-100452630D01*
X170626066Y-100948282D01*
X170380999Y-101539926D01*
X170133265Y-101910685D01*
X170025217Y-102072391D01*
X169572391Y-102525217D01*
X169466477Y-102595986D01*
X169039926Y-102880999D01*
X168448282Y-103126066D01*
X168134239Y-103188533D01*
X167820197Y-103251000D01*
X167179803Y-103251000D01*
X166865761Y-103188533D01*
X166551718Y-103126066D01*
X165960074Y-102880999D01*
X165533523Y-102595986D01*
X165427609Y-102525217D01*
X164974783Y-102072391D01*
X164866735Y-101910685D01*
X164619001Y-101539926D01*
X164373934Y-100948282D01*
X164275343Y-100452630D01*
X164249000Y-100320197D01*
X164249000Y-99679803D01*
X164373934Y-99051719D01*
X164373934Y-99051718D01*
X164619001Y-98460074D01*
X164974784Y-97927608D01*
X165427608Y-97474784D01*
X165960074Y-97119001D01*
X166551718Y-96873934D01*
X166865761Y-96811467D01*
X167179803Y-96749000D01*
X167820197Y-96749000D01*
X168134239Y-96811467D01*
X168134239Y-96811467D01*
G37*
G36*
X115741000Y-100901000D02*
G01*
X113939000Y-100901000D01*
X113939000Y-99099000D01*
X115741000Y-99099000D01*
X115741000Y-100901000D01*
X115741000Y-100901000D01*
G37*
G36*
X132730442Y-99105518D02*
G01*
X132796627Y-99112037D01*
X132966466Y-99163557D01*
X133122991Y-99247222D01*
X133125157Y-99249000D01*
X133260186Y-99359814D01*
X133343448Y-99461271D01*
X133372778Y-99497009D01*
X133456443Y-99653534D01*
X133507963Y-99823373D01*
X133525359Y-100000000D01*
X133507963Y-100176627D01*
X133456443Y-100346466D01*
X133372778Y-100502991D01*
X133347602Y-100533668D01*
X133260186Y-100640186D01*
X133158729Y-100723448D01*
X133122991Y-100752778D01*
X132966466Y-100836443D01*
X132796627Y-100887963D01*
X132730443Y-100894481D01*
X132664260Y-100901000D01*
X132575740Y-100901000D01*
X132509557Y-100894481D01*
X132443373Y-100887963D01*
X132273534Y-100836443D01*
X132117009Y-100752778D01*
X132081271Y-100723448D01*
X131979814Y-100640186D01*
X131892398Y-100533668D01*
X131867222Y-100502991D01*
X131783557Y-100346466D01*
X131732037Y-100176627D01*
X131714641Y-100000000D01*
X131732037Y-99823373D01*
X131783557Y-99653534D01*
X131867222Y-99497009D01*
X131896552Y-99461271D01*
X131979814Y-99359814D01*
X132114843Y-99249000D01*
X132117009Y-99247222D01*
X132273534Y-99163557D01*
X132443373Y-99112037D01*
X132509558Y-99105518D01*
X132575740Y-99099000D01*
X132664260Y-99099000D01*
X132730442Y-99105518D01*
X132730442Y-99105518D01*
G37*
G36*
X130190442Y-99105518D02*
G01*
X130256627Y-99112037D01*
X130426466Y-99163557D01*
X130582991Y-99247222D01*
X130585157Y-99249000D01*
X130720186Y-99359814D01*
X130803448Y-99461271D01*
X130832778Y-99497009D01*
X130916443Y-99653534D01*
X130967963Y-99823373D01*
X130985359Y-100000000D01*
X130967963Y-100176627D01*
X130916443Y-100346466D01*
X130832778Y-100502991D01*
X130807602Y-100533668D01*
X130720186Y-100640186D01*
X130618729Y-100723448D01*
X130582991Y-100752778D01*
X130426466Y-100836443D01*
X130256627Y-100887963D01*
X130190443Y-100894481D01*
X130124260Y-100901000D01*
X130035740Y-100901000D01*
X129969557Y-100894481D01*
X129903373Y-100887963D01*
X129733534Y-100836443D01*
X129577009Y-100752778D01*
X129541271Y-100723448D01*
X129439814Y-100640186D01*
X129352398Y-100533668D01*
X129327222Y-100502991D01*
X129243557Y-100346466D01*
X129192037Y-100176627D01*
X129174641Y-100000000D01*
X129192037Y-99823373D01*
X129243557Y-99653534D01*
X129327222Y-99497009D01*
X129356552Y-99461271D01*
X129439814Y-99359814D01*
X129574843Y-99249000D01*
X129577009Y-99247222D01*
X129733534Y-99163557D01*
X129903373Y-99112037D01*
X129969558Y-99105518D01*
X130035740Y-99099000D01*
X130124260Y-99099000D01*
X130190442Y-99105518D01*
X130190442Y-99105518D01*
G37*
G36*
X127650442Y-99105518D02*
G01*
X127716627Y-99112037D01*
X127886466Y-99163557D01*
X128042991Y-99247222D01*
X128045157Y-99249000D01*
X128180186Y-99359814D01*
X128263448Y-99461271D01*
X128292778Y-99497009D01*
X128376443Y-99653534D01*
X128427963Y-99823373D01*
X128445359Y-100000000D01*
X128427963Y-100176627D01*
X128376443Y-100346466D01*
X128292778Y-100502991D01*
X128267602Y-100533668D01*
X128180186Y-100640186D01*
X128078729Y-100723448D01*
X128042991Y-100752778D01*
X127886466Y-100836443D01*
X127716627Y-100887963D01*
X127650443Y-100894481D01*
X127584260Y-100901000D01*
X127495740Y-100901000D01*
X127429557Y-100894481D01*
X127363373Y-100887963D01*
X127193534Y-100836443D01*
X127037009Y-100752778D01*
X127001271Y-100723448D01*
X126899814Y-100640186D01*
X126812398Y-100533668D01*
X126787222Y-100502991D01*
X126703557Y-100346466D01*
X126652037Y-100176627D01*
X126634641Y-100000000D01*
X126652037Y-99823373D01*
X126703557Y-99653534D01*
X126787222Y-99497009D01*
X126816552Y-99461271D01*
X126899814Y-99359814D01*
X127034843Y-99249000D01*
X127037009Y-99247222D01*
X127193534Y-99163557D01*
X127363373Y-99112037D01*
X127429558Y-99105518D01*
X127495740Y-99099000D01*
X127584260Y-99099000D01*
X127650442Y-99105518D01*
X127650442Y-99105518D01*
G37*
G36*
X125110442Y-99105518D02*
G01*
X125176627Y-99112037D01*
X125346466Y-99163557D01*
X125502991Y-99247222D01*
X125505157Y-99249000D01*
X125640186Y-99359814D01*
X125723448Y-99461271D01*
X125752778Y-99497009D01*
X125836443Y-99653534D01*
X125887963Y-99823373D01*
X125905359Y-100000000D01*
X125887963Y-100176627D01*
X125836443Y-100346466D01*
X125752778Y-100502991D01*
X125727602Y-100533668D01*
X125640186Y-100640186D01*
X125538729Y-100723448D01*
X125502991Y-100752778D01*
X125346466Y-100836443D01*
X125176627Y-100887963D01*
X125110443Y-100894481D01*
X125044260Y-100901000D01*
X124955740Y-100901000D01*
X124889557Y-100894481D01*
X124823373Y-100887963D01*
X124653534Y-100836443D01*
X124497009Y-100752778D01*
X124461271Y-100723448D01*
X124359814Y-100640186D01*
X124272398Y-100533668D01*
X124247222Y-100502991D01*
X124163557Y-100346466D01*
X124112037Y-100176627D01*
X124094641Y-100000000D01*
X124112037Y-99823373D01*
X124163557Y-99653534D01*
X124247222Y-99497009D01*
X124276552Y-99461271D01*
X124359814Y-99359814D01*
X124494843Y-99249000D01*
X124497009Y-99247222D01*
X124653534Y-99163557D01*
X124823373Y-99112037D01*
X124889558Y-99105518D01*
X124955740Y-99099000D01*
X125044260Y-99099000D01*
X125110442Y-99105518D01*
X125110442Y-99105518D01*
G37*
G36*
X122570442Y-99105518D02*
G01*
X122636627Y-99112037D01*
X122806466Y-99163557D01*
X122962991Y-99247222D01*
X122965157Y-99249000D01*
X123100186Y-99359814D01*
X123183448Y-99461271D01*
X123212778Y-99497009D01*
X123296443Y-99653534D01*
X123347963Y-99823373D01*
X123365359Y-100000000D01*
X123347963Y-100176627D01*
X123296443Y-100346466D01*
X123212778Y-100502991D01*
X123187602Y-100533668D01*
X123100186Y-100640186D01*
X122998729Y-100723448D01*
X122962991Y-100752778D01*
X122806466Y-100836443D01*
X122636627Y-100887963D01*
X122570443Y-100894481D01*
X122504260Y-100901000D01*
X122415740Y-100901000D01*
X122349557Y-100894481D01*
X122283373Y-100887963D01*
X122113534Y-100836443D01*
X121957009Y-100752778D01*
X121921271Y-100723448D01*
X121819814Y-100640186D01*
X121732398Y-100533668D01*
X121707222Y-100502991D01*
X121623557Y-100346466D01*
X121572037Y-100176627D01*
X121554641Y-100000000D01*
X121572037Y-99823373D01*
X121623557Y-99653534D01*
X121707222Y-99497009D01*
X121736552Y-99461271D01*
X121819814Y-99359814D01*
X121954843Y-99249000D01*
X121957009Y-99247222D01*
X122113534Y-99163557D01*
X122283373Y-99112037D01*
X122349558Y-99105518D01*
X122415740Y-99099000D01*
X122504260Y-99099000D01*
X122570442Y-99105518D01*
X122570442Y-99105518D01*
G37*
G36*
X120030442Y-99105518D02*
G01*
X120096627Y-99112037D01*
X120266466Y-99163557D01*
X120422991Y-99247222D01*
X120425157Y-99249000D01*
X120560186Y-99359814D01*
X120643448Y-99461271D01*
X120672778Y-99497009D01*
X120756443Y-99653534D01*
X120807963Y-99823373D01*
X120825359Y-100000000D01*
X120807963Y-100176627D01*
X120756443Y-100346466D01*
X120672778Y-100502991D01*
X120647602Y-100533668D01*
X120560186Y-100640186D01*
X120458729Y-100723448D01*
X120422991Y-100752778D01*
X120266466Y-100836443D01*
X120096627Y-100887963D01*
X120030443Y-100894481D01*
X119964260Y-100901000D01*
X119875740Y-100901000D01*
X119809557Y-100894481D01*
X119743373Y-100887963D01*
X119573534Y-100836443D01*
X119417009Y-100752778D01*
X119381271Y-100723448D01*
X119279814Y-100640186D01*
X119192398Y-100533668D01*
X119167222Y-100502991D01*
X119083557Y-100346466D01*
X119032037Y-100176627D01*
X119014641Y-100000000D01*
X119032037Y-99823373D01*
X119083557Y-99653534D01*
X119167222Y-99497009D01*
X119196552Y-99461271D01*
X119279814Y-99359814D01*
X119414843Y-99249000D01*
X119417009Y-99247222D01*
X119573534Y-99163557D01*
X119743373Y-99112037D01*
X119809558Y-99105518D01*
X119875740Y-99099000D01*
X119964260Y-99099000D01*
X120030442Y-99105518D01*
X120030442Y-99105518D01*
G37*
G36*
X117490442Y-99105518D02*
G01*
X117556627Y-99112037D01*
X117726466Y-99163557D01*
X117882991Y-99247222D01*
X117885157Y-99249000D01*
X118020186Y-99359814D01*
X118103448Y-99461271D01*
X118132778Y-99497009D01*
X118216443Y-99653534D01*
X118267963Y-99823373D01*
X118285359Y-100000000D01*
X118267963Y-100176627D01*
X118216443Y-100346466D01*
X118132778Y-100502991D01*
X118107602Y-100533668D01*
X118020186Y-100640186D01*
X117918729Y-100723448D01*
X117882991Y-100752778D01*
X117726466Y-100836443D01*
X117556627Y-100887963D01*
X117490443Y-100894481D01*
X117424260Y-100901000D01*
X117335740Y-100901000D01*
X117269557Y-100894481D01*
X117203373Y-100887963D01*
X117033534Y-100836443D01*
X116877009Y-100752778D01*
X116841271Y-100723448D01*
X116739814Y-100640186D01*
X116652398Y-100533668D01*
X116627222Y-100502991D01*
X116543557Y-100346466D01*
X116492037Y-100176627D01*
X116474641Y-100000000D01*
X116492037Y-99823373D01*
X116543557Y-99653534D01*
X116627222Y-99497009D01*
X116656552Y-99461271D01*
X116739814Y-99359814D01*
X116874843Y-99249000D01*
X116877009Y-99247222D01*
X117033534Y-99163557D01*
X117203373Y-99112037D01*
X117269558Y-99105518D01*
X117335740Y-99099000D01*
X117424260Y-99099000D01*
X117490442Y-99105518D01*
X117490442Y-99105518D01*
G37*
G36*
X140073665Y-96872622D02*
G01*
X140147222Y-96879867D01*
X140288786Y-96922810D01*
X140419252Y-96992546D01*
X140449040Y-97016992D01*
X140533607Y-97086393D01*
X140603008Y-97170960D01*
X140627454Y-97200748D01*
X140697190Y-97331214D01*
X140740133Y-97472778D01*
X140754633Y-97620000D01*
X140740133Y-97767222D01*
X140697190Y-97908786D01*
X140627454Y-98039252D01*
X140603008Y-98069040D01*
X140533607Y-98153607D01*
X140449040Y-98223008D01*
X140419252Y-98247454D01*
X140288786Y-98317190D01*
X140147222Y-98360133D01*
X140073665Y-98367378D01*
X140036888Y-98371000D01*
X139963112Y-98371000D01*
X139926335Y-98367378D01*
X139852778Y-98360133D01*
X139711214Y-98317190D01*
X139580748Y-98247454D01*
X139550960Y-98223008D01*
X139466393Y-98153607D01*
X139396992Y-98069040D01*
X139372546Y-98039252D01*
X139302810Y-97908786D01*
X139259867Y-97767222D01*
X139245367Y-97620000D01*
X139259867Y-97472778D01*
X139302810Y-97331214D01*
X139372546Y-97200748D01*
X139396992Y-97170960D01*
X139466393Y-97086393D01*
X139550960Y-97016992D01*
X139580748Y-96992546D01*
X139711214Y-96922810D01*
X139852778Y-96879867D01*
X139926335Y-96872622D01*
X139963112Y-96869000D01*
X140036888Y-96869000D01*
X140073665Y-96872622D01*
X140073665Y-96872622D01*
G37*
G36*
X90073665Y-94372622D02*
G01*
X90147222Y-94379867D01*
X90288786Y-94422810D01*
X90419252Y-94492546D01*
X90449040Y-94516992D01*
X90533607Y-94586393D01*
X90581104Y-94644270D01*
X90627454Y-94700748D01*
X90697190Y-94831214D01*
X90740133Y-94972778D01*
X90754633Y-95120000D01*
X90740133Y-95267222D01*
X90697190Y-95408786D01*
X90627454Y-95539252D01*
X90603008Y-95569040D01*
X90533607Y-95653607D01*
X90450097Y-95722140D01*
X90419252Y-95747454D01*
X90288786Y-95817190D01*
X90147222Y-95860133D01*
X90073665Y-95867378D01*
X90036888Y-95871000D01*
X89963112Y-95871000D01*
X89926335Y-95867378D01*
X89852778Y-95860133D01*
X89711214Y-95817190D01*
X89580748Y-95747454D01*
X89549903Y-95722140D01*
X89466393Y-95653607D01*
X89396992Y-95569040D01*
X89372546Y-95539252D01*
X89302810Y-95408786D01*
X89259867Y-95267222D01*
X89245367Y-95120000D01*
X89259867Y-94972778D01*
X89302810Y-94831214D01*
X89372546Y-94700748D01*
X89418896Y-94644270D01*
X89466393Y-94586393D01*
X89550960Y-94516992D01*
X89580748Y-94492546D01*
X89711214Y-94422810D01*
X89852778Y-94379867D01*
X89926335Y-94372622D01*
X89963112Y-94369000D01*
X90036888Y-94369000D01*
X90073665Y-94372622D01*
X90073665Y-94372622D01*
G37*
G36*
X82719059Y-94277860D02*
G01*
X82855732Y-94334472D01*
X82978735Y-94416660D01*
X83083340Y-94521265D01*
X83165528Y-94644268D01*
X83222140Y-94780941D01*
X83251000Y-94926033D01*
X83251000Y-95073967D01*
X83222140Y-95219059D01*
X83165528Y-95355732D01*
X83083340Y-95478735D01*
X82978735Y-95583340D01*
X82855732Y-95665528D01*
X82855731Y-95665529D01*
X82855730Y-95665529D01*
X82719059Y-95722140D01*
X82573968Y-95751000D01*
X82426032Y-95751000D01*
X82280941Y-95722140D01*
X82144270Y-95665529D01*
X82144269Y-95665529D01*
X82144268Y-95665528D01*
X82021265Y-95583340D01*
X81916660Y-95478735D01*
X81834472Y-95355732D01*
X81777860Y-95219059D01*
X81749000Y-95073967D01*
X81749000Y-94926033D01*
X81777860Y-94780941D01*
X81834472Y-94644268D01*
X81916660Y-94521265D01*
X82021265Y-94416660D01*
X82144268Y-94334472D01*
X82280941Y-94277860D01*
X82426032Y-94249000D01*
X82573968Y-94249000D01*
X82719059Y-94277860D01*
X82719059Y-94277860D01*
G37*
G36*
X170901000Y-93641000D02*
G01*
X169099000Y-93641000D01*
X169099000Y-91839000D01*
X170901000Y-91839000D01*
X170901000Y-93641000D01*
X170901000Y-93641000D01*
G37*
G36*
X170110443Y-89305519D02*
G01*
X170176627Y-89312037D01*
X170346466Y-89363557D01*
X170502991Y-89447222D01*
X170515539Y-89457520D01*
X170640186Y-89559814D01*
X170709496Y-89644270D01*
X170752778Y-89697009D01*
X170836443Y-89853534D01*
X170887963Y-90023373D01*
X170905359Y-90200000D01*
X170887963Y-90376627D01*
X170836443Y-90546466D01*
X170752778Y-90702991D01*
X170734995Y-90724659D01*
X170640186Y-90840186D01*
X170538729Y-90923448D01*
X170502991Y-90952778D01*
X170346466Y-91036443D01*
X170176627Y-91087963D01*
X170110443Y-91094481D01*
X170044260Y-91101000D01*
X169955740Y-91101000D01*
X169889557Y-91094481D01*
X169823373Y-91087963D01*
X169653534Y-91036443D01*
X169497009Y-90952778D01*
X169461271Y-90923448D01*
X169359814Y-90840186D01*
X169265005Y-90724659D01*
X169247222Y-90702991D01*
X169163557Y-90546466D01*
X169112037Y-90376627D01*
X169094641Y-90200000D01*
X169112037Y-90023373D01*
X169163557Y-89853534D01*
X169247222Y-89697009D01*
X169290504Y-89644270D01*
X169359814Y-89559814D01*
X169484461Y-89457520D01*
X169497009Y-89447222D01*
X169653534Y-89363557D01*
X169823373Y-89312037D01*
X169889557Y-89305519D01*
X169955740Y-89299000D01*
X170044260Y-89299000D01*
X170110443Y-89305519D01*
X170110443Y-89305519D01*
G37*
G36*
X160686823Y-89401313D02*
G01*
X160817380Y-89440917D01*
X160838164Y-89447222D01*
X160847242Y-89449976D01*
X160969531Y-89515341D01*
X160995078Y-89528996D01*
X161124659Y-89635341D01*
X161231004Y-89764922D01*
X161231005Y-89764924D01*
X161310024Y-89912758D01*
X161358687Y-90073177D01*
X161375117Y-90240000D01*
X161358687Y-90406823D01*
X161310024Y-90567242D01*
X161295146Y-90595076D01*
X161231004Y-90715078D01*
X161124659Y-90844659D01*
X160995078Y-90951004D01*
X160995076Y-90951005D01*
X160847242Y-91030024D01*
X160686823Y-91078687D01*
X160561804Y-91091000D01*
X159678196Y-91091000D01*
X159553177Y-91078687D01*
X159392758Y-91030024D01*
X159244924Y-90951005D01*
X159244922Y-90951004D01*
X159115341Y-90844659D01*
X159008996Y-90715078D01*
X158944854Y-90595076D01*
X158929976Y-90567242D01*
X158881313Y-90406823D01*
X158864883Y-90240000D01*
X158881313Y-90073177D01*
X158929976Y-89912758D01*
X159008995Y-89764924D01*
X159008996Y-89764922D01*
X159115341Y-89635341D01*
X159244922Y-89528996D01*
X159270469Y-89515341D01*
X159392758Y-89449976D01*
X159401837Y-89447222D01*
X159422620Y-89440917D01*
X159553177Y-89401313D01*
X159678196Y-89389000D01*
X160561804Y-89389000D01*
X160686823Y-89401313D01*
X160686823Y-89401313D01*
G37*
G36*
X153066823Y-89401313D02*
G01*
X153197380Y-89440917D01*
X153218164Y-89447222D01*
X153227242Y-89449976D01*
X153349531Y-89515341D01*
X153375078Y-89528996D01*
X153504659Y-89635341D01*
X153611004Y-89764922D01*
X153611005Y-89764924D01*
X153690024Y-89912758D01*
X153738687Y-90073177D01*
X153755117Y-90240000D01*
X153738687Y-90406823D01*
X153690024Y-90567242D01*
X153675146Y-90595076D01*
X153611004Y-90715078D01*
X153504659Y-90844659D01*
X153375078Y-90951004D01*
X153375076Y-90951005D01*
X153227242Y-91030024D01*
X153066823Y-91078687D01*
X152941804Y-91091000D01*
X152058196Y-91091000D01*
X151933177Y-91078687D01*
X151772758Y-91030024D01*
X151624924Y-90951005D01*
X151624922Y-90951004D01*
X151495341Y-90844659D01*
X151388996Y-90715078D01*
X151324854Y-90595076D01*
X151309976Y-90567242D01*
X151261313Y-90406823D01*
X151244883Y-90240000D01*
X151261313Y-90073177D01*
X151309976Y-89912758D01*
X151388995Y-89764924D01*
X151388996Y-89764922D01*
X151495341Y-89635341D01*
X151624922Y-89528996D01*
X151650469Y-89515341D01*
X151772758Y-89449976D01*
X151781837Y-89447222D01*
X151802620Y-89440917D01*
X151933177Y-89401313D01*
X152058196Y-89389000D01*
X152941804Y-89389000D01*
X153066823Y-89401313D01*
X153066823Y-89401313D01*
G37*
G36*
X128186823Y-89281313D02*
G01*
X128347242Y-89329976D01*
X128410069Y-89363558D01*
X128495078Y-89408996D01*
X128624659Y-89515341D01*
X128731004Y-89644922D01*
X128731005Y-89644924D01*
X128810024Y-89792758D01*
X128858687Y-89953177D01*
X128875117Y-90120000D01*
X128858687Y-90286823D01*
X128810024Y-90447242D01*
X128745884Y-90567239D01*
X128731004Y-90595078D01*
X128624659Y-90724659D01*
X128495078Y-90831004D01*
X128495076Y-90831005D01*
X128347242Y-90910024D01*
X128186823Y-90958687D01*
X128061804Y-90971000D01*
X127178196Y-90971000D01*
X127053177Y-90958687D01*
X126892758Y-90910024D01*
X126744924Y-90831005D01*
X126744922Y-90831004D01*
X126615341Y-90724659D01*
X126508996Y-90595078D01*
X126494116Y-90567239D01*
X126429976Y-90447242D01*
X126381313Y-90286823D01*
X126364883Y-90120000D01*
X126381313Y-89953177D01*
X126429976Y-89792758D01*
X126508995Y-89644924D01*
X126508996Y-89644922D01*
X126615341Y-89515341D01*
X126744922Y-89408996D01*
X126829931Y-89363558D01*
X126892758Y-89329976D01*
X127053177Y-89281313D01*
X127178196Y-89269000D01*
X128061804Y-89269000D01*
X128186823Y-89281313D01*
X128186823Y-89281313D01*
G37*
G36*
X105566823Y-89281313D02*
G01*
X105727242Y-89329976D01*
X105790069Y-89363558D01*
X105875078Y-89408996D01*
X106004659Y-89515341D01*
X106111004Y-89644922D01*
X106111005Y-89644924D01*
X106190024Y-89792758D01*
X106238687Y-89953177D01*
X106255117Y-90120000D01*
X106238687Y-90286823D01*
X106190024Y-90447242D01*
X106125884Y-90567239D01*
X106111004Y-90595078D01*
X106004659Y-90724659D01*
X105875078Y-90831004D01*
X105875076Y-90831005D01*
X105727242Y-90910024D01*
X105566823Y-90958687D01*
X105441804Y-90971000D01*
X104558196Y-90971000D01*
X104433177Y-90958687D01*
X104272758Y-90910024D01*
X104124924Y-90831005D01*
X104124922Y-90831004D01*
X103995341Y-90724659D01*
X103888996Y-90595078D01*
X103874116Y-90567239D01*
X103809976Y-90447242D01*
X103761313Y-90286823D01*
X103744883Y-90120000D01*
X103761313Y-89953177D01*
X103809976Y-89792758D01*
X103888995Y-89644924D01*
X103888996Y-89644922D01*
X103995341Y-89515341D01*
X104124922Y-89408996D01*
X104209931Y-89363558D01*
X104272758Y-89329976D01*
X104433177Y-89281313D01*
X104558196Y-89269000D01*
X105441804Y-89269000D01*
X105566823Y-89281313D01*
X105566823Y-89281313D01*
G37*
G36*
X113186823Y-89281313D02*
G01*
X113347242Y-89329976D01*
X113410069Y-89363558D01*
X113495078Y-89408996D01*
X113624659Y-89515341D01*
X113731004Y-89644922D01*
X113731005Y-89644924D01*
X113810024Y-89792758D01*
X113858687Y-89953177D01*
X113875117Y-90120000D01*
X113858687Y-90286823D01*
X113810024Y-90447242D01*
X113745884Y-90567239D01*
X113731004Y-90595078D01*
X113624659Y-90724659D01*
X113495078Y-90831004D01*
X113495076Y-90831005D01*
X113347242Y-90910024D01*
X113186823Y-90958687D01*
X113061804Y-90971000D01*
X112178196Y-90971000D01*
X112053177Y-90958687D01*
X111892758Y-90910024D01*
X111744924Y-90831005D01*
X111744922Y-90831004D01*
X111615341Y-90724659D01*
X111508996Y-90595078D01*
X111494116Y-90567239D01*
X111429976Y-90447242D01*
X111381313Y-90286823D01*
X111364883Y-90120000D01*
X111381313Y-89953177D01*
X111429976Y-89792758D01*
X111508995Y-89644924D01*
X111508996Y-89644922D01*
X111615341Y-89515341D01*
X111744922Y-89408996D01*
X111829931Y-89363558D01*
X111892758Y-89329976D01*
X112053177Y-89281313D01*
X112178196Y-89269000D01*
X113061804Y-89269000D01*
X113186823Y-89281313D01*
X113186823Y-89281313D01*
G37*
G36*
X120566823Y-89281313D02*
G01*
X120727242Y-89329976D01*
X120790069Y-89363558D01*
X120875078Y-89408996D01*
X121004659Y-89515341D01*
X121111004Y-89644922D01*
X121111005Y-89644924D01*
X121190024Y-89792758D01*
X121238687Y-89953177D01*
X121255117Y-90120000D01*
X121238687Y-90286823D01*
X121190024Y-90447242D01*
X121125884Y-90567239D01*
X121111004Y-90595078D01*
X121004659Y-90724659D01*
X120875078Y-90831004D01*
X120875076Y-90831005D01*
X120727242Y-90910024D01*
X120566823Y-90958687D01*
X120441804Y-90971000D01*
X119558196Y-90971000D01*
X119433177Y-90958687D01*
X119272758Y-90910024D01*
X119124924Y-90831005D01*
X119124922Y-90831004D01*
X118995341Y-90724659D01*
X118888996Y-90595078D01*
X118874116Y-90567239D01*
X118809976Y-90447242D01*
X118761313Y-90286823D01*
X118744883Y-90120000D01*
X118761313Y-89953177D01*
X118809976Y-89792758D01*
X118888995Y-89644924D01*
X118888996Y-89644922D01*
X118995341Y-89515341D01*
X119124922Y-89408996D01*
X119209931Y-89363558D01*
X119272758Y-89329976D01*
X119433177Y-89281313D01*
X119558196Y-89269000D01*
X120441804Y-89269000D01*
X120566823Y-89281313D01*
X120566823Y-89281313D01*
G37*
G36*
X132748228Y-89181703D02*
G01*
X132903100Y-89245853D01*
X133042481Y-89338985D01*
X133161015Y-89457519D01*
X133254147Y-89596900D01*
X133318297Y-89751772D01*
X133351000Y-89916184D01*
X133351000Y-90083816D01*
X133318297Y-90248228D01*
X133254147Y-90403100D01*
X133161015Y-90542481D01*
X133042481Y-90661015D01*
X132903100Y-90754147D01*
X132748228Y-90818297D01*
X132583816Y-90851000D01*
X132416184Y-90851000D01*
X132251772Y-90818297D01*
X132096900Y-90754147D01*
X131957519Y-90661015D01*
X131838985Y-90542481D01*
X131745853Y-90403100D01*
X131681703Y-90248228D01*
X131649000Y-90083816D01*
X131649000Y-89916184D01*
X131681703Y-89751772D01*
X131745853Y-89596900D01*
X131838985Y-89457519D01*
X131957519Y-89338985D01*
X132096900Y-89245853D01*
X132251772Y-89181703D01*
X132416184Y-89149000D01*
X132583816Y-89149000D01*
X132748228Y-89181703D01*
X132748228Y-89181703D01*
G37*
G36*
X140219059Y-89277860D02*
G01*
X140344876Y-89329975D01*
X140355732Y-89334472D01*
X140478735Y-89416660D01*
X140583340Y-89521265D01*
X140659563Y-89635341D01*
X140665529Y-89644270D01*
X140722140Y-89780941D01*
X140748360Y-89912758D01*
X140751000Y-89926033D01*
X140751000Y-90073967D01*
X140722140Y-90219059D01*
X140665528Y-90355732D01*
X140583340Y-90478735D01*
X140478735Y-90583340D01*
X140355732Y-90665528D01*
X140355731Y-90665529D01*
X140355730Y-90665529D01*
X140219059Y-90722140D01*
X140073968Y-90751000D01*
X139926032Y-90751000D01*
X139780941Y-90722140D01*
X139644270Y-90665529D01*
X139644269Y-90665529D01*
X139644268Y-90665528D01*
X139521265Y-90583340D01*
X139416660Y-90478735D01*
X139334472Y-90355732D01*
X139277860Y-90219059D01*
X139249000Y-90073967D01*
X139249000Y-89926033D01*
X139251641Y-89912758D01*
X139277860Y-89780941D01*
X139334471Y-89644270D01*
X139340437Y-89635341D01*
X139416660Y-89521265D01*
X139521265Y-89416660D01*
X139644268Y-89334472D01*
X139655125Y-89329975D01*
X139780941Y-89277860D01*
X139926032Y-89249000D01*
X140073968Y-89249000D01*
X140219059Y-89277860D01*
X140219059Y-89277860D01*
G37*
G36*
X170110443Y-86765519D02*
G01*
X170176627Y-86772037D01*
X170346466Y-86823557D01*
X170502991Y-86907222D01*
X170514491Y-86916660D01*
X170640186Y-87019814D01*
X170702168Y-87095341D01*
X170752778Y-87157009D01*
X170836443Y-87313534D01*
X170887963Y-87483373D01*
X170905359Y-87660000D01*
X170887963Y-87836627D01*
X170836443Y-88006466D01*
X170752778Y-88162991D01*
X170750695Y-88165529D01*
X170640186Y-88300186D01*
X170538729Y-88383448D01*
X170502991Y-88412778D01*
X170346466Y-88496443D01*
X170176627Y-88547963D01*
X170110442Y-88554482D01*
X170044260Y-88561000D01*
X169955740Y-88561000D01*
X169889558Y-88554482D01*
X169823373Y-88547963D01*
X169653534Y-88496443D01*
X169497009Y-88412778D01*
X169461271Y-88383448D01*
X169359814Y-88300186D01*
X169249305Y-88165529D01*
X169247222Y-88162991D01*
X169163557Y-88006466D01*
X169112037Y-87836627D01*
X169094641Y-87660000D01*
X169112037Y-87483373D01*
X169163557Y-87313534D01*
X169247222Y-87157009D01*
X169297832Y-87095341D01*
X169359814Y-87019814D01*
X169485509Y-86916660D01*
X169497009Y-86907222D01*
X169653534Y-86823557D01*
X169823373Y-86772037D01*
X169889557Y-86765519D01*
X169955740Y-86759000D01*
X170044260Y-86759000D01*
X170110443Y-86765519D01*
X170110443Y-86765519D01*
G37*
G36*
X153066823Y-86861313D02*
G01*
X153197380Y-86900917D01*
X153218164Y-86907222D01*
X153227242Y-86909976D01*
X153322233Y-86960750D01*
X153375078Y-86988996D01*
X153504659Y-87095341D01*
X153611004Y-87224922D01*
X153611005Y-87224924D01*
X153690024Y-87372758D01*
X153738687Y-87533177D01*
X153755117Y-87700000D01*
X153738687Y-87866823D01*
X153690024Y-88027242D01*
X153634564Y-88131000D01*
X153611004Y-88175078D01*
X153504659Y-88304659D01*
X153375078Y-88411004D01*
X153375076Y-88411005D01*
X153227242Y-88490024D01*
X153066823Y-88538687D01*
X152941804Y-88551000D01*
X152058196Y-88551000D01*
X151933177Y-88538687D01*
X151772758Y-88490024D01*
X151624924Y-88411005D01*
X151624922Y-88411004D01*
X151495341Y-88304659D01*
X151388996Y-88175078D01*
X151365436Y-88131000D01*
X151309976Y-88027242D01*
X151261313Y-87866823D01*
X151244883Y-87700000D01*
X151261313Y-87533177D01*
X151309976Y-87372758D01*
X151388995Y-87224924D01*
X151388996Y-87224922D01*
X151495341Y-87095341D01*
X151624922Y-86988996D01*
X151677767Y-86960750D01*
X151772758Y-86909976D01*
X151781837Y-86907222D01*
X151802620Y-86900917D01*
X151933177Y-86861313D01*
X152058196Y-86849000D01*
X152941804Y-86849000D01*
X153066823Y-86861313D01*
X153066823Y-86861313D01*
G37*
G36*
X160686823Y-86861313D02*
G01*
X160817380Y-86900917D01*
X160838164Y-86907222D01*
X160847242Y-86909976D01*
X160942233Y-86960750D01*
X160995078Y-86988996D01*
X161124659Y-87095341D01*
X161231004Y-87224922D01*
X161231005Y-87224924D01*
X161310024Y-87372758D01*
X161358687Y-87533177D01*
X161375117Y-87700000D01*
X161358687Y-87866823D01*
X161310024Y-88027242D01*
X161254564Y-88131000D01*
X161231004Y-88175078D01*
X161124659Y-88304659D01*
X160995078Y-88411004D01*
X160995076Y-88411005D01*
X160847242Y-88490024D01*
X160686823Y-88538687D01*
X160561804Y-88551000D01*
X159678196Y-88551000D01*
X159553177Y-88538687D01*
X159392758Y-88490024D01*
X159244924Y-88411005D01*
X159244922Y-88411004D01*
X159115341Y-88304659D01*
X159008996Y-88175078D01*
X158985436Y-88131000D01*
X158929976Y-88027242D01*
X158881313Y-87866823D01*
X158864883Y-87700000D01*
X158881313Y-87533177D01*
X158929976Y-87372758D01*
X159008995Y-87224924D01*
X159008996Y-87224922D01*
X159115341Y-87095341D01*
X159244922Y-86988996D01*
X159297767Y-86960750D01*
X159392758Y-86909976D01*
X159401837Y-86907222D01*
X159422620Y-86900917D01*
X159553177Y-86861313D01*
X159678196Y-86849000D01*
X160561804Y-86849000D01*
X160686823Y-86861313D01*
X160686823Y-86861313D01*
G37*
G36*
X128186823Y-86741313D02*
G01*
X128347242Y-86789976D01*
X128457668Y-86849000D01*
X128495078Y-86868996D01*
X128624659Y-86975341D01*
X128731004Y-87104922D01*
X128731005Y-87104924D01*
X128810024Y-87252758D01*
X128858687Y-87413177D01*
X128875117Y-87580000D01*
X128858687Y-87746823D01*
X128810024Y-87907242D01*
X128756459Y-88007455D01*
X128731004Y-88055078D01*
X128624659Y-88184659D01*
X128495078Y-88291004D01*
X128495076Y-88291005D01*
X128347242Y-88370024D01*
X128186823Y-88418687D01*
X128061804Y-88431000D01*
X127178196Y-88431000D01*
X127053177Y-88418687D01*
X126892758Y-88370024D01*
X126744924Y-88291005D01*
X126744922Y-88291004D01*
X126615341Y-88184659D01*
X126508996Y-88055078D01*
X126483541Y-88007455D01*
X126429976Y-87907242D01*
X126381313Y-87746823D01*
X126364883Y-87580000D01*
X126381313Y-87413177D01*
X126429976Y-87252758D01*
X126508995Y-87104924D01*
X126508996Y-87104922D01*
X126615341Y-86975341D01*
X126744922Y-86868996D01*
X126782332Y-86849000D01*
X126892758Y-86789976D01*
X127053177Y-86741313D01*
X127178196Y-86729000D01*
X128061804Y-86729000D01*
X128186823Y-86741313D01*
X128186823Y-86741313D01*
G37*
G36*
X105566823Y-86741313D02*
G01*
X105727242Y-86789976D01*
X105837668Y-86849000D01*
X105875078Y-86868996D01*
X106004659Y-86975341D01*
X106111004Y-87104922D01*
X106111005Y-87104924D01*
X106190024Y-87252758D01*
X106238687Y-87413177D01*
X106255117Y-87580000D01*
X106238687Y-87746823D01*
X106190024Y-87907242D01*
X106136459Y-88007455D01*
X106111004Y-88055078D01*
X106004659Y-88184659D01*
X105875078Y-88291004D01*
X105875076Y-88291005D01*
X105727242Y-88370024D01*
X105566823Y-88418687D01*
X105441804Y-88431000D01*
X104558196Y-88431000D01*
X104433177Y-88418687D01*
X104272758Y-88370024D01*
X104124924Y-88291005D01*
X104124922Y-88291004D01*
X103995341Y-88184659D01*
X103888996Y-88055078D01*
X103863541Y-88007455D01*
X103809976Y-87907242D01*
X103761313Y-87746823D01*
X103744883Y-87580000D01*
X103761313Y-87413177D01*
X103809976Y-87252758D01*
X103888995Y-87104924D01*
X103888996Y-87104922D01*
X103995341Y-86975341D01*
X104124922Y-86868996D01*
X104162332Y-86849000D01*
X104272758Y-86789976D01*
X104433177Y-86741313D01*
X104558196Y-86729000D01*
X105441804Y-86729000D01*
X105566823Y-86741313D01*
X105566823Y-86741313D01*
G37*
G36*
X113186823Y-86741313D02*
G01*
X113347242Y-86789976D01*
X113457668Y-86849000D01*
X113495078Y-86868996D01*
X113624659Y-86975341D01*
X113731004Y-87104922D01*
X113731005Y-87104924D01*
X113810024Y-87252758D01*
X113858687Y-87413177D01*
X113875117Y-87580000D01*
X113858687Y-87746823D01*
X113810024Y-87907242D01*
X113756459Y-88007455D01*
X113731004Y-88055078D01*
X113624659Y-88184659D01*
X113495078Y-88291004D01*
X113495076Y-88291005D01*
X113347242Y-88370024D01*
X113186823Y-88418687D01*
X113061804Y-88431000D01*
X112178196Y-88431000D01*
X112053177Y-88418687D01*
X111892758Y-88370024D01*
X111744924Y-88291005D01*
X111744922Y-88291004D01*
X111615341Y-88184659D01*
X111508996Y-88055078D01*
X111483541Y-88007455D01*
X111429976Y-87907242D01*
X111381313Y-87746823D01*
X111364883Y-87580000D01*
X111381313Y-87413177D01*
X111429976Y-87252758D01*
X111508995Y-87104924D01*
X111508996Y-87104922D01*
X111615341Y-86975341D01*
X111744922Y-86868996D01*
X111782332Y-86849000D01*
X111892758Y-86789976D01*
X112053177Y-86741313D01*
X112178196Y-86729000D01*
X113061804Y-86729000D01*
X113186823Y-86741313D01*
X113186823Y-86741313D01*
G37*
G36*
X120566823Y-86741313D02*
G01*
X120727242Y-86789976D01*
X120837668Y-86849000D01*
X120875078Y-86868996D01*
X121004659Y-86975341D01*
X121111004Y-87104922D01*
X121111005Y-87104924D01*
X121190024Y-87252758D01*
X121238687Y-87413177D01*
X121255117Y-87580000D01*
X121238687Y-87746823D01*
X121190024Y-87907242D01*
X121136459Y-88007455D01*
X121111004Y-88055078D01*
X121004659Y-88184659D01*
X120875078Y-88291004D01*
X120875076Y-88291005D01*
X120727242Y-88370024D01*
X120566823Y-88418687D01*
X120441804Y-88431000D01*
X119558196Y-88431000D01*
X119433177Y-88418687D01*
X119272758Y-88370024D01*
X119124924Y-88291005D01*
X119124922Y-88291004D01*
X118995341Y-88184659D01*
X118888996Y-88055078D01*
X118863541Y-88007455D01*
X118809976Y-87907242D01*
X118761313Y-87746823D01*
X118744883Y-87580000D01*
X118761313Y-87413177D01*
X118809976Y-87252758D01*
X118888995Y-87104924D01*
X118888996Y-87104922D01*
X118995341Y-86975341D01*
X119124922Y-86868996D01*
X119162332Y-86849000D01*
X119272758Y-86789976D01*
X119433177Y-86741313D01*
X119558196Y-86729000D01*
X120441804Y-86729000D01*
X120566823Y-86741313D01*
X120566823Y-86741313D01*
G37*
G36*
X98401000Y-88401000D02*
G01*
X96599000Y-88401000D01*
X96599000Y-86599000D01*
X98401000Y-86599000D01*
X98401000Y-88401000D01*
X98401000Y-88401000D01*
G37*
G36*
X90219059Y-86777860D02*
G01*
X90329384Y-86823558D01*
X90355732Y-86834472D01*
X90478735Y-86916660D01*
X90583340Y-87021265D01*
X90639239Y-87104924D01*
X90665529Y-87144270D01*
X90722140Y-87280941D01*
X90751000Y-87426032D01*
X90751000Y-87573968D01*
X90722140Y-87719059D01*
X90673443Y-87836625D01*
X90665528Y-87855732D01*
X90583340Y-87978735D01*
X90478735Y-88083340D01*
X90355732Y-88165528D01*
X90355731Y-88165529D01*
X90355730Y-88165529D01*
X90219059Y-88222140D01*
X90073968Y-88251000D01*
X89926032Y-88251000D01*
X89780941Y-88222140D01*
X89644270Y-88165529D01*
X89644269Y-88165529D01*
X89644268Y-88165528D01*
X89521265Y-88083340D01*
X89416660Y-87978735D01*
X89334472Y-87855732D01*
X89326558Y-87836625D01*
X89277860Y-87719059D01*
X89249000Y-87573968D01*
X89249000Y-87426032D01*
X89277860Y-87280941D01*
X89334471Y-87144270D01*
X89360761Y-87104924D01*
X89416660Y-87021265D01*
X89521265Y-86916660D01*
X89644268Y-86834472D01*
X89670617Y-86823558D01*
X89780941Y-86777860D01*
X89926032Y-86749000D01*
X90073968Y-86749000D01*
X90219059Y-86777860D01*
X90219059Y-86777860D01*
G37*
G36*
X82573665Y-86632622D02*
G01*
X82647222Y-86639867D01*
X82788786Y-86682810D01*
X82919252Y-86752546D01*
X82927116Y-86759000D01*
X83033607Y-86846393D01*
X83091271Y-86916659D01*
X83127454Y-86960748D01*
X83197190Y-87091214D01*
X83240133Y-87232778D01*
X83254633Y-87380000D01*
X83240133Y-87527222D01*
X83197190Y-87668786D01*
X83127454Y-87799252D01*
X83103008Y-87829040D01*
X83033607Y-87913607D01*
X82954249Y-87978733D01*
X82919252Y-88007454D01*
X82788786Y-88077190D01*
X82647222Y-88120133D01*
X82573665Y-88127378D01*
X82536888Y-88131000D01*
X82463112Y-88131000D01*
X82426335Y-88127378D01*
X82352778Y-88120133D01*
X82211214Y-88077190D01*
X82080748Y-88007454D01*
X82045751Y-87978733D01*
X81966393Y-87913607D01*
X81896992Y-87829040D01*
X81872546Y-87799252D01*
X81802810Y-87668786D01*
X81759867Y-87527222D01*
X81745367Y-87380000D01*
X81759867Y-87232778D01*
X81802810Y-87091214D01*
X81872546Y-86960748D01*
X81908729Y-86916659D01*
X81966393Y-86846393D01*
X82072884Y-86759000D01*
X82080748Y-86752546D01*
X82211214Y-86682810D01*
X82352778Y-86639867D01*
X82426335Y-86632622D01*
X82463112Y-86629000D01*
X82536888Y-86629000D01*
X82573665Y-86632622D01*
X82573665Y-86632622D01*
G37*
G36*
X170110442Y-84225518D02*
G01*
X170176627Y-84232037D01*
X170346466Y-84283557D01*
X170502991Y-84367222D01*
X170538729Y-84396552D01*
X170640186Y-84479814D01*
X170702168Y-84555341D01*
X170752778Y-84617009D01*
X170836443Y-84773534D01*
X170887963Y-84943373D01*
X170905359Y-85120000D01*
X170887963Y-85296627D01*
X170836443Y-85466466D01*
X170752778Y-85622991D01*
X170742860Y-85635076D01*
X170640186Y-85760186D01*
X170538729Y-85843448D01*
X170502991Y-85872778D01*
X170346466Y-85956443D01*
X170176627Y-86007963D01*
X170110443Y-86014481D01*
X170044260Y-86021000D01*
X169955740Y-86021000D01*
X169889557Y-86014481D01*
X169823373Y-86007963D01*
X169653534Y-85956443D01*
X169497009Y-85872778D01*
X169461271Y-85843448D01*
X169359814Y-85760186D01*
X169257140Y-85635076D01*
X169247222Y-85622991D01*
X169163557Y-85466466D01*
X169112037Y-85296627D01*
X169094641Y-85120000D01*
X169112037Y-84943373D01*
X169163557Y-84773534D01*
X169247222Y-84617009D01*
X169297832Y-84555341D01*
X169359814Y-84479814D01*
X169461271Y-84396552D01*
X169497009Y-84367222D01*
X169653534Y-84283557D01*
X169823373Y-84232037D01*
X169889558Y-84225518D01*
X169955740Y-84219000D01*
X170044260Y-84219000D01*
X170110442Y-84225518D01*
X170110442Y-84225518D01*
G37*
G36*
X160686823Y-84321313D02*
G01*
X160745079Y-84338985D01*
X160838164Y-84367222D01*
X160847242Y-84369976D01*
X160946087Y-84422810D01*
X160995078Y-84448996D01*
X161124659Y-84555341D01*
X161231004Y-84684922D01*
X161231005Y-84684924D01*
X161310024Y-84832758D01*
X161358687Y-84993177D01*
X161375117Y-85160000D01*
X161358687Y-85326823D01*
X161310024Y-85487242D01*
X161280498Y-85542481D01*
X161231004Y-85635078D01*
X161124659Y-85764659D01*
X160995078Y-85871004D01*
X160995076Y-85871005D01*
X160847242Y-85950024D01*
X160686823Y-85998687D01*
X160561804Y-86011000D01*
X159678196Y-86011000D01*
X159553177Y-85998687D01*
X159392758Y-85950024D01*
X159244924Y-85871005D01*
X159244922Y-85871004D01*
X159115341Y-85764659D01*
X159008996Y-85635078D01*
X158959502Y-85542481D01*
X158929976Y-85487242D01*
X158881313Y-85326823D01*
X158864883Y-85160000D01*
X158881313Y-84993177D01*
X158929976Y-84832758D01*
X159008995Y-84684924D01*
X159008996Y-84684922D01*
X159115341Y-84555341D01*
X159244922Y-84448996D01*
X159293913Y-84422810D01*
X159392758Y-84369976D01*
X159401837Y-84367222D01*
X159494921Y-84338985D01*
X159553177Y-84321313D01*
X159678196Y-84309000D01*
X160561804Y-84309000D01*
X160686823Y-84321313D01*
X160686823Y-84321313D01*
G37*
G36*
X153066823Y-84321313D02*
G01*
X153125079Y-84338985D01*
X153218164Y-84367222D01*
X153227242Y-84369976D01*
X153326087Y-84422810D01*
X153375078Y-84448996D01*
X153504659Y-84555341D01*
X153611004Y-84684922D01*
X153611005Y-84684924D01*
X153690024Y-84832758D01*
X153738687Y-84993177D01*
X153755117Y-85160000D01*
X153738687Y-85326823D01*
X153690024Y-85487242D01*
X153660498Y-85542481D01*
X153611004Y-85635078D01*
X153504659Y-85764659D01*
X153375078Y-85871004D01*
X153375076Y-85871005D01*
X153227242Y-85950024D01*
X153066823Y-85998687D01*
X152941804Y-86011000D01*
X152058196Y-86011000D01*
X151933177Y-85998687D01*
X151772758Y-85950024D01*
X151624924Y-85871005D01*
X151624922Y-85871004D01*
X151495341Y-85764659D01*
X151388996Y-85635078D01*
X151339502Y-85542481D01*
X151309976Y-85487242D01*
X151261313Y-85326823D01*
X151244883Y-85160000D01*
X151261313Y-84993177D01*
X151309976Y-84832758D01*
X151388995Y-84684924D01*
X151388996Y-84684922D01*
X151495341Y-84555341D01*
X151624922Y-84448996D01*
X151673913Y-84422810D01*
X151772758Y-84369976D01*
X151781837Y-84367222D01*
X151874921Y-84338985D01*
X151933177Y-84321313D01*
X152058196Y-84309000D01*
X152941804Y-84309000D01*
X153066823Y-84321313D01*
X153066823Y-84321313D01*
G37*
G36*
X113186823Y-84201313D02*
G01*
X113317380Y-84240917D01*
X113333651Y-84245853D01*
X113347242Y-84249976D01*
X113410069Y-84283558D01*
X113495078Y-84328996D01*
X113624659Y-84435341D01*
X113731004Y-84564922D01*
X113731005Y-84564924D01*
X113810024Y-84712758D01*
X113858687Y-84873177D01*
X113875117Y-85040000D01*
X113858687Y-85206823D01*
X113810024Y-85367242D01*
X113745884Y-85487239D01*
X113731004Y-85515078D01*
X113624659Y-85644659D01*
X113495078Y-85751004D01*
X113495076Y-85751005D01*
X113347242Y-85830024D01*
X113186823Y-85878687D01*
X113061804Y-85891000D01*
X112178196Y-85891000D01*
X112053177Y-85878687D01*
X111892758Y-85830024D01*
X111744924Y-85751005D01*
X111744922Y-85751004D01*
X111615341Y-85644659D01*
X111508996Y-85515078D01*
X111494116Y-85487239D01*
X111429976Y-85367242D01*
X111381313Y-85206823D01*
X111364883Y-85040000D01*
X111381313Y-84873177D01*
X111429976Y-84712758D01*
X111508995Y-84564924D01*
X111508996Y-84564922D01*
X111615341Y-84435341D01*
X111744922Y-84328996D01*
X111829931Y-84283558D01*
X111892758Y-84249976D01*
X111906350Y-84245853D01*
X111922620Y-84240917D01*
X112053177Y-84201313D01*
X112178196Y-84189000D01*
X113061804Y-84189000D01*
X113186823Y-84201313D01*
X113186823Y-84201313D01*
G37*
G36*
X120566823Y-84201313D02*
G01*
X120697380Y-84240917D01*
X120713651Y-84245853D01*
X120727242Y-84249976D01*
X120790069Y-84283558D01*
X120875078Y-84328996D01*
X121004659Y-84435341D01*
X121111004Y-84564922D01*
X121111005Y-84564924D01*
X121190024Y-84712758D01*
X121238687Y-84873177D01*
X121255117Y-85040000D01*
X121238687Y-85206823D01*
X121190024Y-85367242D01*
X121125884Y-85487239D01*
X121111004Y-85515078D01*
X121004659Y-85644659D01*
X120875078Y-85751004D01*
X120875076Y-85751005D01*
X120727242Y-85830024D01*
X120566823Y-85878687D01*
X120441804Y-85891000D01*
X119558196Y-85891000D01*
X119433177Y-85878687D01*
X119272758Y-85830024D01*
X119124924Y-85751005D01*
X119124922Y-85751004D01*
X118995341Y-85644659D01*
X118888996Y-85515078D01*
X118874116Y-85487239D01*
X118809976Y-85367242D01*
X118761313Y-85206823D01*
X118744883Y-85040000D01*
X118761313Y-84873177D01*
X118809976Y-84712758D01*
X118888995Y-84564924D01*
X118888996Y-84564922D01*
X118995341Y-84435341D01*
X119124922Y-84328996D01*
X119209931Y-84283558D01*
X119272758Y-84249976D01*
X119286350Y-84245853D01*
X119302620Y-84240917D01*
X119433177Y-84201313D01*
X119558196Y-84189000D01*
X120441804Y-84189000D01*
X120566823Y-84201313D01*
X120566823Y-84201313D01*
G37*
G36*
X105566823Y-84201313D02*
G01*
X105697380Y-84240917D01*
X105713651Y-84245853D01*
X105727242Y-84249976D01*
X105790069Y-84283558D01*
X105875078Y-84328996D01*
X106004659Y-84435341D01*
X106111004Y-84564922D01*
X106111005Y-84564924D01*
X106190024Y-84712758D01*
X106238687Y-84873177D01*
X106255117Y-85040000D01*
X106238687Y-85206823D01*
X106190024Y-85367242D01*
X106125884Y-85487239D01*
X106111004Y-85515078D01*
X106004659Y-85644659D01*
X105875078Y-85751004D01*
X105875076Y-85751005D01*
X105727242Y-85830024D01*
X105566823Y-85878687D01*
X105441804Y-85891000D01*
X104558196Y-85891000D01*
X104433177Y-85878687D01*
X104272758Y-85830024D01*
X104124924Y-85751005D01*
X104124922Y-85751004D01*
X103995341Y-85644659D01*
X103888996Y-85515078D01*
X103874116Y-85487239D01*
X103809976Y-85367242D01*
X103761313Y-85206823D01*
X103744883Y-85040000D01*
X103761313Y-84873177D01*
X103809976Y-84712758D01*
X103888995Y-84564924D01*
X103888996Y-84564922D01*
X103995341Y-84435341D01*
X104124922Y-84328996D01*
X104209931Y-84283558D01*
X104272758Y-84249976D01*
X104286350Y-84245853D01*
X104302620Y-84240917D01*
X104433177Y-84201313D01*
X104558196Y-84189000D01*
X105441804Y-84189000D01*
X105566823Y-84201313D01*
X105566823Y-84201313D01*
G37*
G36*
X128186823Y-84201313D02*
G01*
X128317380Y-84240917D01*
X128333651Y-84245853D01*
X128347242Y-84249976D01*
X128410069Y-84283558D01*
X128495078Y-84328996D01*
X128624659Y-84435341D01*
X128731004Y-84564922D01*
X128731005Y-84564924D01*
X128810024Y-84712758D01*
X128858687Y-84873177D01*
X128875117Y-85040000D01*
X128858687Y-85206823D01*
X128810024Y-85367242D01*
X128745884Y-85487239D01*
X128731004Y-85515078D01*
X128624659Y-85644659D01*
X128495078Y-85751004D01*
X128495076Y-85751005D01*
X128347242Y-85830024D01*
X128186823Y-85878687D01*
X128061804Y-85891000D01*
X127178196Y-85891000D01*
X127053177Y-85878687D01*
X126892758Y-85830024D01*
X126744924Y-85751005D01*
X126744922Y-85751004D01*
X126615341Y-85644659D01*
X126508996Y-85515078D01*
X126494116Y-85487239D01*
X126429976Y-85367242D01*
X126381313Y-85206823D01*
X126364883Y-85040000D01*
X126381313Y-84873177D01*
X126429976Y-84712758D01*
X126508995Y-84564924D01*
X126508996Y-84564922D01*
X126615341Y-84435341D01*
X126744922Y-84328996D01*
X126829931Y-84283558D01*
X126892758Y-84249976D01*
X126906350Y-84245853D01*
X126922620Y-84240917D01*
X127053177Y-84201313D01*
X127178196Y-84189000D01*
X128061804Y-84189000D01*
X128186823Y-84201313D01*
X128186823Y-84201313D01*
G37*
G36*
X140046797Y-84369976D02*
G01*
X140147222Y-84379867D01*
X140288786Y-84422810D01*
X140419252Y-84492546D01*
X140449040Y-84516992D01*
X140533607Y-84586393D01*
X140603008Y-84670960D01*
X140627454Y-84700748D01*
X140697190Y-84831214D01*
X140740133Y-84972778D01*
X140754633Y-85120000D01*
X140740133Y-85267222D01*
X140697190Y-85408786D01*
X140627454Y-85539252D01*
X140603008Y-85569040D01*
X140533607Y-85653607D01*
X140461505Y-85712778D01*
X140419252Y-85747454D01*
X140288786Y-85817190D01*
X140147222Y-85860133D01*
X140073665Y-85867378D01*
X140036888Y-85871000D01*
X139963112Y-85871000D01*
X139926335Y-85867378D01*
X139852778Y-85860133D01*
X139711214Y-85817190D01*
X139580748Y-85747454D01*
X139538495Y-85712778D01*
X139466393Y-85653607D01*
X139396992Y-85569040D01*
X139372546Y-85539252D01*
X139302810Y-85408786D01*
X139259867Y-85267222D01*
X139245367Y-85120000D01*
X139259867Y-84972778D01*
X139302810Y-84831214D01*
X139372546Y-84700748D01*
X139396992Y-84670960D01*
X139466393Y-84586393D01*
X139550960Y-84516992D01*
X139580748Y-84492546D01*
X139711214Y-84422810D01*
X139852778Y-84379867D01*
X139953203Y-84369976D01*
X139963112Y-84369000D01*
X140036888Y-84369000D01*
X140046797Y-84369976D01*
X140046797Y-84369976D01*
G37*
G36*
X97610443Y-84065519D02*
G01*
X97676627Y-84072037D01*
X97846466Y-84123557D01*
X98002991Y-84207222D01*
X98017342Y-84219000D01*
X98140186Y-84319814D01*
X98189469Y-84379867D01*
X98252778Y-84457009D01*
X98271773Y-84492546D01*
X98327554Y-84596903D01*
X98336443Y-84613534D01*
X98387963Y-84783373D01*
X98405359Y-84960000D01*
X98387963Y-85136627D01*
X98336443Y-85306466D01*
X98252778Y-85462991D01*
X98223448Y-85498729D01*
X98140186Y-85600186D01*
X98038729Y-85683448D01*
X98002991Y-85712778D01*
X97846466Y-85796443D01*
X97676627Y-85847963D01*
X97610443Y-85854481D01*
X97544260Y-85861000D01*
X97455740Y-85861000D01*
X97389557Y-85854481D01*
X97323373Y-85847963D01*
X97153534Y-85796443D01*
X96997009Y-85712778D01*
X96961271Y-85683448D01*
X96859814Y-85600186D01*
X96776552Y-85498729D01*
X96747222Y-85462991D01*
X96663557Y-85306466D01*
X96612037Y-85136627D01*
X96594641Y-84960000D01*
X96612037Y-84783373D01*
X96663557Y-84613534D01*
X96672447Y-84596903D01*
X96728227Y-84492546D01*
X96747222Y-84457009D01*
X96810531Y-84379867D01*
X96859814Y-84319814D01*
X96982658Y-84219000D01*
X96997009Y-84207222D01*
X97153534Y-84123557D01*
X97323373Y-84072037D01*
X97389557Y-84065519D01*
X97455740Y-84059000D01*
X97544260Y-84059000D01*
X97610443Y-84065519D01*
X97610443Y-84065519D01*
G37*
G36*
X132748228Y-84181703D02*
G01*
X132903100Y-84245853D01*
X133042481Y-84338985D01*
X133161015Y-84457519D01*
X133254147Y-84596900D01*
X133318297Y-84751772D01*
X133351000Y-84916184D01*
X133351000Y-85083816D01*
X133318297Y-85248228D01*
X133254147Y-85403100D01*
X133161015Y-85542481D01*
X133042481Y-85661015D01*
X132903100Y-85754147D01*
X132748228Y-85818297D01*
X132583816Y-85851000D01*
X132416184Y-85851000D01*
X132251772Y-85818297D01*
X132096900Y-85754147D01*
X131957519Y-85661015D01*
X131838985Y-85542481D01*
X131745853Y-85403100D01*
X131681703Y-85248228D01*
X131649000Y-85083816D01*
X131649000Y-84916184D01*
X131681703Y-84751772D01*
X131745853Y-84596900D01*
X131838985Y-84457519D01*
X131957519Y-84338985D01*
X132096900Y-84245853D01*
X132251772Y-84181703D01*
X132416184Y-84149000D01*
X132583816Y-84149000D01*
X132748228Y-84181703D01*
X132748228Y-84181703D01*
G37*
G36*
X170110442Y-81685518D02*
G01*
X170176627Y-81692037D01*
X170346466Y-81743557D01*
X170346468Y-81743558D01*
X170394066Y-81769000D01*
X170502991Y-81827222D01*
X170517324Y-81838985D01*
X170640186Y-81939814D01*
X170702168Y-82015341D01*
X170752778Y-82077009D01*
X170836443Y-82233534D01*
X170887963Y-82403373D01*
X170905359Y-82580000D01*
X170887963Y-82756627D01*
X170836443Y-82926466D01*
X170752778Y-83082991D01*
X170742860Y-83095076D01*
X170640186Y-83220186D01*
X170538729Y-83303448D01*
X170502991Y-83332778D01*
X170346466Y-83416443D01*
X170176627Y-83467963D01*
X170110442Y-83474482D01*
X170044260Y-83481000D01*
X169955740Y-83481000D01*
X169889558Y-83474482D01*
X169823373Y-83467963D01*
X169653534Y-83416443D01*
X169497009Y-83332778D01*
X169461271Y-83303448D01*
X169359814Y-83220186D01*
X169257140Y-83095076D01*
X169247222Y-83082991D01*
X169163557Y-82926466D01*
X169112037Y-82756627D01*
X169094641Y-82580000D01*
X169112037Y-82403373D01*
X169163557Y-82233534D01*
X169247222Y-82077009D01*
X169297832Y-82015341D01*
X169359814Y-81939814D01*
X169482676Y-81838985D01*
X169497009Y-81827222D01*
X169605934Y-81769000D01*
X169653532Y-81743558D01*
X169653534Y-81743557D01*
X169823373Y-81692037D01*
X169889558Y-81685518D01*
X169955740Y-81679000D01*
X170044260Y-81679000D01*
X170110442Y-81685518D01*
X170110442Y-81685518D01*
G37*
G36*
X160686823Y-81781313D02*
G01*
X160817380Y-81820917D01*
X160838164Y-81827222D01*
X160847242Y-81829976D01*
X160969531Y-81895341D01*
X160995078Y-81908996D01*
X161124659Y-82015341D01*
X161231004Y-82144922D01*
X161231005Y-82144924D01*
X161310024Y-82292758D01*
X161358687Y-82453177D01*
X161375117Y-82620000D01*
X161358687Y-82786823D01*
X161310024Y-82947242D01*
X161239114Y-83079906D01*
X161231004Y-83095078D01*
X161124659Y-83224659D01*
X160995078Y-83331004D01*
X160995076Y-83331005D01*
X160847242Y-83410024D01*
X160686823Y-83458687D01*
X160561804Y-83471000D01*
X159678196Y-83471000D01*
X159553177Y-83458687D01*
X159392758Y-83410024D01*
X159244924Y-83331005D01*
X159244922Y-83331004D01*
X159115341Y-83224659D01*
X159008996Y-83095078D01*
X159000886Y-83079906D01*
X158929976Y-82947242D01*
X158881313Y-82786823D01*
X158864883Y-82620000D01*
X158881313Y-82453177D01*
X158929976Y-82292758D01*
X159008995Y-82144924D01*
X159008996Y-82144922D01*
X159115341Y-82015341D01*
X159244922Y-81908996D01*
X159270469Y-81895341D01*
X159392758Y-81829976D01*
X159401837Y-81827222D01*
X159422620Y-81820917D01*
X159553177Y-81781313D01*
X159678196Y-81769000D01*
X160561804Y-81769000D01*
X160686823Y-81781313D01*
X160686823Y-81781313D01*
G37*
G36*
X153066823Y-81781313D02*
G01*
X153197380Y-81820917D01*
X153218164Y-81827222D01*
X153227242Y-81829976D01*
X153349531Y-81895341D01*
X153375078Y-81908996D01*
X153504659Y-82015341D01*
X153611004Y-82144922D01*
X153611005Y-82144924D01*
X153690024Y-82292758D01*
X153738687Y-82453177D01*
X153755117Y-82620000D01*
X153738687Y-82786823D01*
X153690024Y-82947242D01*
X153619114Y-83079906D01*
X153611004Y-83095078D01*
X153504659Y-83224659D01*
X153375078Y-83331004D01*
X153375076Y-83331005D01*
X153227242Y-83410024D01*
X153066823Y-83458687D01*
X152941804Y-83471000D01*
X152058196Y-83471000D01*
X151933177Y-83458687D01*
X151772758Y-83410024D01*
X151624924Y-83331005D01*
X151624922Y-83331004D01*
X151495341Y-83224659D01*
X151388996Y-83095078D01*
X151380886Y-83079906D01*
X151309976Y-82947242D01*
X151261313Y-82786823D01*
X151244883Y-82620000D01*
X151261313Y-82453177D01*
X151309976Y-82292758D01*
X151388995Y-82144924D01*
X151388996Y-82144922D01*
X151495341Y-82015341D01*
X151624922Y-81908996D01*
X151650469Y-81895341D01*
X151772758Y-81829976D01*
X151781837Y-81827222D01*
X151802620Y-81820917D01*
X151933177Y-81781313D01*
X152058196Y-81769000D01*
X152941804Y-81769000D01*
X153066823Y-81781313D01*
X153066823Y-81781313D01*
G37*
G36*
X128186823Y-81661313D02*
G01*
X128347242Y-81709976D01*
X128410069Y-81743558D01*
X128495078Y-81788996D01*
X128624659Y-81895341D01*
X128731004Y-82024922D01*
X128731005Y-82024924D01*
X128810024Y-82172758D01*
X128858687Y-82333177D01*
X128875117Y-82500000D01*
X128858687Y-82666823D01*
X128810024Y-82827242D01*
X128745884Y-82947239D01*
X128731004Y-82975078D01*
X128624659Y-83104659D01*
X128495078Y-83211004D01*
X128495076Y-83211005D01*
X128347242Y-83290024D01*
X128186823Y-83338687D01*
X128061804Y-83351000D01*
X127178196Y-83351000D01*
X127053177Y-83338687D01*
X126892758Y-83290024D01*
X126744924Y-83211005D01*
X126744922Y-83211004D01*
X126615341Y-83104659D01*
X126508996Y-82975078D01*
X126494116Y-82947239D01*
X126429976Y-82827242D01*
X126381313Y-82666823D01*
X126364883Y-82500000D01*
X126381313Y-82333177D01*
X126429976Y-82172758D01*
X126508995Y-82024924D01*
X126508996Y-82024922D01*
X126615341Y-81895341D01*
X126744922Y-81788996D01*
X126829931Y-81743558D01*
X126892758Y-81709976D01*
X127053177Y-81661313D01*
X127178196Y-81649000D01*
X128061804Y-81649000D01*
X128186823Y-81661313D01*
X128186823Y-81661313D01*
G37*
G36*
X121251000Y-83351000D02*
G01*
X118749000Y-83351000D01*
X118749000Y-81649000D01*
X121251000Y-81649000D01*
X121251000Y-83351000D01*
X121251000Y-83351000D01*
G37*
G36*
X145248228Y-81681703D02*
G01*
X145403100Y-81745853D01*
X145542481Y-81838985D01*
X145661015Y-81957519D01*
X145754147Y-82096900D01*
X145818297Y-82251772D01*
X145851000Y-82416184D01*
X145851000Y-82583816D01*
X145818297Y-82748228D01*
X145754147Y-82903100D01*
X145661015Y-83042481D01*
X145542481Y-83161015D01*
X145403100Y-83254147D01*
X145248228Y-83318297D01*
X145083816Y-83351000D01*
X144916184Y-83351000D01*
X144751772Y-83318297D01*
X144596900Y-83254147D01*
X144457519Y-83161015D01*
X144338985Y-83042481D01*
X144245853Y-82903100D01*
X144181703Y-82748228D01*
X144149000Y-82583816D01*
X144149000Y-82416184D01*
X144181703Y-82251772D01*
X144245853Y-82096900D01*
X144338985Y-81957519D01*
X144457519Y-81838985D01*
X144596900Y-81745853D01*
X144751772Y-81681703D01*
X144916184Y-81649000D01*
X145083816Y-81649000D01*
X145248228Y-81681703D01*
X145248228Y-81681703D01*
G37*
G36*
X113186823Y-81661313D02*
G01*
X113347242Y-81709976D01*
X113410069Y-81743558D01*
X113495078Y-81788996D01*
X113624659Y-81895341D01*
X113731004Y-82024922D01*
X113731005Y-82024924D01*
X113810024Y-82172758D01*
X113858687Y-82333177D01*
X113875117Y-82500000D01*
X113858687Y-82666823D01*
X113810024Y-82827242D01*
X113745884Y-82947239D01*
X113731004Y-82975078D01*
X113624659Y-83104659D01*
X113495078Y-83211004D01*
X113495076Y-83211005D01*
X113347242Y-83290024D01*
X113186823Y-83338687D01*
X113061804Y-83351000D01*
X112178196Y-83351000D01*
X112053177Y-83338687D01*
X111892758Y-83290024D01*
X111744924Y-83211005D01*
X111744922Y-83211004D01*
X111615341Y-83104659D01*
X111508996Y-82975078D01*
X111494116Y-82947239D01*
X111429976Y-82827242D01*
X111381313Y-82666823D01*
X111364883Y-82500000D01*
X111381313Y-82333177D01*
X111429976Y-82172758D01*
X111508995Y-82024924D01*
X111508996Y-82024922D01*
X111615341Y-81895341D01*
X111744922Y-81788996D01*
X111829931Y-81743558D01*
X111892758Y-81709976D01*
X112053177Y-81661313D01*
X112178196Y-81649000D01*
X113061804Y-81649000D01*
X113186823Y-81661313D01*
X113186823Y-81661313D01*
G37*
G36*
X106251000Y-83351000D02*
G01*
X103749000Y-83351000D01*
X103749000Y-81649000D01*
X106251000Y-81649000D01*
X106251000Y-83351000D01*
X106251000Y-83351000D01*
G37*
G36*
X63651000Y-81151000D02*
G01*
X61349000Y-81151000D01*
X61349000Y-78849000D01*
X63651000Y-78849000D01*
X63651000Y-81151000D01*
X63651000Y-81151000D01*
G37*
G36*
X170110443Y-79145519D02*
G01*
X170176627Y-79152037D01*
X170346466Y-79203557D01*
X170502991Y-79287222D01*
X170538729Y-79316552D01*
X170640186Y-79399814D01*
X170702168Y-79475341D01*
X170752778Y-79537009D01*
X170836443Y-79693534D01*
X170887963Y-79863373D01*
X170905359Y-80040000D01*
X170887963Y-80216627D01*
X170836443Y-80386466D01*
X170752778Y-80542991D01*
X170742860Y-80555076D01*
X170640186Y-80680186D01*
X170538729Y-80763448D01*
X170502991Y-80792778D01*
X170346466Y-80876443D01*
X170176627Y-80927963D01*
X170110442Y-80934482D01*
X170044260Y-80941000D01*
X169955740Y-80941000D01*
X169889558Y-80934482D01*
X169823373Y-80927963D01*
X169653534Y-80876443D01*
X169497009Y-80792778D01*
X169461271Y-80763448D01*
X169359814Y-80680186D01*
X169257140Y-80555076D01*
X169247222Y-80542991D01*
X169163557Y-80386466D01*
X169112037Y-80216627D01*
X169094641Y-80040000D01*
X169112037Y-79863373D01*
X169163557Y-79693534D01*
X169247222Y-79537009D01*
X169297832Y-79475341D01*
X169359814Y-79399814D01*
X169461271Y-79316552D01*
X169497009Y-79287222D01*
X169653534Y-79203557D01*
X169823373Y-79152037D01*
X169889557Y-79145519D01*
X169955740Y-79139000D01*
X170044260Y-79139000D01*
X170110443Y-79145519D01*
X170110443Y-79145519D01*
G37*
G36*
X153066823Y-79241313D02*
G01*
X153187301Y-79277860D01*
X153218164Y-79287222D01*
X153227242Y-79289976D01*
X153310486Y-79334471D01*
X153375078Y-79368996D01*
X153504659Y-79475341D01*
X153611004Y-79604922D01*
X153611005Y-79604924D01*
X153690024Y-79752758D01*
X153738687Y-79913177D01*
X153755117Y-80080000D01*
X153738687Y-80246823D01*
X153690024Y-80407242D01*
X153651811Y-80478733D01*
X153611004Y-80555078D01*
X153504659Y-80684659D01*
X153375078Y-80791004D01*
X153375076Y-80791005D01*
X153227242Y-80870024D01*
X153066823Y-80918687D01*
X152941804Y-80931000D01*
X152058196Y-80931000D01*
X151933177Y-80918687D01*
X151772758Y-80870024D01*
X151624924Y-80791005D01*
X151624922Y-80791004D01*
X151495341Y-80684659D01*
X151388996Y-80555078D01*
X151348189Y-80478733D01*
X151309976Y-80407242D01*
X151261313Y-80246823D01*
X151244883Y-80080000D01*
X151261313Y-79913177D01*
X151309976Y-79752758D01*
X151388995Y-79604924D01*
X151388996Y-79604922D01*
X151495341Y-79475341D01*
X151624922Y-79368996D01*
X151689514Y-79334471D01*
X151772758Y-79289976D01*
X151781837Y-79287222D01*
X151812699Y-79277860D01*
X151933177Y-79241313D01*
X152058196Y-79229000D01*
X152941804Y-79229000D01*
X153066823Y-79241313D01*
X153066823Y-79241313D01*
G37*
G36*
X160686823Y-79241313D02*
G01*
X160807301Y-79277860D01*
X160838164Y-79287222D01*
X160847242Y-79289976D01*
X160930486Y-79334471D01*
X160995078Y-79368996D01*
X161124659Y-79475341D01*
X161231004Y-79604922D01*
X161231005Y-79604924D01*
X161310024Y-79752758D01*
X161358687Y-79913177D01*
X161375117Y-80080000D01*
X161358687Y-80246823D01*
X161310024Y-80407242D01*
X161271811Y-80478733D01*
X161231004Y-80555078D01*
X161124659Y-80684659D01*
X160995078Y-80791004D01*
X160995076Y-80791005D01*
X160847242Y-80870024D01*
X160686823Y-80918687D01*
X160561804Y-80931000D01*
X159678196Y-80931000D01*
X159553177Y-80918687D01*
X159392758Y-80870024D01*
X159244924Y-80791005D01*
X159244922Y-80791004D01*
X159115341Y-80684659D01*
X159008996Y-80555078D01*
X158968189Y-80478733D01*
X158929976Y-80407242D01*
X158881313Y-80246823D01*
X158864883Y-80080000D01*
X158881313Y-79913177D01*
X158929976Y-79752758D01*
X159008995Y-79604924D01*
X159008996Y-79604922D01*
X159115341Y-79475341D01*
X159244922Y-79368996D01*
X159309514Y-79334471D01*
X159392758Y-79289976D01*
X159401837Y-79287222D01*
X159432699Y-79277860D01*
X159553177Y-79241313D01*
X159678196Y-79229000D01*
X160561804Y-79229000D01*
X160686823Y-79241313D01*
X160686823Y-79241313D01*
G37*
G36*
X90901000Y-80901000D02*
G01*
X89099000Y-80901000D01*
X89099000Y-79099000D01*
X90901000Y-79099000D01*
X90901000Y-80901000D01*
X90901000Y-80901000D01*
G37*
G36*
X67719059Y-79277860D02*
G01*
X67855732Y-79334472D01*
X67978735Y-79416660D01*
X68083340Y-79521265D01*
X68139239Y-79604924D01*
X68165529Y-79644270D01*
X68222140Y-79780941D01*
X68248443Y-79913175D01*
X68251000Y-79926033D01*
X68251000Y-80073967D01*
X68222140Y-80219059D01*
X68165528Y-80355732D01*
X68083340Y-80478735D01*
X67978735Y-80583340D01*
X67855732Y-80665528D01*
X67855731Y-80665529D01*
X67855730Y-80665529D01*
X67719059Y-80722140D01*
X67573968Y-80751000D01*
X67426032Y-80751000D01*
X67280941Y-80722140D01*
X67144270Y-80665529D01*
X67144269Y-80665529D01*
X67144268Y-80665528D01*
X67021265Y-80583340D01*
X66916660Y-80478735D01*
X66834472Y-80355732D01*
X66777860Y-80219059D01*
X66749000Y-80073967D01*
X66749000Y-79926033D01*
X66751558Y-79913175D01*
X66777860Y-79780941D01*
X66834471Y-79644270D01*
X66860761Y-79604924D01*
X66916660Y-79521265D01*
X67021265Y-79416660D01*
X67144268Y-79334472D01*
X67280941Y-79277860D01*
X67426032Y-79249000D01*
X67573968Y-79249000D01*
X67719059Y-79277860D01*
X67719059Y-79277860D01*
G37*
G36*
X75566823Y-76741313D02*
G01*
X75727242Y-76789976D01*
X75800241Y-76828995D01*
X75875078Y-76868996D01*
X76004659Y-76975341D01*
X76111004Y-77104922D01*
X76111005Y-77104924D01*
X76190024Y-77252758D01*
X76238687Y-77413177D01*
X76255117Y-77580000D01*
X76238687Y-77746823D01*
X76202159Y-77867239D01*
X76191281Y-77903100D01*
X76190024Y-77907242D01*
X76151811Y-77978733D01*
X76111004Y-78055078D01*
X76004659Y-78184659D01*
X75875078Y-78291004D01*
X75875076Y-78291005D01*
X75727242Y-78370024D01*
X75566823Y-78418687D01*
X75441804Y-78431000D01*
X74558196Y-78431000D01*
X74433177Y-78418687D01*
X74272758Y-78370024D01*
X74124924Y-78291005D01*
X74124922Y-78291004D01*
X73995341Y-78184659D01*
X73888996Y-78055078D01*
X73848189Y-77978733D01*
X73809976Y-77907242D01*
X73808720Y-77903100D01*
X73797841Y-77867239D01*
X73761313Y-77746823D01*
X73744883Y-77580000D01*
X73761313Y-77413177D01*
X73809976Y-77252758D01*
X73888995Y-77104924D01*
X73888996Y-77104922D01*
X73995341Y-76975341D01*
X74124922Y-76868996D01*
X74199759Y-76828995D01*
X74272758Y-76789976D01*
X74433177Y-76741313D01*
X74558196Y-76729000D01*
X75441804Y-76729000D01*
X75566823Y-76741313D01*
X75566823Y-76741313D01*
G37*
G36*
X83186823Y-76741313D02*
G01*
X83347242Y-76789976D01*
X83420241Y-76828995D01*
X83495078Y-76868996D01*
X83624659Y-76975341D01*
X83731004Y-77104922D01*
X83731005Y-77104924D01*
X83810024Y-77252758D01*
X83858687Y-77413177D01*
X83875117Y-77580000D01*
X83858687Y-77746823D01*
X83822159Y-77867239D01*
X83811281Y-77903100D01*
X83810024Y-77907242D01*
X83771811Y-77978733D01*
X83731004Y-78055078D01*
X83624659Y-78184659D01*
X83495078Y-78291004D01*
X83495076Y-78291005D01*
X83347242Y-78370024D01*
X83186823Y-78418687D01*
X83061804Y-78431000D01*
X82178196Y-78431000D01*
X82053177Y-78418687D01*
X81892758Y-78370024D01*
X81744924Y-78291005D01*
X81744922Y-78291004D01*
X81615341Y-78184659D01*
X81508996Y-78055078D01*
X81468189Y-77978733D01*
X81429976Y-77907242D01*
X81428720Y-77903100D01*
X81417841Y-77867239D01*
X81381313Y-77746823D01*
X81364883Y-77580000D01*
X81381313Y-77413177D01*
X81429976Y-77252758D01*
X81508995Y-77104924D01*
X81508996Y-77104922D01*
X81615341Y-76975341D01*
X81744922Y-76868996D01*
X81819759Y-76828995D01*
X81892758Y-76789976D01*
X82053177Y-76741313D01*
X82178196Y-76729000D01*
X83061804Y-76729000D01*
X83186823Y-76741313D01*
X83186823Y-76741313D01*
G37*
G36*
X170110442Y-76605518D02*
G01*
X170176627Y-76612037D01*
X170346466Y-76663557D01*
X170502991Y-76747222D01*
X170538729Y-76776552D01*
X170640186Y-76859814D01*
X170702168Y-76935341D01*
X170752778Y-76997009D01*
X170836443Y-77153534D01*
X170887963Y-77323373D01*
X170905359Y-77500000D01*
X170887963Y-77676627D01*
X170836443Y-77846466D01*
X170752778Y-78002991D01*
X170742860Y-78015076D01*
X170640186Y-78140186D01*
X170551731Y-78212778D01*
X170502991Y-78252778D01*
X170346466Y-78336443D01*
X170176627Y-78387963D01*
X170110443Y-78394481D01*
X170044260Y-78401000D01*
X169955740Y-78401000D01*
X169889557Y-78394481D01*
X169823373Y-78387963D01*
X169653534Y-78336443D01*
X169497009Y-78252778D01*
X169448269Y-78212778D01*
X169359814Y-78140186D01*
X169257140Y-78015076D01*
X169247222Y-78002991D01*
X169163557Y-77846466D01*
X169112037Y-77676627D01*
X169094641Y-77500000D01*
X169112037Y-77323373D01*
X169163557Y-77153534D01*
X169247222Y-76997009D01*
X169297832Y-76935341D01*
X169359814Y-76859814D01*
X169461271Y-76776552D01*
X169497009Y-76747222D01*
X169653534Y-76663557D01*
X169823373Y-76612037D01*
X169889558Y-76605518D01*
X169955740Y-76599000D01*
X170044260Y-76599000D01*
X170110442Y-76605518D01*
X170110442Y-76605518D01*
G37*
G36*
X160686823Y-76701313D02*
G01*
X160778094Y-76729000D01*
X160838164Y-76747222D01*
X160847242Y-76749976D01*
X160977900Y-76819814D01*
X160995078Y-76828996D01*
X161124659Y-76935341D01*
X161231004Y-77064922D01*
X161231005Y-77064924D01*
X161310024Y-77212758D01*
X161358687Y-77373177D01*
X161375117Y-77540000D01*
X161358687Y-77706823D01*
X161310024Y-77867242D01*
X161258846Y-77962989D01*
X161231004Y-78015078D01*
X161124659Y-78144659D01*
X160995078Y-78251004D01*
X160995076Y-78251005D01*
X160847242Y-78330024D01*
X160686823Y-78378687D01*
X160561804Y-78391000D01*
X159678196Y-78391000D01*
X159553177Y-78378687D01*
X159392758Y-78330024D01*
X159244924Y-78251005D01*
X159244922Y-78251004D01*
X159115341Y-78144659D01*
X159008996Y-78015078D01*
X158981154Y-77962989D01*
X158929976Y-77867242D01*
X158881313Y-77706823D01*
X158864883Y-77540000D01*
X158881313Y-77373177D01*
X158929976Y-77212758D01*
X159008995Y-77064924D01*
X159008996Y-77064922D01*
X159115341Y-76935341D01*
X159244922Y-76828996D01*
X159262100Y-76819814D01*
X159392758Y-76749976D01*
X159401837Y-76747222D01*
X159461906Y-76729000D01*
X159553177Y-76701313D01*
X159678196Y-76689000D01*
X160561804Y-76689000D01*
X160686823Y-76701313D01*
X160686823Y-76701313D01*
G37*
G36*
X153066823Y-76701313D02*
G01*
X153158094Y-76729000D01*
X153218164Y-76747222D01*
X153227242Y-76749976D01*
X153357900Y-76819814D01*
X153375078Y-76828996D01*
X153504659Y-76935341D01*
X153611004Y-77064922D01*
X153611005Y-77064924D01*
X153690024Y-77212758D01*
X153738687Y-77373177D01*
X153755117Y-77540000D01*
X153738687Y-77706823D01*
X153690024Y-77867242D01*
X153638846Y-77962989D01*
X153611004Y-78015078D01*
X153504659Y-78144659D01*
X153375078Y-78251004D01*
X153375076Y-78251005D01*
X153227242Y-78330024D01*
X153066823Y-78378687D01*
X152941804Y-78391000D01*
X152058196Y-78391000D01*
X151933177Y-78378687D01*
X151772758Y-78330024D01*
X151624924Y-78251005D01*
X151624922Y-78251004D01*
X151495341Y-78144659D01*
X151388996Y-78015078D01*
X151361154Y-77962989D01*
X151309976Y-77867242D01*
X151261313Y-77706823D01*
X151244883Y-77540000D01*
X151261313Y-77373177D01*
X151309976Y-77212758D01*
X151388995Y-77064924D01*
X151388996Y-77064922D01*
X151495341Y-76935341D01*
X151624922Y-76828996D01*
X151642100Y-76819814D01*
X151772758Y-76749976D01*
X151781837Y-76747222D01*
X151841906Y-76729000D01*
X151933177Y-76701313D01*
X152058196Y-76689000D01*
X152941804Y-76689000D01*
X153066823Y-76701313D01*
X153066823Y-76701313D01*
G37*
G36*
X90110442Y-76565518D02*
G01*
X90176627Y-76572037D01*
X90346466Y-76623557D01*
X90502991Y-76707222D01*
X90529527Y-76729000D01*
X90640186Y-76819814D01*
X90719663Y-76916659D01*
X90752778Y-76957009D01*
X90752779Y-76957011D01*
X90827554Y-77096903D01*
X90836443Y-77113534D01*
X90887963Y-77283373D01*
X90905359Y-77460000D01*
X90887963Y-77636627D01*
X90836443Y-77806466D01*
X90752778Y-77962991D01*
X90739857Y-77978735D01*
X90640186Y-78100186D01*
X90560565Y-78165528D01*
X90502991Y-78212778D01*
X90346466Y-78296443D01*
X90176627Y-78347963D01*
X90110443Y-78354481D01*
X90044260Y-78361000D01*
X89955740Y-78361000D01*
X89889557Y-78354481D01*
X89823373Y-78347963D01*
X89653534Y-78296443D01*
X89497009Y-78212778D01*
X89439435Y-78165528D01*
X89359814Y-78100186D01*
X89260143Y-77978735D01*
X89247222Y-77962991D01*
X89163557Y-77806466D01*
X89112037Y-77636627D01*
X89094641Y-77460000D01*
X89112037Y-77283373D01*
X89163557Y-77113534D01*
X89172447Y-77096903D01*
X89247221Y-76957011D01*
X89247222Y-76957009D01*
X89280337Y-76916659D01*
X89359814Y-76819814D01*
X89470473Y-76729000D01*
X89497009Y-76707222D01*
X89653534Y-76623557D01*
X89823373Y-76572037D01*
X89889558Y-76565518D01*
X89955740Y-76559000D01*
X90044260Y-76559000D01*
X90110442Y-76565518D01*
X90110442Y-76565518D01*
G37*
G36*
X145248228Y-76681703D02*
G01*
X145403100Y-76745853D01*
X145542481Y-76838985D01*
X145661015Y-76957519D01*
X145754147Y-77096900D01*
X145818297Y-77251772D01*
X145851000Y-77416184D01*
X145851000Y-77583816D01*
X145818297Y-77748228D01*
X145754147Y-77903100D01*
X145661015Y-78042481D01*
X145542481Y-78161015D01*
X145403100Y-78254147D01*
X145248228Y-78318297D01*
X145083816Y-78351000D01*
X144916184Y-78351000D01*
X144751772Y-78318297D01*
X144596900Y-78254147D01*
X144457519Y-78161015D01*
X144338985Y-78042481D01*
X144245853Y-77903100D01*
X144181703Y-77748228D01*
X144149000Y-77583816D01*
X144149000Y-77416184D01*
X144181703Y-77251772D01*
X144245853Y-77096900D01*
X144338985Y-76957519D01*
X144457519Y-76838985D01*
X144596900Y-76745853D01*
X144751772Y-76681703D01*
X144916184Y-76649000D01*
X145083816Y-76649000D01*
X145248228Y-76681703D01*
X145248228Y-76681703D01*
G37*
G36*
X140219059Y-76777860D02*
G01*
X140342510Y-76828995D01*
X140355732Y-76834472D01*
X140478735Y-76916660D01*
X140583340Y-77021265D01*
X140639239Y-77104924D01*
X140665529Y-77144270D01*
X140722140Y-77280941D01*
X140751000Y-77426032D01*
X140751000Y-77573968D01*
X140730580Y-77676627D01*
X140722140Y-77719059D01*
X140665528Y-77855732D01*
X140583340Y-77978735D01*
X140478735Y-78083340D01*
X140355732Y-78165528D01*
X140355731Y-78165529D01*
X140355730Y-78165529D01*
X140219059Y-78222140D01*
X140073968Y-78251000D01*
X139926032Y-78251000D01*
X139780941Y-78222140D01*
X139644270Y-78165529D01*
X139644269Y-78165529D01*
X139644268Y-78165528D01*
X139521265Y-78083340D01*
X139416660Y-77978735D01*
X139334472Y-77855732D01*
X139277860Y-77719059D01*
X139269420Y-77676627D01*
X139249000Y-77573968D01*
X139249000Y-77426032D01*
X139277860Y-77280941D01*
X139334471Y-77144270D01*
X139360761Y-77104924D01*
X139416660Y-77021265D01*
X139521265Y-76916660D01*
X139644268Y-76834472D01*
X139657491Y-76828995D01*
X139780941Y-76777860D01*
X139926032Y-76749000D01*
X140073968Y-76749000D01*
X140219059Y-76777860D01*
X140219059Y-76777860D01*
G37*
G36*
X55110443Y-74145519D02*
G01*
X55176627Y-74152037D01*
X55346466Y-74203557D01*
X55502991Y-74287222D01*
X55521985Y-74302810D01*
X55640186Y-74399814D01*
X55723448Y-74501271D01*
X55752778Y-74537009D01*
X55836443Y-74693534D01*
X55887963Y-74863373D01*
X55905359Y-75040000D01*
X55887963Y-75216627D01*
X55836443Y-75386466D01*
X55752778Y-75542991D01*
X55738667Y-75560185D01*
X55640186Y-75680186D01*
X55547266Y-75756442D01*
X55502991Y-75792778D01*
X55346466Y-75876443D01*
X55176627Y-75927963D01*
X55110442Y-75934482D01*
X55044260Y-75941000D01*
X54955740Y-75941000D01*
X54889558Y-75934482D01*
X54823373Y-75927963D01*
X54653534Y-75876443D01*
X54497009Y-75792778D01*
X54452734Y-75756442D01*
X54359814Y-75680186D01*
X54261333Y-75560185D01*
X54247222Y-75542991D01*
X54163557Y-75386466D01*
X54112037Y-75216627D01*
X54094641Y-75040000D01*
X54112037Y-74863373D01*
X54163557Y-74693534D01*
X54247222Y-74537009D01*
X54276552Y-74501271D01*
X54359814Y-74399814D01*
X54478015Y-74302810D01*
X54497009Y-74287222D01*
X54653534Y-74203557D01*
X54823373Y-74152037D01*
X54889557Y-74145519D01*
X54955740Y-74139000D01*
X55044260Y-74139000D01*
X55110443Y-74145519D01*
X55110443Y-74145519D01*
G37*
G36*
X75566823Y-74201313D02*
G01*
X75727242Y-74249976D01*
X75796922Y-74287221D01*
X75875078Y-74328996D01*
X76004659Y-74435341D01*
X76111004Y-74564922D01*
X76111005Y-74564924D01*
X76190024Y-74712758D01*
X76238687Y-74873177D01*
X76255117Y-75040000D01*
X76238687Y-75206823D01*
X76190024Y-75367242D01*
X76138846Y-75462989D01*
X76111004Y-75515078D01*
X76004659Y-75644659D01*
X75875078Y-75751004D01*
X75875076Y-75751005D01*
X75727242Y-75830024D01*
X75566823Y-75878687D01*
X75441804Y-75891000D01*
X74558196Y-75891000D01*
X74433177Y-75878687D01*
X74272758Y-75830024D01*
X74124924Y-75751005D01*
X74124922Y-75751004D01*
X73995341Y-75644659D01*
X73888996Y-75515078D01*
X73861154Y-75462989D01*
X73809976Y-75367242D01*
X73761313Y-75206823D01*
X73744883Y-75040000D01*
X73761313Y-74873177D01*
X73809976Y-74712758D01*
X73888995Y-74564924D01*
X73888996Y-74564922D01*
X73995341Y-74435341D01*
X74124922Y-74328996D01*
X74203078Y-74287221D01*
X74272758Y-74249976D01*
X74433177Y-74201313D01*
X74558196Y-74189000D01*
X75441804Y-74189000D01*
X75566823Y-74201313D01*
X75566823Y-74201313D01*
G37*
G36*
X83186823Y-74201313D02*
G01*
X83347242Y-74249976D01*
X83416922Y-74287221D01*
X83495078Y-74328996D01*
X83624659Y-74435341D01*
X83731004Y-74564922D01*
X83731005Y-74564924D01*
X83810024Y-74712758D01*
X83858687Y-74873177D01*
X83875117Y-75040000D01*
X83858687Y-75206823D01*
X83810024Y-75367242D01*
X83758846Y-75462989D01*
X83731004Y-75515078D01*
X83624659Y-75644659D01*
X83495078Y-75751004D01*
X83495076Y-75751005D01*
X83347242Y-75830024D01*
X83186823Y-75878687D01*
X83061804Y-75891000D01*
X82178196Y-75891000D01*
X82053177Y-75878687D01*
X81892758Y-75830024D01*
X81744924Y-75751005D01*
X81744922Y-75751004D01*
X81615341Y-75644659D01*
X81508996Y-75515078D01*
X81481154Y-75462989D01*
X81429976Y-75367242D01*
X81381313Y-75206823D01*
X81364883Y-75040000D01*
X81381313Y-74873177D01*
X81429976Y-74712758D01*
X81508995Y-74564924D01*
X81508996Y-74564922D01*
X81615341Y-74435341D01*
X81744922Y-74328996D01*
X81823078Y-74287221D01*
X81892758Y-74249976D01*
X82053177Y-74201313D01*
X82178196Y-74189000D01*
X83061804Y-74189000D01*
X83186823Y-74201313D01*
X83186823Y-74201313D01*
G37*
G36*
X170110443Y-74065519D02*
G01*
X170176627Y-74072037D01*
X170346466Y-74123557D01*
X170502991Y-74207222D01*
X170538729Y-74236552D01*
X170640186Y-74319814D01*
X170683461Y-74372546D01*
X170752778Y-74457009D01*
X170836443Y-74613534D01*
X170887963Y-74783373D01*
X170905359Y-74960000D01*
X170887963Y-75136627D01*
X170836443Y-75306466D01*
X170752778Y-75462991D01*
X170739857Y-75478735D01*
X170640186Y-75600186D01*
X170560565Y-75665528D01*
X170502991Y-75712778D01*
X170346466Y-75796443D01*
X170176627Y-75847963D01*
X170110442Y-75854482D01*
X170044260Y-75861000D01*
X169955740Y-75861000D01*
X169889558Y-75854482D01*
X169823373Y-75847963D01*
X169653534Y-75796443D01*
X169497009Y-75712778D01*
X169439435Y-75665528D01*
X169359814Y-75600186D01*
X169260143Y-75478735D01*
X169247222Y-75462991D01*
X169163557Y-75306466D01*
X169112037Y-75136627D01*
X169094641Y-74960000D01*
X169112037Y-74783373D01*
X169163557Y-74613534D01*
X169247222Y-74457009D01*
X169316539Y-74372546D01*
X169359814Y-74319814D01*
X169461271Y-74236552D01*
X169497009Y-74207222D01*
X169653534Y-74123557D01*
X169823373Y-74072037D01*
X169889557Y-74065519D01*
X169955740Y-74059000D01*
X170044260Y-74059000D01*
X170110443Y-74065519D01*
X170110443Y-74065519D01*
G37*
G36*
X160686823Y-74161313D02*
G01*
X160778094Y-74189000D01*
X160838164Y-74207222D01*
X160847242Y-74209976D01*
X160940581Y-74259867D01*
X160995078Y-74288996D01*
X161124659Y-74395341D01*
X161231004Y-74524922D01*
X161231005Y-74524924D01*
X161310024Y-74672758D01*
X161358687Y-74833177D01*
X161375117Y-75000000D01*
X161358687Y-75166823D01*
X161310024Y-75327242D01*
X161258846Y-75422989D01*
X161231004Y-75475078D01*
X161124659Y-75604659D01*
X160995078Y-75711004D01*
X160995076Y-75711005D01*
X160847242Y-75790024D01*
X160847239Y-75790025D01*
X160838160Y-75792779D01*
X160686823Y-75838687D01*
X160561804Y-75851000D01*
X159678196Y-75851000D01*
X159553177Y-75838687D01*
X159401840Y-75792779D01*
X159392761Y-75790025D01*
X159392758Y-75790024D01*
X159244924Y-75711005D01*
X159244922Y-75711004D01*
X159115341Y-75604659D01*
X159008996Y-75475078D01*
X158981154Y-75422989D01*
X158929976Y-75327242D01*
X158881313Y-75166823D01*
X158864883Y-75000000D01*
X158881313Y-74833177D01*
X158929976Y-74672758D01*
X159008995Y-74524924D01*
X159008996Y-74524922D01*
X159115341Y-74395341D01*
X159244922Y-74288996D01*
X159299419Y-74259867D01*
X159392758Y-74209976D01*
X159401837Y-74207222D01*
X159461906Y-74189000D01*
X159553177Y-74161313D01*
X159678196Y-74149000D01*
X160561804Y-74149000D01*
X160686823Y-74161313D01*
X160686823Y-74161313D01*
G37*
G36*
X153751000Y-75851000D02*
G01*
X151249000Y-75851000D01*
X151249000Y-74149000D01*
X153751000Y-74149000D01*
X153751000Y-75851000D01*
X153751000Y-75851000D01*
G37*
G36*
X90110443Y-74025519D02*
G01*
X90176627Y-74032037D01*
X90346466Y-74083557D01*
X90502991Y-74167222D01*
X90529527Y-74189000D01*
X90640186Y-74279814D01*
X90716287Y-74372545D01*
X90752778Y-74417009D01*
X90779175Y-74466394D01*
X90808506Y-74521267D01*
X90836443Y-74573534D01*
X90887963Y-74743373D01*
X90905359Y-74920000D01*
X90887963Y-75096627D01*
X90836443Y-75266466D01*
X90752778Y-75422991D01*
X90723448Y-75458729D01*
X90640186Y-75560186D01*
X90558218Y-75627454D01*
X90502991Y-75672778D01*
X90346466Y-75756443D01*
X90176627Y-75807963D01*
X90110442Y-75814482D01*
X90044260Y-75821000D01*
X89955740Y-75821000D01*
X89889558Y-75814482D01*
X89823373Y-75807963D01*
X89653534Y-75756443D01*
X89497009Y-75672778D01*
X89441782Y-75627454D01*
X89359814Y-75560186D01*
X89276552Y-75458729D01*
X89247222Y-75422991D01*
X89163557Y-75266466D01*
X89112037Y-75096627D01*
X89094641Y-74920000D01*
X89112037Y-74743373D01*
X89163557Y-74573534D01*
X89191495Y-74521267D01*
X89220825Y-74466394D01*
X89247222Y-74417009D01*
X89283713Y-74372545D01*
X89359814Y-74279814D01*
X89470473Y-74189000D01*
X89497009Y-74167222D01*
X89653534Y-74083557D01*
X89823373Y-74032037D01*
X89889557Y-74025519D01*
X89955740Y-74019000D01*
X90044260Y-74019000D01*
X90110443Y-74025519D01*
X90110443Y-74025519D01*
G37*
G36*
X135219059Y-74277860D02*
G01*
X135342510Y-74328995D01*
X135355732Y-74334472D01*
X135478735Y-74416660D01*
X135583340Y-74521265D01*
X135644991Y-74613532D01*
X135665529Y-74644270D01*
X135722140Y-74780941D01*
X135751000Y-74926032D01*
X135751000Y-75073968D01*
X135722140Y-75219059D01*
X135702503Y-75266468D01*
X135665528Y-75355732D01*
X135583340Y-75478735D01*
X135478735Y-75583340D01*
X135355732Y-75665528D01*
X135355731Y-75665529D01*
X135355730Y-75665529D01*
X135219059Y-75722140D01*
X135073968Y-75751000D01*
X134926032Y-75751000D01*
X134780941Y-75722140D01*
X134644270Y-75665529D01*
X134644269Y-75665529D01*
X134644268Y-75665528D01*
X134521265Y-75583340D01*
X134416660Y-75478735D01*
X134334472Y-75355732D01*
X134297498Y-75266468D01*
X134277860Y-75219059D01*
X134249000Y-75073968D01*
X134249000Y-74926032D01*
X134277860Y-74780941D01*
X134334471Y-74644270D01*
X134355009Y-74613532D01*
X134416660Y-74521265D01*
X134521265Y-74416660D01*
X134644268Y-74334472D01*
X134657491Y-74328995D01*
X134780941Y-74277860D01*
X134926032Y-74249000D01*
X135073968Y-74249000D01*
X135219059Y-74277860D01*
X135219059Y-74277860D01*
G37*
G36*
X127426797Y-74249976D02*
G01*
X127527222Y-74259867D01*
X127668786Y-74302810D01*
X127799252Y-74372546D01*
X127827028Y-74395341D01*
X127913607Y-74466393D01*
X127971560Y-74537011D01*
X128007454Y-74580748D01*
X128077190Y-74711214D01*
X128120133Y-74852778D01*
X128134633Y-75000000D01*
X128120133Y-75147222D01*
X128077190Y-75288786D01*
X128007454Y-75419252D01*
X128004387Y-75422989D01*
X127913607Y-75533607D01*
X127853004Y-75583341D01*
X127799252Y-75627454D01*
X127668786Y-75697190D01*
X127527222Y-75740133D01*
X127453665Y-75747378D01*
X127416888Y-75751000D01*
X127343112Y-75751000D01*
X127306335Y-75747378D01*
X127232778Y-75740133D01*
X127091214Y-75697190D01*
X126960748Y-75627454D01*
X126906996Y-75583341D01*
X126846393Y-75533607D01*
X126755613Y-75422989D01*
X126752546Y-75419252D01*
X126682810Y-75288786D01*
X126639867Y-75147222D01*
X126625367Y-75000000D01*
X126639867Y-74852778D01*
X126682810Y-74711214D01*
X126752546Y-74580748D01*
X126788440Y-74537011D01*
X126846393Y-74466393D01*
X126932972Y-74395341D01*
X126960748Y-74372546D01*
X127091214Y-74302810D01*
X127232778Y-74259867D01*
X127333203Y-74249976D01*
X127343112Y-74249000D01*
X127416888Y-74249000D01*
X127426797Y-74249976D01*
X127426797Y-74249976D01*
G37*
G36*
X55901000Y-73401000D02*
G01*
X54099000Y-73401000D01*
X54099000Y-71599000D01*
X55901000Y-71599000D01*
X55901000Y-73401000D01*
X55901000Y-73401000D01*
G37*
G36*
X83186823Y-71661313D02*
G01*
X83347242Y-71709976D01*
X83479906Y-71780886D01*
X83495078Y-71788996D01*
X83624659Y-71895341D01*
X83731004Y-72024922D01*
X83731005Y-72024924D01*
X83810024Y-72172758D01*
X83858687Y-72333177D01*
X83875117Y-72500000D01*
X83858687Y-72666823D01*
X83810024Y-72827242D01*
X83763861Y-72913606D01*
X83731004Y-72975078D01*
X83624659Y-73104659D01*
X83495078Y-73211004D01*
X83495076Y-73211005D01*
X83347242Y-73290024D01*
X83186823Y-73338687D01*
X83061804Y-73351000D01*
X82178196Y-73351000D01*
X82053177Y-73338687D01*
X81892758Y-73290024D01*
X81744924Y-73211005D01*
X81744922Y-73211004D01*
X81615341Y-73104659D01*
X81508996Y-72975078D01*
X81476139Y-72913606D01*
X81429976Y-72827242D01*
X81381313Y-72666823D01*
X81364883Y-72500000D01*
X81381313Y-72333177D01*
X81429976Y-72172758D01*
X81508995Y-72024924D01*
X81508996Y-72024922D01*
X81615341Y-71895341D01*
X81744922Y-71788996D01*
X81760094Y-71780886D01*
X81892758Y-71709976D01*
X82053177Y-71661313D01*
X82178196Y-71649000D01*
X83061804Y-71649000D01*
X83186823Y-71661313D01*
X83186823Y-71661313D01*
G37*
G36*
X76251000Y-73351000D02*
G01*
X73749000Y-73351000D01*
X73749000Y-71649000D01*
X76251000Y-71649000D01*
X76251000Y-73351000D01*
X76251000Y-73351000D01*
G37*
G36*
X90110443Y-71485519D02*
G01*
X90176627Y-71492037D01*
X90346466Y-71543557D01*
X90502991Y-71627222D01*
X90529527Y-71649000D01*
X90640186Y-71739814D01*
X90723448Y-71841271D01*
X90752778Y-71877009D01*
X90836443Y-72033534D01*
X90887963Y-72203373D01*
X90905359Y-72380000D01*
X90887963Y-72556627D01*
X90836443Y-72726466D01*
X90752778Y-72882991D01*
X90727653Y-72913606D01*
X90640186Y-73020186D01*
X90570725Y-73077190D01*
X90502991Y-73132778D01*
X90346466Y-73216443D01*
X90176627Y-73267963D01*
X90110443Y-73274481D01*
X90044260Y-73281000D01*
X89955740Y-73281000D01*
X89889557Y-73274481D01*
X89823373Y-73267963D01*
X89653534Y-73216443D01*
X89497009Y-73132778D01*
X89429275Y-73077190D01*
X89359814Y-73020186D01*
X89272347Y-72913606D01*
X89247222Y-72882991D01*
X89163557Y-72726466D01*
X89112037Y-72556627D01*
X89094641Y-72380000D01*
X89112037Y-72203373D01*
X89163557Y-72033534D01*
X89247222Y-71877009D01*
X89276552Y-71841271D01*
X89359814Y-71739814D01*
X89470473Y-71649000D01*
X89497009Y-71627222D01*
X89653534Y-71543557D01*
X89823373Y-71492037D01*
X89889557Y-71485519D01*
X89955740Y-71479000D01*
X90044260Y-71479000D01*
X90110443Y-71485519D01*
X90110443Y-71485519D01*
G37*
G36*
X67573665Y-71632622D02*
G01*
X67647222Y-71639867D01*
X67788786Y-71682810D01*
X67919252Y-71752546D01*
X67949040Y-71776992D01*
X68033607Y-71846393D01*
X68103008Y-71930960D01*
X68127454Y-71960748D01*
X68197190Y-72091214D01*
X68240133Y-72232778D01*
X68254633Y-72380000D01*
X68240133Y-72527222D01*
X68197190Y-72668786D01*
X68127454Y-72799252D01*
X68104486Y-72827239D01*
X68033607Y-72913607D01*
X67958705Y-72975076D01*
X67919252Y-73007454D01*
X67788786Y-73077190D01*
X67647222Y-73120133D01*
X67573665Y-73127378D01*
X67536888Y-73131000D01*
X67463112Y-73131000D01*
X67426335Y-73127378D01*
X67352778Y-73120133D01*
X67211214Y-73077190D01*
X67080748Y-73007454D01*
X67041295Y-72975076D01*
X66966393Y-72913607D01*
X66895514Y-72827239D01*
X66872546Y-72799252D01*
X66802810Y-72668786D01*
X66759867Y-72527222D01*
X66745367Y-72380000D01*
X66759867Y-72232778D01*
X66802810Y-72091214D01*
X66872546Y-71960748D01*
X66896992Y-71930960D01*
X66966393Y-71846393D01*
X67050960Y-71776992D01*
X67080748Y-71752546D01*
X67211214Y-71682810D01*
X67352778Y-71639867D01*
X67426335Y-71632622D01*
X67463112Y-71629000D01*
X67536888Y-71629000D01*
X67573665Y-71632622D01*
X67573665Y-71632622D01*
G37*
G36*
X62669271Y-68700103D02*
G01*
X62725635Y-68705654D01*
X62942600Y-68771470D01*
X62942602Y-68771471D01*
X63142555Y-68878347D01*
X63317818Y-69022182D01*
X63461653Y-69197445D01*
X63568529Y-69397398D01*
X63568530Y-69397400D01*
X63634346Y-69614365D01*
X63656569Y-69840000D01*
X63634346Y-70065635D01*
X63577419Y-70253298D01*
X63568529Y-70282602D01*
X63461653Y-70482555D01*
X63317818Y-70657818D01*
X63142555Y-70801653D01*
X62942602Y-70908529D01*
X62942600Y-70908530D01*
X62725635Y-70974346D01*
X62669271Y-70979897D01*
X62556545Y-70991000D01*
X62443455Y-70991000D01*
X62330729Y-70979897D01*
X62274365Y-70974346D01*
X62057400Y-70908530D01*
X62057398Y-70908529D01*
X61857445Y-70801653D01*
X61682182Y-70657818D01*
X61538347Y-70482555D01*
X61431471Y-70282602D01*
X61422582Y-70253298D01*
X61365654Y-70065635D01*
X61343431Y-69840000D01*
X61365654Y-69614365D01*
X61431470Y-69397400D01*
X61431471Y-69397398D01*
X61538347Y-69197445D01*
X61682182Y-69022182D01*
X61857445Y-68878347D01*
X62057398Y-68771471D01*
X62057400Y-68771470D01*
X62274365Y-68705654D01*
X62330729Y-68700103D01*
X62443455Y-68689000D01*
X62556545Y-68689000D01*
X62669271Y-68700103D01*
X62669271Y-68700103D01*
G37*
G36*
X117748228Y-69181703D02*
G01*
X117903100Y-69245853D01*
X118042481Y-69338985D01*
X118161015Y-69457519D01*
X118254147Y-69596900D01*
X118318297Y-69751772D01*
X118351000Y-69916184D01*
X118351000Y-70083816D01*
X118318297Y-70248228D01*
X118254147Y-70403100D01*
X118161015Y-70542481D01*
X118042481Y-70661015D01*
X117903100Y-70754147D01*
X117748228Y-70818297D01*
X117583816Y-70851000D01*
X117416184Y-70851000D01*
X117251772Y-70818297D01*
X117096900Y-70754147D01*
X116957519Y-70661015D01*
X116838985Y-70542481D01*
X116745853Y-70403100D01*
X116681703Y-70248228D01*
X116649000Y-70083816D01*
X116649000Y-69916184D01*
X116681703Y-69751772D01*
X116745853Y-69596900D01*
X116838985Y-69457519D01*
X116957519Y-69338985D01*
X117096900Y-69245853D01*
X117251772Y-69181703D01*
X117416184Y-69149000D01*
X117583816Y-69149000D01*
X117748228Y-69181703D01*
X117748228Y-69181703D01*
G37*
G36*
X112748228Y-69181703D02*
G01*
X112903100Y-69245853D01*
X113042481Y-69338985D01*
X113161015Y-69457519D01*
X113254147Y-69596900D01*
X113318297Y-69751772D01*
X113351000Y-69916184D01*
X113351000Y-70083816D01*
X113318297Y-70248228D01*
X113254147Y-70403100D01*
X113161015Y-70542481D01*
X113042481Y-70661015D01*
X112903100Y-70754147D01*
X112748228Y-70818297D01*
X112583816Y-70851000D01*
X112416184Y-70851000D01*
X112251772Y-70818297D01*
X112096900Y-70754147D01*
X111957519Y-70661015D01*
X111838985Y-70542481D01*
X111745853Y-70403100D01*
X111681703Y-70248228D01*
X111649000Y-70083816D01*
X111649000Y-69916184D01*
X111681703Y-69751772D01*
X111745853Y-69596900D01*
X111838985Y-69457519D01*
X111957519Y-69338985D01*
X112096900Y-69245853D01*
X112251772Y-69181703D01*
X112416184Y-69149000D01*
X112583816Y-69149000D01*
X112748228Y-69181703D01*
X112748228Y-69181703D01*
G37*
G36*
X127748228Y-69181703D02*
G01*
X127903100Y-69245853D01*
X128042481Y-69338985D01*
X128161015Y-69457519D01*
X128254147Y-69596900D01*
X128318297Y-69751772D01*
X128351000Y-69916184D01*
X128351000Y-70083816D01*
X128318297Y-70248228D01*
X128254147Y-70403100D01*
X128161015Y-70542481D01*
X128042481Y-70661015D01*
X127903100Y-70754147D01*
X127748228Y-70818297D01*
X127583816Y-70851000D01*
X127416184Y-70851000D01*
X127251772Y-70818297D01*
X127096900Y-70754147D01*
X126957519Y-70661015D01*
X126838985Y-70542481D01*
X126745853Y-70403100D01*
X126681703Y-70248228D01*
X126649000Y-70083816D01*
X126649000Y-69916184D01*
X126681703Y-69751772D01*
X126745853Y-69596900D01*
X126838985Y-69457519D01*
X126957519Y-69338985D01*
X127096900Y-69245853D01*
X127251772Y-69181703D01*
X127416184Y-69149000D01*
X127583816Y-69149000D01*
X127748228Y-69181703D01*
X127748228Y-69181703D01*
G37*
G36*
X106342916Y-69207334D02*
G01*
X106451492Y-69240271D01*
X106451495Y-69240272D01*
X106487601Y-69259571D01*
X106551557Y-69293756D01*
X106639264Y-69365736D01*
X106702383Y-69442646D01*
X106719702Y-69459965D01*
X106740077Y-69473579D01*
X106762716Y-69482957D01*
X106786749Y-69487737D01*
X106811253Y-69487737D01*
X106835286Y-69482957D01*
X106857925Y-69473579D01*
X106878299Y-69459966D01*
X106895626Y-69442639D01*
X106909240Y-69422264D01*
X106918618Y-69399625D01*
X106923398Y-69375592D01*
X106924000Y-69363340D01*
X106924000Y-69199000D01*
X108076000Y-69199000D01*
X108076000Y-70801000D01*
X106924000Y-70801000D01*
X106924000Y-70636660D01*
X106921598Y-70612274D01*
X106914485Y-70588825D01*
X106902934Y-70567214D01*
X106887389Y-70548272D01*
X106868447Y-70532727D01*
X106846836Y-70521176D01*
X106823387Y-70514063D01*
X106799001Y-70511661D01*
X106774615Y-70514063D01*
X106751166Y-70521176D01*
X106729555Y-70532727D01*
X106702381Y-70557356D01*
X106639264Y-70634264D01*
X106551556Y-70706244D01*
X106487600Y-70740429D01*
X106451494Y-70759728D01*
X106451491Y-70759729D01*
X106342915Y-70792666D01*
X106230000Y-70803787D01*
X106117084Y-70792666D01*
X106008508Y-70759729D01*
X106008505Y-70759728D01*
X105972399Y-70740429D01*
X105908443Y-70706244D01*
X105820736Y-70634264D01*
X105748756Y-70546556D01*
X105705239Y-70465140D01*
X105691625Y-70444766D01*
X105674298Y-70427439D01*
X105653924Y-70413825D01*
X105631285Y-70404448D01*
X105607251Y-70399668D01*
X105582747Y-70399668D01*
X105558714Y-70404449D01*
X105536075Y-70413826D01*
X105515701Y-70427440D01*
X105498374Y-70444767D01*
X105484762Y-70465140D01*
X105441244Y-70546557D01*
X105369264Y-70634264D01*
X105281556Y-70706244D01*
X105217600Y-70740429D01*
X105181494Y-70759728D01*
X105181491Y-70759729D01*
X105072915Y-70792666D01*
X104960000Y-70803787D01*
X104847084Y-70792666D01*
X104738508Y-70759729D01*
X104738505Y-70759728D01*
X104702399Y-70740429D01*
X104638443Y-70706244D01*
X104550736Y-70634264D01*
X104478756Y-70546556D01*
X104435239Y-70465140D01*
X104425272Y-70446494D01*
X104419492Y-70427440D01*
X104392334Y-70337915D01*
X104384000Y-70253297D01*
X104384000Y-69746702D01*
X104392334Y-69662084D01*
X104425271Y-69553508D01*
X104425272Y-69553505D01*
X104478756Y-69453445D01*
X104478757Y-69453443D01*
X104550737Y-69365736D01*
X104638444Y-69293756D01*
X104702400Y-69259571D01*
X104738506Y-69240272D01*
X104738509Y-69240271D01*
X104847085Y-69207334D01*
X104960000Y-69196213D01*
X105072916Y-69207334D01*
X105181492Y-69240271D01*
X105181495Y-69240272D01*
X105217601Y-69259571D01*
X105281557Y-69293756D01*
X105369264Y-69365736D01*
X105441244Y-69453443D01*
X105457019Y-69482957D01*
X105484761Y-69534859D01*
X105498375Y-69555234D01*
X105515702Y-69572561D01*
X105536076Y-69586174D01*
X105558715Y-69595552D01*
X105582748Y-69600332D01*
X105607252Y-69600332D01*
X105631285Y-69595552D01*
X105653924Y-69586174D01*
X105674299Y-69572560D01*
X105691626Y-69555233D01*
X105705239Y-69534859D01*
X105748756Y-69453445D01*
X105748757Y-69453443D01*
X105820737Y-69365736D01*
X105908444Y-69293756D01*
X105972400Y-69259571D01*
X106008506Y-69240272D01*
X106008509Y-69240271D01*
X106117085Y-69207334D01*
X106230000Y-69196213D01*
X106342916Y-69207334D01*
X106342916Y-69207334D01*
G37*
G36*
X90072880Y-66872545D02*
G01*
X90147222Y-66879867D01*
X90288786Y-66922810D01*
X90419252Y-66992546D01*
X90449040Y-67016992D01*
X90533607Y-67086393D01*
X90581104Y-67144270D01*
X90627454Y-67200748D01*
X90697190Y-67331214D01*
X90740133Y-67472778D01*
X90754633Y-67620000D01*
X90740133Y-67767222D01*
X90697190Y-67908786D01*
X90627454Y-68039252D01*
X90603008Y-68069040D01*
X90533607Y-68153607D01*
X90450097Y-68222140D01*
X90419252Y-68247454D01*
X90288786Y-68317190D01*
X90147222Y-68360133D01*
X90073665Y-68367378D01*
X90036888Y-68371000D01*
X89963112Y-68371000D01*
X89926335Y-68367378D01*
X89852778Y-68360133D01*
X89711214Y-68317190D01*
X89580748Y-68247454D01*
X89549903Y-68222140D01*
X89466393Y-68153607D01*
X89396992Y-68069040D01*
X89372546Y-68039252D01*
X89302810Y-67908786D01*
X89259867Y-67767222D01*
X89245367Y-67620000D01*
X89259867Y-67472778D01*
X89302810Y-67331214D01*
X89372546Y-67200748D01*
X89418896Y-67144270D01*
X89466393Y-67086393D01*
X89550960Y-67016992D01*
X89580748Y-66992546D01*
X89711214Y-66922810D01*
X89852778Y-66879867D01*
X89927120Y-66872545D01*
X89963112Y-66869000D01*
X90036888Y-66869000D01*
X90072880Y-66872545D01*
X90072880Y-66872545D01*
G37*
G36*
X157719059Y-66777860D02*
G01*
X157779294Y-66802810D01*
X157855732Y-66834472D01*
X157978735Y-66916660D01*
X158083340Y-67021265D01*
X158165528Y-67144268D01*
X158222140Y-67280941D01*
X158251000Y-67426033D01*
X158251000Y-67573967D01*
X158222140Y-67719059D01*
X158165528Y-67855732D01*
X158083340Y-67978735D01*
X157978735Y-68083340D01*
X157855732Y-68165528D01*
X157855731Y-68165529D01*
X157855730Y-68165529D01*
X157719059Y-68222140D01*
X157573968Y-68251000D01*
X157426032Y-68251000D01*
X157280941Y-68222140D01*
X157144270Y-68165529D01*
X157144269Y-68165529D01*
X157144268Y-68165528D01*
X157021265Y-68083340D01*
X156916660Y-67978735D01*
X156834472Y-67855732D01*
X156777860Y-67719059D01*
X156749000Y-67573967D01*
X156749000Y-67426033D01*
X156777860Y-67280941D01*
X156834472Y-67144268D01*
X156916660Y-67021265D01*
X157021265Y-66916660D01*
X157144268Y-66834472D01*
X157220707Y-66802810D01*
X157280941Y-66777860D01*
X157426032Y-66749000D01*
X157573968Y-66749000D01*
X157719059Y-66777860D01*
X157719059Y-66777860D01*
G37*
G36*
X165193665Y-66752622D02*
G01*
X165267222Y-66759867D01*
X165408786Y-66802810D01*
X165539252Y-66872546D01*
X165569040Y-66896992D01*
X165653607Y-66966393D01*
X165723008Y-67050960D01*
X165747454Y-67080748D01*
X165817190Y-67211214D01*
X165860133Y-67352778D01*
X165874633Y-67500000D01*
X165860133Y-67647222D01*
X165817190Y-67788786D01*
X165747454Y-67919252D01*
X165723008Y-67949040D01*
X165653607Y-68033607D01*
X165593004Y-68083341D01*
X165539252Y-68127454D01*
X165408786Y-68197190D01*
X165267222Y-68240133D01*
X165193665Y-68247378D01*
X165156888Y-68251000D01*
X165083112Y-68251000D01*
X165046335Y-68247378D01*
X164972778Y-68240133D01*
X164831214Y-68197190D01*
X164700748Y-68127454D01*
X164646996Y-68083341D01*
X164586393Y-68033607D01*
X164516992Y-67949040D01*
X164492546Y-67919252D01*
X164422810Y-67788786D01*
X164379867Y-67647222D01*
X164365367Y-67500000D01*
X164379867Y-67352778D01*
X164422810Y-67211214D01*
X164492546Y-67080748D01*
X164516992Y-67050960D01*
X164586393Y-66966393D01*
X164670960Y-66896992D01*
X164700748Y-66872546D01*
X164831214Y-66802810D01*
X164972778Y-66759867D01*
X165046335Y-66752622D01*
X165083112Y-66749000D01*
X165156888Y-66749000D01*
X165193665Y-66752622D01*
X165193665Y-66752622D01*
G37*
G36*
X112748228Y-64181703D02*
G01*
X112903100Y-64245853D01*
X113042481Y-64338985D01*
X113161015Y-64457519D01*
X113254147Y-64596900D01*
X113318297Y-64751772D01*
X113351000Y-64916184D01*
X113351000Y-65083816D01*
X113318297Y-65248228D01*
X113254147Y-65403100D01*
X113161015Y-65542481D01*
X113042481Y-65661015D01*
X112903100Y-65754147D01*
X112748228Y-65818297D01*
X112583816Y-65851000D01*
X112416184Y-65851000D01*
X112251772Y-65818297D01*
X112096900Y-65754147D01*
X111957519Y-65661015D01*
X111838985Y-65542481D01*
X111745853Y-65403100D01*
X111681703Y-65248228D01*
X111649000Y-65083816D01*
X111649000Y-64916184D01*
X111681703Y-64751772D01*
X111745853Y-64596900D01*
X111838985Y-64457519D01*
X111957519Y-64338985D01*
X112096900Y-64245853D01*
X112251772Y-64181703D01*
X112416184Y-64149000D01*
X112583816Y-64149000D01*
X112748228Y-64181703D01*
X112748228Y-64181703D01*
G37*
G36*
X127748228Y-64181703D02*
G01*
X127903100Y-64245853D01*
X128042481Y-64338985D01*
X128161015Y-64457519D01*
X128254147Y-64596900D01*
X128318297Y-64751772D01*
X128351000Y-64916184D01*
X128351000Y-65083816D01*
X128318297Y-65248228D01*
X128254147Y-65403100D01*
X128161015Y-65542481D01*
X128042481Y-65661015D01*
X127903100Y-65754147D01*
X127748228Y-65818297D01*
X127583816Y-65851000D01*
X127416184Y-65851000D01*
X127251772Y-65818297D01*
X127096900Y-65754147D01*
X126957519Y-65661015D01*
X126838985Y-65542481D01*
X126745853Y-65403100D01*
X126681703Y-65248228D01*
X126649000Y-65083816D01*
X126649000Y-64916184D01*
X126681703Y-64751772D01*
X126745853Y-64596900D01*
X126838985Y-64457519D01*
X126957519Y-64338985D01*
X127096900Y-64245853D01*
X127251772Y-64181703D01*
X127416184Y-64149000D01*
X127583816Y-64149000D01*
X127748228Y-64181703D01*
X127748228Y-64181703D01*
G37*
G36*
X117748228Y-64181703D02*
G01*
X117903100Y-64245853D01*
X118042481Y-64338985D01*
X118161015Y-64457519D01*
X118254147Y-64596900D01*
X118318297Y-64751772D01*
X118351000Y-64916184D01*
X118351000Y-65083816D01*
X118318297Y-65248228D01*
X118254147Y-65403100D01*
X118161015Y-65542481D01*
X118042481Y-65661015D01*
X117903100Y-65754147D01*
X117748228Y-65818297D01*
X117583816Y-65851000D01*
X117416184Y-65851000D01*
X117251772Y-65818297D01*
X117096900Y-65754147D01*
X116957519Y-65661015D01*
X116838985Y-65542481D01*
X116745853Y-65403100D01*
X116681703Y-65248228D01*
X116649000Y-65083816D01*
X116649000Y-64916184D01*
X116681703Y-64751772D01*
X116745853Y-64596900D01*
X116838985Y-64457519D01*
X116957519Y-64338985D01*
X117096900Y-64245853D01*
X117251772Y-64181703D01*
X117416184Y-64149000D01*
X117583816Y-64149000D01*
X117748228Y-64181703D01*
X117748228Y-64181703D01*
G37*
G36*
X83401000Y-63401000D02*
G01*
X81599000Y-63401000D01*
X81599000Y-61599000D01*
X83401000Y-61599000D01*
X83401000Y-63401000D01*
X83401000Y-63401000D01*
G37*
G36*
X100248228Y-61681703D02*
G01*
X100403100Y-61745853D01*
X100542481Y-61838985D01*
X100661015Y-61957519D01*
X100754147Y-62096900D01*
X100818297Y-62251772D01*
X100851000Y-62416184D01*
X100851000Y-62583816D01*
X100818297Y-62748228D01*
X100754147Y-62903100D01*
X100661015Y-63042481D01*
X100542481Y-63161015D01*
X100403100Y-63254147D01*
X100248228Y-63318297D01*
X100083816Y-63351000D01*
X99916184Y-63351000D01*
X99751772Y-63318297D01*
X99596900Y-63254147D01*
X99457519Y-63161015D01*
X99338985Y-63042481D01*
X99245853Y-62903100D01*
X99181703Y-62748228D01*
X99149000Y-62583816D01*
X99149000Y-62416184D01*
X99181703Y-62251772D01*
X99245853Y-62096900D01*
X99338985Y-61957519D01*
X99457519Y-61838985D01*
X99596900Y-61745853D01*
X99751772Y-61681703D01*
X99916184Y-61649000D01*
X100083816Y-61649000D01*
X100248228Y-61681703D01*
X100248228Y-61681703D01*
G37*
G36*
X105248228Y-61681703D02*
G01*
X105403100Y-61745853D01*
X105542481Y-61838985D01*
X105661015Y-61957519D01*
X105754147Y-62096900D01*
X105818297Y-62251772D01*
X105851000Y-62416184D01*
X105851000Y-62583816D01*
X105818297Y-62748228D01*
X105754147Y-62903100D01*
X105661015Y-63042481D01*
X105542481Y-63161015D01*
X105403100Y-63254147D01*
X105248228Y-63318297D01*
X105083816Y-63351000D01*
X104916184Y-63351000D01*
X104751772Y-63318297D01*
X104596900Y-63254147D01*
X104457519Y-63161015D01*
X104338985Y-63042481D01*
X104245853Y-62903100D01*
X104181703Y-62748228D01*
X104149000Y-62583816D01*
X104149000Y-62416184D01*
X104181703Y-62251772D01*
X104245853Y-62096900D01*
X104338985Y-61957519D01*
X104457519Y-61838985D01*
X104596900Y-61745853D01*
X104751772Y-61681703D01*
X104916184Y-61649000D01*
X105083816Y-61649000D01*
X105248228Y-61681703D01*
X105248228Y-61681703D01*
G37*
G36*
X157453665Y-61752622D02*
G01*
X157527222Y-61759867D01*
X157668786Y-61802810D01*
X157799252Y-61872546D01*
X157829040Y-61896992D01*
X157913607Y-61966393D01*
X157983008Y-62050960D01*
X158007454Y-62080748D01*
X158077190Y-62211214D01*
X158120133Y-62352778D01*
X158134633Y-62500000D01*
X158120133Y-62647222D01*
X158077190Y-62788786D01*
X158007454Y-62919252D01*
X157983008Y-62949040D01*
X157913607Y-63033607D01*
X157853004Y-63083341D01*
X157799252Y-63127454D01*
X157668786Y-63197190D01*
X157527222Y-63240133D01*
X157453665Y-63247378D01*
X157416888Y-63251000D01*
X157343112Y-63251000D01*
X157306335Y-63247378D01*
X157232778Y-63240133D01*
X157091214Y-63197190D01*
X156960748Y-63127454D01*
X156906996Y-63083341D01*
X156846393Y-63033607D01*
X156776992Y-62949040D01*
X156752546Y-62919252D01*
X156682810Y-62788786D01*
X156639867Y-62647222D01*
X156625367Y-62500000D01*
X156639867Y-62352778D01*
X156682810Y-62211214D01*
X156752546Y-62080748D01*
X156776992Y-62050960D01*
X156846393Y-61966393D01*
X156930960Y-61896992D01*
X156960748Y-61872546D01*
X157091214Y-61802810D01*
X157232778Y-61759867D01*
X157306335Y-61752622D01*
X157343112Y-61749000D01*
X157416888Y-61749000D01*
X157453665Y-61752622D01*
X157453665Y-61752622D01*
G37*
G36*
X165219059Y-61777860D02*
G01*
X165279294Y-61802810D01*
X165355732Y-61834472D01*
X165478735Y-61916660D01*
X165583340Y-62021265D01*
X165665528Y-62144268D01*
X165722140Y-62280941D01*
X165751000Y-62426033D01*
X165751000Y-62573967D01*
X165722140Y-62719059D01*
X165665528Y-62855732D01*
X165583340Y-62978735D01*
X165478735Y-63083340D01*
X165355732Y-63165528D01*
X165355731Y-63165529D01*
X165355730Y-63165529D01*
X165219059Y-63222140D01*
X165073968Y-63251000D01*
X164926032Y-63251000D01*
X164780941Y-63222140D01*
X164644270Y-63165529D01*
X164644269Y-63165529D01*
X164644268Y-63165528D01*
X164521265Y-63083340D01*
X164416660Y-62978735D01*
X164334472Y-62855732D01*
X164277860Y-62719059D01*
X164249000Y-62573967D01*
X164249000Y-62426033D01*
X164277860Y-62280941D01*
X164334472Y-62144268D01*
X164416660Y-62021265D01*
X164521265Y-61916660D01*
X164644268Y-61834472D01*
X164720707Y-61802810D01*
X164780941Y-61777860D01*
X164926032Y-61749000D01*
X165073968Y-61749000D01*
X165219059Y-61777860D01*
X165219059Y-61777860D01*
G37*
G36*
X82610442Y-59065518D02*
G01*
X82676627Y-59072037D01*
X82846466Y-59123557D01*
X83002991Y-59207222D01*
X83038729Y-59236552D01*
X83140186Y-59319814D01*
X83219663Y-59416659D01*
X83252778Y-59457009D01*
X83336443Y-59613534D01*
X83387963Y-59783373D01*
X83405359Y-59960000D01*
X83387963Y-60136627D01*
X83336443Y-60306466D01*
X83252778Y-60462991D01*
X83239857Y-60478735D01*
X83140186Y-60600186D01*
X83060565Y-60665528D01*
X83002991Y-60712778D01*
X82846466Y-60796443D01*
X82676627Y-60847963D01*
X82610443Y-60854481D01*
X82544260Y-60861000D01*
X82455740Y-60861000D01*
X82389557Y-60854481D01*
X82323373Y-60847963D01*
X82153534Y-60796443D01*
X81997009Y-60712778D01*
X81939435Y-60665528D01*
X81859814Y-60600186D01*
X81760143Y-60478735D01*
X81747222Y-60462991D01*
X81663557Y-60306466D01*
X81612037Y-60136627D01*
X81594641Y-59960000D01*
X81612037Y-59783373D01*
X81663557Y-59613534D01*
X81747222Y-59457009D01*
X81780337Y-59416659D01*
X81859814Y-59319814D01*
X81961271Y-59236552D01*
X81997009Y-59207222D01*
X82153534Y-59123557D01*
X82323373Y-59072037D01*
X82389558Y-59065518D01*
X82455740Y-59059000D01*
X82544260Y-59059000D01*
X82610442Y-59065518D01*
X82610442Y-59065518D01*
G37*
G36*
X90219059Y-59277860D02*
G01*
X90355732Y-59334472D01*
X90478735Y-59416660D01*
X90583340Y-59521265D01*
X90583341Y-59521267D01*
X90665529Y-59644270D01*
X90722140Y-59780941D01*
X90751000Y-59926032D01*
X90751000Y-60073968D01*
X90722140Y-60219059D01*
X90665528Y-60355732D01*
X90583340Y-60478735D01*
X90478735Y-60583340D01*
X90355732Y-60665528D01*
X90355731Y-60665529D01*
X90355730Y-60665529D01*
X90219059Y-60722140D01*
X90073968Y-60751000D01*
X89926032Y-60751000D01*
X89780941Y-60722140D01*
X89644270Y-60665529D01*
X89644269Y-60665529D01*
X89644268Y-60665528D01*
X89521265Y-60583340D01*
X89416660Y-60478735D01*
X89334472Y-60355732D01*
X89277860Y-60219059D01*
X89249000Y-60073968D01*
X89249000Y-59926032D01*
X89277860Y-59780941D01*
X89334471Y-59644270D01*
X89416659Y-59521267D01*
X89416660Y-59521265D01*
X89521265Y-59416660D01*
X89644268Y-59334472D01*
X89780941Y-59277860D01*
X89926032Y-59249000D01*
X90073968Y-59249000D01*
X90219059Y-59277860D01*
X90219059Y-59277860D01*
G37*
G36*
X100901000Y-58401000D02*
G01*
X99099000Y-58401000D01*
X99099000Y-56599000D01*
X100901000Y-56599000D01*
X100901000Y-58401000D01*
X100901000Y-58401000D01*
G37*
G36*
X102650443Y-56605519D02*
G01*
X102716627Y-56612037D01*
X102886466Y-56663557D01*
X103042991Y-56747222D01*
X103078729Y-56776552D01*
X103180186Y-56859814D01*
X103263448Y-56961271D01*
X103292778Y-56997009D01*
X103376443Y-57153534D01*
X103427963Y-57323373D01*
X103445359Y-57500000D01*
X103427963Y-57676627D01*
X103376443Y-57846466D01*
X103292778Y-58002991D01*
X103267653Y-58033606D01*
X103180186Y-58140186D01*
X103110725Y-58197190D01*
X103042991Y-58252778D01*
X102886466Y-58336443D01*
X102716627Y-58387963D01*
X102650443Y-58394481D01*
X102584260Y-58401000D01*
X102495740Y-58401000D01*
X102429557Y-58394481D01*
X102363373Y-58387963D01*
X102193534Y-58336443D01*
X102037009Y-58252778D01*
X101969275Y-58197190D01*
X101899814Y-58140186D01*
X101812347Y-58033606D01*
X101787222Y-58002991D01*
X101703557Y-57846466D01*
X101652037Y-57676627D01*
X101634641Y-57500000D01*
X101652037Y-57323373D01*
X101703557Y-57153534D01*
X101787222Y-56997009D01*
X101816552Y-56961271D01*
X101899814Y-56859814D01*
X102001271Y-56776552D01*
X102037009Y-56747222D01*
X102193534Y-56663557D01*
X102363373Y-56612037D01*
X102429557Y-56605519D01*
X102495740Y-56599000D01*
X102584260Y-56599000D01*
X102650443Y-56605519D01*
X102650443Y-56605519D01*
G37*
G36*
X107453665Y-56752622D02*
G01*
X107527222Y-56759867D01*
X107668786Y-56802810D01*
X107799252Y-56872546D01*
X107829040Y-56896992D01*
X107913607Y-56966393D01*
X107983008Y-57050960D01*
X108007454Y-57080748D01*
X108077190Y-57211214D01*
X108120133Y-57352778D01*
X108134633Y-57500000D01*
X108120133Y-57647222D01*
X108077190Y-57788786D01*
X108007454Y-57919252D01*
X107983008Y-57949040D01*
X107913607Y-58033607D01*
X107853004Y-58083341D01*
X107799252Y-58127454D01*
X107668786Y-58197190D01*
X107527222Y-58240133D01*
X107453665Y-58247378D01*
X107416888Y-58251000D01*
X107343112Y-58251000D01*
X107306335Y-58247378D01*
X107232778Y-58240133D01*
X107091214Y-58197190D01*
X106960748Y-58127454D01*
X106906996Y-58083341D01*
X106846393Y-58033607D01*
X106776992Y-57949040D01*
X106752546Y-57919252D01*
X106682810Y-57788786D01*
X106639867Y-57647222D01*
X106625367Y-57500000D01*
X106639867Y-57352778D01*
X106682810Y-57211214D01*
X106752546Y-57080748D01*
X106776992Y-57050960D01*
X106846393Y-56966393D01*
X106930960Y-56896992D01*
X106960748Y-56872546D01*
X107091214Y-56802810D01*
X107232778Y-56759867D01*
X107306335Y-56752622D01*
X107343112Y-56749000D01*
X107416888Y-56749000D01*
X107453665Y-56752622D01*
X107453665Y-56752622D01*
G37*
G36*
X115219059Y-56777860D02*
G01*
X115279294Y-56802810D01*
X115355732Y-56834472D01*
X115478735Y-56916660D01*
X115583340Y-57021265D01*
X115665528Y-57144268D01*
X115665529Y-57144270D01*
X115722140Y-57280941D01*
X115751000Y-57426032D01*
X115751000Y-57573968D01*
X115730580Y-57676627D01*
X115722140Y-57719059D01*
X115665528Y-57855732D01*
X115583340Y-57978735D01*
X115478735Y-58083340D01*
X115355732Y-58165528D01*
X115355731Y-58165529D01*
X115355730Y-58165529D01*
X115219059Y-58222140D01*
X115073968Y-58251000D01*
X114926032Y-58251000D01*
X114780941Y-58222140D01*
X114644270Y-58165529D01*
X114644269Y-58165529D01*
X114644268Y-58165528D01*
X114521265Y-58083340D01*
X114416660Y-57978735D01*
X114334472Y-57855732D01*
X114277860Y-57719059D01*
X114269420Y-57676627D01*
X114249000Y-57573968D01*
X114249000Y-57426032D01*
X114277860Y-57280941D01*
X114334471Y-57144270D01*
X114334472Y-57144268D01*
X114416660Y-57021265D01*
X114521265Y-56916660D01*
X114644268Y-56834472D01*
X114720707Y-56802810D01*
X114780941Y-56777860D01*
X114926032Y-56749000D01*
X115073968Y-56749000D01*
X115219059Y-56777860D01*
X115219059Y-56777860D01*
G37*
G36*
X58134239Y-46811467D02*
G01*
X58448282Y-46873934D01*
X59039926Y-47119001D01*
X59572392Y-47474784D01*
X60025216Y-47927608D01*
X60380999Y-48460074D01*
X60626066Y-49051718D01*
X60626066Y-49051719D01*
X60751000Y-49679803D01*
X60751000Y-50320197D01*
X60714640Y-50502989D01*
X60626066Y-50948282D01*
X60380999Y-51539926D01*
X60025216Y-52072392D01*
X59572392Y-52525216D01*
X59039926Y-52880999D01*
X58448282Y-53126066D01*
X58134239Y-53188533D01*
X57820197Y-53251000D01*
X57179803Y-53251000D01*
X56865761Y-53188533D01*
X56551718Y-53126066D01*
X55960074Y-52880999D01*
X55427608Y-52525216D01*
X54974784Y-52072392D01*
X54619001Y-51539926D01*
X54373934Y-50948282D01*
X54285360Y-50502989D01*
X54249000Y-50320197D01*
X54249000Y-49679803D01*
X54373934Y-49051719D01*
X54373934Y-49051718D01*
X54619001Y-48460074D01*
X54974784Y-47927608D01*
X55427608Y-47474784D01*
X55960074Y-47119001D01*
X56551718Y-46873934D01*
X56865761Y-46811467D01*
X57179803Y-46749000D01*
X57820197Y-46749000D01*
X58134239Y-46811467D01*
X58134239Y-46811467D01*
G37*
G36*
X168134239Y-46811467D02*
G01*
X168448282Y-46873934D01*
X169039926Y-47119001D01*
X169572392Y-47474784D01*
X170025216Y-47927608D01*
X170380999Y-48460074D01*
X170626066Y-49051718D01*
X170626066Y-49051719D01*
X170751000Y-49679803D01*
X170751000Y-50320197D01*
X170714640Y-50502989D01*
X170626066Y-50948282D01*
X170380999Y-51539926D01*
X170025216Y-52072392D01*
X169572392Y-52525216D01*
X169039926Y-52880999D01*
X168448282Y-53126066D01*
X168134239Y-53188533D01*
X167820197Y-53251000D01*
X167179803Y-53251000D01*
X166865761Y-53188533D01*
X166551718Y-53126066D01*
X165960074Y-52880999D01*
X165427608Y-52525216D01*
X164974784Y-52072392D01*
X164619001Y-51539926D01*
X164373934Y-50948282D01*
X164285360Y-50502989D01*
X164249000Y-50320197D01*
X164249000Y-49679803D01*
X164373934Y-49051719D01*
X164373934Y-49051718D01*
X164619001Y-48460074D01*
X164974784Y-47927608D01*
X165427608Y-47474784D01*
X165960074Y-47119001D01*
X166551718Y-46873934D01*
X166865761Y-46811467D01*
X167179803Y-46749000D01*
X167820197Y-46749000D01*
X168134239Y-46811467D01*
X168134239Y-46811467D01*
G37*
G36*
X102650443Y-49105519D02*
G01*
X102716627Y-49112037D01*
X102886466Y-49163557D01*
X103042991Y-49247222D01*
X103078729Y-49276552D01*
X103180186Y-49359814D01*
X103263448Y-49461271D01*
X103292778Y-49497009D01*
X103376443Y-49653534D01*
X103427963Y-49823373D01*
X103445359Y-50000000D01*
X103427963Y-50176627D01*
X103376443Y-50346466D01*
X103292778Y-50502991D01*
X103263448Y-50538729D01*
X103180186Y-50640186D01*
X103078729Y-50723448D01*
X103042991Y-50752778D01*
X102886466Y-50836443D01*
X102716627Y-50887963D01*
X102650443Y-50894481D01*
X102584260Y-50901000D01*
X102495740Y-50901000D01*
X102429557Y-50894481D01*
X102363373Y-50887963D01*
X102193534Y-50836443D01*
X102037009Y-50752778D01*
X102001271Y-50723448D01*
X101899814Y-50640186D01*
X101816552Y-50538729D01*
X101787222Y-50502991D01*
X101703557Y-50346466D01*
X101652037Y-50176627D01*
X101634641Y-50000000D01*
X101652037Y-49823373D01*
X101703557Y-49653534D01*
X101787222Y-49497009D01*
X101816552Y-49461271D01*
X101899814Y-49359814D01*
X102001271Y-49276552D01*
X102037009Y-49247222D01*
X102193534Y-49163557D01*
X102363373Y-49112037D01*
X102429557Y-49105519D01*
X102495740Y-49099000D01*
X102584260Y-49099000D01*
X102650443Y-49105519D01*
X102650443Y-49105519D01*
G37*
G36*
X100901000Y-50901000D02*
G01*
X99099000Y-50901000D01*
X99099000Y-49099000D01*
X100901000Y-49099000D01*
X100901000Y-50901000D01*
X100901000Y-50901000D01*
G37*
G36*
X110901000Y-50901000D02*
G01*
X109099000Y-50901000D01*
X109099000Y-49099000D01*
X110901000Y-49099000D01*
X110901000Y-50901000D01*
X110901000Y-50901000D01*
G37*
G36*
X112650443Y-49105519D02*
G01*
X112716627Y-49112037D01*
X112886466Y-49163557D01*
X113042991Y-49247222D01*
X113078729Y-49276552D01*
X113180186Y-49359814D01*
X113263448Y-49461271D01*
X113292778Y-49497009D01*
X113376443Y-49653534D01*
X113427963Y-49823373D01*
X113445359Y-50000000D01*
X113427963Y-50176627D01*
X113376443Y-50346466D01*
X113292778Y-50502991D01*
X113263448Y-50538729D01*
X113180186Y-50640186D01*
X113078729Y-50723448D01*
X113042991Y-50752778D01*
X112886466Y-50836443D01*
X112716627Y-50887963D01*
X112650443Y-50894481D01*
X112584260Y-50901000D01*
X112495740Y-50901000D01*
X112429557Y-50894481D01*
X112363373Y-50887963D01*
X112193534Y-50836443D01*
X112037009Y-50752778D01*
X112001271Y-50723448D01*
X111899814Y-50640186D01*
X111816552Y-50538729D01*
X111787222Y-50502991D01*
X111703557Y-50346466D01*
X111652037Y-50176627D01*
X111634641Y-50000000D01*
X111652037Y-49823373D01*
X111703557Y-49653534D01*
X111787222Y-49497009D01*
X111816552Y-49461271D01*
X111899814Y-49359814D01*
X112001271Y-49276552D01*
X112037009Y-49247222D01*
X112193534Y-49163557D01*
X112363373Y-49112037D01*
X112429557Y-49105519D01*
X112495740Y-49099000D01*
X112584260Y-49099000D01*
X112650443Y-49105519D01*
X112650443Y-49105519D01*
G37*
M02*
