G04 #@! TF.GenerationSoftware,KiCad,Pcbnew,(5.1.9)-1*
G04 #@! TF.CreationDate,2021-05-02T21:25:52+02:00*
G04 #@! TF.ProjectId,usb_pcb,7573625f-7063-4622-9e6b-696361645f70,0*
G04 #@! TF.SameCoordinates,Original*
G04 #@! TF.FileFunction,Copper,L1,Top*
G04 #@! TF.FilePolarity,Positive*
%FSLAX46Y46*%
G04 Gerber Fmt 4.6, Leading zero omitted, Abs format (unit mm)*
G04 Created by KiCad (PCBNEW (5.1.9)-1) date 2021-05-02 21:25:52*
%MOMM*%
%LPD*%
G01*
G04 APERTURE LIST*
G04 #@! TA.AperFunction,ComponentPad*
%ADD10C,0.800000*%
G04 #@! TD*
G04 #@! TA.AperFunction,ComponentPad*
%ADD11C,6.400000*%
G04 #@! TD*
G04 #@! TA.AperFunction,ComponentPad*
%ADD12O,1.700000X1.700000*%
G04 #@! TD*
G04 #@! TA.AperFunction,ComponentPad*
%ADD13R,1.700000X1.700000*%
G04 #@! TD*
G04 #@! TA.AperFunction,ComponentPad*
%ADD14O,1.400000X1.400000*%
G04 #@! TD*
G04 #@! TA.AperFunction,ComponentPad*
%ADD15C,1.400000*%
G04 #@! TD*
G04 #@! TA.AperFunction,ComponentPad*
%ADD16R,1.500000X1.050000*%
G04 #@! TD*
G04 #@! TA.AperFunction,ComponentPad*
%ADD17O,1.500000X1.050000*%
G04 #@! TD*
G04 #@! TA.AperFunction,ComponentPad*
%ADD18O,2.200000X2.200000*%
G04 #@! TD*
G04 #@! TA.AperFunction,ComponentPad*
%ADD19R,2.200000X2.200000*%
G04 #@! TD*
G04 #@! TA.AperFunction,ComponentPad*
%ADD20C,1.600000*%
G04 #@! TD*
G04 #@! TA.AperFunction,ComponentPad*
%ADD21O,2.400000X1.600000*%
G04 #@! TD*
G04 #@! TA.AperFunction,ComponentPad*
%ADD22R,2.400000X1.600000*%
G04 #@! TD*
G04 #@! TA.AperFunction,ViaPad*
%ADD23C,1.000000*%
G04 #@! TD*
G04 #@! TA.AperFunction,Conductor*
%ADD24C,1.000000*%
G04 #@! TD*
G04 #@! TA.AperFunction,NonConductor*
%ADD25C,0.254000*%
G04 #@! TD*
G04 #@! TA.AperFunction,NonConductor*
%ADD26C,0.100000*%
G04 #@! TD*
G04 #@! TA.AperFunction,Conductor*
%ADD27C,0.254000*%
G04 #@! TD*
G04 #@! TA.AperFunction,Conductor*
%ADD28C,0.100000*%
G04 #@! TD*
G04 APERTURE END LIST*
D10*
X59197056Y-100802944D03*
X57500000Y-100100000D03*
X55802944Y-100802944D03*
X55100000Y-102500000D03*
X55802944Y-104197056D03*
X57500000Y-104900000D03*
X59197056Y-104197056D03*
X59900000Y-102500000D03*
D11*
X57500000Y-102500000D03*
D10*
X59197056Y-48302944D03*
X57500000Y-47600000D03*
X55802944Y-48302944D03*
X55100000Y-50000000D03*
X55802944Y-51697056D03*
X57500000Y-52400000D03*
X59197056Y-51697056D03*
X59900000Y-50000000D03*
D11*
X57500000Y-50000000D03*
D10*
X169197056Y-98302944D03*
X167500000Y-97600000D03*
X165802944Y-98302944D03*
X165100000Y-100000000D03*
X165802944Y-101697056D03*
X167500000Y-102400000D03*
X169197056Y-101697056D03*
X169900000Y-100000000D03*
D11*
X167500000Y-100000000D03*
D10*
X169197056Y-48302944D03*
X167500000Y-47600000D03*
X165802944Y-48302944D03*
X165100000Y-50000000D03*
X165802944Y-51697056D03*
X167500000Y-52400000D03*
X169197056Y-51697056D03*
X169900000Y-50000000D03*
D11*
X167500000Y-50000000D03*
D12*
X90000000Y-72380000D03*
X90000000Y-74920000D03*
X90000000Y-77460000D03*
D13*
X90000000Y-80000000D03*
D12*
X170000000Y-74960000D03*
X170000000Y-77500000D03*
X170000000Y-80040000D03*
X170000000Y-82580000D03*
X170000000Y-85120000D03*
X170000000Y-87660000D03*
X170000000Y-90200000D03*
D13*
X170000000Y-92740000D03*
D12*
X132620000Y-100000000D03*
X130080000Y-100000000D03*
X127540000Y-100000000D03*
X125000000Y-100000000D03*
X122460000Y-100000000D03*
X119920000Y-100000000D03*
X117380000Y-100000000D03*
D13*
X114840000Y-100000000D03*
D14*
X106620000Y-58000000D03*
D15*
X99000000Y-58000000D03*
D12*
X98960000Y-52000000D03*
D13*
X101500000Y-52000000D03*
D12*
X111460000Y-58000000D03*
D13*
X114000000Y-58000000D03*
D12*
X111460000Y-52000000D03*
D13*
X114000000Y-52000000D03*
D12*
X139960000Y-102500000D03*
D13*
X142500000Y-102500000D03*
D12*
X97500000Y-84960000D03*
D13*
X97500000Y-87500000D03*
D12*
X104040000Y-100000000D03*
D13*
X101500000Y-100000000D03*
D12*
X55000000Y-75040000D03*
D13*
X55000000Y-72500000D03*
D16*
X107000000Y-70000000D03*
D17*
X107000000Y-67460000D03*
X107000000Y-68730000D03*
D14*
X165120000Y-67500000D03*
D15*
X157500000Y-67500000D03*
D14*
X157380000Y-62500000D03*
D15*
X165000000Y-62500000D03*
D14*
X67500000Y-72380000D03*
D15*
X67500000Y-80000000D03*
D18*
X62500000Y-69840000D03*
D19*
X62500000Y-80000000D03*
D20*
X99000000Y-63000000D03*
X104000000Y-63000000D03*
D21*
X160120000Y-75000000D03*
X152500000Y-90240000D03*
X160120000Y-77540000D03*
X152500000Y-87700000D03*
X160120000Y-80080000D03*
X152500000Y-85160000D03*
X160120000Y-82620000D03*
X152500000Y-82620000D03*
X160120000Y-85160000D03*
X152500000Y-80080000D03*
X160120000Y-87700000D03*
X152500000Y-77540000D03*
X160120000Y-90240000D03*
D22*
X152500000Y-75000000D03*
D21*
X112620000Y-82500000D03*
X105000000Y-90120000D03*
X112620000Y-85040000D03*
X105000000Y-87580000D03*
X112620000Y-87580000D03*
X105000000Y-85040000D03*
X112620000Y-90120000D03*
D22*
X105000000Y-82500000D03*
D21*
X82620000Y-72500000D03*
X75000000Y-77580000D03*
X82620000Y-75040000D03*
X75000000Y-75040000D03*
X82620000Y-77580000D03*
D22*
X75000000Y-72500000D03*
D21*
X127620000Y-82500000D03*
X120000000Y-90120000D03*
X127620000Y-85040000D03*
X120000000Y-87580000D03*
X127620000Y-87580000D03*
X120000000Y-85040000D03*
X127620000Y-90120000D03*
D22*
X120000000Y-82500000D03*
D14*
X90000000Y-95120000D03*
D15*
X90000000Y-87500000D03*
D14*
X90000000Y-67620000D03*
D15*
X90000000Y-60000000D03*
D14*
X140000000Y-85120000D03*
D15*
X140000000Y-77500000D03*
D14*
X82500000Y-87380000D03*
D15*
X82500000Y-95000000D03*
D14*
X127380000Y-75000000D03*
D15*
X135000000Y-75000000D03*
D14*
X140000000Y-97620000D03*
D15*
X140000000Y-90000000D03*
D20*
X117500000Y-65000000D03*
X117500000Y-70000000D03*
X112500000Y-65000000D03*
X112500000Y-70000000D03*
X127500000Y-65000000D03*
X127500000Y-70000000D03*
X145000000Y-82500000D03*
X145000000Y-77500000D03*
X132500000Y-85000000D03*
X132500000Y-90000000D03*
D23*
X117500000Y-63000000D03*
X117500000Y-67000000D03*
X119500000Y-65000000D03*
D24*
X169960000Y-82620000D02*
X170000000Y-82580000D01*
X89880000Y-95000000D02*
X90000000Y-95120000D01*
X135000000Y-82500000D02*
X132500000Y-85000000D01*
X145000000Y-82500000D02*
X135000000Y-82500000D01*
X142500000Y-96000000D02*
X142500000Y-102500000D01*
X141000000Y-94500000D02*
X142500000Y-96000000D01*
X134677902Y-94500000D02*
X141000000Y-94500000D01*
X132620000Y-96557902D02*
X134677902Y-94500000D01*
X132620000Y-100000000D02*
X132620000Y-96557902D01*
X108750000Y-68730000D02*
X109000000Y-68480000D01*
X107000000Y-68730000D02*
X108750000Y-68730000D01*
X109000000Y-68480000D02*
X109000000Y-66000000D01*
X110000000Y-65000000D02*
X112500000Y-65000000D01*
X109000000Y-66000000D02*
X110000000Y-65000000D01*
X112500000Y-65000000D02*
X117500000Y-65000000D01*
X107000000Y-68730000D02*
X100730000Y-68730000D01*
X99000000Y-67000000D02*
X99000000Y-63000000D01*
X100730000Y-68730000D02*
X99000000Y-67000000D01*
X99000000Y-52040000D02*
X98960000Y-52000000D01*
X98960000Y-62960000D02*
X99000000Y-63000000D01*
X98960000Y-52000000D02*
X98960000Y-62960000D01*
X117500000Y-65000000D02*
X117500000Y-63000000D01*
X117500000Y-65000000D02*
X119500000Y-65000000D01*
X117500000Y-65000000D02*
X117500000Y-67000000D01*
X132380000Y-90120000D02*
X132500000Y-90000000D01*
X127620000Y-90120000D02*
X132380000Y-90120000D01*
X112500000Y-70000000D02*
X117500000Y-70000000D01*
X127620000Y-82500000D02*
X127220000Y-82500000D01*
X122200000Y-90120000D02*
X124360000Y-87960000D01*
X120000000Y-90120000D02*
X122200000Y-90120000D01*
X124360000Y-81440000D02*
X124360000Y-81360000D01*
X125420000Y-82500000D02*
X124360000Y-81440000D01*
X127620000Y-82500000D02*
X125420000Y-82500000D01*
X124360000Y-87960000D02*
X124360000Y-81360000D01*
X124360000Y-81360000D02*
X124360000Y-79640000D01*
X112620000Y-85040000D02*
X113082167Y-85040000D01*
X113082167Y-85040000D02*
X117500000Y-80622167D01*
X147843202Y-82620000D02*
X152500000Y-82620000D01*
X89960000Y-59960000D02*
X90000000Y-60000000D01*
X135000000Y-75000000D02*
X135000000Y-76000000D01*
X145883201Y-80659999D02*
X147843202Y-82620000D01*
X139659999Y-80659999D02*
X145883201Y-80659999D01*
X135000000Y-76000000D02*
X139659999Y-80659999D01*
X107000000Y-70000000D02*
X112500000Y-70000000D01*
X140000000Y-77500000D02*
X145000000Y-77500000D01*
X147580000Y-80080000D02*
X145000000Y-77500000D01*
X152500000Y-80080000D02*
X147580000Y-80080000D01*
X152500000Y-80080000D02*
X160120000Y-80080000D01*
X159657833Y-85160000D02*
X160120000Y-85160000D01*
X152500000Y-80080000D02*
X154577833Y-80080000D01*
X154700000Y-85160000D02*
X152500000Y-85160000D01*
X156498917Y-82001083D02*
X156498917Y-83361083D01*
X156498917Y-82001083D02*
X159657833Y-85160000D01*
X154577833Y-80080000D02*
X156498917Y-82001083D01*
X156498917Y-83361083D02*
X154700000Y-85160000D01*
X127500000Y-74880000D02*
X127380000Y-75000000D01*
X127500000Y-70000000D02*
X127500000Y-74880000D01*
X127620000Y-86120000D02*
X127620000Y-85502167D01*
X127620000Y-87580000D02*
X127620000Y-86120000D01*
X128880000Y-86120000D02*
X127620000Y-86120000D01*
X129860010Y-80860010D02*
X129860010Y-85139990D01*
X127380000Y-75000000D02*
X127380000Y-78380000D01*
X129860010Y-85139990D02*
X128880000Y-86120000D01*
X127380000Y-78380000D02*
X129860010Y-80860010D01*
X107000000Y-67460000D02*
X105460000Y-67460000D01*
X104000000Y-66000000D02*
X104000000Y-63000000D01*
X105460000Y-67460000D02*
X104000000Y-66000000D01*
X114000000Y-52000000D02*
X114000000Y-58000000D01*
X114000000Y-58000000D02*
X114000000Y-59000000D01*
X114000000Y-59000000D02*
X112000000Y-61000000D01*
X112000000Y-61000000D02*
X105000000Y-61000000D01*
X104000000Y-62000000D02*
X104000000Y-63000000D01*
X105000000Y-61000000D02*
X104000000Y-62000000D01*
X60160000Y-69840000D02*
X62500000Y-69840000D01*
X55000000Y-72500000D02*
X57500000Y-72500000D01*
X57500000Y-72500000D02*
X60160000Y-69840000D01*
X62500000Y-80000000D02*
X67500000Y-80000000D01*
X120000000Y-87580000D02*
X120462167Y-87580000D01*
X125000000Y-98797919D02*
X125000000Y-100000000D01*
X125000000Y-98000000D02*
X125000000Y-98797919D01*
X119920000Y-98797919D02*
X120717919Y-98000000D01*
X119920000Y-100000000D02*
X119920000Y-98797919D01*
X130080000Y-98797919D02*
X130080000Y-100000000D01*
X129282081Y-98000000D02*
X130080000Y-98797919D01*
X125000000Y-98000000D02*
X129282081Y-98000000D01*
X121500000Y-98000000D02*
X125000000Y-98000000D01*
X120717919Y-98000000D02*
X121500000Y-98000000D01*
X114840000Y-98150000D02*
X114840000Y-100000000D01*
X114990000Y-98000000D02*
X114840000Y-98150000D01*
X140000000Y-90000000D02*
X140000000Y-85120000D01*
X140000000Y-90000000D02*
X137000000Y-90000000D01*
X137000000Y-90000000D02*
X132000000Y-95000000D01*
X119537833Y-87580000D02*
X117000000Y-90117833D01*
X120000000Y-87580000D02*
X119537833Y-87580000D01*
X121500000Y-98000000D02*
X117000000Y-98000000D01*
X117000000Y-98000000D02*
X114990000Y-98000000D01*
X117000000Y-92000000D02*
X120000000Y-95000000D01*
X117000000Y-90117833D02*
X117000000Y-92000000D01*
X120000000Y-95000000D02*
X128000000Y-95000000D01*
X132000000Y-95000000D02*
X128000000Y-95000000D01*
X128000000Y-95000000D02*
X127000000Y-95000000D01*
X117000000Y-90117833D02*
X117000000Y-98000000D01*
X74880000Y-72380000D02*
X75000000Y-72500000D01*
X67500000Y-72380000D02*
X74880000Y-72380000D01*
X152500000Y-77540000D02*
X152500000Y-75000000D01*
X154500000Y-62500000D02*
X157380000Y-62500000D01*
X152500000Y-75000000D02*
X152500000Y-64500000D01*
X152500000Y-64500000D02*
X154500000Y-62500000D01*
X55000000Y-75040000D02*
X75000000Y-75040000D01*
X90000000Y-72380000D02*
X90000000Y-67620000D01*
X90000000Y-80000000D02*
X90000000Y-87500000D01*
X90000000Y-72380000D02*
X91880000Y-72380000D01*
X91880000Y-72380000D02*
X93000000Y-73500000D01*
X91850000Y-80000000D02*
X90000000Y-80000000D01*
X93000000Y-78850000D02*
X91850000Y-80000000D01*
X93000000Y-73500000D02*
X93000000Y-78850000D01*
X104920000Y-84960000D02*
X105000000Y-85040000D01*
X97500000Y-84960000D02*
X104920000Y-84960000D01*
X97580000Y-87580000D02*
X97500000Y-87500000D01*
X105000000Y-87580000D02*
X97580000Y-87580000D01*
X139960000Y-97660000D02*
X140000000Y-97620000D01*
X139960000Y-102500000D02*
X139960000Y-97660000D01*
X152500000Y-90240000D02*
X152900000Y-90240000D01*
X152500000Y-89000000D02*
X152500000Y-87700000D01*
X152500000Y-90240000D02*
X152500000Y-89000000D01*
X158500000Y-92500000D02*
X166497919Y-92500000D01*
X168797919Y-90200000D02*
X170000000Y-90200000D01*
X152500000Y-89000000D02*
X155000000Y-89000000D01*
X166497919Y-92500000D02*
X168797919Y-90200000D01*
X155000000Y-89000000D02*
X158500000Y-92500000D01*
X101500000Y-52000000D02*
X111460000Y-52000000D01*
X111460000Y-58000000D02*
X106620000Y-58000000D01*
X170000000Y-74960000D02*
X167960000Y-74960000D01*
X165120000Y-72120000D02*
X165120000Y-67500000D01*
X167960000Y-74960000D02*
X165120000Y-72120000D01*
X165000000Y-62500000D02*
X165000000Y-67380000D01*
X165000000Y-67380000D02*
X165120000Y-67500000D01*
X160120000Y-76380000D02*
X160120000Y-77540000D01*
X160120000Y-75000000D02*
X160120000Y-76380000D01*
X168797919Y-80040000D02*
X170000000Y-80040000D01*
X160120000Y-76380000D02*
X162380000Y-76380000D01*
X166040000Y-80040000D02*
X168797919Y-80040000D01*
X162380000Y-76380000D02*
X166040000Y-80040000D01*
X168797919Y-85120000D02*
X170000000Y-85120000D01*
X160120000Y-89120000D02*
X160120000Y-87700000D01*
X160120000Y-90240000D02*
X160120000Y-89120000D01*
X165380000Y-85120000D02*
X170000000Y-85120000D01*
X160120000Y-89120000D02*
X161380000Y-89120000D01*
X161380000Y-89120000D02*
X165380000Y-85120000D01*
X117360000Y-85040000D02*
X117800000Y-85040000D01*
X117800000Y-85040000D02*
X120000000Y-85040000D01*
X114820000Y-87580000D02*
X117360000Y-85040000D01*
X112620000Y-87580000D02*
X114820000Y-87580000D01*
X112620000Y-87580000D02*
X109920000Y-87580000D01*
X109920000Y-87580000D02*
X108000000Y-89500000D01*
X108000000Y-89500000D02*
X108000000Y-98500000D01*
X106500000Y-100000000D02*
X104040000Y-100000000D01*
X108000000Y-98500000D02*
X106500000Y-100000000D01*
X89880000Y-77580000D02*
X90000000Y-77460000D01*
X82620000Y-77580000D02*
X84820000Y-77580000D01*
X90000000Y-77460000D02*
X90000000Y-74920000D01*
X86420000Y-77580000D02*
X89880000Y-77580000D01*
X82620000Y-77580000D02*
X86420000Y-77580000D01*
X82620000Y-87260000D02*
X82500000Y-87380000D01*
X82620000Y-77580000D02*
X82620000Y-87260000D01*
D25*
X74873000Y-64947394D02*
X73447394Y-66373000D01*
X54652000Y-66373000D01*
X54652000Y-54503756D01*
X54976719Y-54720726D01*
X55946171Y-55122286D01*
X56975336Y-55327000D01*
X58024664Y-55327000D01*
X59053829Y-55122286D01*
X60023281Y-54720726D01*
X60895765Y-54137751D01*
X61637751Y-53395765D01*
X62220726Y-52523281D01*
X62622286Y-51553829D01*
X62827000Y-50524664D01*
X62827000Y-49475336D01*
X62622286Y-48446171D01*
X62220726Y-47476719D01*
X62003756Y-47152000D01*
X74873000Y-47152000D01*
X74873000Y-64947394D01*
G04 #@! TA.AperFunction,NonConductor*
D26*
G36*
X74873000Y-64947394D02*
G01*
X73447394Y-66373000D01*
X54652000Y-66373000D01*
X54652000Y-54503756D01*
X54976719Y-54720726D01*
X55946171Y-55122286D01*
X56975336Y-55327000D01*
X58024664Y-55327000D01*
X59053829Y-55122286D01*
X60023281Y-54720726D01*
X60895765Y-54137751D01*
X61637751Y-53395765D01*
X62220726Y-52523281D01*
X62622286Y-51553829D01*
X62827000Y-50524664D01*
X62827000Y-49475336D01*
X62622286Y-48446171D01*
X62220726Y-47476719D01*
X62003756Y-47152000D01*
X74873000Y-47152000D01*
X74873000Y-64947394D01*
G37*
G04 #@! TD.AperFunction*
D25*
X74873000Y-85552606D02*
X74873000Y-105348000D01*
X62003756Y-105348000D01*
X62220726Y-105023281D01*
X62622286Y-104053829D01*
X62827000Y-103024664D01*
X62827000Y-101975336D01*
X62622286Y-100946171D01*
X62220726Y-99976719D01*
X61637751Y-99104235D01*
X60895765Y-98362249D01*
X60023281Y-97779274D01*
X59053829Y-97377714D01*
X58024664Y-97173000D01*
X56975336Y-97173000D01*
X55946171Y-97377714D01*
X54976719Y-97779274D01*
X54652000Y-97996244D01*
X54652000Y-84127000D01*
X73447394Y-84127000D01*
X74873000Y-85552606D01*
G04 #@! TA.AperFunction,NonConductor*
D26*
G36*
X74873000Y-85552606D02*
G01*
X74873000Y-105348000D01*
X62003756Y-105348000D01*
X62220726Y-105023281D01*
X62622286Y-104053829D01*
X62827000Y-103024664D01*
X62827000Y-101975336D01*
X62622286Y-100946171D01*
X62220726Y-99976719D01*
X61637751Y-99104235D01*
X60895765Y-98362249D01*
X60023281Y-97779274D01*
X59053829Y-97377714D01*
X58024664Y-97173000D01*
X56975336Y-97173000D01*
X55946171Y-97377714D01*
X54976719Y-97779274D01*
X54652000Y-97996244D01*
X54652000Y-84127000D01*
X73447394Y-84127000D01*
X74873000Y-85552606D01*
G37*
G04 #@! TD.AperFunction*
D27*
X94873000Y-60052606D02*
X94873000Y-70000000D01*
X94875440Y-70024776D01*
X94882667Y-70048601D01*
X94894403Y-70070557D01*
X94910197Y-70089803D01*
X96910197Y-72089803D01*
X96929443Y-72105597D01*
X96951399Y-72117333D01*
X96975224Y-72124560D01*
X97000000Y-72127000D01*
X114000000Y-72127000D01*
X114024776Y-72124560D01*
X114048601Y-72117333D01*
X114070557Y-72105597D01*
X114089803Y-72089803D01*
X115186904Y-70992702D01*
X116686903Y-70992702D01*
X116758486Y-71236671D01*
X117013996Y-71357571D01*
X117288184Y-71426300D01*
X117570512Y-71440217D01*
X117850130Y-71398787D01*
X118116292Y-71303603D01*
X118241514Y-71236671D01*
X118313097Y-70992702D01*
X117500000Y-70179605D01*
X116686903Y-70992702D01*
X115186904Y-70992702D01*
X116066146Y-70113460D01*
X116101213Y-70350130D01*
X116196397Y-70616292D01*
X116263329Y-70741514D01*
X116507298Y-70813097D01*
X117320395Y-70000000D01*
X117679605Y-70000000D01*
X118492702Y-70813097D01*
X118736671Y-70741514D01*
X118857571Y-70486004D01*
X118926300Y-70211816D01*
X118940217Y-69929488D01*
X118898787Y-69649870D01*
X118803603Y-69383708D01*
X118736671Y-69258486D01*
X118492702Y-69186903D01*
X117679605Y-70000000D01*
X117320395Y-70000000D01*
X116507298Y-69186903D01*
X116263329Y-69258486D01*
X116142429Y-69513996D01*
X116127000Y-69575549D01*
X116127000Y-69007298D01*
X116686903Y-69007298D01*
X117500000Y-69820395D01*
X118313097Y-69007298D01*
X118241514Y-68763329D01*
X117986004Y-68642429D01*
X117711816Y-68573700D01*
X117429488Y-68559783D01*
X117149870Y-68601213D01*
X116883708Y-68696397D01*
X116758486Y-68763329D01*
X116686903Y-69007298D01*
X116127000Y-69007298D01*
X116127000Y-66135000D01*
X116365001Y-66135000D01*
X116365001Y-66888207D01*
X116365000Y-66888212D01*
X116365000Y-67111788D01*
X116375934Y-67166757D01*
X116381424Y-67222499D01*
X116397683Y-67276096D01*
X116408617Y-67331067D01*
X116430067Y-67382851D01*
X116446325Y-67436447D01*
X116472728Y-67485843D01*
X116494176Y-67537624D01*
X116525312Y-67584222D01*
X116551717Y-67633623D01*
X116587254Y-67676925D01*
X116618388Y-67723520D01*
X116658014Y-67763146D01*
X116693552Y-67806449D01*
X116736855Y-67841987D01*
X116776480Y-67881612D01*
X116823074Y-67912745D01*
X116866378Y-67948284D01*
X116915782Y-67974691D01*
X116962376Y-68005824D01*
X117014153Y-68027271D01*
X117063554Y-68053676D01*
X117117155Y-68069936D01*
X117168933Y-68091383D01*
X117223897Y-68102316D01*
X117277502Y-68118577D01*
X117333252Y-68124068D01*
X117388212Y-68135000D01*
X117444249Y-68135000D01*
X117500000Y-68140491D01*
X117555752Y-68135000D01*
X117611788Y-68135000D01*
X117666747Y-68124068D01*
X117722499Y-68118577D01*
X117776106Y-68102315D01*
X117831067Y-68091383D01*
X117882842Y-68069937D01*
X117936447Y-68053676D01*
X117985851Y-68027269D01*
X118037624Y-68005824D01*
X118084214Y-67974693D01*
X118133623Y-67948284D01*
X118176932Y-67912741D01*
X118223520Y-67881612D01*
X118263141Y-67841991D01*
X118306449Y-67806449D01*
X118341991Y-67763141D01*
X118381612Y-67723520D01*
X118412741Y-67676932D01*
X118448284Y-67633623D01*
X118474693Y-67584214D01*
X118505824Y-67537624D01*
X118527269Y-67485851D01*
X118553676Y-67436447D01*
X118569937Y-67382842D01*
X118591383Y-67331067D01*
X118602315Y-67276106D01*
X118618577Y-67222499D01*
X118624068Y-67166747D01*
X118635000Y-67111788D01*
X118635000Y-66135000D01*
X119611788Y-66135000D01*
X119666747Y-66124068D01*
X119722499Y-66118577D01*
X119776106Y-66102315D01*
X119831067Y-66091383D01*
X119882842Y-66069937D01*
X119936447Y-66053676D01*
X119985851Y-66027269D01*
X120037624Y-66005824D01*
X120084214Y-65974693D01*
X120133623Y-65948284D01*
X120176932Y-65912741D01*
X120223520Y-65881612D01*
X120263141Y-65841991D01*
X120306449Y-65806449D01*
X120341991Y-65763141D01*
X120381612Y-65723520D01*
X120412741Y-65676932D01*
X120448284Y-65633623D01*
X120474693Y-65584214D01*
X120505824Y-65537624D01*
X120527269Y-65485851D01*
X120553676Y-65436447D01*
X120569937Y-65382842D01*
X120591383Y-65331067D01*
X120602315Y-65276106D01*
X120618577Y-65222499D01*
X120624068Y-65166747D01*
X120635000Y-65111788D01*
X120635000Y-65055751D01*
X120640491Y-65000000D01*
X120635000Y-64944248D01*
X120635000Y-64888212D01*
X120629123Y-64858665D01*
X126065000Y-64858665D01*
X126065000Y-65141335D01*
X126120147Y-65418574D01*
X126228320Y-65679727D01*
X126385363Y-65914759D01*
X126585241Y-66114637D01*
X126820273Y-66271680D01*
X127081426Y-66379853D01*
X127358665Y-66435000D01*
X127641335Y-66435000D01*
X127918574Y-66379853D01*
X128179727Y-66271680D01*
X128414759Y-66114637D01*
X128614637Y-65914759D01*
X128771680Y-65679727D01*
X128879853Y-65418574D01*
X128935000Y-65141335D01*
X128935000Y-64858665D01*
X128879853Y-64581426D01*
X128771680Y-64320273D01*
X128614637Y-64085241D01*
X128414759Y-63885363D01*
X128179727Y-63728320D01*
X127918574Y-63620147D01*
X127641335Y-63565000D01*
X127358665Y-63565000D01*
X127081426Y-63620147D01*
X126820273Y-63728320D01*
X126585241Y-63885363D01*
X126385363Y-64085241D01*
X126228320Y-64320273D01*
X126120147Y-64581426D01*
X126065000Y-64858665D01*
X120629123Y-64858665D01*
X120624068Y-64833253D01*
X120618577Y-64777501D01*
X120602315Y-64723894D01*
X120591383Y-64668933D01*
X120569937Y-64617158D01*
X120553676Y-64563553D01*
X120527269Y-64514149D01*
X120505824Y-64462376D01*
X120474693Y-64415786D01*
X120448284Y-64366377D01*
X120412741Y-64323068D01*
X120381612Y-64276480D01*
X120341991Y-64236859D01*
X120306449Y-64193551D01*
X120263141Y-64158009D01*
X120223520Y-64118388D01*
X120176932Y-64087259D01*
X120133623Y-64051716D01*
X120084214Y-64025307D01*
X120037624Y-63994176D01*
X119985851Y-63972731D01*
X119936447Y-63946324D01*
X119882842Y-63930063D01*
X119831067Y-63908617D01*
X119776106Y-63897685D01*
X119722499Y-63881423D01*
X119666747Y-63875932D01*
X119611788Y-63865000D01*
X118635000Y-63865000D01*
X118635000Y-62888212D01*
X118624068Y-62833253D01*
X118618577Y-62777501D01*
X118602315Y-62723894D01*
X118591383Y-62668933D01*
X118569937Y-62617158D01*
X118553676Y-62563553D01*
X118527269Y-62514149D01*
X118505824Y-62462376D01*
X118474693Y-62415786D01*
X118448284Y-62366377D01*
X118412741Y-62323068D01*
X118381612Y-62276480D01*
X118341989Y-62236857D01*
X118306449Y-62193551D01*
X118263141Y-62158009D01*
X118223520Y-62118388D01*
X118176932Y-62087259D01*
X118133623Y-62051716D01*
X118084214Y-62025307D01*
X118037624Y-61994176D01*
X117985851Y-61972731D01*
X117936447Y-61946324D01*
X117882842Y-61930063D01*
X117831067Y-61908617D01*
X117776106Y-61897685D01*
X117722499Y-61881423D01*
X117666747Y-61875932D01*
X117611788Y-61865000D01*
X117555752Y-61865000D01*
X117500000Y-61859509D01*
X117444249Y-61865000D01*
X117388212Y-61865000D01*
X117333252Y-61875932D01*
X117277502Y-61881423D01*
X117223897Y-61897684D01*
X117168933Y-61908617D01*
X117117155Y-61930064D01*
X117063554Y-61946324D01*
X117014153Y-61972729D01*
X116962376Y-61994176D01*
X116915782Y-62025309D01*
X116866378Y-62051716D01*
X116823074Y-62087255D01*
X116776480Y-62118388D01*
X116736855Y-62158013D01*
X116693552Y-62193551D01*
X116658014Y-62236854D01*
X116618388Y-62276480D01*
X116587254Y-62323075D01*
X116551717Y-62366377D01*
X116525312Y-62415778D01*
X116494176Y-62462376D01*
X116472728Y-62514157D01*
X116446325Y-62563553D01*
X116430067Y-62617149D01*
X116408617Y-62668933D01*
X116397683Y-62723904D01*
X116381424Y-62777501D01*
X116375934Y-62833243D01*
X116365000Y-62888212D01*
X116365000Y-63111788D01*
X116365001Y-63111793D01*
X116365001Y-63865000D01*
X116127000Y-63865000D01*
X116127000Y-62052606D01*
X118052606Y-60127000D01*
X132947394Y-60127000D01*
X134873000Y-62052606D01*
X134873000Y-73668749D01*
X134665656Y-73700875D01*
X134418634Y-73791065D01*
X134317797Y-73844963D01*
X134258336Y-74078731D01*
X134873000Y-74693395D01*
X134873000Y-75306605D01*
X134258336Y-75921269D01*
X134317797Y-76155037D01*
X134556242Y-76265934D01*
X134811740Y-76328183D01*
X135074473Y-76339390D01*
X135148339Y-76327945D01*
X139410197Y-80589803D01*
X139429443Y-80605597D01*
X139451399Y-80617333D01*
X139475224Y-80624560D01*
X139500000Y-80627000D01*
X145455451Y-80627000D01*
X147873000Y-82561039D01*
X147873000Y-104947394D01*
X145980394Y-106840000D01*
X81538750Y-106840000D01*
X80127000Y-104957667D01*
X80127000Y-99150000D01*
X100011928Y-99150000D01*
X100011928Y-100850000D01*
X100024188Y-100974482D01*
X100060498Y-101094180D01*
X100119463Y-101204494D01*
X100198815Y-101301185D01*
X100295506Y-101380537D01*
X100405820Y-101439502D01*
X100525518Y-101475812D01*
X100650000Y-101488072D01*
X102350000Y-101488072D01*
X102474482Y-101475812D01*
X102594180Y-101439502D01*
X102704494Y-101380537D01*
X102801185Y-101301185D01*
X102880537Y-101204494D01*
X102939502Y-101094180D01*
X102961513Y-101021620D01*
X103093368Y-101153475D01*
X103336589Y-101315990D01*
X103606842Y-101427932D01*
X103893740Y-101485000D01*
X104186260Y-101485000D01*
X104473158Y-101427932D01*
X104743411Y-101315990D01*
X104986632Y-101153475D01*
X105005107Y-101135000D01*
X106444249Y-101135000D01*
X106500000Y-101140491D01*
X106555751Y-101135000D01*
X106555752Y-101135000D01*
X106722499Y-101118577D01*
X106936447Y-101053676D01*
X107133623Y-100948284D01*
X107306449Y-100806449D01*
X107341996Y-100763135D01*
X108763140Y-99341992D01*
X108806449Y-99306449D01*
X108948284Y-99133623D01*
X109053676Y-98936447D01*
X109118577Y-98722499D01*
X109135000Y-98555752D01*
X109135000Y-98555743D01*
X109140490Y-98500001D01*
X109135000Y-98444259D01*
X109135000Y-89970131D01*
X110390132Y-88715000D01*
X111340998Y-88715000D01*
X111418899Y-88778932D01*
X111551858Y-88850000D01*
X111418899Y-88921068D01*
X111200392Y-89100392D01*
X111021068Y-89318899D01*
X110887818Y-89568192D01*
X110805764Y-89838691D01*
X110778057Y-90120000D01*
X110805764Y-90401309D01*
X110887818Y-90671808D01*
X111021068Y-90921101D01*
X111200392Y-91139608D01*
X111418899Y-91318932D01*
X111668192Y-91452182D01*
X111938691Y-91534236D01*
X112149508Y-91555000D01*
X113090492Y-91555000D01*
X113301309Y-91534236D01*
X113571808Y-91452182D01*
X113821101Y-91318932D01*
X114039608Y-91139608D01*
X114218932Y-90921101D01*
X114352182Y-90671808D01*
X114434236Y-90401309D01*
X114461943Y-90120000D01*
X114434236Y-89838691D01*
X114352182Y-89568192D01*
X114218932Y-89318899D01*
X114039608Y-89100392D01*
X113821101Y-88921068D01*
X113688142Y-88850000D01*
X113821101Y-88778932D01*
X113899002Y-88715000D01*
X114764249Y-88715000D01*
X114820000Y-88720491D01*
X114875751Y-88715000D01*
X114875752Y-88715000D01*
X115042499Y-88698577D01*
X115256447Y-88633676D01*
X115453623Y-88528284D01*
X115626449Y-88386449D01*
X115661996Y-88343135D01*
X117830132Y-86175000D01*
X118720998Y-86175000D01*
X118798899Y-86238932D01*
X118931858Y-86310000D01*
X118798899Y-86381068D01*
X118580392Y-86560392D01*
X118401068Y-86778899D01*
X118267818Y-87028192D01*
X118185764Y-87298691D01*
X118182678Y-87330023D01*
X116236865Y-89275837D01*
X116193551Y-89311384D01*
X116051716Y-89484210D01*
X115999754Y-89581426D01*
X115946324Y-89681387D01*
X115881423Y-89895335D01*
X115859509Y-90117833D01*
X115865000Y-90173585D01*
X115865000Y-91944246D01*
X115859509Y-92000000D01*
X115865000Y-92055752D01*
X115865001Y-96865000D01*
X115045751Y-96865000D01*
X114989999Y-96859509D01*
X114934248Y-96865000D01*
X114767501Y-96881423D01*
X114553553Y-96946324D01*
X114356377Y-97051716D01*
X114183551Y-97193551D01*
X114148004Y-97236865D01*
X114076865Y-97308004D01*
X114033551Y-97343551D01*
X113891716Y-97516377D01*
X113797015Y-97693552D01*
X113786324Y-97713554D01*
X113721423Y-97927502D01*
X113699509Y-98150000D01*
X113705000Y-98205752D01*
X113705000Y-98582317D01*
X113635506Y-98619463D01*
X113538815Y-98698815D01*
X113459463Y-98795506D01*
X113400498Y-98905820D01*
X113364188Y-99025518D01*
X113351928Y-99150000D01*
X113351928Y-100850000D01*
X113364188Y-100974482D01*
X113400498Y-101094180D01*
X113459463Y-101204494D01*
X113538815Y-101301185D01*
X113635506Y-101380537D01*
X113745820Y-101439502D01*
X113865518Y-101475812D01*
X113990000Y-101488072D01*
X115690000Y-101488072D01*
X115814482Y-101475812D01*
X115934180Y-101439502D01*
X116044494Y-101380537D01*
X116141185Y-101301185D01*
X116220537Y-101204494D01*
X116279502Y-101094180D01*
X116301513Y-101021620D01*
X116433368Y-101153475D01*
X116676589Y-101315990D01*
X116946842Y-101427932D01*
X117233740Y-101485000D01*
X117526260Y-101485000D01*
X117813158Y-101427932D01*
X118083411Y-101315990D01*
X118326632Y-101153475D01*
X118533475Y-100946632D01*
X118650000Y-100772240D01*
X118766525Y-100946632D01*
X118973368Y-101153475D01*
X119216589Y-101315990D01*
X119486842Y-101427932D01*
X119773740Y-101485000D01*
X120066260Y-101485000D01*
X120353158Y-101427932D01*
X120623411Y-101315990D01*
X120866632Y-101153475D01*
X121073475Y-100946632D01*
X121190000Y-100772240D01*
X121306525Y-100946632D01*
X121513368Y-101153475D01*
X121756589Y-101315990D01*
X122026842Y-101427932D01*
X122313740Y-101485000D01*
X122606260Y-101485000D01*
X122893158Y-101427932D01*
X123163411Y-101315990D01*
X123406632Y-101153475D01*
X123613475Y-100946632D01*
X123730000Y-100772240D01*
X123846525Y-100946632D01*
X124053368Y-101153475D01*
X124296589Y-101315990D01*
X124566842Y-101427932D01*
X124853740Y-101485000D01*
X125146260Y-101485000D01*
X125433158Y-101427932D01*
X125703411Y-101315990D01*
X125946632Y-101153475D01*
X126153475Y-100946632D01*
X126270000Y-100772240D01*
X126386525Y-100946632D01*
X126593368Y-101153475D01*
X126836589Y-101315990D01*
X127106842Y-101427932D01*
X127393740Y-101485000D01*
X127686260Y-101485000D01*
X127973158Y-101427932D01*
X128243411Y-101315990D01*
X128486632Y-101153475D01*
X128693475Y-100946632D01*
X128810000Y-100772240D01*
X128926525Y-100946632D01*
X129133368Y-101153475D01*
X129376589Y-101315990D01*
X129646842Y-101427932D01*
X129933740Y-101485000D01*
X130226260Y-101485000D01*
X130513158Y-101427932D01*
X130783411Y-101315990D01*
X131026632Y-101153475D01*
X131233475Y-100946632D01*
X131350000Y-100772240D01*
X131466525Y-100946632D01*
X131673368Y-101153475D01*
X131916589Y-101315990D01*
X132186842Y-101427932D01*
X132473740Y-101485000D01*
X132766260Y-101485000D01*
X133053158Y-101427932D01*
X133323411Y-101315990D01*
X133566632Y-101153475D01*
X133773475Y-100946632D01*
X133935990Y-100703411D01*
X134047932Y-100433158D01*
X134105000Y-100146260D01*
X134105000Y-99853740D01*
X134047932Y-99566842D01*
X133935990Y-99296589D01*
X133773475Y-99053368D01*
X133755000Y-99034893D01*
X133755000Y-97028033D01*
X135148034Y-95635000D01*
X140529869Y-95635000D01*
X141365000Y-96470132D01*
X141365001Y-101082317D01*
X141295506Y-101119463D01*
X141198815Y-101198815D01*
X141119463Y-101295506D01*
X141095000Y-101341272D01*
X141095000Y-98384152D01*
X141183061Y-98252359D01*
X141283696Y-98009405D01*
X141335000Y-97751486D01*
X141335000Y-97488514D01*
X141283696Y-97230595D01*
X141183061Y-96987641D01*
X141036962Y-96768987D01*
X140851013Y-96583038D01*
X140632359Y-96436939D01*
X140389405Y-96336304D01*
X140131486Y-96285000D01*
X139868514Y-96285000D01*
X139610595Y-96336304D01*
X139367641Y-96436939D01*
X139148987Y-96583038D01*
X138963038Y-96768987D01*
X138816939Y-96987641D01*
X138716304Y-97230595D01*
X138665000Y-97488514D01*
X138665000Y-97751486D01*
X138716304Y-98009405D01*
X138816939Y-98252359D01*
X138825001Y-98264425D01*
X138825000Y-101534893D01*
X138806525Y-101553368D01*
X138644010Y-101796589D01*
X138532068Y-102066842D01*
X138475000Y-102353740D01*
X138475000Y-102646260D01*
X138532068Y-102933158D01*
X138644010Y-103203411D01*
X138806525Y-103446632D01*
X139013368Y-103653475D01*
X139256589Y-103815990D01*
X139526842Y-103927932D01*
X139813740Y-103985000D01*
X140106260Y-103985000D01*
X140393158Y-103927932D01*
X140663411Y-103815990D01*
X140906632Y-103653475D01*
X141038487Y-103521620D01*
X141060498Y-103594180D01*
X141119463Y-103704494D01*
X141198815Y-103801185D01*
X141295506Y-103880537D01*
X141405820Y-103939502D01*
X141525518Y-103975812D01*
X141650000Y-103988072D01*
X143350000Y-103988072D01*
X143474482Y-103975812D01*
X143594180Y-103939502D01*
X143704494Y-103880537D01*
X143801185Y-103801185D01*
X143880537Y-103704494D01*
X143939502Y-103594180D01*
X143975812Y-103474482D01*
X143988072Y-103350000D01*
X143988072Y-101650000D01*
X143975812Y-101525518D01*
X143939502Y-101405820D01*
X143880537Y-101295506D01*
X143801185Y-101198815D01*
X143704494Y-101119463D01*
X143635000Y-101082317D01*
X143635000Y-96055741D01*
X143640490Y-95999999D01*
X143635000Y-95944257D01*
X143635000Y-95944248D01*
X143618577Y-95777501D01*
X143553676Y-95563553D01*
X143448284Y-95366377D01*
X143306449Y-95193551D01*
X143263140Y-95158008D01*
X141841996Y-93736865D01*
X141806449Y-93693551D01*
X141633623Y-93551716D01*
X141436447Y-93446324D01*
X141222499Y-93381423D01*
X141055752Y-93365000D01*
X141055751Y-93365000D01*
X141000000Y-93359509D01*
X140944249Y-93365000D01*
X135240131Y-93365000D01*
X137470132Y-91135000D01*
X139295712Y-91135000D01*
X139367641Y-91183061D01*
X139610595Y-91283696D01*
X139868514Y-91335000D01*
X140131486Y-91335000D01*
X140389405Y-91283696D01*
X140632359Y-91183061D01*
X140851013Y-91036962D01*
X141036962Y-90851013D01*
X141183061Y-90632359D01*
X141283696Y-90389405D01*
X141335000Y-90131486D01*
X141335000Y-89868514D01*
X141283696Y-89610595D01*
X141183061Y-89367641D01*
X141135000Y-89295712D01*
X141135000Y-85824288D01*
X141183061Y-85752359D01*
X141283696Y-85509405D01*
X141335000Y-85251486D01*
X141335000Y-84988514D01*
X141283696Y-84730595D01*
X141183061Y-84487641D01*
X141036962Y-84268987D01*
X140851013Y-84083038D01*
X140632359Y-83936939D01*
X140389405Y-83836304D01*
X140131486Y-83785000D01*
X139868514Y-83785000D01*
X139610595Y-83836304D01*
X139367641Y-83936939D01*
X139148987Y-84083038D01*
X138963038Y-84268987D01*
X138816939Y-84487641D01*
X138716304Y-84730595D01*
X138665000Y-84988514D01*
X138665000Y-85251486D01*
X138716304Y-85509405D01*
X138816939Y-85752359D01*
X138865001Y-85824289D01*
X138865000Y-88865000D01*
X137055752Y-88865000D01*
X137000000Y-88859509D01*
X136944248Y-88865000D01*
X136777501Y-88881423D01*
X136563553Y-88946324D01*
X136366377Y-89051716D01*
X136193551Y-89193551D01*
X136158009Y-89236859D01*
X131529869Y-93865000D01*
X120470133Y-93865000D01*
X118135000Y-91529869D01*
X118135000Y-90587964D01*
X118216108Y-90506856D01*
X118225633Y-90551818D01*
X118336285Y-90811646D01*
X118495500Y-91044895D01*
X118697161Y-91242601D01*
X118933517Y-91397166D01*
X119195486Y-91502650D01*
X119473000Y-91555000D01*
X119873000Y-91555000D01*
X119873000Y-90247000D01*
X120127000Y-90247000D01*
X120127000Y-91555000D01*
X120527000Y-91555000D01*
X120804514Y-91502650D01*
X121066483Y-91397166D01*
X121302839Y-91242601D01*
X121504500Y-91044895D01*
X121663715Y-90811646D01*
X121774367Y-90551818D01*
X121791904Y-90469039D01*
X121669915Y-90247000D01*
X120127000Y-90247000D01*
X119873000Y-90247000D01*
X119853000Y-90247000D01*
X119853000Y-89993000D01*
X119873000Y-89993000D01*
X119873000Y-89973000D01*
X120127000Y-89973000D01*
X120127000Y-89993000D01*
X121669915Y-89993000D01*
X121791904Y-89770961D01*
X121774367Y-89688182D01*
X121663715Y-89428354D01*
X121504500Y-89195105D01*
X121302839Y-88997399D01*
X121073259Y-88847265D01*
X121201101Y-88778932D01*
X121419608Y-88599608D01*
X121598932Y-88381101D01*
X121732182Y-88131808D01*
X121814236Y-87861309D01*
X121841943Y-87580000D01*
X121814236Y-87298691D01*
X121732182Y-87028192D01*
X121598932Y-86778899D01*
X121419608Y-86560392D01*
X121201101Y-86381068D01*
X121068142Y-86310000D01*
X121201101Y-86238932D01*
X121419608Y-86059608D01*
X121598932Y-85841101D01*
X121732182Y-85591808D01*
X121814236Y-85321309D01*
X121841943Y-85040000D01*
X125778057Y-85040000D01*
X125805764Y-85321309D01*
X125887818Y-85591808D01*
X126021068Y-85841101D01*
X126200392Y-86059608D01*
X126418899Y-86238932D01*
X126485000Y-86274264D01*
X126485000Y-86345736D01*
X126418899Y-86381068D01*
X126200392Y-86560392D01*
X126021068Y-86778899D01*
X125887818Y-87028192D01*
X125805764Y-87298691D01*
X125778057Y-87580000D01*
X125805764Y-87861309D01*
X125887818Y-88131808D01*
X126021068Y-88381101D01*
X126200392Y-88599608D01*
X126418899Y-88778932D01*
X126551858Y-88850000D01*
X126418899Y-88921068D01*
X126200392Y-89100392D01*
X126021068Y-89318899D01*
X125887818Y-89568192D01*
X125805764Y-89838691D01*
X125778057Y-90120000D01*
X125805764Y-90401309D01*
X125887818Y-90671808D01*
X126021068Y-90921101D01*
X126200392Y-91139608D01*
X126418899Y-91318932D01*
X126668192Y-91452182D01*
X126938691Y-91534236D01*
X127149508Y-91555000D01*
X128090492Y-91555000D01*
X128301309Y-91534236D01*
X128571808Y-91452182D01*
X128821101Y-91318932D01*
X128899002Y-91255000D01*
X131795310Y-91255000D01*
X131820273Y-91271680D01*
X132081426Y-91379853D01*
X132358665Y-91435000D01*
X132641335Y-91435000D01*
X132918574Y-91379853D01*
X133179727Y-91271680D01*
X133414759Y-91114637D01*
X133614637Y-90914759D01*
X133771680Y-90679727D01*
X133879853Y-90418574D01*
X133935000Y-90141335D01*
X133935000Y-89858665D01*
X133879853Y-89581426D01*
X133771680Y-89320273D01*
X133614637Y-89085241D01*
X133414759Y-88885363D01*
X133179727Y-88728320D01*
X132918574Y-88620147D01*
X132641335Y-88565000D01*
X132358665Y-88565000D01*
X132081426Y-88620147D01*
X131820273Y-88728320D01*
X131585241Y-88885363D01*
X131485604Y-88985000D01*
X128899002Y-88985000D01*
X128821101Y-88921068D01*
X128688142Y-88850000D01*
X128821101Y-88778932D01*
X129039608Y-88599608D01*
X129218932Y-88381101D01*
X129352182Y-88131808D01*
X129434236Y-87861309D01*
X129461943Y-87580000D01*
X129434236Y-87298691D01*
X129385171Y-87136943D01*
X129513623Y-87068284D01*
X129686449Y-86926449D01*
X129721996Y-86883136D01*
X130623150Y-85981982D01*
X130666459Y-85946439D01*
X130808294Y-85773613D01*
X130913686Y-85576437D01*
X130978587Y-85362489D01*
X130995010Y-85195742D01*
X130995010Y-85195733D01*
X131000500Y-85139991D01*
X130995010Y-85084249D01*
X130995010Y-84858665D01*
X131065000Y-84858665D01*
X131065000Y-85141335D01*
X131120147Y-85418574D01*
X131228320Y-85679727D01*
X131385363Y-85914759D01*
X131585241Y-86114637D01*
X131820273Y-86271680D01*
X132081426Y-86379853D01*
X132358665Y-86435000D01*
X132641335Y-86435000D01*
X132918574Y-86379853D01*
X133179727Y-86271680D01*
X133414759Y-86114637D01*
X133614637Y-85914759D01*
X133771680Y-85679727D01*
X133879853Y-85418574D01*
X133927850Y-85177282D01*
X135470132Y-83635000D01*
X144115716Y-83635000D01*
X144320273Y-83771680D01*
X144581426Y-83879853D01*
X144858665Y-83935000D01*
X145141335Y-83935000D01*
X145418574Y-83879853D01*
X145679727Y-83771680D01*
X145914759Y-83614637D01*
X146114637Y-83414759D01*
X146271680Y-83179727D01*
X146379853Y-82918574D01*
X146435000Y-82641335D01*
X146435000Y-82358665D01*
X146379853Y-82081426D01*
X146271680Y-81820273D01*
X146114637Y-81585241D01*
X145914759Y-81385363D01*
X145679727Y-81228320D01*
X145418574Y-81120147D01*
X145141335Y-81065000D01*
X144858665Y-81065000D01*
X144581426Y-81120147D01*
X144320273Y-81228320D01*
X144115716Y-81365000D01*
X135055751Y-81365000D01*
X135000000Y-81359509D01*
X134944248Y-81365000D01*
X134777501Y-81381423D01*
X134563553Y-81446324D01*
X134366377Y-81551716D01*
X134193551Y-81693551D01*
X134158009Y-81736859D01*
X132322718Y-83572150D01*
X132081426Y-83620147D01*
X131820273Y-83728320D01*
X131585241Y-83885363D01*
X131385363Y-84085241D01*
X131228320Y-84320273D01*
X131120147Y-84581426D01*
X131065000Y-84858665D01*
X130995010Y-84858665D01*
X130995010Y-80915762D01*
X131000501Y-80860010D01*
X130978587Y-80637511D01*
X130913686Y-80423563D01*
X130808294Y-80226387D01*
X130805102Y-80222498D01*
X130666459Y-80053561D01*
X130623151Y-80018019D01*
X128515000Y-77909869D01*
X128515000Y-75704288D01*
X128563061Y-75632359D01*
X128663696Y-75389405D01*
X128715000Y-75131486D01*
X128715000Y-75074473D01*
X133660610Y-75074473D01*
X133700875Y-75334344D01*
X133791065Y-75581366D01*
X133844963Y-75682203D01*
X134078731Y-75741664D01*
X134820395Y-75000000D01*
X134078731Y-74258336D01*
X133844963Y-74317797D01*
X133734066Y-74556242D01*
X133671817Y-74811740D01*
X133660610Y-75074473D01*
X128715000Y-75074473D01*
X128715000Y-74868514D01*
X128663696Y-74610595D01*
X128635000Y-74541317D01*
X128635000Y-70884284D01*
X128771680Y-70679727D01*
X128879853Y-70418574D01*
X128935000Y-70141335D01*
X128935000Y-69858665D01*
X128879853Y-69581426D01*
X128771680Y-69320273D01*
X128614637Y-69085241D01*
X128414759Y-68885363D01*
X128179727Y-68728320D01*
X127918574Y-68620147D01*
X127641335Y-68565000D01*
X127358665Y-68565000D01*
X127081426Y-68620147D01*
X126820273Y-68728320D01*
X126585241Y-68885363D01*
X126385363Y-69085241D01*
X126228320Y-69320273D01*
X126120147Y-69581426D01*
X126065000Y-69858665D01*
X126065000Y-70141335D01*
X126120147Y-70418574D01*
X126228320Y-70679727D01*
X126365000Y-70884284D01*
X126365001Y-74127024D01*
X126343038Y-74148987D01*
X126196939Y-74367641D01*
X126096304Y-74610595D01*
X126045000Y-74868514D01*
X126045000Y-75131486D01*
X126096304Y-75389405D01*
X126196939Y-75632359D01*
X126245000Y-75704288D01*
X126245001Y-78324239D01*
X126239509Y-78380000D01*
X126261423Y-78602498D01*
X126326324Y-78816446D01*
X126344259Y-78850000D01*
X126431717Y-79013623D01*
X126573552Y-79186449D01*
X126616860Y-79221991D01*
X128571338Y-81176470D01*
X128424514Y-81117350D01*
X128147000Y-81065000D01*
X127747000Y-81065000D01*
X127747000Y-82373000D01*
X127767000Y-82373000D01*
X127767000Y-82627000D01*
X127747000Y-82627000D01*
X127747000Y-82647000D01*
X127493000Y-82647000D01*
X127493000Y-82627000D01*
X125950085Y-82627000D01*
X125828096Y-82849039D01*
X125845633Y-82931818D01*
X125956285Y-83191646D01*
X126115500Y-83424895D01*
X126317161Y-83622601D01*
X126546741Y-83772735D01*
X126418899Y-83841068D01*
X126200392Y-84020392D01*
X126021068Y-84238899D01*
X125887818Y-84488192D01*
X125805764Y-84758691D01*
X125778057Y-85040000D01*
X121841943Y-85040000D01*
X121814236Y-84758691D01*
X121732182Y-84488192D01*
X121598932Y-84238899D01*
X121419608Y-84020392D01*
X121306518Y-83927581D01*
X121324482Y-83925812D01*
X121444180Y-83889502D01*
X121554494Y-83830537D01*
X121651185Y-83751185D01*
X121730537Y-83654494D01*
X121789502Y-83544180D01*
X121825812Y-83424482D01*
X121838072Y-83300000D01*
X121838072Y-82150961D01*
X125828096Y-82150961D01*
X125950085Y-82373000D01*
X127493000Y-82373000D01*
X127493000Y-81065000D01*
X127093000Y-81065000D01*
X126815486Y-81117350D01*
X126553517Y-81222834D01*
X126317161Y-81377399D01*
X126115500Y-81575105D01*
X125956285Y-81808354D01*
X125845633Y-82068182D01*
X125828096Y-82150961D01*
X121838072Y-82150961D01*
X121838072Y-81700000D01*
X121825812Y-81575518D01*
X121789502Y-81455820D01*
X121730537Y-81345506D01*
X121651185Y-81248815D01*
X121554494Y-81169463D01*
X121444180Y-81110498D01*
X121324482Y-81074188D01*
X121200000Y-81061928D01*
X118800000Y-81061928D01*
X118675518Y-81074188D01*
X118555820Y-81110498D01*
X118445506Y-81169463D01*
X118348815Y-81248815D01*
X118269463Y-81345506D01*
X118210498Y-81455820D01*
X118174188Y-81575518D01*
X118161928Y-81700000D01*
X118161928Y-83300000D01*
X118174188Y-83424482D01*
X118210498Y-83544180D01*
X118269463Y-83654494D01*
X118348815Y-83751185D01*
X118445506Y-83830537D01*
X118555820Y-83889502D01*
X118606910Y-83905000D01*
X117415741Y-83905000D01*
X117359999Y-83899510D01*
X117304257Y-83905000D01*
X117304248Y-83905000D01*
X117137501Y-83921423D01*
X116923553Y-83986324D01*
X116726377Y-84091716D01*
X116553551Y-84233551D01*
X116518011Y-84276857D01*
X114349869Y-86445000D01*
X113899002Y-86445000D01*
X113821101Y-86381068D01*
X113693259Y-86312735D01*
X113922839Y-86162601D01*
X114124500Y-85964895D01*
X114283715Y-85731646D01*
X114394367Y-85471818D01*
X114411904Y-85389039D01*
X114289915Y-85167000D01*
X112747000Y-85167000D01*
X112747000Y-85187000D01*
X112493000Y-85187000D01*
X112493000Y-85167000D01*
X110950085Y-85167000D01*
X110828096Y-85389039D01*
X110845633Y-85471818D01*
X110956285Y-85731646D01*
X111115500Y-85964895D01*
X111317161Y-86162601D01*
X111546741Y-86312735D01*
X111418899Y-86381068D01*
X111340998Y-86445000D01*
X109975751Y-86445000D01*
X109919999Y-86439509D01*
X109864248Y-86445000D01*
X109697501Y-86461423D01*
X109483553Y-86526324D01*
X109286377Y-86631716D01*
X109113551Y-86773551D01*
X109078011Y-86816857D01*
X107236865Y-88658004D01*
X107193551Y-88693551D01*
X107051716Y-88866377D01*
X106946325Y-89063553D01*
X106946324Y-89063554D01*
X106881423Y-89277502D01*
X106859509Y-89500000D01*
X106865000Y-89555752D01*
X106865001Y-98029867D01*
X106029869Y-98865000D01*
X105005107Y-98865000D01*
X104986632Y-98846525D01*
X104743411Y-98684010D01*
X104473158Y-98572068D01*
X104186260Y-98515000D01*
X103893740Y-98515000D01*
X103606842Y-98572068D01*
X103336589Y-98684010D01*
X103093368Y-98846525D01*
X102961513Y-98978380D01*
X102939502Y-98905820D01*
X102880537Y-98795506D01*
X102801185Y-98698815D01*
X102704494Y-98619463D01*
X102594180Y-98560498D01*
X102474482Y-98524188D01*
X102350000Y-98511928D01*
X100650000Y-98511928D01*
X100525518Y-98524188D01*
X100405820Y-98560498D01*
X100295506Y-98619463D01*
X100198815Y-98698815D01*
X100119463Y-98795506D01*
X100060498Y-98905820D01*
X100024188Y-99025518D01*
X100011928Y-99150000D01*
X80127000Y-99150000D01*
X80127000Y-94868514D01*
X81165000Y-94868514D01*
X81165000Y-95131486D01*
X81216304Y-95389405D01*
X81316939Y-95632359D01*
X81463038Y-95851013D01*
X81648987Y-96036962D01*
X81867641Y-96183061D01*
X82110595Y-96283696D01*
X82368514Y-96335000D01*
X82631486Y-96335000D01*
X82889405Y-96283696D01*
X83132359Y-96183061D01*
X83351013Y-96036962D01*
X83536962Y-95851013D01*
X83683061Y-95632359D01*
X83783696Y-95389405D01*
X83835000Y-95131486D01*
X83835000Y-94988514D01*
X88665000Y-94988514D01*
X88665000Y-95251486D01*
X88716304Y-95509405D01*
X88816939Y-95752359D01*
X88963038Y-95971013D01*
X89148987Y-96156962D01*
X89367641Y-96303061D01*
X89610595Y-96403696D01*
X89868514Y-96455000D01*
X90131486Y-96455000D01*
X90389405Y-96403696D01*
X90632359Y-96303061D01*
X90851013Y-96156962D01*
X91036962Y-95971013D01*
X91183061Y-95752359D01*
X91283696Y-95509405D01*
X91335000Y-95251486D01*
X91335000Y-94988514D01*
X91283696Y-94730595D01*
X91183061Y-94487641D01*
X91036962Y-94268987D01*
X90851013Y-94083038D01*
X90632359Y-93936939D01*
X90389405Y-93836304D01*
X90131486Y-93785000D01*
X89868514Y-93785000D01*
X89610595Y-93836304D01*
X89367641Y-93936939D01*
X89148987Y-94083038D01*
X88963038Y-94268987D01*
X88816939Y-94487641D01*
X88716304Y-94730595D01*
X88665000Y-94988514D01*
X83835000Y-94988514D01*
X83835000Y-94868514D01*
X83783696Y-94610595D01*
X83683061Y-94367641D01*
X83536962Y-94148987D01*
X83351013Y-93963038D01*
X83132359Y-93816939D01*
X82889405Y-93716304D01*
X82631486Y-93665000D01*
X82368514Y-93665000D01*
X82110595Y-93716304D01*
X81867641Y-93816939D01*
X81648987Y-93963038D01*
X81463038Y-94148987D01*
X81316939Y-94367641D01*
X81216304Y-94610595D01*
X81165000Y-94868514D01*
X80127000Y-94868514D01*
X80127000Y-77580000D01*
X80778057Y-77580000D01*
X80805764Y-77861309D01*
X80887818Y-78131808D01*
X81021068Y-78381101D01*
X81200392Y-78599608D01*
X81418899Y-78778932D01*
X81485000Y-78814264D01*
X81485001Y-86507024D01*
X81463038Y-86528987D01*
X81316939Y-86747641D01*
X81216304Y-86990595D01*
X81165000Y-87248514D01*
X81165000Y-87511486D01*
X81216304Y-87769405D01*
X81316939Y-88012359D01*
X81463038Y-88231013D01*
X81648987Y-88416962D01*
X81867641Y-88563061D01*
X82110595Y-88663696D01*
X82368514Y-88715000D01*
X82631486Y-88715000D01*
X82889405Y-88663696D01*
X83132359Y-88563061D01*
X83351013Y-88416962D01*
X83536962Y-88231013D01*
X83683061Y-88012359D01*
X83783696Y-87769405D01*
X83835000Y-87511486D01*
X83835000Y-87248514D01*
X83783696Y-86990595D01*
X83755000Y-86921317D01*
X83755000Y-78814264D01*
X83821101Y-78778932D01*
X83899002Y-78715000D01*
X88685532Y-78715000D01*
X88619463Y-78795506D01*
X88560498Y-78905820D01*
X88524188Y-79025518D01*
X88511928Y-79150000D01*
X88511928Y-80850000D01*
X88524188Y-80974482D01*
X88560498Y-81094180D01*
X88619463Y-81204494D01*
X88698815Y-81301185D01*
X88795506Y-81380537D01*
X88865000Y-81417683D01*
X88865001Y-86795711D01*
X88816939Y-86867641D01*
X88716304Y-87110595D01*
X88665000Y-87368514D01*
X88665000Y-87631486D01*
X88716304Y-87889405D01*
X88816939Y-88132359D01*
X88963038Y-88351013D01*
X89148987Y-88536962D01*
X89367641Y-88683061D01*
X89610595Y-88783696D01*
X89868514Y-88835000D01*
X90131486Y-88835000D01*
X90389405Y-88783696D01*
X90632359Y-88683061D01*
X90851013Y-88536962D01*
X91036962Y-88351013D01*
X91183061Y-88132359D01*
X91283696Y-87889405D01*
X91335000Y-87631486D01*
X91335000Y-87368514D01*
X91283696Y-87110595D01*
X91183061Y-86867641D01*
X91135000Y-86795712D01*
X91135000Y-86650000D01*
X96011928Y-86650000D01*
X96011928Y-88350000D01*
X96024188Y-88474482D01*
X96060498Y-88594180D01*
X96119463Y-88704494D01*
X96198815Y-88801185D01*
X96295506Y-88880537D01*
X96405820Y-88939502D01*
X96525518Y-88975812D01*
X96650000Y-88988072D01*
X98350000Y-88988072D01*
X98474482Y-88975812D01*
X98594180Y-88939502D01*
X98704494Y-88880537D01*
X98801185Y-88801185D01*
X98871915Y-88715000D01*
X103720998Y-88715000D01*
X103798899Y-88778932D01*
X103931858Y-88850000D01*
X103798899Y-88921068D01*
X103580392Y-89100392D01*
X103401068Y-89318899D01*
X103267818Y-89568192D01*
X103185764Y-89838691D01*
X103158057Y-90120000D01*
X103185764Y-90401309D01*
X103267818Y-90671808D01*
X103401068Y-90921101D01*
X103580392Y-91139608D01*
X103798899Y-91318932D01*
X104048192Y-91452182D01*
X104318691Y-91534236D01*
X104529508Y-91555000D01*
X105470492Y-91555000D01*
X105681309Y-91534236D01*
X105951808Y-91452182D01*
X106201101Y-91318932D01*
X106419608Y-91139608D01*
X106598932Y-90921101D01*
X106732182Y-90671808D01*
X106814236Y-90401309D01*
X106841943Y-90120000D01*
X106814236Y-89838691D01*
X106732182Y-89568192D01*
X106598932Y-89318899D01*
X106419608Y-89100392D01*
X106201101Y-88921068D01*
X106068142Y-88850000D01*
X106201101Y-88778932D01*
X106419608Y-88599608D01*
X106598932Y-88381101D01*
X106732182Y-88131808D01*
X106814236Y-87861309D01*
X106841943Y-87580000D01*
X106814236Y-87298691D01*
X106732182Y-87028192D01*
X106598932Y-86778899D01*
X106419608Y-86560392D01*
X106201101Y-86381068D01*
X106068142Y-86310000D01*
X106201101Y-86238932D01*
X106419608Y-86059608D01*
X106598932Y-85841101D01*
X106732182Y-85591808D01*
X106814236Y-85321309D01*
X106841943Y-85040000D01*
X106814236Y-84758691D01*
X106732182Y-84488192D01*
X106598932Y-84238899D01*
X106419608Y-84020392D01*
X106306518Y-83927581D01*
X106324482Y-83925812D01*
X106444180Y-83889502D01*
X106554494Y-83830537D01*
X106651185Y-83751185D01*
X106730537Y-83654494D01*
X106789502Y-83544180D01*
X106825812Y-83424482D01*
X106838072Y-83300000D01*
X106838072Y-82500000D01*
X110778057Y-82500000D01*
X110805764Y-82781309D01*
X110887818Y-83051808D01*
X111021068Y-83301101D01*
X111200392Y-83519608D01*
X111418899Y-83698932D01*
X111546741Y-83767265D01*
X111317161Y-83917399D01*
X111115500Y-84115105D01*
X110956285Y-84348354D01*
X110845633Y-84608182D01*
X110828096Y-84690961D01*
X110950085Y-84913000D01*
X112493000Y-84913000D01*
X112493000Y-84893000D01*
X112747000Y-84893000D01*
X112747000Y-84913000D01*
X114289915Y-84913000D01*
X114411904Y-84690961D01*
X114394367Y-84608182D01*
X114283715Y-84348354D01*
X114124500Y-84115105D01*
X113922839Y-83917399D01*
X113693259Y-83767265D01*
X113821101Y-83698932D01*
X114039608Y-83519608D01*
X114218932Y-83301101D01*
X114352182Y-83051808D01*
X114434236Y-82781309D01*
X114461943Y-82500000D01*
X114434236Y-82218691D01*
X114352182Y-81948192D01*
X114218932Y-81698899D01*
X114039608Y-81480392D01*
X113821101Y-81301068D01*
X113571808Y-81167818D01*
X113301309Y-81085764D01*
X113090492Y-81065000D01*
X112149508Y-81065000D01*
X111938691Y-81085764D01*
X111668192Y-81167818D01*
X111418899Y-81301068D01*
X111200392Y-81480392D01*
X111021068Y-81698899D01*
X110887818Y-81948192D01*
X110805764Y-82218691D01*
X110778057Y-82500000D01*
X106838072Y-82500000D01*
X106838072Y-81700000D01*
X106825812Y-81575518D01*
X106789502Y-81455820D01*
X106730537Y-81345506D01*
X106651185Y-81248815D01*
X106554494Y-81169463D01*
X106444180Y-81110498D01*
X106324482Y-81074188D01*
X106200000Y-81061928D01*
X103800000Y-81061928D01*
X103675518Y-81074188D01*
X103555820Y-81110498D01*
X103445506Y-81169463D01*
X103348815Y-81248815D01*
X103269463Y-81345506D01*
X103210498Y-81455820D01*
X103174188Y-81575518D01*
X103161928Y-81700000D01*
X103161928Y-83300000D01*
X103174188Y-83424482D01*
X103210498Y-83544180D01*
X103269463Y-83654494D01*
X103348815Y-83751185D01*
X103438759Y-83825000D01*
X98465107Y-83825000D01*
X98446632Y-83806525D01*
X98203411Y-83644010D01*
X97933158Y-83532068D01*
X97646260Y-83475000D01*
X97353740Y-83475000D01*
X97066842Y-83532068D01*
X96796589Y-83644010D01*
X96553368Y-83806525D01*
X96346525Y-84013368D01*
X96184010Y-84256589D01*
X96072068Y-84526842D01*
X96015000Y-84813740D01*
X96015000Y-85106260D01*
X96072068Y-85393158D01*
X96184010Y-85663411D01*
X96346525Y-85906632D01*
X96478380Y-86038487D01*
X96405820Y-86060498D01*
X96295506Y-86119463D01*
X96198815Y-86198815D01*
X96119463Y-86295506D01*
X96060498Y-86405820D01*
X96024188Y-86525518D01*
X96011928Y-86650000D01*
X91135000Y-86650000D01*
X91135000Y-81417683D01*
X91204494Y-81380537D01*
X91301185Y-81301185D01*
X91380537Y-81204494D01*
X91417683Y-81135000D01*
X91794249Y-81135000D01*
X91850000Y-81140491D01*
X91905751Y-81135000D01*
X91905752Y-81135000D01*
X92072499Y-81118577D01*
X92286447Y-81053676D01*
X92483623Y-80948284D01*
X92656449Y-80806449D01*
X92691995Y-80763136D01*
X93763146Y-79691987D01*
X93806449Y-79656449D01*
X93948284Y-79483623D01*
X94053676Y-79286447D01*
X94118577Y-79072499D01*
X94135000Y-78905752D01*
X94140491Y-78850000D01*
X94135000Y-78794248D01*
X94135000Y-73555743D01*
X94140490Y-73499999D01*
X94135000Y-73444255D01*
X94135000Y-73444248D01*
X94118577Y-73277501D01*
X94053676Y-73063553D01*
X93948284Y-72866377D01*
X93806449Y-72693551D01*
X93763140Y-72658008D01*
X92721996Y-71616864D01*
X92686449Y-71573551D01*
X92513623Y-71431716D01*
X92316447Y-71326324D01*
X92102499Y-71261423D01*
X91935752Y-71245000D01*
X91935751Y-71245000D01*
X91880000Y-71239509D01*
X91824249Y-71245000D01*
X91135000Y-71245000D01*
X91135000Y-68324288D01*
X91183061Y-68252359D01*
X91283696Y-68009405D01*
X91335000Y-67751486D01*
X91335000Y-67488514D01*
X91283696Y-67230595D01*
X91183061Y-66987641D01*
X91036962Y-66768987D01*
X90851013Y-66583038D01*
X90632359Y-66436939D01*
X90389405Y-66336304D01*
X90131486Y-66285000D01*
X89868514Y-66285000D01*
X89610595Y-66336304D01*
X89367641Y-66436939D01*
X89148987Y-66583038D01*
X88963038Y-66768987D01*
X88816939Y-66987641D01*
X88716304Y-67230595D01*
X88665000Y-67488514D01*
X88665000Y-67751486D01*
X88716304Y-68009405D01*
X88816939Y-68252359D01*
X88865001Y-68324289D01*
X88865000Y-71414893D01*
X88846525Y-71433368D01*
X88684010Y-71676589D01*
X88572068Y-71946842D01*
X88515000Y-72233740D01*
X88515000Y-72526260D01*
X88572068Y-72813158D01*
X88684010Y-73083411D01*
X88846525Y-73326632D01*
X89053368Y-73533475D01*
X89227760Y-73650000D01*
X89053368Y-73766525D01*
X88846525Y-73973368D01*
X88684010Y-74216589D01*
X88572068Y-74486842D01*
X88515000Y-74773740D01*
X88515000Y-75066260D01*
X88572068Y-75353158D01*
X88684010Y-75623411D01*
X88846525Y-75866632D01*
X88865001Y-75885108D01*
X88865000Y-76445000D01*
X83899002Y-76445000D01*
X83821101Y-76381068D01*
X83693259Y-76312735D01*
X83922839Y-76162601D01*
X84124500Y-75964895D01*
X84283715Y-75731646D01*
X84394367Y-75471818D01*
X84411904Y-75389039D01*
X84289915Y-75167000D01*
X82747000Y-75167000D01*
X82747000Y-75187000D01*
X82493000Y-75187000D01*
X82493000Y-75167000D01*
X80950085Y-75167000D01*
X80828096Y-75389039D01*
X80845633Y-75471818D01*
X80956285Y-75731646D01*
X81115500Y-75964895D01*
X81317161Y-76162601D01*
X81546741Y-76312735D01*
X81418899Y-76381068D01*
X81200392Y-76560392D01*
X81021068Y-76778899D01*
X80887818Y-77028192D01*
X80805764Y-77298691D01*
X80778057Y-77580000D01*
X80127000Y-77580000D01*
X80127000Y-72500000D01*
X80778057Y-72500000D01*
X80805764Y-72781309D01*
X80887818Y-73051808D01*
X81021068Y-73301101D01*
X81200392Y-73519608D01*
X81418899Y-73698932D01*
X81546741Y-73767265D01*
X81317161Y-73917399D01*
X81115500Y-74115105D01*
X80956285Y-74348354D01*
X80845633Y-74608182D01*
X80828096Y-74690961D01*
X80950085Y-74913000D01*
X82493000Y-74913000D01*
X82493000Y-74893000D01*
X82747000Y-74893000D01*
X82747000Y-74913000D01*
X84289915Y-74913000D01*
X84411904Y-74690961D01*
X84394367Y-74608182D01*
X84283715Y-74348354D01*
X84124500Y-74115105D01*
X83922839Y-73917399D01*
X83693259Y-73767265D01*
X83821101Y-73698932D01*
X84039608Y-73519608D01*
X84218932Y-73301101D01*
X84352182Y-73051808D01*
X84434236Y-72781309D01*
X84461943Y-72500000D01*
X84434236Y-72218691D01*
X84352182Y-71948192D01*
X84218932Y-71698899D01*
X84039608Y-71480392D01*
X83821101Y-71301068D01*
X83571808Y-71167818D01*
X83301309Y-71085764D01*
X83090492Y-71065000D01*
X82149508Y-71065000D01*
X81938691Y-71085764D01*
X81668192Y-71167818D01*
X81418899Y-71301068D01*
X81200392Y-71480392D01*
X81021068Y-71698899D01*
X80887818Y-71948192D01*
X80805764Y-72218691D01*
X80778057Y-72500000D01*
X80127000Y-72500000D01*
X80127000Y-60921269D01*
X89258336Y-60921269D01*
X89317797Y-61155037D01*
X89556242Y-61265934D01*
X89811740Y-61328183D01*
X90074473Y-61339390D01*
X90334344Y-61299125D01*
X90581366Y-61208935D01*
X90682203Y-61155037D01*
X90741664Y-60921269D01*
X90000000Y-60179605D01*
X89258336Y-60921269D01*
X80127000Y-60921269D01*
X80127000Y-60074473D01*
X88660610Y-60074473D01*
X88700875Y-60334344D01*
X88791065Y-60581366D01*
X88844963Y-60682203D01*
X89078731Y-60741664D01*
X89820395Y-60000000D01*
X90179605Y-60000000D01*
X90921269Y-60741664D01*
X91155037Y-60682203D01*
X91265934Y-60443758D01*
X91328183Y-60188260D01*
X91339390Y-59925527D01*
X91299125Y-59665656D01*
X91208935Y-59418634D01*
X91155037Y-59317797D01*
X90921269Y-59258336D01*
X90179605Y-60000000D01*
X89820395Y-60000000D01*
X89078731Y-59258336D01*
X88844963Y-59317797D01*
X88734066Y-59556242D01*
X88671817Y-59811740D01*
X88660610Y-60074473D01*
X80127000Y-60074473D01*
X80127000Y-60052606D01*
X81100875Y-59078731D01*
X89258336Y-59078731D01*
X90000000Y-59820395D01*
X90741664Y-59078731D01*
X90682203Y-58844963D01*
X90443758Y-58734066D01*
X90188260Y-58671817D01*
X89925527Y-58660610D01*
X89665656Y-58700875D01*
X89418634Y-58791065D01*
X89317797Y-58844963D01*
X89258336Y-59078731D01*
X81100875Y-59078731D01*
X82052606Y-58127000D01*
X92947394Y-58127000D01*
X94873000Y-60052606D01*
G04 #@! TA.AperFunction,Conductor*
D28*
G36*
X94873000Y-60052606D02*
G01*
X94873000Y-70000000D01*
X94875440Y-70024776D01*
X94882667Y-70048601D01*
X94894403Y-70070557D01*
X94910197Y-70089803D01*
X96910197Y-72089803D01*
X96929443Y-72105597D01*
X96951399Y-72117333D01*
X96975224Y-72124560D01*
X97000000Y-72127000D01*
X114000000Y-72127000D01*
X114024776Y-72124560D01*
X114048601Y-72117333D01*
X114070557Y-72105597D01*
X114089803Y-72089803D01*
X115186904Y-70992702D01*
X116686903Y-70992702D01*
X116758486Y-71236671D01*
X117013996Y-71357571D01*
X117288184Y-71426300D01*
X117570512Y-71440217D01*
X117850130Y-71398787D01*
X118116292Y-71303603D01*
X118241514Y-71236671D01*
X118313097Y-70992702D01*
X117500000Y-70179605D01*
X116686903Y-70992702D01*
X115186904Y-70992702D01*
X116066146Y-70113460D01*
X116101213Y-70350130D01*
X116196397Y-70616292D01*
X116263329Y-70741514D01*
X116507298Y-70813097D01*
X117320395Y-70000000D01*
X117679605Y-70000000D01*
X118492702Y-70813097D01*
X118736671Y-70741514D01*
X118857571Y-70486004D01*
X118926300Y-70211816D01*
X118940217Y-69929488D01*
X118898787Y-69649870D01*
X118803603Y-69383708D01*
X118736671Y-69258486D01*
X118492702Y-69186903D01*
X117679605Y-70000000D01*
X117320395Y-70000000D01*
X116507298Y-69186903D01*
X116263329Y-69258486D01*
X116142429Y-69513996D01*
X116127000Y-69575549D01*
X116127000Y-69007298D01*
X116686903Y-69007298D01*
X117500000Y-69820395D01*
X118313097Y-69007298D01*
X118241514Y-68763329D01*
X117986004Y-68642429D01*
X117711816Y-68573700D01*
X117429488Y-68559783D01*
X117149870Y-68601213D01*
X116883708Y-68696397D01*
X116758486Y-68763329D01*
X116686903Y-69007298D01*
X116127000Y-69007298D01*
X116127000Y-66135000D01*
X116365001Y-66135000D01*
X116365001Y-66888207D01*
X116365000Y-66888212D01*
X116365000Y-67111788D01*
X116375934Y-67166757D01*
X116381424Y-67222499D01*
X116397683Y-67276096D01*
X116408617Y-67331067D01*
X116430067Y-67382851D01*
X116446325Y-67436447D01*
X116472728Y-67485843D01*
X116494176Y-67537624D01*
X116525312Y-67584222D01*
X116551717Y-67633623D01*
X116587254Y-67676925D01*
X116618388Y-67723520D01*
X116658014Y-67763146D01*
X116693552Y-67806449D01*
X116736855Y-67841987D01*
X116776480Y-67881612D01*
X116823074Y-67912745D01*
X116866378Y-67948284D01*
X116915782Y-67974691D01*
X116962376Y-68005824D01*
X117014153Y-68027271D01*
X117063554Y-68053676D01*
X117117155Y-68069936D01*
X117168933Y-68091383D01*
X117223897Y-68102316D01*
X117277502Y-68118577D01*
X117333252Y-68124068D01*
X117388212Y-68135000D01*
X117444249Y-68135000D01*
X117500000Y-68140491D01*
X117555752Y-68135000D01*
X117611788Y-68135000D01*
X117666747Y-68124068D01*
X117722499Y-68118577D01*
X117776106Y-68102315D01*
X117831067Y-68091383D01*
X117882842Y-68069937D01*
X117936447Y-68053676D01*
X117985851Y-68027269D01*
X118037624Y-68005824D01*
X118084214Y-67974693D01*
X118133623Y-67948284D01*
X118176932Y-67912741D01*
X118223520Y-67881612D01*
X118263141Y-67841991D01*
X118306449Y-67806449D01*
X118341991Y-67763141D01*
X118381612Y-67723520D01*
X118412741Y-67676932D01*
X118448284Y-67633623D01*
X118474693Y-67584214D01*
X118505824Y-67537624D01*
X118527269Y-67485851D01*
X118553676Y-67436447D01*
X118569937Y-67382842D01*
X118591383Y-67331067D01*
X118602315Y-67276106D01*
X118618577Y-67222499D01*
X118624068Y-67166747D01*
X118635000Y-67111788D01*
X118635000Y-66135000D01*
X119611788Y-66135000D01*
X119666747Y-66124068D01*
X119722499Y-66118577D01*
X119776106Y-66102315D01*
X119831067Y-66091383D01*
X119882842Y-66069937D01*
X119936447Y-66053676D01*
X119985851Y-66027269D01*
X120037624Y-66005824D01*
X120084214Y-65974693D01*
X120133623Y-65948284D01*
X120176932Y-65912741D01*
X120223520Y-65881612D01*
X120263141Y-65841991D01*
X120306449Y-65806449D01*
X120341991Y-65763141D01*
X120381612Y-65723520D01*
X120412741Y-65676932D01*
X120448284Y-65633623D01*
X120474693Y-65584214D01*
X120505824Y-65537624D01*
X120527269Y-65485851D01*
X120553676Y-65436447D01*
X120569937Y-65382842D01*
X120591383Y-65331067D01*
X120602315Y-65276106D01*
X120618577Y-65222499D01*
X120624068Y-65166747D01*
X120635000Y-65111788D01*
X120635000Y-65055751D01*
X120640491Y-65000000D01*
X120635000Y-64944248D01*
X120635000Y-64888212D01*
X120629123Y-64858665D01*
X126065000Y-64858665D01*
X126065000Y-65141335D01*
X126120147Y-65418574D01*
X126228320Y-65679727D01*
X126385363Y-65914759D01*
X126585241Y-66114637D01*
X126820273Y-66271680D01*
X127081426Y-66379853D01*
X127358665Y-66435000D01*
X127641335Y-66435000D01*
X127918574Y-66379853D01*
X128179727Y-66271680D01*
X128414759Y-66114637D01*
X128614637Y-65914759D01*
X128771680Y-65679727D01*
X128879853Y-65418574D01*
X128935000Y-65141335D01*
X128935000Y-64858665D01*
X128879853Y-64581426D01*
X128771680Y-64320273D01*
X128614637Y-64085241D01*
X128414759Y-63885363D01*
X128179727Y-63728320D01*
X127918574Y-63620147D01*
X127641335Y-63565000D01*
X127358665Y-63565000D01*
X127081426Y-63620147D01*
X126820273Y-63728320D01*
X126585241Y-63885363D01*
X126385363Y-64085241D01*
X126228320Y-64320273D01*
X126120147Y-64581426D01*
X126065000Y-64858665D01*
X120629123Y-64858665D01*
X120624068Y-64833253D01*
X120618577Y-64777501D01*
X120602315Y-64723894D01*
X120591383Y-64668933D01*
X120569937Y-64617158D01*
X120553676Y-64563553D01*
X120527269Y-64514149D01*
X120505824Y-64462376D01*
X120474693Y-64415786D01*
X120448284Y-64366377D01*
X120412741Y-64323068D01*
X120381612Y-64276480D01*
X120341991Y-64236859D01*
X120306449Y-64193551D01*
X120263141Y-64158009D01*
X120223520Y-64118388D01*
X120176932Y-64087259D01*
X120133623Y-64051716D01*
X120084214Y-64025307D01*
X120037624Y-63994176D01*
X119985851Y-63972731D01*
X119936447Y-63946324D01*
X119882842Y-63930063D01*
X119831067Y-63908617D01*
X119776106Y-63897685D01*
X119722499Y-63881423D01*
X119666747Y-63875932D01*
X119611788Y-63865000D01*
X118635000Y-63865000D01*
X118635000Y-62888212D01*
X118624068Y-62833253D01*
X118618577Y-62777501D01*
X118602315Y-62723894D01*
X118591383Y-62668933D01*
X118569937Y-62617158D01*
X118553676Y-62563553D01*
X118527269Y-62514149D01*
X118505824Y-62462376D01*
X118474693Y-62415786D01*
X118448284Y-62366377D01*
X118412741Y-62323068D01*
X118381612Y-62276480D01*
X118341989Y-62236857D01*
X118306449Y-62193551D01*
X118263141Y-62158009D01*
X118223520Y-62118388D01*
X118176932Y-62087259D01*
X118133623Y-62051716D01*
X118084214Y-62025307D01*
X118037624Y-61994176D01*
X117985851Y-61972731D01*
X117936447Y-61946324D01*
X117882842Y-61930063D01*
X117831067Y-61908617D01*
X117776106Y-61897685D01*
X117722499Y-61881423D01*
X117666747Y-61875932D01*
X117611788Y-61865000D01*
X117555752Y-61865000D01*
X117500000Y-61859509D01*
X117444249Y-61865000D01*
X117388212Y-61865000D01*
X117333252Y-61875932D01*
X117277502Y-61881423D01*
X117223897Y-61897684D01*
X117168933Y-61908617D01*
X117117155Y-61930064D01*
X117063554Y-61946324D01*
X117014153Y-61972729D01*
X116962376Y-61994176D01*
X116915782Y-62025309D01*
X116866378Y-62051716D01*
X116823074Y-62087255D01*
X116776480Y-62118388D01*
X116736855Y-62158013D01*
X116693552Y-62193551D01*
X116658014Y-62236854D01*
X116618388Y-62276480D01*
X116587254Y-62323075D01*
X116551717Y-62366377D01*
X116525312Y-62415778D01*
X116494176Y-62462376D01*
X116472728Y-62514157D01*
X116446325Y-62563553D01*
X116430067Y-62617149D01*
X116408617Y-62668933D01*
X116397683Y-62723904D01*
X116381424Y-62777501D01*
X116375934Y-62833243D01*
X116365000Y-62888212D01*
X116365000Y-63111788D01*
X116365001Y-63111793D01*
X116365001Y-63865000D01*
X116127000Y-63865000D01*
X116127000Y-62052606D01*
X118052606Y-60127000D01*
X132947394Y-60127000D01*
X134873000Y-62052606D01*
X134873000Y-73668749D01*
X134665656Y-73700875D01*
X134418634Y-73791065D01*
X134317797Y-73844963D01*
X134258336Y-74078731D01*
X134873000Y-74693395D01*
X134873000Y-75306605D01*
X134258336Y-75921269D01*
X134317797Y-76155037D01*
X134556242Y-76265934D01*
X134811740Y-76328183D01*
X135074473Y-76339390D01*
X135148339Y-76327945D01*
X139410197Y-80589803D01*
X139429443Y-80605597D01*
X139451399Y-80617333D01*
X139475224Y-80624560D01*
X139500000Y-80627000D01*
X145455451Y-80627000D01*
X147873000Y-82561039D01*
X147873000Y-104947394D01*
X145980394Y-106840000D01*
X81538750Y-106840000D01*
X80127000Y-104957667D01*
X80127000Y-99150000D01*
X100011928Y-99150000D01*
X100011928Y-100850000D01*
X100024188Y-100974482D01*
X100060498Y-101094180D01*
X100119463Y-101204494D01*
X100198815Y-101301185D01*
X100295506Y-101380537D01*
X100405820Y-101439502D01*
X100525518Y-101475812D01*
X100650000Y-101488072D01*
X102350000Y-101488072D01*
X102474482Y-101475812D01*
X102594180Y-101439502D01*
X102704494Y-101380537D01*
X102801185Y-101301185D01*
X102880537Y-101204494D01*
X102939502Y-101094180D01*
X102961513Y-101021620D01*
X103093368Y-101153475D01*
X103336589Y-101315990D01*
X103606842Y-101427932D01*
X103893740Y-101485000D01*
X104186260Y-101485000D01*
X104473158Y-101427932D01*
X104743411Y-101315990D01*
X104986632Y-101153475D01*
X105005107Y-101135000D01*
X106444249Y-101135000D01*
X106500000Y-101140491D01*
X106555751Y-101135000D01*
X106555752Y-101135000D01*
X106722499Y-101118577D01*
X106936447Y-101053676D01*
X107133623Y-100948284D01*
X107306449Y-100806449D01*
X107341996Y-100763135D01*
X108763140Y-99341992D01*
X108806449Y-99306449D01*
X108948284Y-99133623D01*
X109053676Y-98936447D01*
X109118577Y-98722499D01*
X109135000Y-98555752D01*
X109135000Y-98555743D01*
X109140490Y-98500001D01*
X109135000Y-98444259D01*
X109135000Y-89970131D01*
X110390132Y-88715000D01*
X111340998Y-88715000D01*
X111418899Y-88778932D01*
X111551858Y-88850000D01*
X111418899Y-88921068D01*
X111200392Y-89100392D01*
X111021068Y-89318899D01*
X110887818Y-89568192D01*
X110805764Y-89838691D01*
X110778057Y-90120000D01*
X110805764Y-90401309D01*
X110887818Y-90671808D01*
X111021068Y-90921101D01*
X111200392Y-91139608D01*
X111418899Y-91318932D01*
X111668192Y-91452182D01*
X111938691Y-91534236D01*
X112149508Y-91555000D01*
X113090492Y-91555000D01*
X113301309Y-91534236D01*
X113571808Y-91452182D01*
X113821101Y-91318932D01*
X114039608Y-91139608D01*
X114218932Y-90921101D01*
X114352182Y-90671808D01*
X114434236Y-90401309D01*
X114461943Y-90120000D01*
X114434236Y-89838691D01*
X114352182Y-89568192D01*
X114218932Y-89318899D01*
X114039608Y-89100392D01*
X113821101Y-88921068D01*
X113688142Y-88850000D01*
X113821101Y-88778932D01*
X113899002Y-88715000D01*
X114764249Y-88715000D01*
X114820000Y-88720491D01*
X114875751Y-88715000D01*
X114875752Y-88715000D01*
X115042499Y-88698577D01*
X115256447Y-88633676D01*
X115453623Y-88528284D01*
X115626449Y-88386449D01*
X115661996Y-88343135D01*
X117830132Y-86175000D01*
X118720998Y-86175000D01*
X118798899Y-86238932D01*
X118931858Y-86310000D01*
X118798899Y-86381068D01*
X118580392Y-86560392D01*
X118401068Y-86778899D01*
X118267818Y-87028192D01*
X118185764Y-87298691D01*
X118182678Y-87330023D01*
X116236865Y-89275837D01*
X116193551Y-89311384D01*
X116051716Y-89484210D01*
X115999754Y-89581426D01*
X115946324Y-89681387D01*
X115881423Y-89895335D01*
X115859509Y-90117833D01*
X115865000Y-90173585D01*
X115865000Y-91944246D01*
X115859509Y-92000000D01*
X115865000Y-92055752D01*
X115865001Y-96865000D01*
X115045751Y-96865000D01*
X114989999Y-96859509D01*
X114934248Y-96865000D01*
X114767501Y-96881423D01*
X114553553Y-96946324D01*
X114356377Y-97051716D01*
X114183551Y-97193551D01*
X114148004Y-97236865D01*
X114076865Y-97308004D01*
X114033551Y-97343551D01*
X113891716Y-97516377D01*
X113797015Y-97693552D01*
X113786324Y-97713554D01*
X113721423Y-97927502D01*
X113699509Y-98150000D01*
X113705000Y-98205752D01*
X113705000Y-98582317D01*
X113635506Y-98619463D01*
X113538815Y-98698815D01*
X113459463Y-98795506D01*
X113400498Y-98905820D01*
X113364188Y-99025518D01*
X113351928Y-99150000D01*
X113351928Y-100850000D01*
X113364188Y-100974482D01*
X113400498Y-101094180D01*
X113459463Y-101204494D01*
X113538815Y-101301185D01*
X113635506Y-101380537D01*
X113745820Y-101439502D01*
X113865518Y-101475812D01*
X113990000Y-101488072D01*
X115690000Y-101488072D01*
X115814482Y-101475812D01*
X115934180Y-101439502D01*
X116044494Y-101380537D01*
X116141185Y-101301185D01*
X116220537Y-101204494D01*
X116279502Y-101094180D01*
X116301513Y-101021620D01*
X116433368Y-101153475D01*
X116676589Y-101315990D01*
X116946842Y-101427932D01*
X117233740Y-101485000D01*
X117526260Y-101485000D01*
X117813158Y-101427932D01*
X118083411Y-101315990D01*
X118326632Y-101153475D01*
X118533475Y-100946632D01*
X118650000Y-100772240D01*
X118766525Y-100946632D01*
X118973368Y-101153475D01*
X119216589Y-101315990D01*
X119486842Y-101427932D01*
X119773740Y-101485000D01*
X120066260Y-101485000D01*
X120353158Y-101427932D01*
X120623411Y-101315990D01*
X120866632Y-101153475D01*
X121073475Y-100946632D01*
X121190000Y-100772240D01*
X121306525Y-100946632D01*
X121513368Y-101153475D01*
X121756589Y-101315990D01*
X122026842Y-101427932D01*
X122313740Y-101485000D01*
X122606260Y-101485000D01*
X122893158Y-101427932D01*
X123163411Y-101315990D01*
X123406632Y-101153475D01*
X123613475Y-100946632D01*
X123730000Y-100772240D01*
X123846525Y-100946632D01*
X124053368Y-101153475D01*
X124296589Y-101315990D01*
X124566842Y-101427932D01*
X124853740Y-101485000D01*
X125146260Y-101485000D01*
X125433158Y-101427932D01*
X125703411Y-101315990D01*
X125946632Y-101153475D01*
X126153475Y-100946632D01*
X126270000Y-100772240D01*
X126386525Y-100946632D01*
X126593368Y-101153475D01*
X126836589Y-101315990D01*
X127106842Y-101427932D01*
X127393740Y-101485000D01*
X127686260Y-101485000D01*
X127973158Y-101427932D01*
X128243411Y-101315990D01*
X128486632Y-101153475D01*
X128693475Y-100946632D01*
X128810000Y-100772240D01*
X128926525Y-100946632D01*
X129133368Y-101153475D01*
X129376589Y-101315990D01*
X129646842Y-101427932D01*
X129933740Y-101485000D01*
X130226260Y-101485000D01*
X130513158Y-101427932D01*
X130783411Y-101315990D01*
X131026632Y-101153475D01*
X131233475Y-100946632D01*
X131350000Y-100772240D01*
X131466525Y-100946632D01*
X131673368Y-101153475D01*
X131916589Y-101315990D01*
X132186842Y-101427932D01*
X132473740Y-101485000D01*
X132766260Y-101485000D01*
X133053158Y-101427932D01*
X133323411Y-101315990D01*
X133566632Y-101153475D01*
X133773475Y-100946632D01*
X133935990Y-100703411D01*
X134047932Y-100433158D01*
X134105000Y-100146260D01*
X134105000Y-99853740D01*
X134047932Y-99566842D01*
X133935990Y-99296589D01*
X133773475Y-99053368D01*
X133755000Y-99034893D01*
X133755000Y-97028033D01*
X135148034Y-95635000D01*
X140529869Y-95635000D01*
X141365000Y-96470132D01*
X141365001Y-101082317D01*
X141295506Y-101119463D01*
X141198815Y-101198815D01*
X141119463Y-101295506D01*
X141095000Y-101341272D01*
X141095000Y-98384152D01*
X141183061Y-98252359D01*
X141283696Y-98009405D01*
X141335000Y-97751486D01*
X141335000Y-97488514D01*
X141283696Y-97230595D01*
X141183061Y-96987641D01*
X141036962Y-96768987D01*
X140851013Y-96583038D01*
X140632359Y-96436939D01*
X140389405Y-96336304D01*
X140131486Y-96285000D01*
X139868514Y-96285000D01*
X139610595Y-96336304D01*
X139367641Y-96436939D01*
X139148987Y-96583038D01*
X138963038Y-96768987D01*
X138816939Y-96987641D01*
X138716304Y-97230595D01*
X138665000Y-97488514D01*
X138665000Y-97751486D01*
X138716304Y-98009405D01*
X138816939Y-98252359D01*
X138825001Y-98264425D01*
X138825000Y-101534893D01*
X138806525Y-101553368D01*
X138644010Y-101796589D01*
X138532068Y-102066842D01*
X138475000Y-102353740D01*
X138475000Y-102646260D01*
X138532068Y-102933158D01*
X138644010Y-103203411D01*
X138806525Y-103446632D01*
X139013368Y-103653475D01*
X139256589Y-103815990D01*
X139526842Y-103927932D01*
X139813740Y-103985000D01*
X140106260Y-103985000D01*
X140393158Y-103927932D01*
X140663411Y-103815990D01*
X140906632Y-103653475D01*
X141038487Y-103521620D01*
X141060498Y-103594180D01*
X141119463Y-103704494D01*
X141198815Y-103801185D01*
X141295506Y-103880537D01*
X141405820Y-103939502D01*
X141525518Y-103975812D01*
X141650000Y-103988072D01*
X143350000Y-103988072D01*
X143474482Y-103975812D01*
X143594180Y-103939502D01*
X143704494Y-103880537D01*
X143801185Y-103801185D01*
X143880537Y-103704494D01*
X143939502Y-103594180D01*
X143975812Y-103474482D01*
X143988072Y-103350000D01*
X143988072Y-101650000D01*
X143975812Y-101525518D01*
X143939502Y-101405820D01*
X143880537Y-101295506D01*
X143801185Y-101198815D01*
X143704494Y-101119463D01*
X143635000Y-101082317D01*
X143635000Y-96055741D01*
X143640490Y-95999999D01*
X143635000Y-95944257D01*
X143635000Y-95944248D01*
X143618577Y-95777501D01*
X143553676Y-95563553D01*
X143448284Y-95366377D01*
X143306449Y-95193551D01*
X143263140Y-95158008D01*
X141841996Y-93736865D01*
X141806449Y-93693551D01*
X141633623Y-93551716D01*
X141436447Y-93446324D01*
X141222499Y-93381423D01*
X141055752Y-93365000D01*
X141055751Y-93365000D01*
X141000000Y-93359509D01*
X140944249Y-93365000D01*
X135240131Y-93365000D01*
X137470132Y-91135000D01*
X139295712Y-91135000D01*
X139367641Y-91183061D01*
X139610595Y-91283696D01*
X139868514Y-91335000D01*
X140131486Y-91335000D01*
X140389405Y-91283696D01*
X140632359Y-91183061D01*
X140851013Y-91036962D01*
X141036962Y-90851013D01*
X141183061Y-90632359D01*
X141283696Y-90389405D01*
X141335000Y-90131486D01*
X141335000Y-89868514D01*
X141283696Y-89610595D01*
X141183061Y-89367641D01*
X141135000Y-89295712D01*
X141135000Y-85824288D01*
X141183061Y-85752359D01*
X141283696Y-85509405D01*
X141335000Y-85251486D01*
X141335000Y-84988514D01*
X141283696Y-84730595D01*
X141183061Y-84487641D01*
X141036962Y-84268987D01*
X140851013Y-84083038D01*
X140632359Y-83936939D01*
X140389405Y-83836304D01*
X140131486Y-83785000D01*
X139868514Y-83785000D01*
X139610595Y-83836304D01*
X139367641Y-83936939D01*
X139148987Y-84083038D01*
X138963038Y-84268987D01*
X138816939Y-84487641D01*
X138716304Y-84730595D01*
X138665000Y-84988514D01*
X138665000Y-85251486D01*
X138716304Y-85509405D01*
X138816939Y-85752359D01*
X138865001Y-85824289D01*
X138865000Y-88865000D01*
X137055752Y-88865000D01*
X137000000Y-88859509D01*
X136944248Y-88865000D01*
X136777501Y-88881423D01*
X136563553Y-88946324D01*
X136366377Y-89051716D01*
X136193551Y-89193551D01*
X136158009Y-89236859D01*
X131529869Y-93865000D01*
X120470133Y-93865000D01*
X118135000Y-91529869D01*
X118135000Y-90587964D01*
X118216108Y-90506856D01*
X118225633Y-90551818D01*
X118336285Y-90811646D01*
X118495500Y-91044895D01*
X118697161Y-91242601D01*
X118933517Y-91397166D01*
X119195486Y-91502650D01*
X119473000Y-91555000D01*
X119873000Y-91555000D01*
X119873000Y-90247000D01*
X120127000Y-90247000D01*
X120127000Y-91555000D01*
X120527000Y-91555000D01*
X120804514Y-91502650D01*
X121066483Y-91397166D01*
X121302839Y-91242601D01*
X121504500Y-91044895D01*
X121663715Y-90811646D01*
X121774367Y-90551818D01*
X121791904Y-90469039D01*
X121669915Y-90247000D01*
X120127000Y-90247000D01*
X119873000Y-90247000D01*
X119853000Y-90247000D01*
X119853000Y-89993000D01*
X119873000Y-89993000D01*
X119873000Y-89973000D01*
X120127000Y-89973000D01*
X120127000Y-89993000D01*
X121669915Y-89993000D01*
X121791904Y-89770961D01*
X121774367Y-89688182D01*
X121663715Y-89428354D01*
X121504500Y-89195105D01*
X121302839Y-88997399D01*
X121073259Y-88847265D01*
X121201101Y-88778932D01*
X121419608Y-88599608D01*
X121598932Y-88381101D01*
X121732182Y-88131808D01*
X121814236Y-87861309D01*
X121841943Y-87580000D01*
X121814236Y-87298691D01*
X121732182Y-87028192D01*
X121598932Y-86778899D01*
X121419608Y-86560392D01*
X121201101Y-86381068D01*
X121068142Y-86310000D01*
X121201101Y-86238932D01*
X121419608Y-86059608D01*
X121598932Y-85841101D01*
X121732182Y-85591808D01*
X121814236Y-85321309D01*
X121841943Y-85040000D01*
X125778057Y-85040000D01*
X125805764Y-85321309D01*
X125887818Y-85591808D01*
X126021068Y-85841101D01*
X126200392Y-86059608D01*
X126418899Y-86238932D01*
X126485000Y-86274264D01*
X126485000Y-86345736D01*
X126418899Y-86381068D01*
X126200392Y-86560392D01*
X126021068Y-86778899D01*
X125887818Y-87028192D01*
X125805764Y-87298691D01*
X125778057Y-87580000D01*
X125805764Y-87861309D01*
X125887818Y-88131808D01*
X126021068Y-88381101D01*
X126200392Y-88599608D01*
X126418899Y-88778932D01*
X126551858Y-88850000D01*
X126418899Y-88921068D01*
X126200392Y-89100392D01*
X126021068Y-89318899D01*
X125887818Y-89568192D01*
X125805764Y-89838691D01*
X125778057Y-90120000D01*
X125805764Y-90401309D01*
X125887818Y-90671808D01*
X126021068Y-90921101D01*
X126200392Y-91139608D01*
X126418899Y-91318932D01*
X126668192Y-91452182D01*
X126938691Y-91534236D01*
X127149508Y-91555000D01*
X128090492Y-91555000D01*
X128301309Y-91534236D01*
X128571808Y-91452182D01*
X128821101Y-91318932D01*
X128899002Y-91255000D01*
X131795310Y-91255000D01*
X131820273Y-91271680D01*
X132081426Y-91379853D01*
X132358665Y-91435000D01*
X132641335Y-91435000D01*
X132918574Y-91379853D01*
X133179727Y-91271680D01*
X133414759Y-91114637D01*
X133614637Y-90914759D01*
X133771680Y-90679727D01*
X133879853Y-90418574D01*
X133935000Y-90141335D01*
X133935000Y-89858665D01*
X133879853Y-89581426D01*
X133771680Y-89320273D01*
X133614637Y-89085241D01*
X133414759Y-88885363D01*
X133179727Y-88728320D01*
X132918574Y-88620147D01*
X132641335Y-88565000D01*
X132358665Y-88565000D01*
X132081426Y-88620147D01*
X131820273Y-88728320D01*
X131585241Y-88885363D01*
X131485604Y-88985000D01*
X128899002Y-88985000D01*
X128821101Y-88921068D01*
X128688142Y-88850000D01*
X128821101Y-88778932D01*
X129039608Y-88599608D01*
X129218932Y-88381101D01*
X129352182Y-88131808D01*
X129434236Y-87861309D01*
X129461943Y-87580000D01*
X129434236Y-87298691D01*
X129385171Y-87136943D01*
X129513623Y-87068284D01*
X129686449Y-86926449D01*
X129721996Y-86883136D01*
X130623150Y-85981982D01*
X130666459Y-85946439D01*
X130808294Y-85773613D01*
X130913686Y-85576437D01*
X130978587Y-85362489D01*
X130995010Y-85195742D01*
X130995010Y-85195733D01*
X131000500Y-85139991D01*
X130995010Y-85084249D01*
X130995010Y-84858665D01*
X131065000Y-84858665D01*
X131065000Y-85141335D01*
X131120147Y-85418574D01*
X131228320Y-85679727D01*
X131385363Y-85914759D01*
X131585241Y-86114637D01*
X131820273Y-86271680D01*
X132081426Y-86379853D01*
X132358665Y-86435000D01*
X132641335Y-86435000D01*
X132918574Y-86379853D01*
X133179727Y-86271680D01*
X133414759Y-86114637D01*
X133614637Y-85914759D01*
X133771680Y-85679727D01*
X133879853Y-85418574D01*
X133927850Y-85177282D01*
X135470132Y-83635000D01*
X144115716Y-83635000D01*
X144320273Y-83771680D01*
X144581426Y-83879853D01*
X144858665Y-83935000D01*
X145141335Y-83935000D01*
X145418574Y-83879853D01*
X145679727Y-83771680D01*
X145914759Y-83614637D01*
X146114637Y-83414759D01*
X146271680Y-83179727D01*
X146379853Y-82918574D01*
X146435000Y-82641335D01*
X146435000Y-82358665D01*
X146379853Y-82081426D01*
X146271680Y-81820273D01*
X146114637Y-81585241D01*
X145914759Y-81385363D01*
X145679727Y-81228320D01*
X145418574Y-81120147D01*
X145141335Y-81065000D01*
X144858665Y-81065000D01*
X144581426Y-81120147D01*
X144320273Y-81228320D01*
X144115716Y-81365000D01*
X135055751Y-81365000D01*
X135000000Y-81359509D01*
X134944248Y-81365000D01*
X134777501Y-81381423D01*
X134563553Y-81446324D01*
X134366377Y-81551716D01*
X134193551Y-81693551D01*
X134158009Y-81736859D01*
X132322718Y-83572150D01*
X132081426Y-83620147D01*
X131820273Y-83728320D01*
X131585241Y-83885363D01*
X131385363Y-84085241D01*
X131228320Y-84320273D01*
X131120147Y-84581426D01*
X131065000Y-84858665D01*
X130995010Y-84858665D01*
X130995010Y-80915762D01*
X131000501Y-80860010D01*
X130978587Y-80637511D01*
X130913686Y-80423563D01*
X130808294Y-80226387D01*
X130805102Y-80222498D01*
X130666459Y-80053561D01*
X130623151Y-80018019D01*
X128515000Y-77909869D01*
X128515000Y-75704288D01*
X128563061Y-75632359D01*
X128663696Y-75389405D01*
X128715000Y-75131486D01*
X128715000Y-75074473D01*
X133660610Y-75074473D01*
X133700875Y-75334344D01*
X133791065Y-75581366D01*
X133844963Y-75682203D01*
X134078731Y-75741664D01*
X134820395Y-75000000D01*
X134078731Y-74258336D01*
X133844963Y-74317797D01*
X133734066Y-74556242D01*
X133671817Y-74811740D01*
X133660610Y-75074473D01*
X128715000Y-75074473D01*
X128715000Y-74868514D01*
X128663696Y-74610595D01*
X128635000Y-74541317D01*
X128635000Y-70884284D01*
X128771680Y-70679727D01*
X128879853Y-70418574D01*
X128935000Y-70141335D01*
X128935000Y-69858665D01*
X128879853Y-69581426D01*
X128771680Y-69320273D01*
X128614637Y-69085241D01*
X128414759Y-68885363D01*
X128179727Y-68728320D01*
X127918574Y-68620147D01*
X127641335Y-68565000D01*
X127358665Y-68565000D01*
X127081426Y-68620147D01*
X126820273Y-68728320D01*
X126585241Y-68885363D01*
X126385363Y-69085241D01*
X126228320Y-69320273D01*
X126120147Y-69581426D01*
X126065000Y-69858665D01*
X126065000Y-70141335D01*
X126120147Y-70418574D01*
X126228320Y-70679727D01*
X126365000Y-70884284D01*
X126365001Y-74127024D01*
X126343038Y-74148987D01*
X126196939Y-74367641D01*
X126096304Y-74610595D01*
X126045000Y-74868514D01*
X126045000Y-75131486D01*
X126096304Y-75389405D01*
X126196939Y-75632359D01*
X126245000Y-75704288D01*
X126245001Y-78324239D01*
X126239509Y-78380000D01*
X126261423Y-78602498D01*
X126326324Y-78816446D01*
X126344259Y-78850000D01*
X126431717Y-79013623D01*
X126573552Y-79186449D01*
X126616860Y-79221991D01*
X128571338Y-81176470D01*
X128424514Y-81117350D01*
X128147000Y-81065000D01*
X127747000Y-81065000D01*
X127747000Y-82373000D01*
X127767000Y-82373000D01*
X127767000Y-82627000D01*
X127747000Y-82627000D01*
X127747000Y-82647000D01*
X127493000Y-82647000D01*
X127493000Y-82627000D01*
X125950085Y-82627000D01*
X125828096Y-82849039D01*
X125845633Y-82931818D01*
X125956285Y-83191646D01*
X126115500Y-83424895D01*
X126317161Y-83622601D01*
X126546741Y-83772735D01*
X126418899Y-83841068D01*
X126200392Y-84020392D01*
X126021068Y-84238899D01*
X125887818Y-84488192D01*
X125805764Y-84758691D01*
X125778057Y-85040000D01*
X121841943Y-85040000D01*
X121814236Y-84758691D01*
X121732182Y-84488192D01*
X121598932Y-84238899D01*
X121419608Y-84020392D01*
X121306518Y-83927581D01*
X121324482Y-83925812D01*
X121444180Y-83889502D01*
X121554494Y-83830537D01*
X121651185Y-83751185D01*
X121730537Y-83654494D01*
X121789502Y-83544180D01*
X121825812Y-83424482D01*
X121838072Y-83300000D01*
X121838072Y-82150961D01*
X125828096Y-82150961D01*
X125950085Y-82373000D01*
X127493000Y-82373000D01*
X127493000Y-81065000D01*
X127093000Y-81065000D01*
X126815486Y-81117350D01*
X126553517Y-81222834D01*
X126317161Y-81377399D01*
X126115500Y-81575105D01*
X125956285Y-81808354D01*
X125845633Y-82068182D01*
X125828096Y-82150961D01*
X121838072Y-82150961D01*
X121838072Y-81700000D01*
X121825812Y-81575518D01*
X121789502Y-81455820D01*
X121730537Y-81345506D01*
X121651185Y-81248815D01*
X121554494Y-81169463D01*
X121444180Y-81110498D01*
X121324482Y-81074188D01*
X121200000Y-81061928D01*
X118800000Y-81061928D01*
X118675518Y-81074188D01*
X118555820Y-81110498D01*
X118445506Y-81169463D01*
X118348815Y-81248815D01*
X118269463Y-81345506D01*
X118210498Y-81455820D01*
X118174188Y-81575518D01*
X118161928Y-81700000D01*
X118161928Y-83300000D01*
X118174188Y-83424482D01*
X118210498Y-83544180D01*
X118269463Y-83654494D01*
X118348815Y-83751185D01*
X118445506Y-83830537D01*
X118555820Y-83889502D01*
X118606910Y-83905000D01*
X117415741Y-83905000D01*
X117359999Y-83899510D01*
X117304257Y-83905000D01*
X117304248Y-83905000D01*
X117137501Y-83921423D01*
X116923553Y-83986324D01*
X116726377Y-84091716D01*
X116553551Y-84233551D01*
X116518011Y-84276857D01*
X114349869Y-86445000D01*
X113899002Y-86445000D01*
X113821101Y-86381068D01*
X113693259Y-86312735D01*
X113922839Y-86162601D01*
X114124500Y-85964895D01*
X114283715Y-85731646D01*
X114394367Y-85471818D01*
X114411904Y-85389039D01*
X114289915Y-85167000D01*
X112747000Y-85167000D01*
X112747000Y-85187000D01*
X112493000Y-85187000D01*
X112493000Y-85167000D01*
X110950085Y-85167000D01*
X110828096Y-85389039D01*
X110845633Y-85471818D01*
X110956285Y-85731646D01*
X111115500Y-85964895D01*
X111317161Y-86162601D01*
X111546741Y-86312735D01*
X111418899Y-86381068D01*
X111340998Y-86445000D01*
X109975751Y-86445000D01*
X109919999Y-86439509D01*
X109864248Y-86445000D01*
X109697501Y-86461423D01*
X109483553Y-86526324D01*
X109286377Y-86631716D01*
X109113551Y-86773551D01*
X109078011Y-86816857D01*
X107236865Y-88658004D01*
X107193551Y-88693551D01*
X107051716Y-88866377D01*
X106946325Y-89063553D01*
X106946324Y-89063554D01*
X106881423Y-89277502D01*
X106859509Y-89500000D01*
X106865000Y-89555752D01*
X106865001Y-98029867D01*
X106029869Y-98865000D01*
X105005107Y-98865000D01*
X104986632Y-98846525D01*
X104743411Y-98684010D01*
X104473158Y-98572068D01*
X104186260Y-98515000D01*
X103893740Y-98515000D01*
X103606842Y-98572068D01*
X103336589Y-98684010D01*
X103093368Y-98846525D01*
X102961513Y-98978380D01*
X102939502Y-98905820D01*
X102880537Y-98795506D01*
X102801185Y-98698815D01*
X102704494Y-98619463D01*
X102594180Y-98560498D01*
X102474482Y-98524188D01*
X102350000Y-98511928D01*
X100650000Y-98511928D01*
X100525518Y-98524188D01*
X100405820Y-98560498D01*
X100295506Y-98619463D01*
X100198815Y-98698815D01*
X100119463Y-98795506D01*
X100060498Y-98905820D01*
X100024188Y-99025518D01*
X100011928Y-99150000D01*
X80127000Y-99150000D01*
X80127000Y-94868514D01*
X81165000Y-94868514D01*
X81165000Y-95131486D01*
X81216304Y-95389405D01*
X81316939Y-95632359D01*
X81463038Y-95851013D01*
X81648987Y-96036962D01*
X81867641Y-96183061D01*
X82110595Y-96283696D01*
X82368514Y-96335000D01*
X82631486Y-96335000D01*
X82889405Y-96283696D01*
X83132359Y-96183061D01*
X83351013Y-96036962D01*
X83536962Y-95851013D01*
X83683061Y-95632359D01*
X83783696Y-95389405D01*
X83835000Y-95131486D01*
X83835000Y-94988514D01*
X88665000Y-94988514D01*
X88665000Y-95251486D01*
X88716304Y-95509405D01*
X88816939Y-95752359D01*
X88963038Y-95971013D01*
X89148987Y-96156962D01*
X89367641Y-96303061D01*
X89610595Y-96403696D01*
X89868514Y-96455000D01*
X90131486Y-96455000D01*
X90389405Y-96403696D01*
X90632359Y-96303061D01*
X90851013Y-96156962D01*
X91036962Y-95971013D01*
X91183061Y-95752359D01*
X91283696Y-95509405D01*
X91335000Y-95251486D01*
X91335000Y-94988514D01*
X91283696Y-94730595D01*
X91183061Y-94487641D01*
X91036962Y-94268987D01*
X90851013Y-94083038D01*
X90632359Y-93936939D01*
X90389405Y-93836304D01*
X90131486Y-93785000D01*
X89868514Y-93785000D01*
X89610595Y-93836304D01*
X89367641Y-93936939D01*
X89148987Y-94083038D01*
X88963038Y-94268987D01*
X88816939Y-94487641D01*
X88716304Y-94730595D01*
X88665000Y-94988514D01*
X83835000Y-94988514D01*
X83835000Y-94868514D01*
X83783696Y-94610595D01*
X83683061Y-94367641D01*
X83536962Y-94148987D01*
X83351013Y-93963038D01*
X83132359Y-93816939D01*
X82889405Y-93716304D01*
X82631486Y-93665000D01*
X82368514Y-93665000D01*
X82110595Y-93716304D01*
X81867641Y-93816939D01*
X81648987Y-93963038D01*
X81463038Y-94148987D01*
X81316939Y-94367641D01*
X81216304Y-94610595D01*
X81165000Y-94868514D01*
X80127000Y-94868514D01*
X80127000Y-77580000D01*
X80778057Y-77580000D01*
X80805764Y-77861309D01*
X80887818Y-78131808D01*
X81021068Y-78381101D01*
X81200392Y-78599608D01*
X81418899Y-78778932D01*
X81485000Y-78814264D01*
X81485001Y-86507024D01*
X81463038Y-86528987D01*
X81316939Y-86747641D01*
X81216304Y-86990595D01*
X81165000Y-87248514D01*
X81165000Y-87511486D01*
X81216304Y-87769405D01*
X81316939Y-88012359D01*
X81463038Y-88231013D01*
X81648987Y-88416962D01*
X81867641Y-88563061D01*
X82110595Y-88663696D01*
X82368514Y-88715000D01*
X82631486Y-88715000D01*
X82889405Y-88663696D01*
X83132359Y-88563061D01*
X83351013Y-88416962D01*
X83536962Y-88231013D01*
X83683061Y-88012359D01*
X83783696Y-87769405D01*
X83835000Y-87511486D01*
X83835000Y-87248514D01*
X83783696Y-86990595D01*
X83755000Y-86921317D01*
X83755000Y-78814264D01*
X83821101Y-78778932D01*
X83899002Y-78715000D01*
X88685532Y-78715000D01*
X88619463Y-78795506D01*
X88560498Y-78905820D01*
X88524188Y-79025518D01*
X88511928Y-79150000D01*
X88511928Y-80850000D01*
X88524188Y-80974482D01*
X88560498Y-81094180D01*
X88619463Y-81204494D01*
X88698815Y-81301185D01*
X88795506Y-81380537D01*
X88865000Y-81417683D01*
X88865001Y-86795711D01*
X88816939Y-86867641D01*
X88716304Y-87110595D01*
X88665000Y-87368514D01*
X88665000Y-87631486D01*
X88716304Y-87889405D01*
X88816939Y-88132359D01*
X88963038Y-88351013D01*
X89148987Y-88536962D01*
X89367641Y-88683061D01*
X89610595Y-88783696D01*
X89868514Y-88835000D01*
X90131486Y-88835000D01*
X90389405Y-88783696D01*
X90632359Y-88683061D01*
X90851013Y-88536962D01*
X91036962Y-88351013D01*
X91183061Y-88132359D01*
X91283696Y-87889405D01*
X91335000Y-87631486D01*
X91335000Y-87368514D01*
X91283696Y-87110595D01*
X91183061Y-86867641D01*
X91135000Y-86795712D01*
X91135000Y-86650000D01*
X96011928Y-86650000D01*
X96011928Y-88350000D01*
X96024188Y-88474482D01*
X96060498Y-88594180D01*
X96119463Y-88704494D01*
X96198815Y-88801185D01*
X96295506Y-88880537D01*
X96405820Y-88939502D01*
X96525518Y-88975812D01*
X96650000Y-88988072D01*
X98350000Y-88988072D01*
X98474482Y-88975812D01*
X98594180Y-88939502D01*
X98704494Y-88880537D01*
X98801185Y-88801185D01*
X98871915Y-88715000D01*
X103720998Y-88715000D01*
X103798899Y-88778932D01*
X103931858Y-88850000D01*
X103798899Y-88921068D01*
X103580392Y-89100392D01*
X103401068Y-89318899D01*
X103267818Y-89568192D01*
X103185764Y-89838691D01*
X103158057Y-90120000D01*
X103185764Y-90401309D01*
X103267818Y-90671808D01*
X103401068Y-90921101D01*
X103580392Y-91139608D01*
X103798899Y-91318932D01*
X104048192Y-91452182D01*
X104318691Y-91534236D01*
X104529508Y-91555000D01*
X105470492Y-91555000D01*
X105681309Y-91534236D01*
X105951808Y-91452182D01*
X106201101Y-91318932D01*
X106419608Y-91139608D01*
X106598932Y-90921101D01*
X106732182Y-90671808D01*
X106814236Y-90401309D01*
X106841943Y-90120000D01*
X106814236Y-89838691D01*
X106732182Y-89568192D01*
X106598932Y-89318899D01*
X106419608Y-89100392D01*
X106201101Y-88921068D01*
X106068142Y-88850000D01*
X106201101Y-88778932D01*
X106419608Y-88599608D01*
X106598932Y-88381101D01*
X106732182Y-88131808D01*
X106814236Y-87861309D01*
X106841943Y-87580000D01*
X106814236Y-87298691D01*
X106732182Y-87028192D01*
X106598932Y-86778899D01*
X106419608Y-86560392D01*
X106201101Y-86381068D01*
X106068142Y-86310000D01*
X106201101Y-86238932D01*
X106419608Y-86059608D01*
X106598932Y-85841101D01*
X106732182Y-85591808D01*
X106814236Y-85321309D01*
X106841943Y-85040000D01*
X106814236Y-84758691D01*
X106732182Y-84488192D01*
X106598932Y-84238899D01*
X106419608Y-84020392D01*
X106306518Y-83927581D01*
X106324482Y-83925812D01*
X106444180Y-83889502D01*
X106554494Y-83830537D01*
X106651185Y-83751185D01*
X106730537Y-83654494D01*
X106789502Y-83544180D01*
X106825812Y-83424482D01*
X106838072Y-83300000D01*
X106838072Y-82500000D01*
X110778057Y-82500000D01*
X110805764Y-82781309D01*
X110887818Y-83051808D01*
X111021068Y-83301101D01*
X111200392Y-83519608D01*
X111418899Y-83698932D01*
X111546741Y-83767265D01*
X111317161Y-83917399D01*
X111115500Y-84115105D01*
X110956285Y-84348354D01*
X110845633Y-84608182D01*
X110828096Y-84690961D01*
X110950085Y-84913000D01*
X112493000Y-84913000D01*
X112493000Y-84893000D01*
X112747000Y-84893000D01*
X112747000Y-84913000D01*
X114289915Y-84913000D01*
X114411904Y-84690961D01*
X114394367Y-84608182D01*
X114283715Y-84348354D01*
X114124500Y-84115105D01*
X113922839Y-83917399D01*
X113693259Y-83767265D01*
X113821101Y-83698932D01*
X114039608Y-83519608D01*
X114218932Y-83301101D01*
X114352182Y-83051808D01*
X114434236Y-82781309D01*
X114461943Y-82500000D01*
X114434236Y-82218691D01*
X114352182Y-81948192D01*
X114218932Y-81698899D01*
X114039608Y-81480392D01*
X113821101Y-81301068D01*
X113571808Y-81167818D01*
X113301309Y-81085764D01*
X113090492Y-81065000D01*
X112149508Y-81065000D01*
X111938691Y-81085764D01*
X111668192Y-81167818D01*
X111418899Y-81301068D01*
X111200392Y-81480392D01*
X111021068Y-81698899D01*
X110887818Y-81948192D01*
X110805764Y-82218691D01*
X110778057Y-82500000D01*
X106838072Y-82500000D01*
X106838072Y-81700000D01*
X106825812Y-81575518D01*
X106789502Y-81455820D01*
X106730537Y-81345506D01*
X106651185Y-81248815D01*
X106554494Y-81169463D01*
X106444180Y-81110498D01*
X106324482Y-81074188D01*
X106200000Y-81061928D01*
X103800000Y-81061928D01*
X103675518Y-81074188D01*
X103555820Y-81110498D01*
X103445506Y-81169463D01*
X103348815Y-81248815D01*
X103269463Y-81345506D01*
X103210498Y-81455820D01*
X103174188Y-81575518D01*
X103161928Y-81700000D01*
X103161928Y-83300000D01*
X103174188Y-83424482D01*
X103210498Y-83544180D01*
X103269463Y-83654494D01*
X103348815Y-83751185D01*
X103438759Y-83825000D01*
X98465107Y-83825000D01*
X98446632Y-83806525D01*
X98203411Y-83644010D01*
X97933158Y-83532068D01*
X97646260Y-83475000D01*
X97353740Y-83475000D01*
X97066842Y-83532068D01*
X96796589Y-83644010D01*
X96553368Y-83806525D01*
X96346525Y-84013368D01*
X96184010Y-84256589D01*
X96072068Y-84526842D01*
X96015000Y-84813740D01*
X96015000Y-85106260D01*
X96072068Y-85393158D01*
X96184010Y-85663411D01*
X96346525Y-85906632D01*
X96478380Y-86038487D01*
X96405820Y-86060498D01*
X96295506Y-86119463D01*
X96198815Y-86198815D01*
X96119463Y-86295506D01*
X96060498Y-86405820D01*
X96024188Y-86525518D01*
X96011928Y-86650000D01*
X91135000Y-86650000D01*
X91135000Y-81417683D01*
X91204494Y-81380537D01*
X91301185Y-81301185D01*
X91380537Y-81204494D01*
X91417683Y-81135000D01*
X91794249Y-81135000D01*
X91850000Y-81140491D01*
X91905751Y-81135000D01*
X91905752Y-81135000D01*
X92072499Y-81118577D01*
X92286447Y-81053676D01*
X92483623Y-80948284D01*
X92656449Y-80806449D01*
X92691995Y-80763136D01*
X93763146Y-79691987D01*
X93806449Y-79656449D01*
X93948284Y-79483623D01*
X94053676Y-79286447D01*
X94118577Y-79072499D01*
X94135000Y-78905752D01*
X94140491Y-78850000D01*
X94135000Y-78794248D01*
X94135000Y-73555743D01*
X94140490Y-73499999D01*
X94135000Y-73444255D01*
X94135000Y-73444248D01*
X94118577Y-73277501D01*
X94053676Y-73063553D01*
X93948284Y-72866377D01*
X93806449Y-72693551D01*
X93763140Y-72658008D01*
X92721996Y-71616864D01*
X92686449Y-71573551D01*
X92513623Y-71431716D01*
X92316447Y-71326324D01*
X92102499Y-71261423D01*
X91935752Y-71245000D01*
X91935751Y-71245000D01*
X91880000Y-71239509D01*
X91824249Y-71245000D01*
X91135000Y-71245000D01*
X91135000Y-68324288D01*
X91183061Y-68252359D01*
X91283696Y-68009405D01*
X91335000Y-67751486D01*
X91335000Y-67488514D01*
X91283696Y-67230595D01*
X91183061Y-66987641D01*
X91036962Y-66768987D01*
X90851013Y-66583038D01*
X90632359Y-66436939D01*
X90389405Y-66336304D01*
X90131486Y-66285000D01*
X89868514Y-66285000D01*
X89610595Y-66336304D01*
X89367641Y-66436939D01*
X89148987Y-66583038D01*
X88963038Y-66768987D01*
X88816939Y-66987641D01*
X88716304Y-67230595D01*
X88665000Y-67488514D01*
X88665000Y-67751486D01*
X88716304Y-68009405D01*
X88816939Y-68252359D01*
X88865001Y-68324289D01*
X88865000Y-71414893D01*
X88846525Y-71433368D01*
X88684010Y-71676589D01*
X88572068Y-71946842D01*
X88515000Y-72233740D01*
X88515000Y-72526260D01*
X88572068Y-72813158D01*
X88684010Y-73083411D01*
X88846525Y-73326632D01*
X89053368Y-73533475D01*
X89227760Y-73650000D01*
X89053368Y-73766525D01*
X88846525Y-73973368D01*
X88684010Y-74216589D01*
X88572068Y-74486842D01*
X88515000Y-74773740D01*
X88515000Y-75066260D01*
X88572068Y-75353158D01*
X88684010Y-75623411D01*
X88846525Y-75866632D01*
X88865001Y-75885108D01*
X88865000Y-76445000D01*
X83899002Y-76445000D01*
X83821101Y-76381068D01*
X83693259Y-76312735D01*
X83922839Y-76162601D01*
X84124500Y-75964895D01*
X84283715Y-75731646D01*
X84394367Y-75471818D01*
X84411904Y-75389039D01*
X84289915Y-75167000D01*
X82747000Y-75167000D01*
X82747000Y-75187000D01*
X82493000Y-75187000D01*
X82493000Y-75167000D01*
X80950085Y-75167000D01*
X80828096Y-75389039D01*
X80845633Y-75471818D01*
X80956285Y-75731646D01*
X81115500Y-75964895D01*
X81317161Y-76162601D01*
X81546741Y-76312735D01*
X81418899Y-76381068D01*
X81200392Y-76560392D01*
X81021068Y-76778899D01*
X80887818Y-77028192D01*
X80805764Y-77298691D01*
X80778057Y-77580000D01*
X80127000Y-77580000D01*
X80127000Y-72500000D01*
X80778057Y-72500000D01*
X80805764Y-72781309D01*
X80887818Y-73051808D01*
X81021068Y-73301101D01*
X81200392Y-73519608D01*
X81418899Y-73698932D01*
X81546741Y-73767265D01*
X81317161Y-73917399D01*
X81115500Y-74115105D01*
X80956285Y-74348354D01*
X80845633Y-74608182D01*
X80828096Y-74690961D01*
X80950085Y-74913000D01*
X82493000Y-74913000D01*
X82493000Y-74893000D01*
X82747000Y-74893000D01*
X82747000Y-74913000D01*
X84289915Y-74913000D01*
X84411904Y-74690961D01*
X84394367Y-74608182D01*
X84283715Y-74348354D01*
X84124500Y-74115105D01*
X83922839Y-73917399D01*
X83693259Y-73767265D01*
X83821101Y-73698932D01*
X84039608Y-73519608D01*
X84218932Y-73301101D01*
X84352182Y-73051808D01*
X84434236Y-72781309D01*
X84461943Y-72500000D01*
X84434236Y-72218691D01*
X84352182Y-71948192D01*
X84218932Y-71698899D01*
X84039608Y-71480392D01*
X83821101Y-71301068D01*
X83571808Y-71167818D01*
X83301309Y-71085764D01*
X83090492Y-71065000D01*
X82149508Y-71065000D01*
X81938691Y-71085764D01*
X81668192Y-71167818D01*
X81418899Y-71301068D01*
X81200392Y-71480392D01*
X81021068Y-71698899D01*
X80887818Y-71948192D01*
X80805764Y-72218691D01*
X80778057Y-72500000D01*
X80127000Y-72500000D01*
X80127000Y-60921269D01*
X89258336Y-60921269D01*
X89317797Y-61155037D01*
X89556242Y-61265934D01*
X89811740Y-61328183D01*
X90074473Y-61339390D01*
X90334344Y-61299125D01*
X90581366Y-61208935D01*
X90682203Y-61155037D01*
X90741664Y-60921269D01*
X90000000Y-60179605D01*
X89258336Y-60921269D01*
X80127000Y-60921269D01*
X80127000Y-60074473D01*
X88660610Y-60074473D01*
X88700875Y-60334344D01*
X88791065Y-60581366D01*
X88844963Y-60682203D01*
X89078731Y-60741664D01*
X89820395Y-60000000D01*
X90179605Y-60000000D01*
X90921269Y-60741664D01*
X91155037Y-60682203D01*
X91265934Y-60443758D01*
X91328183Y-60188260D01*
X91339390Y-59925527D01*
X91299125Y-59665656D01*
X91208935Y-59418634D01*
X91155037Y-59317797D01*
X90921269Y-59258336D01*
X90179605Y-60000000D01*
X89820395Y-60000000D01*
X89078731Y-59258336D01*
X88844963Y-59317797D01*
X88734066Y-59556242D01*
X88671817Y-59811740D01*
X88660610Y-60074473D01*
X80127000Y-60074473D01*
X80127000Y-60052606D01*
X81100875Y-59078731D01*
X89258336Y-59078731D01*
X90000000Y-59820395D01*
X90741664Y-59078731D01*
X90682203Y-58844963D01*
X90443758Y-58734066D01*
X90188260Y-58671817D01*
X89925527Y-58660610D01*
X89665656Y-58700875D01*
X89418634Y-58791065D01*
X89317797Y-58844963D01*
X89258336Y-59078731D01*
X81100875Y-59078731D01*
X82052606Y-58127000D01*
X92947394Y-58127000D01*
X94873000Y-60052606D01*
G37*
G04 #@! TD.AperFunction*
M02*
