G04 #@! TF.GenerationSoftware,KiCad,Pcbnew,5.1.4+dfsg1-1*
G04 #@! TF.CreationDate,2020-06-16T22:38:04+02:00*
G04 #@! TF.ProjectId,usb_pcb,7573625f-7063-4622-9e6b-696361645f70,0*
G04 #@! TF.SameCoordinates,Original*
G04 #@! TF.FileFunction,Copper,L1,Top*
G04 #@! TF.FilePolarity,Positive*
%FSLAX46Y46*%
G04 Gerber Fmt 4.6, Leading zero omitted, Abs format (unit mm)*
G04 Created by KiCad (PCBNEW 5.1.4+dfsg1-1) date 2020-06-16 22:38:04*
%MOMM*%
%LPD*%
G04 APERTURE LIST*
%ADD10C,0.800000*%
%ADD11C,6.400000*%
%ADD12O,1.700000X1.700000*%
%ADD13R,1.700000X1.700000*%
%ADD14O,1.400000X1.400000*%
%ADD15C,1.400000*%
%ADD16R,1.050000X1.500000*%
%ADD17O,1.050000X1.500000*%
%ADD18O,2.200000X2.200000*%
%ADD19R,2.200000X2.200000*%
%ADD20C,1.600000*%
%ADD21O,2.400000X1.600000*%
%ADD22R,2.400000X1.600000*%
%ADD23C,1.000000*%
%ADD24C,0.400000*%
%ADD25C,0.254000*%
G04 APERTURE END LIST*
D10*
X59197056Y-100802944D03*
X57500000Y-100100000D03*
X55802944Y-100802944D03*
X55100000Y-102500000D03*
X55802944Y-104197056D03*
X57500000Y-104900000D03*
X59197056Y-104197056D03*
X59900000Y-102500000D03*
D11*
X57500000Y-102500000D03*
D10*
X59197056Y-48302944D03*
X57500000Y-47600000D03*
X55802944Y-48302944D03*
X55100000Y-50000000D03*
X55802944Y-51697056D03*
X57500000Y-52400000D03*
X59197056Y-51697056D03*
X59900000Y-50000000D03*
D11*
X57500000Y-50000000D03*
D10*
X169197056Y-98302944D03*
X167500000Y-97600000D03*
X165802944Y-98302944D03*
X165100000Y-100000000D03*
X165802944Y-101697056D03*
X167500000Y-102400000D03*
X169197056Y-101697056D03*
X169900000Y-100000000D03*
D11*
X167500000Y-100000000D03*
D10*
X169197056Y-48302944D03*
X167500000Y-47600000D03*
X165802944Y-48302944D03*
X165100000Y-50000000D03*
X165802944Y-51697056D03*
X167500000Y-52400000D03*
X169197056Y-51697056D03*
X169900000Y-50000000D03*
D11*
X167500000Y-50000000D03*
D12*
X90000000Y-72380000D03*
X90000000Y-74920000D03*
X90000000Y-77460000D03*
D13*
X90000000Y-80000000D03*
D12*
X170000000Y-74960000D03*
X170000000Y-77500000D03*
X170000000Y-80040000D03*
X170000000Y-82580000D03*
X170000000Y-85120000D03*
X170000000Y-87660000D03*
X170000000Y-90200000D03*
D13*
X170000000Y-92740000D03*
D12*
X132620000Y-100000000D03*
X130080000Y-100000000D03*
X127540000Y-100000000D03*
X125000000Y-100000000D03*
X122460000Y-100000000D03*
X119920000Y-100000000D03*
X117380000Y-100000000D03*
D13*
X114840000Y-100000000D03*
D14*
X107380000Y-57500000D03*
D15*
X115000000Y-57500000D03*
D12*
X112540000Y-50000000D03*
D13*
X110000000Y-50000000D03*
D12*
X102540000Y-57500000D03*
D13*
X100000000Y-57500000D03*
D12*
X102540000Y-50000000D03*
D13*
X100000000Y-50000000D03*
D12*
X139960000Y-102500000D03*
D13*
X142500000Y-102500000D03*
D12*
X97500000Y-84960000D03*
D13*
X97500000Y-87500000D03*
D12*
X82500000Y-59960000D03*
D13*
X82500000Y-62500000D03*
D12*
X55000000Y-75040000D03*
D13*
X55000000Y-72500000D03*
D16*
X107500000Y-70000000D03*
D17*
X104960000Y-70000000D03*
X106230000Y-70000000D03*
D14*
X165120000Y-67500000D03*
D15*
X157500000Y-67500000D03*
D14*
X157380000Y-62500000D03*
D15*
X165000000Y-62500000D03*
D14*
X67500000Y-72380000D03*
D15*
X67500000Y-80000000D03*
D18*
X62500000Y-69840000D03*
D19*
X62500000Y-80000000D03*
D20*
X105000000Y-62500000D03*
X100000000Y-62500000D03*
D21*
X160120000Y-75000000D03*
X152500000Y-90240000D03*
X160120000Y-77540000D03*
X152500000Y-87700000D03*
X160120000Y-80080000D03*
X152500000Y-85160000D03*
X160120000Y-82620000D03*
X152500000Y-82620000D03*
X160120000Y-85160000D03*
X152500000Y-80080000D03*
X160120000Y-87700000D03*
X152500000Y-77540000D03*
X160120000Y-90240000D03*
D22*
X152500000Y-75000000D03*
D21*
X112620000Y-82500000D03*
X105000000Y-90120000D03*
X112620000Y-85040000D03*
X105000000Y-87580000D03*
X112620000Y-87580000D03*
X105000000Y-85040000D03*
X112620000Y-90120000D03*
D22*
X105000000Y-82500000D03*
D21*
X82620000Y-72500000D03*
X75000000Y-77580000D03*
X82620000Y-75040000D03*
X75000000Y-75040000D03*
X82620000Y-77580000D03*
D22*
X75000000Y-72500000D03*
D21*
X127620000Y-82500000D03*
X120000000Y-90120000D03*
X127620000Y-85040000D03*
X120000000Y-87580000D03*
X127620000Y-87580000D03*
X120000000Y-85040000D03*
X127620000Y-90120000D03*
D22*
X120000000Y-82500000D03*
D14*
X90000000Y-95120000D03*
D15*
X90000000Y-87500000D03*
D14*
X90000000Y-67620000D03*
D15*
X90000000Y-60000000D03*
D14*
X140000000Y-85120000D03*
D15*
X140000000Y-77500000D03*
D14*
X82500000Y-87380000D03*
D15*
X82500000Y-95000000D03*
D14*
X127380000Y-75000000D03*
D15*
X135000000Y-75000000D03*
D14*
X140000000Y-97620000D03*
D15*
X140000000Y-90000000D03*
D20*
X117500000Y-65000000D03*
X117500000Y-70000000D03*
X112500000Y-65000000D03*
X112500000Y-70000000D03*
X127500000Y-65000000D03*
X127500000Y-70000000D03*
X145000000Y-82500000D03*
X145000000Y-77500000D03*
X132500000Y-85000000D03*
X132500000Y-90000000D03*
D23*
X169960000Y-82620000D02*
X170000000Y-82580000D01*
X112540000Y-50000000D02*
X112540000Y-51540000D01*
X112540000Y-51540000D02*
X115000000Y-54000000D01*
X115000000Y-54000000D02*
X115000000Y-57500000D01*
X89880000Y-95000000D02*
X90000000Y-95120000D01*
X82500000Y-95000000D02*
X89880000Y-95000000D01*
X101800000Y-95120000D02*
X105000000Y-91920000D01*
X105000000Y-91920000D02*
X105000000Y-90120000D01*
X90000000Y-95120000D02*
X101800000Y-95120000D01*
X101800000Y-95120000D02*
X109180000Y-102500000D01*
X131322081Y-102500000D02*
X132500000Y-102500000D01*
X117380000Y-100000000D02*
X117380000Y-102380000D01*
X117380000Y-102380000D02*
X117500000Y-102500000D01*
X109180000Y-102500000D02*
X117500000Y-102500000D01*
X122460000Y-102460000D02*
X122500000Y-102500000D01*
X122460000Y-100000000D02*
X122460000Y-102460000D01*
X117500000Y-102500000D02*
X122500000Y-102500000D01*
X127540000Y-100000000D02*
X127540000Y-102460000D01*
X122500000Y-102500000D02*
X127500000Y-102500000D01*
X127540000Y-102460000D02*
X127500000Y-102500000D01*
X127500000Y-102500000D02*
X131322081Y-102500000D01*
X132620000Y-102380000D02*
X132500000Y-102500000D01*
X132620000Y-100000000D02*
X132620000Y-102380000D01*
X105000000Y-65000000D02*
X117500000Y-65000000D01*
X105000000Y-65000000D02*
X105000000Y-62500000D01*
X105000000Y-67620000D02*
X105000000Y-65000000D01*
X112500000Y-60000000D02*
X115000000Y-57500000D01*
X105000000Y-62500000D02*
X107500000Y-60000000D01*
X107500000Y-60000000D02*
X112500000Y-60000000D01*
D24*
X106230000Y-70000000D02*
X106230000Y-68850000D01*
D23*
X117500000Y-65000000D02*
X127500000Y-65000000D01*
X135000000Y-82500000D02*
X132500000Y-85000000D01*
X145000000Y-82500000D02*
X135000000Y-82500000D01*
X142500000Y-96000000D02*
X142500000Y-102500000D01*
X141000000Y-94500000D02*
X142500000Y-96000000D01*
X134677902Y-94500000D02*
X141000000Y-94500000D01*
X132620000Y-96557902D02*
X134677902Y-94500000D01*
X132620000Y-100000000D02*
X132620000Y-96557902D01*
D24*
X106230000Y-70000000D02*
X106230000Y-69270000D01*
X106230000Y-69270000D02*
X106230000Y-69230000D01*
X106230000Y-68850000D02*
X106230000Y-68230000D01*
X106230000Y-68230000D02*
X105500000Y-67500000D01*
X106230000Y-68850000D02*
X105500000Y-68120000D01*
X106230000Y-68850000D02*
X106230000Y-68770000D01*
X106230000Y-69270000D02*
X106230000Y-68770000D01*
X106230000Y-70000000D02*
X106230000Y-69230000D01*
X105000000Y-68000000D02*
X106000000Y-69000000D01*
X105000000Y-67620000D02*
X105000000Y-68000000D01*
X106230000Y-69230000D02*
X106000000Y-69000000D01*
X106000000Y-69000000D02*
X105500000Y-68500000D01*
X106230000Y-70000000D02*
X106230000Y-68770000D01*
X106230000Y-68770000D02*
X106500000Y-68500000D01*
X107000000Y-68500000D02*
X107500000Y-68000000D01*
X106000000Y-69000000D02*
X105500000Y-69000000D01*
X105500000Y-69000000D02*
X105000000Y-68500000D01*
X105500000Y-69000000D02*
X104500000Y-68000000D01*
X106650001Y-68849999D02*
X107150001Y-68849999D01*
X106500000Y-69000000D02*
X106650001Y-68849999D01*
X106500000Y-69000000D02*
X107000000Y-68500000D01*
X106230000Y-69270000D02*
X106500000Y-69000000D01*
X107150001Y-68849999D02*
X107500000Y-68500000D01*
D23*
X132380000Y-90120000D02*
X132500000Y-90000000D01*
X127620000Y-90120000D02*
X132380000Y-90120000D01*
X112500000Y-70000000D02*
X117500000Y-70000000D01*
X117500000Y-71131370D02*
X117500000Y-70000000D01*
X127620000Y-82500000D02*
X127220000Y-82500000D01*
X122200000Y-90120000D02*
X124360000Y-87960000D01*
X120000000Y-90120000D02*
X122200000Y-90120000D01*
X124360000Y-79640000D02*
X117500000Y-72780000D01*
X124360000Y-81440000D02*
X124360000Y-81360000D01*
X125420000Y-82500000D02*
X124360000Y-81440000D01*
X127620000Y-82500000D02*
X125420000Y-82500000D01*
X124360000Y-87960000D02*
X124360000Y-81360000D01*
X124360000Y-81360000D02*
X124360000Y-79640000D01*
X112620000Y-85040000D02*
X113082167Y-85040000D01*
X113082167Y-85040000D02*
X117500000Y-80622167D01*
X117500000Y-72780000D02*
X117500000Y-71500000D01*
X117500000Y-80622167D02*
X117500000Y-71500000D01*
X117500000Y-71500000D02*
X117500000Y-71131370D01*
X147843202Y-82620000D02*
X152500000Y-82620000D01*
X89960000Y-59960000D02*
X90000000Y-60000000D01*
X82500000Y-59960000D02*
X89960000Y-59960000D01*
X112500000Y-70000000D02*
X107795010Y-70000000D01*
X135000000Y-74010051D02*
X128489949Y-67500000D01*
X135000000Y-75000000D02*
X135000000Y-74010051D01*
X128489949Y-67500000D02*
X124000000Y-67500000D01*
X121500000Y-70000000D02*
X117500000Y-70000000D01*
X124000000Y-67500000D02*
X121500000Y-70000000D01*
X135000000Y-75000000D02*
X135000000Y-76000000D01*
X145883201Y-80659999D02*
X147843202Y-82620000D01*
X139659999Y-80659999D02*
X145883201Y-80659999D01*
X135000000Y-76000000D02*
X139659999Y-80659999D01*
X111500000Y-76000000D02*
X117500000Y-70000000D01*
X92500000Y-60000000D02*
X96500000Y-64000000D01*
X90000000Y-60000000D02*
X92500000Y-60000000D01*
X111500000Y-76000000D02*
X99500000Y-76000000D01*
X96500000Y-73000000D02*
X96500000Y-64000000D01*
X99500000Y-76000000D02*
X96500000Y-73000000D01*
X80500000Y-60757919D02*
X81297919Y-59960000D01*
X80500000Y-64500000D02*
X80500000Y-60757919D01*
X80959991Y-64959991D02*
X80500000Y-64500000D01*
X82620000Y-75040000D02*
X84820000Y-75040000D01*
X81297919Y-59960000D02*
X82500000Y-59960000D01*
X84820000Y-75040000D02*
X84860010Y-74999990D01*
X84860010Y-68887912D02*
X80959991Y-64987893D01*
X80959991Y-64987893D02*
X80959991Y-64959991D01*
X84860010Y-74999990D02*
X84860010Y-68887912D01*
X140000000Y-77500000D02*
X145000000Y-77500000D01*
X147580000Y-80080000D02*
X145000000Y-77500000D01*
X152500000Y-80080000D02*
X147580000Y-80080000D01*
X152500000Y-80080000D02*
X160120000Y-80080000D01*
X159657833Y-85160000D02*
X160120000Y-85160000D01*
X152500000Y-80080000D02*
X154577833Y-80080000D01*
X154700000Y-85160000D02*
X152500000Y-85160000D01*
X156498917Y-82001083D02*
X156498917Y-83361083D01*
X156498917Y-82001083D02*
X159657833Y-85160000D01*
X154577833Y-80080000D02*
X156498917Y-82001083D01*
X156498917Y-83361083D02*
X154700000Y-85160000D01*
X127500000Y-74880000D02*
X127380000Y-75000000D01*
X127500000Y-70000000D02*
X127500000Y-74880000D01*
X127620000Y-86120000D02*
X127620000Y-85502167D01*
X127620000Y-87580000D02*
X127620000Y-86120000D01*
X128880000Y-86120000D02*
X127620000Y-86120000D01*
X129860010Y-80860010D02*
X129860010Y-85139990D01*
X127380000Y-75000000D02*
X127380000Y-78380000D01*
X129860010Y-85139990D02*
X128880000Y-86120000D01*
X127380000Y-78380000D02*
X129860010Y-80860010D01*
X100000000Y-50000000D02*
X100000000Y-57500000D01*
X100000000Y-57500000D02*
X100000000Y-62500000D01*
X100000000Y-62500000D02*
X100000000Y-68000000D01*
X102000000Y-70000000D02*
X104664990Y-70000000D01*
X100000000Y-68000000D02*
X102000000Y-70000000D01*
X60160000Y-69840000D02*
X62500000Y-69840000D01*
X55000000Y-72500000D02*
X57500000Y-72500000D01*
X57500000Y-72500000D02*
X60160000Y-69840000D01*
X62500000Y-80000000D02*
X67500000Y-80000000D01*
X120000000Y-87580000D02*
X120462167Y-87580000D01*
X125000000Y-98797919D02*
X125000000Y-100000000D01*
X125000000Y-98000000D02*
X125000000Y-98797919D01*
X119920000Y-98797919D02*
X120717919Y-98000000D01*
X119920000Y-100000000D02*
X119920000Y-98797919D01*
X130080000Y-98797919D02*
X130080000Y-100000000D01*
X129282081Y-98000000D02*
X130080000Y-98797919D01*
X125000000Y-98000000D02*
X129282081Y-98000000D01*
X121500000Y-98000000D02*
X125000000Y-98000000D01*
X120717919Y-98000000D02*
X121500000Y-98000000D01*
X114840000Y-98150000D02*
X114840000Y-100000000D01*
X114990000Y-98000000D02*
X114840000Y-98150000D01*
X140000000Y-90000000D02*
X140000000Y-85120000D01*
X140000000Y-90000000D02*
X137000000Y-90000000D01*
X137000000Y-90000000D02*
X132000000Y-95000000D01*
X119537833Y-87580000D02*
X117000000Y-90117833D01*
X120000000Y-87580000D02*
X119537833Y-87580000D01*
X121500000Y-98000000D02*
X117000000Y-98000000D01*
X117000000Y-98000000D02*
X114990000Y-98000000D01*
X117000000Y-92000000D02*
X120000000Y-95000000D01*
X117000000Y-90117833D02*
X117000000Y-92000000D01*
X120000000Y-95000000D02*
X128000000Y-95000000D01*
X132000000Y-95000000D02*
X128000000Y-95000000D01*
X128000000Y-95000000D02*
X127000000Y-95000000D01*
X117000000Y-90117833D02*
X117000000Y-98000000D01*
X74880000Y-72380000D02*
X75000000Y-72500000D01*
X67500000Y-72380000D02*
X74880000Y-72380000D01*
X152500000Y-77540000D02*
X152500000Y-75000000D01*
X154500000Y-62500000D02*
X157380000Y-62500000D01*
X152500000Y-75000000D02*
X152500000Y-64500000D01*
X152500000Y-64500000D02*
X154500000Y-62500000D01*
X117360000Y-85040000D02*
X117800000Y-85040000D01*
X117800000Y-85040000D02*
X120000000Y-85040000D01*
X114820000Y-87580000D02*
X117360000Y-85040000D01*
X112620000Y-87580000D02*
X114820000Y-87580000D01*
X55000000Y-75040000D02*
X75000000Y-75040000D01*
X89880000Y-77580000D02*
X90000000Y-77460000D01*
X82620000Y-77580000D02*
X84820000Y-77580000D01*
X90000000Y-77460000D02*
X90000000Y-74920000D01*
X82500000Y-64350000D02*
X82500000Y-62500000D01*
X86420000Y-68270000D02*
X82500000Y-64350000D01*
X86420000Y-77580000D02*
X86420000Y-68270000D01*
X86420000Y-77580000D02*
X89880000Y-77580000D01*
X82620000Y-77580000D02*
X86420000Y-77580000D01*
X82620000Y-87260000D02*
X82500000Y-87380000D01*
X82620000Y-77580000D02*
X82620000Y-87260000D01*
X90000000Y-72380000D02*
X90000000Y-67620000D01*
X90000000Y-80000000D02*
X90000000Y-87500000D01*
X90000000Y-72380000D02*
X91880000Y-72380000D01*
X91880000Y-72380000D02*
X93000000Y-73500000D01*
X91850000Y-80000000D02*
X90000000Y-80000000D01*
X93000000Y-78850000D02*
X91850000Y-80000000D01*
X93000000Y-73500000D02*
X93000000Y-78850000D01*
X104920000Y-84960000D02*
X105000000Y-85040000D01*
X97500000Y-84960000D02*
X104920000Y-84960000D01*
X97580000Y-87580000D02*
X97500000Y-87500000D01*
X105000000Y-87580000D02*
X97580000Y-87580000D01*
X139960000Y-97660000D02*
X140000000Y-97620000D01*
X139960000Y-102500000D02*
X139960000Y-97660000D01*
X152500000Y-90240000D02*
X152900000Y-90240000D01*
X152500000Y-89000000D02*
X152500000Y-87700000D01*
X152500000Y-90240000D02*
X152500000Y-89000000D01*
X158500000Y-92500000D02*
X166497919Y-92500000D01*
X168797919Y-90200000D02*
X170000000Y-90200000D01*
X152500000Y-89000000D02*
X155000000Y-89000000D01*
X166497919Y-92500000D02*
X168797919Y-90200000D01*
X155000000Y-89000000D02*
X158500000Y-92500000D01*
X110000000Y-50000000D02*
X102540000Y-50000000D01*
X102540000Y-57500000D02*
X107380000Y-57500000D01*
X170000000Y-74960000D02*
X167960000Y-74960000D01*
X165120000Y-72120000D02*
X165120000Y-67500000D01*
X167960000Y-74960000D02*
X165120000Y-72120000D01*
X165000000Y-62500000D02*
X165000000Y-67380000D01*
X165000000Y-67380000D02*
X165120000Y-67500000D01*
X160120000Y-76380000D02*
X160120000Y-77540000D01*
X160120000Y-75000000D02*
X160120000Y-76380000D01*
X168797919Y-80040000D02*
X170000000Y-80040000D01*
X160120000Y-76380000D02*
X162380000Y-76380000D01*
X166040000Y-80040000D02*
X168797919Y-80040000D01*
X162380000Y-76380000D02*
X166040000Y-80040000D01*
X168797919Y-85120000D02*
X170000000Y-85120000D01*
X160120000Y-89120000D02*
X160120000Y-87700000D01*
X160120000Y-90240000D02*
X160120000Y-89120000D01*
X165380000Y-85120000D02*
X170000000Y-85120000D01*
X160120000Y-89120000D02*
X161380000Y-89120000D01*
X161380000Y-89120000D02*
X165380000Y-85120000D01*
D25*
G36*
X171840000Y-46519606D02*
G01*
X171840000Y-62373000D01*
X166335000Y-62373000D01*
X166335000Y-62368514D01*
X166283696Y-62110595D01*
X166183061Y-61867641D01*
X166036962Y-61648987D01*
X165851013Y-61463038D01*
X165632359Y-61316939D01*
X165389405Y-61216304D01*
X165131486Y-61165000D01*
X164868514Y-61165000D01*
X164610595Y-61216304D01*
X164367641Y-61316939D01*
X164148987Y-61463038D01*
X163963038Y-61648987D01*
X163816939Y-61867641D01*
X163716304Y-62110595D01*
X163665000Y-62368514D01*
X163665000Y-62373000D01*
X158708950Y-62373000D01*
X158695683Y-62238294D01*
X158619347Y-61986646D01*
X158495382Y-61754725D01*
X158328555Y-61551445D01*
X158125275Y-61384618D01*
X157893354Y-61260653D01*
X157641706Y-61184317D01*
X157445579Y-61165000D01*
X157314421Y-61165000D01*
X157118294Y-61184317D01*
X156866646Y-61260653D01*
X156671428Y-61365000D01*
X154555751Y-61365000D01*
X154499999Y-61359509D01*
X154277500Y-61381423D01*
X154227705Y-61396529D01*
X154063553Y-61446324D01*
X153866377Y-61551716D01*
X153693551Y-61693551D01*
X153658009Y-61736859D01*
X151736860Y-63658009D01*
X151693552Y-63693551D01*
X151551717Y-63866377D01*
X151534394Y-63898787D01*
X151446324Y-64063554D01*
X151381423Y-64277502D01*
X151359509Y-64500000D01*
X151365001Y-64555761D01*
X151365000Y-73561928D01*
X151300000Y-73561928D01*
X151175518Y-73574188D01*
X151055820Y-73610498D01*
X150945506Y-73669463D01*
X150848815Y-73748815D01*
X150769463Y-73845506D01*
X150710498Y-73955820D01*
X150674188Y-74075518D01*
X150661928Y-74200000D01*
X150661928Y-75800000D01*
X150674188Y-75924482D01*
X150710498Y-76044180D01*
X150769463Y-76154494D01*
X150848815Y-76251185D01*
X150945506Y-76330537D01*
X151055820Y-76389502D01*
X151175518Y-76425812D01*
X151193482Y-76427581D01*
X151080392Y-76520392D01*
X150901068Y-76738899D01*
X150767818Y-76988192D01*
X150685764Y-77258691D01*
X150658057Y-77540000D01*
X150685764Y-77821309D01*
X150767818Y-78091808D01*
X150901068Y-78341101D01*
X151080392Y-78559608D01*
X151298899Y-78738932D01*
X151431858Y-78810000D01*
X151298899Y-78881068D01*
X151220998Y-78945000D01*
X148050132Y-78945000D01*
X146427850Y-77322718D01*
X146379853Y-77081426D01*
X146271680Y-76820273D01*
X146114637Y-76585241D01*
X145914759Y-76385363D01*
X145679727Y-76228320D01*
X145418574Y-76120147D01*
X145141335Y-76065000D01*
X144858665Y-76065000D01*
X144581426Y-76120147D01*
X144320273Y-76228320D01*
X144115716Y-76365000D01*
X140704288Y-76365000D01*
X140632359Y-76316939D01*
X140389405Y-76216304D01*
X140131486Y-76165000D01*
X139868514Y-76165000D01*
X139610595Y-76216304D01*
X139367641Y-76316939D01*
X139148987Y-76463038D01*
X138963038Y-76648987D01*
X138816939Y-76867641D01*
X138716304Y-77110595D01*
X138665000Y-77368514D01*
X138665000Y-77631486D01*
X138716304Y-77889405D01*
X138816939Y-78132359D01*
X138963038Y-78351013D01*
X139148987Y-78536962D01*
X139367641Y-78683061D01*
X139610595Y-78783696D01*
X139868514Y-78835000D01*
X140131486Y-78835000D01*
X140389405Y-78783696D01*
X140632359Y-78683061D01*
X140704288Y-78635000D01*
X144115716Y-78635000D01*
X144320273Y-78771680D01*
X144581426Y-78879853D01*
X144822718Y-78927850D01*
X145419868Y-79524999D01*
X140130131Y-79524999D01*
X136199003Y-75593872D01*
X136283696Y-75389405D01*
X136335000Y-75131486D01*
X136335000Y-74868514D01*
X136283696Y-74610595D01*
X136183061Y-74367641D01*
X136135000Y-74295712D01*
X136135000Y-74065792D01*
X136140490Y-74010050D01*
X136135000Y-73954308D01*
X136135000Y-73954300D01*
X136118577Y-73787552D01*
X136053676Y-73573604D01*
X135948284Y-73376428D01*
X135806449Y-73203602D01*
X135763141Y-73168060D01*
X129331945Y-66736865D01*
X129296398Y-66693551D01*
X129123572Y-66551716D01*
X128926396Y-66446324D01*
X128712448Y-66381423D01*
X128545701Y-66365000D01*
X128545700Y-66365000D01*
X128489949Y-66359509D01*
X128434198Y-66365000D01*
X127944608Y-66365000D01*
X128116292Y-66303603D01*
X128241514Y-66236671D01*
X128313097Y-65992702D01*
X127500000Y-65179605D01*
X126686903Y-65992702D01*
X126758486Y-66236671D01*
X127013996Y-66357571D01*
X127043633Y-66365000D01*
X124055751Y-66365000D01*
X124000000Y-66359509D01*
X123944248Y-66365000D01*
X123777501Y-66381423D01*
X123563553Y-66446324D01*
X123366377Y-66551716D01*
X123193551Y-66693551D01*
X123158011Y-66736857D01*
X121521869Y-68373000D01*
X103627000Y-68373000D01*
X103627000Y-67552606D01*
X104552606Y-66627000D01*
X105000000Y-66627000D01*
X105024776Y-66624560D01*
X105048601Y-66617333D01*
X105070557Y-66605597D01*
X105089803Y-66589803D01*
X105105597Y-66570557D01*
X105117333Y-66548601D01*
X105124560Y-66524776D01*
X105127000Y-66500000D01*
X105127000Y-65992702D01*
X111686903Y-65992702D01*
X111758486Y-66236671D01*
X112013996Y-66357571D01*
X112288184Y-66426300D01*
X112570512Y-66440217D01*
X112850130Y-66398787D01*
X113116292Y-66303603D01*
X113241514Y-66236671D01*
X113313097Y-65992702D01*
X116686903Y-65992702D01*
X116758486Y-66236671D01*
X117013996Y-66357571D01*
X117288184Y-66426300D01*
X117570512Y-66440217D01*
X117850130Y-66398787D01*
X118116292Y-66303603D01*
X118241514Y-66236671D01*
X118313097Y-65992702D01*
X117500000Y-65179605D01*
X116686903Y-65992702D01*
X113313097Y-65992702D01*
X112500000Y-65179605D01*
X111686903Y-65992702D01*
X105127000Y-65992702D01*
X105127000Y-65070512D01*
X111059783Y-65070512D01*
X111101213Y-65350130D01*
X111196397Y-65616292D01*
X111263329Y-65741514D01*
X111507298Y-65813097D01*
X112320395Y-65000000D01*
X112679605Y-65000000D01*
X113492702Y-65813097D01*
X113736671Y-65741514D01*
X113857571Y-65486004D01*
X113926300Y-65211816D01*
X113933265Y-65070512D01*
X116059783Y-65070512D01*
X116101213Y-65350130D01*
X116196397Y-65616292D01*
X116263329Y-65741514D01*
X116507298Y-65813097D01*
X117320395Y-65000000D01*
X117679605Y-65000000D01*
X118492702Y-65813097D01*
X118736671Y-65741514D01*
X118857571Y-65486004D01*
X118926300Y-65211816D01*
X118933265Y-65070512D01*
X126059783Y-65070512D01*
X126101213Y-65350130D01*
X126196397Y-65616292D01*
X126263329Y-65741514D01*
X126507298Y-65813097D01*
X127320395Y-65000000D01*
X127679605Y-65000000D01*
X128492702Y-65813097D01*
X128736671Y-65741514D01*
X128857571Y-65486004D01*
X128926300Y-65211816D01*
X128940217Y-64929488D01*
X128898787Y-64649870D01*
X128803603Y-64383708D01*
X128736671Y-64258486D01*
X128492702Y-64186903D01*
X127679605Y-65000000D01*
X127320395Y-65000000D01*
X126507298Y-64186903D01*
X126263329Y-64258486D01*
X126142429Y-64513996D01*
X126073700Y-64788184D01*
X126059783Y-65070512D01*
X118933265Y-65070512D01*
X118940217Y-64929488D01*
X118898787Y-64649870D01*
X118803603Y-64383708D01*
X118736671Y-64258486D01*
X118492702Y-64186903D01*
X117679605Y-65000000D01*
X117320395Y-65000000D01*
X116507298Y-64186903D01*
X116263329Y-64258486D01*
X116142429Y-64513996D01*
X116073700Y-64788184D01*
X116059783Y-65070512D01*
X113933265Y-65070512D01*
X113940217Y-64929488D01*
X113898787Y-64649870D01*
X113803603Y-64383708D01*
X113736671Y-64258486D01*
X113492702Y-64186903D01*
X112679605Y-65000000D01*
X112320395Y-65000000D01*
X111507298Y-64186903D01*
X111263329Y-64258486D01*
X111142429Y-64513996D01*
X111073700Y-64788184D01*
X111059783Y-65070512D01*
X105127000Y-65070512D01*
X105127000Y-64007298D01*
X111686903Y-64007298D01*
X112500000Y-64820395D01*
X113313097Y-64007298D01*
X116686903Y-64007298D01*
X117500000Y-64820395D01*
X118313097Y-64007298D01*
X126686903Y-64007298D01*
X127500000Y-64820395D01*
X128313097Y-64007298D01*
X128241514Y-63763329D01*
X127986004Y-63642429D01*
X127711816Y-63573700D01*
X127429488Y-63559783D01*
X127149870Y-63601213D01*
X126883708Y-63696397D01*
X126758486Y-63763329D01*
X126686903Y-64007298D01*
X118313097Y-64007298D01*
X118241514Y-63763329D01*
X117986004Y-63642429D01*
X117711816Y-63573700D01*
X117429488Y-63559783D01*
X117149870Y-63601213D01*
X116883708Y-63696397D01*
X116758486Y-63763329D01*
X116686903Y-64007298D01*
X113313097Y-64007298D01*
X113241514Y-63763329D01*
X112986004Y-63642429D01*
X112711816Y-63573700D01*
X112429488Y-63559783D01*
X112149870Y-63601213D01*
X111883708Y-63696397D01*
X111758486Y-63763329D01*
X111686903Y-64007298D01*
X105127000Y-64007298D01*
X105127000Y-63931847D01*
X105350130Y-63898787D01*
X105616292Y-63803603D01*
X105741514Y-63736671D01*
X105813097Y-63492702D01*
X105127000Y-62806605D01*
X105127000Y-62552606D01*
X105179606Y-62500001D01*
X105992702Y-63313097D01*
X106236671Y-63241514D01*
X106357571Y-62986004D01*
X106426300Y-62711816D01*
X106440217Y-62429488D01*
X106398787Y-62149870D01*
X106303603Y-61883708D01*
X106236671Y-61758486D01*
X105992704Y-61686903D01*
X106108977Y-61570630D01*
X107552606Y-60127000D01*
X112500000Y-60127000D01*
X112524776Y-60124560D01*
X112548601Y-60117333D01*
X112570557Y-60105597D01*
X112589803Y-60089803D01*
X114141682Y-58537924D01*
X114141683Y-58537925D01*
X114258336Y-58421272D01*
X114317797Y-58655037D01*
X114556242Y-58765934D01*
X114811740Y-58828183D01*
X115074473Y-58839390D01*
X115334344Y-58799125D01*
X115581366Y-58708935D01*
X115682203Y-58655037D01*
X115741664Y-58421269D01*
X115000001Y-57679606D01*
X115052606Y-57627000D01*
X115306605Y-57627000D01*
X115921269Y-58241664D01*
X116155037Y-58182203D01*
X116265934Y-57943758D01*
X116328183Y-57688260D01*
X116330796Y-57627000D01*
X119500000Y-57627000D01*
X119524776Y-57624560D01*
X119548601Y-57617333D01*
X119570557Y-57605597D01*
X119589803Y-57589803D01*
X120089803Y-57089803D01*
X120105597Y-57070557D01*
X120117333Y-57048601D01*
X120124560Y-57024776D01*
X120127000Y-57000000D01*
X120127000Y-52700881D01*
X164978724Y-52700881D01*
X165338912Y-53190548D01*
X166002882Y-53550849D01*
X166724385Y-53774694D01*
X167475695Y-53853480D01*
X168227938Y-53784178D01*
X168952208Y-53569452D01*
X169620670Y-53217555D01*
X169661088Y-53190548D01*
X170021276Y-52700881D01*
X167500000Y-50179605D01*
X164978724Y-52700881D01*
X120127000Y-52700881D01*
X120127000Y-49975695D01*
X163646520Y-49975695D01*
X163715822Y-50727938D01*
X163930548Y-51452208D01*
X164282445Y-52120670D01*
X164309452Y-52161088D01*
X164799119Y-52521276D01*
X167320395Y-50000000D01*
X167679605Y-50000000D01*
X170200881Y-52521276D01*
X170690548Y-52161088D01*
X171050849Y-51497118D01*
X171274694Y-50775615D01*
X171353480Y-50024305D01*
X171284178Y-49272062D01*
X171069452Y-48547792D01*
X170717555Y-47879330D01*
X170690548Y-47838912D01*
X170200881Y-47478724D01*
X167679605Y-50000000D01*
X167320395Y-50000000D01*
X164799119Y-47478724D01*
X164309452Y-47838912D01*
X163949151Y-48502882D01*
X163725306Y-49224385D01*
X163646520Y-49975695D01*
X120127000Y-49975695D01*
X120127000Y-47299119D01*
X164978724Y-47299119D01*
X167500000Y-49820395D01*
X170021276Y-47299119D01*
X169661088Y-46809452D01*
X168997118Y-46449151D01*
X168275615Y-46225306D01*
X167524305Y-46146520D01*
X166772062Y-46215822D01*
X166047792Y-46430548D01*
X165379330Y-46782445D01*
X165338912Y-46809452D01*
X164978724Y-47299119D01*
X120127000Y-47299119D01*
X120127000Y-46552606D01*
X121019606Y-45660000D01*
X170980394Y-45660000D01*
X171840000Y-46519606D01*
X171840000Y-46519606D01*
G37*
X171840000Y-46519606D02*
X171840000Y-62373000D01*
X166335000Y-62373000D01*
X166335000Y-62368514D01*
X166283696Y-62110595D01*
X166183061Y-61867641D01*
X166036962Y-61648987D01*
X165851013Y-61463038D01*
X165632359Y-61316939D01*
X165389405Y-61216304D01*
X165131486Y-61165000D01*
X164868514Y-61165000D01*
X164610595Y-61216304D01*
X164367641Y-61316939D01*
X164148987Y-61463038D01*
X163963038Y-61648987D01*
X163816939Y-61867641D01*
X163716304Y-62110595D01*
X163665000Y-62368514D01*
X163665000Y-62373000D01*
X158708950Y-62373000D01*
X158695683Y-62238294D01*
X158619347Y-61986646D01*
X158495382Y-61754725D01*
X158328555Y-61551445D01*
X158125275Y-61384618D01*
X157893354Y-61260653D01*
X157641706Y-61184317D01*
X157445579Y-61165000D01*
X157314421Y-61165000D01*
X157118294Y-61184317D01*
X156866646Y-61260653D01*
X156671428Y-61365000D01*
X154555751Y-61365000D01*
X154499999Y-61359509D01*
X154277500Y-61381423D01*
X154227705Y-61396529D01*
X154063553Y-61446324D01*
X153866377Y-61551716D01*
X153693551Y-61693551D01*
X153658009Y-61736859D01*
X151736860Y-63658009D01*
X151693552Y-63693551D01*
X151551717Y-63866377D01*
X151534394Y-63898787D01*
X151446324Y-64063554D01*
X151381423Y-64277502D01*
X151359509Y-64500000D01*
X151365001Y-64555761D01*
X151365000Y-73561928D01*
X151300000Y-73561928D01*
X151175518Y-73574188D01*
X151055820Y-73610498D01*
X150945506Y-73669463D01*
X150848815Y-73748815D01*
X150769463Y-73845506D01*
X150710498Y-73955820D01*
X150674188Y-74075518D01*
X150661928Y-74200000D01*
X150661928Y-75800000D01*
X150674188Y-75924482D01*
X150710498Y-76044180D01*
X150769463Y-76154494D01*
X150848815Y-76251185D01*
X150945506Y-76330537D01*
X151055820Y-76389502D01*
X151175518Y-76425812D01*
X151193482Y-76427581D01*
X151080392Y-76520392D01*
X150901068Y-76738899D01*
X150767818Y-76988192D01*
X150685764Y-77258691D01*
X150658057Y-77540000D01*
X150685764Y-77821309D01*
X150767818Y-78091808D01*
X150901068Y-78341101D01*
X151080392Y-78559608D01*
X151298899Y-78738932D01*
X151431858Y-78810000D01*
X151298899Y-78881068D01*
X151220998Y-78945000D01*
X148050132Y-78945000D01*
X146427850Y-77322718D01*
X146379853Y-77081426D01*
X146271680Y-76820273D01*
X146114637Y-76585241D01*
X145914759Y-76385363D01*
X145679727Y-76228320D01*
X145418574Y-76120147D01*
X145141335Y-76065000D01*
X144858665Y-76065000D01*
X144581426Y-76120147D01*
X144320273Y-76228320D01*
X144115716Y-76365000D01*
X140704288Y-76365000D01*
X140632359Y-76316939D01*
X140389405Y-76216304D01*
X140131486Y-76165000D01*
X139868514Y-76165000D01*
X139610595Y-76216304D01*
X139367641Y-76316939D01*
X139148987Y-76463038D01*
X138963038Y-76648987D01*
X138816939Y-76867641D01*
X138716304Y-77110595D01*
X138665000Y-77368514D01*
X138665000Y-77631486D01*
X138716304Y-77889405D01*
X138816939Y-78132359D01*
X138963038Y-78351013D01*
X139148987Y-78536962D01*
X139367641Y-78683061D01*
X139610595Y-78783696D01*
X139868514Y-78835000D01*
X140131486Y-78835000D01*
X140389405Y-78783696D01*
X140632359Y-78683061D01*
X140704288Y-78635000D01*
X144115716Y-78635000D01*
X144320273Y-78771680D01*
X144581426Y-78879853D01*
X144822718Y-78927850D01*
X145419868Y-79524999D01*
X140130131Y-79524999D01*
X136199003Y-75593872D01*
X136283696Y-75389405D01*
X136335000Y-75131486D01*
X136335000Y-74868514D01*
X136283696Y-74610595D01*
X136183061Y-74367641D01*
X136135000Y-74295712D01*
X136135000Y-74065792D01*
X136140490Y-74010050D01*
X136135000Y-73954308D01*
X136135000Y-73954300D01*
X136118577Y-73787552D01*
X136053676Y-73573604D01*
X135948284Y-73376428D01*
X135806449Y-73203602D01*
X135763141Y-73168060D01*
X129331945Y-66736865D01*
X129296398Y-66693551D01*
X129123572Y-66551716D01*
X128926396Y-66446324D01*
X128712448Y-66381423D01*
X128545701Y-66365000D01*
X128545700Y-66365000D01*
X128489949Y-66359509D01*
X128434198Y-66365000D01*
X127944608Y-66365000D01*
X128116292Y-66303603D01*
X128241514Y-66236671D01*
X128313097Y-65992702D01*
X127500000Y-65179605D01*
X126686903Y-65992702D01*
X126758486Y-66236671D01*
X127013996Y-66357571D01*
X127043633Y-66365000D01*
X124055751Y-66365000D01*
X124000000Y-66359509D01*
X123944248Y-66365000D01*
X123777501Y-66381423D01*
X123563553Y-66446324D01*
X123366377Y-66551716D01*
X123193551Y-66693551D01*
X123158011Y-66736857D01*
X121521869Y-68373000D01*
X103627000Y-68373000D01*
X103627000Y-67552606D01*
X104552606Y-66627000D01*
X105000000Y-66627000D01*
X105024776Y-66624560D01*
X105048601Y-66617333D01*
X105070557Y-66605597D01*
X105089803Y-66589803D01*
X105105597Y-66570557D01*
X105117333Y-66548601D01*
X105124560Y-66524776D01*
X105127000Y-66500000D01*
X105127000Y-65992702D01*
X111686903Y-65992702D01*
X111758486Y-66236671D01*
X112013996Y-66357571D01*
X112288184Y-66426300D01*
X112570512Y-66440217D01*
X112850130Y-66398787D01*
X113116292Y-66303603D01*
X113241514Y-66236671D01*
X113313097Y-65992702D01*
X116686903Y-65992702D01*
X116758486Y-66236671D01*
X117013996Y-66357571D01*
X117288184Y-66426300D01*
X117570512Y-66440217D01*
X117850130Y-66398787D01*
X118116292Y-66303603D01*
X118241514Y-66236671D01*
X118313097Y-65992702D01*
X117500000Y-65179605D01*
X116686903Y-65992702D01*
X113313097Y-65992702D01*
X112500000Y-65179605D01*
X111686903Y-65992702D01*
X105127000Y-65992702D01*
X105127000Y-65070512D01*
X111059783Y-65070512D01*
X111101213Y-65350130D01*
X111196397Y-65616292D01*
X111263329Y-65741514D01*
X111507298Y-65813097D01*
X112320395Y-65000000D01*
X112679605Y-65000000D01*
X113492702Y-65813097D01*
X113736671Y-65741514D01*
X113857571Y-65486004D01*
X113926300Y-65211816D01*
X113933265Y-65070512D01*
X116059783Y-65070512D01*
X116101213Y-65350130D01*
X116196397Y-65616292D01*
X116263329Y-65741514D01*
X116507298Y-65813097D01*
X117320395Y-65000000D01*
X117679605Y-65000000D01*
X118492702Y-65813097D01*
X118736671Y-65741514D01*
X118857571Y-65486004D01*
X118926300Y-65211816D01*
X118933265Y-65070512D01*
X126059783Y-65070512D01*
X126101213Y-65350130D01*
X126196397Y-65616292D01*
X126263329Y-65741514D01*
X126507298Y-65813097D01*
X127320395Y-65000000D01*
X127679605Y-65000000D01*
X128492702Y-65813097D01*
X128736671Y-65741514D01*
X128857571Y-65486004D01*
X128926300Y-65211816D01*
X128940217Y-64929488D01*
X128898787Y-64649870D01*
X128803603Y-64383708D01*
X128736671Y-64258486D01*
X128492702Y-64186903D01*
X127679605Y-65000000D01*
X127320395Y-65000000D01*
X126507298Y-64186903D01*
X126263329Y-64258486D01*
X126142429Y-64513996D01*
X126073700Y-64788184D01*
X126059783Y-65070512D01*
X118933265Y-65070512D01*
X118940217Y-64929488D01*
X118898787Y-64649870D01*
X118803603Y-64383708D01*
X118736671Y-64258486D01*
X118492702Y-64186903D01*
X117679605Y-65000000D01*
X117320395Y-65000000D01*
X116507298Y-64186903D01*
X116263329Y-64258486D01*
X116142429Y-64513996D01*
X116073700Y-64788184D01*
X116059783Y-65070512D01*
X113933265Y-65070512D01*
X113940217Y-64929488D01*
X113898787Y-64649870D01*
X113803603Y-64383708D01*
X113736671Y-64258486D01*
X113492702Y-64186903D01*
X112679605Y-65000000D01*
X112320395Y-65000000D01*
X111507298Y-64186903D01*
X111263329Y-64258486D01*
X111142429Y-64513996D01*
X111073700Y-64788184D01*
X111059783Y-65070512D01*
X105127000Y-65070512D01*
X105127000Y-64007298D01*
X111686903Y-64007298D01*
X112500000Y-64820395D01*
X113313097Y-64007298D01*
X116686903Y-64007298D01*
X117500000Y-64820395D01*
X118313097Y-64007298D01*
X126686903Y-64007298D01*
X127500000Y-64820395D01*
X128313097Y-64007298D01*
X128241514Y-63763329D01*
X127986004Y-63642429D01*
X127711816Y-63573700D01*
X127429488Y-63559783D01*
X127149870Y-63601213D01*
X126883708Y-63696397D01*
X126758486Y-63763329D01*
X126686903Y-64007298D01*
X118313097Y-64007298D01*
X118241514Y-63763329D01*
X117986004Y-63642429D01*
X117711816Y-63573700D01*
X117429488Y-63559783D01*
X117149870Y-63601213D01*
X116883708Y-63696397D01*
X116758486Y-63763329D01*
X116686903Y-64007298D01*
X113313097Y-64007298D01*
X113241514Y-63763329D01*
X112986004Y-63642429D01*
X112711816Y-63573700D01*
X112429488Y-63559783D01*
X112149870Y-63601213D01*
X111883708Y-63696397D01*
X111758486Y-63763329D01*
X111686903Y-64007298D01*
X105127000Y-64007298D01*
X105127000Y-63931847D01*
X105350130Y-63898787D01*
X105616292Y-63803603D01*
X105741514Y-63736671D01*
X105813097Y-63492702D01*
X105127000Y-62806605D01*
X105127000Y-62552606D01*
X105179606Y-62500001D01*
X105992702Y-63313097D01*
X106236671Y-63241514D01*
X106357571Y-62986004D01*
X106426300Y-62711816D01*
X106440217Y-62429488D01*
X106398787Y-62149870D01*
X106303603Y-61883708D01*
X106236671Y-61758486D01*
X105992704Y-61686903D01*
X106108977Y-61570630D01*
X107552606Y-60127000D01*
X112500000Y-60127000D01*
X112524776Y-60124560D01*
X112548601Y-60117333D01*
X112570557Y-60105597D01*
X112589803Y-60089803D01*
X114141682Y-58537924D01*
X114141683Y-58537925D01*
X114258336Y-58421272D01*
X114317797Y-58655037D01*
X114556242Y-58765934D01*
X114811740Y-58828183D01*
X115074473Y-58839390D01*
X115334344Y-58799125D01*
X115581366Y-58708935D01*
X115682203Y-58655037D01*
X115741664Y-58421269D01*
X115000001Y-57679606D01*
X115052606Y-57627000D01*
X115306605Y-57627000D01*
X115921269Y-58241664D01*
X116155037Y-58182203D01*
X116265934Y-57943758D01*
X116328183Y-57688260D01*
X116330796Y-57627000D01*
X119500000Y-57627000D01*
X119524776Y-57624560D01*
X119548601Y-57617333D01*
X119570557Y-57605597D01*
X119589803Y-57589803D01*
X120089803Y-57089803D01*
X120105597Y-57070557D01*
X120117333Y-57048601D01*
X120124560Y-57024776D01*
X120127000Y-57000000D01*
X120127000Y-52700881D01*
X164978724Y-52700881D01*
X165338912Y-53190548D01*
X166002882Y-53550849D01*
X166724385Y-53774694D01*
X167475695Y-53853480D01*
X168227938Y-53784178D01*
X168952208Y-53569452D01*
X169620670Y-53217555D01*
X169661088Y-53190548D01*
X170021276Y-52700881D01*
X167500000Y-50179605D01*
X164978724Y-52700881D01*
X120127000Y-52700881D01*
X120127000Y-49975695D01*
X163646520Y-49975695D01*
X163715822Y-50727938D01*
X163930548Y-51452208D01*
X164282445Y-52120670D01*
X164309452Y-52161088D01*
X164799119Y-52521276D01*
X167320395Y-50000000D01*
X167679605Y-50000000D01*
X170200881Y-52521276D01*
X170690548Y-52161088D01*
X171050849Y-51497118D01*
X171274694Y-50775615D01*
X171353480Y-50024305D01*
X171284178Y-49272062D01*
X171069452Y-48547792D01*
X170717555Y-47879330D01*
X170690548Y-47838912D01*
X170200881Y-47478724D01*
X167679605Y-50000000D01*
X167320395Y-50000000D01*
X164799119Y-47478724D01*
X164309452Y-47838912D01*
X163949151Y-48502882D01*
X163725306Y-49224385D01*
X163646520Y-49975695D01*
X120127000Y-49975695D01*
X120127000Y-47299119D01*
X164978724Y-47299119D01*
X167500000Y-49820395D01*
X170021276Y-47299119D01*
X169661088Y-46809452D01*
X168997118Y-46449151D01*
X168275615Y-46225306D01*
X167524305Y-46146520D01*
X166772062Y-46215822D01*
X166047792Y-46430548D01*
X165379330Y-46782445D01*
X165338912Y-46809452D01*
X164978724Y-47299119D01*
X120127000Y-47299119D01*
X120127000Y-46552606D01*
X121019606Y-45660000D01*
X170980394Y-45660000D01*
X171840000Y-46519606D01*
G36*
X89367641Y-61183061D02*
G01*
X89610595Y-61283696D01*
X89868514Y-61335000D01*
X90131486Y-61335000D01*
X90389405Y-61283696D01*
X90632359Y-61183061D01*
X90704288Y-61135000D01*
X92029869Y-61135000D01*
X94440377Y-63545509D01*
X95365001Y-64541258D01*
X95365000Y-72944248D01*
X95359509Y-73000000D01*
X95366234Y-73068284D01*
X95381423Y-73222498D01*
X95446324Y-73436446D01*
X95551716Y-73633623D01*
X95693551Y-73806449D01*
X95736865Y-73841996D01*
X98658013Y-76763146D01*
X98693551Y-76806449D01*
X98736854Y-76841987D01*
X98736856Y-76841989D01*
X98866377Y-76948284D01*
X99063553Y-77053676D01*
X99151150Y-77080248D01*
X99157349Y-77086861D01*
X99176075Y-77103267D01*
X99197642Y-77115705D01*
X99221220Y-77123696D01*
X99250000Y-77127000D01*
X99363022Y-77127000D01*
X99500000Y-77140491D01*
X99555752Y-77135000D01*
X111444249Y-77135000D01*
X111500000Y-77140491D01*
X111555751Y-77135000D01*
X111555752Y-77135000D01*
X111722499Y-77118577D01*
X111936447Y-77053676D01*
X112133623Y-76948284D01*
X112306449Y-76806449D01*
X112341996Y-76763135D01*
X116363265Y-72741867D01*
X116359509Y-72780000D01*
X116365000Y-72835751D01*
X116365001Y-72835760D01*
X116365000Y-80152035D01*
X114402608Y-82114427D01*
X114352182Y-81948192D01*
X114218932Y-81698899D01*
X114039608Y-81480392D01*
X113821101Y-81301068D01*
X113571808Y-81167818D01*
X113301309Y-81085764D01*
X113090492Y-81065000D01*
X112149508Y-81065000D01*
X111938691Y-81085764D01*
X111668192Y-81167818D01*
X111418899Y-81301068D01*
X111200392Y-81480392D01*
X111021068Y-81698899D01*
X110887818Y-81948192D01*
X110805764Y-82218691D01*
X110778057Y-82500000D01*
X110805764Y-82781309D01*
X110887818Y-83051808D01*
X111021068Y-83301101D01*
X111200392Y-83519608D01*
X111418899Y-83698932D01*
X111551858Y-83770000D01*
X111418899Y-83841068D01*
X111200392Y-84020392D01*
X111021068Y-84238899D01*
X110887818Y-84488192D01*
X110805764Y-84758691D01*
X110778057Y-85040000D01*
X110805764Y-85321309D01*
X110887818Y-85591808D01*
X111021068Y-85841101D01*
X111200392Y-86059608D01*
X111418899Y-86238932D01*
X111551858Y-86310000D01*
X111418899Y-86381068D01*
X111200392Y-86560392D01*
X111021068Y-86778899D01*
X110887818Y-87028192D01*
X110805764Y-87298691D01*
X110778057Y-87580000D01*
X110805764Y-87861309D01*
X110887818Y-88131808D01*
X111021068Y-88381101D01*
X111200392Y-88599608D01*
X111418899Y-88778932D01*
X111551858Y-88850000D01*
X111418899Y-88921068D01*
X111200392Y-89100392D01*
X111021068Y-89318899D01*
X110887818Y-89568192D01*
X110805764Y-89838691D01*
X110778057Y-90120000D01*
X110805764Y-90401309D01*
X110887818Y-90671808D01*
X111021068Y-90921101D01*
X111200392Y-91139608D01*
X111418899Y-91318932D01*
X111668192Y-91452182D01*
X111938691Y-91534236D01*
X112149508Y-91555000D01*
X113090492Y-91555000D01*
X113301309Y-91534236D01*
X113571808Y-91452182D01*
X113821101Y-91318932D01*
X114039608Y-91139608D01*
X114218932Y-90921101D01*
X114352182Y-90671808D01*
X114434236Y-90401309D01*
X114461943Y-90120000D01*
X114434236Y-89838691D01*
X114352182Y-89568192D01*
X114218932Y-89318899D01*
X114039608Y-89100392D01*
X113821101Y-88921068D01*
X113688142Y-88850000D01*
X113821101Y-88778932D01*
X113899002Y-88715000D01*
X114764249Y-88715000D01*
X114820000Y-88720491D01*
X114875751Y-88715000D01*
X114875752Y-88715000D01*
X115042499Y-88698577D01*
X115256447Y-88633676D01*
X115453623Y-88528284D01*
X115626449Y-88386449D01*
X115661996Y-88343135D01*
X117830132Y-86175000D01*
X118720998Y-86175000D01*
X118798899Y-86238932D01*
X118931858Y-86310000D01*
X118798899Y-86381068D01*
X118580392Y-86560392D01*
X118401068Y-86778899D01*
X118267818Y-87028192D01*
X118185764Y-87298691D01*
X118182678Y-87330023D01*
X116236865Y-89275837D01*
X116193551Y-89311384D01*
X116051716Y-89484210D01*
X115971855Y-89633622D01*
X115946324Y-89681387D01*
X115881423Y-89895335D01*
X115859509Y-90117833D01*
X115865000Y-90173585D01*
X115865000Y-91944246D01*
X115859509Y-92000000D01*
X115865000Y-92055752D01*
X115865001Y-96865000D01*
X115045751Y-96865000D01*
X114989999Y-96859509D01*
X114934248Y-96865000D01*
X114767501Y-96881423D01*
X114553553Y-96946324D01*
X114356377Y-97051716D01*
X114183551Y-97193551D01*
X114148004Y-97236865D01*
X114076865Y-97308004D01*
X114033551Y-97343551D01*
X113891716Y-97516377D01*
X113800850Y-97686377D01*
X113786324Y-97713554D01*
X113721423Y-97927502D01*
X113699509Y-98150000D01*
X113705000Y-98205752D01*
X113705000Y-98582317D01*
X113635506Y-98619463D01*
X113538815Y-98698815D01*
X113459463Y-98795506D01*
X113400498Y-98905820D01*
X113364188Y-99025518D01*
X113351928Y-99150000D01*
X113351928Y-100850000D01*
X113364188Y-100974482D01*
X113400498Y-101094180D01*
X113459463Y-101204494D01*
X113538815Y-101301185D01*
X113635506Y-101380537D01*
X113745820Y-101439502D01*
X113865518Y-101475812D01*
X113990000Y-101488072D01*
X115690000Y-101488072D01*
X115814482Y-101475812D01*
X115934180Y-101439502D01*
X116044494Y-101380537D01*
X116141185Y-101301185D01*
X116220537Y-101204494D01*
X116279502Y-101094180D01*
X116303966Y-101013534D01*
X116379731Y-101097588D01*
X116613080Y-101271641D01*
X116875901Y-101396825D01*
X117023110Y-101441476D01*
X117253000Y-101320155D01*
X117253000Y-100127000D01*
X117233000Y-100127000D01*
X117233000Y-99873000D01*
X117253000Y-99873000D01*
X117253000Y-99853000D01*
X117507000Y-99853000D01*
X117507000Y-99873000D01*
X117527000Y-99873000D01*
X117527000Y-100127000D01*
X117507000Y-100127000D01*
X117507000Y-101320155D01*
X117736890Y-101441476D01*
X117884099Y-101396825D01*
X118146920Y-101271641D01*
X118380269Y-101097588D01*
X118575178Y-100881355D01*
X118644799Y-100764477D01*
X118679294Y-100829014D01*
X118864866Y-101055134D01*
X119090986Y-101240706D01*
X119348966Y-101378599D01*
X119628889Y-101463513D01*
X119847050Y-101485000D01*
X119992950Y-101485000D01*
X120211111Y-101463513D01*
X120491034Y-101378599D01*
X120749014Y-101240706D01*
X120975134Y-101055134D01*
X121160706Y-100829014D01*
X121195201Y-100764477D01*
X121264822Y-100881355D01*
X121459731Y-101097588D01*
X121693080Y-101271641D01*
X121955901Y-101396825D01*
X122103110Y-101441476D01*
X122333000Y-101320155D01*
X122333000Y-100127000D01*
X122313000Y-100127000D01*
X122313000Y-99873000D01*
X122333000Y-99873000D01*
X122333000Y-99853000D01*
X122587000Y-99853000D01*
X122587000Y-99873000D01*
X122607000Y-99873000D01*
X122607000Y-100127000D01*
X122587000Y-100127000D01*
X122587000Y-101320155D01*
X122816890Y-101441476D01*
X122964099Y-101396825D01*
X123226920Y-101271641D01*
X123460269Y-101097588D01*
X123655178Y-100881355D01*
X123724799Y-100764477D01*
X123759294Y-100829014D01*
X123944866Y-101055134D01*
X124170986Y-101240706D01*
X124428966Y-101378599D01*
X124708889Y-101463513D01*
X124927050Y-101485000D01*
X125072950Y-101485000D01*
X125291111Y-101463513D01*
X125571034Y-101378599D01*
X125829014Y-101240706D01*
X126055134Y-101055134D01*
X126240706Y-100829014D01*
X126275201Y-100764477D01*
X126344822Y-100881355D01*
X126539731Y-101097588D01*
X126773080Y-101271641D01*
X127035901Y-101396825D01*
X127183110Y-101441476D01*
X127413000Y-101320155D01*
X127413000Y-100127000D01*
X127393000Y-100127000D01*
X127393000Y-99873000D01*
X127413000Y-99873000D01*
X127413000Y-99853000D01*
X127667000Y-99853000D01*
X127667000Y-99873000D01*
X127687000Y-99873000D01*
X127687000Y-100127000D01*
X127667000Y-100127000D01*
X127667000Y-101320155D01*
X127896890Y-101441476D01*
X128044099Y-101396825D01*
X128306920Y-101271641D01*
X128540269Y-101097588D01*
X128735178Y-100881355D01*
X128804799Y-100764477D01*
X128839294Y-100829014D01*
X129024866Y-101055134D01*
X129250986Y-101240706D01*
X129508966Y-101378599D01*
X129788889Y-101463513D01*
X130007050Y-101485000D01*
X130152950Y-101485000D01*
X130371111Y-101463513D01*
X130651034Y-101378599D01*
X130909014Y-101240706D01*
X131135134Y-101055134D01*
X131320706Y-100829014D01*
X131355201Y-100764477D01*
X131424822Y-100881355D01*
X131619731Y-101097588D01*
X131853080Y-101271641D01*
X132115901Y-101396825D01*
X132263110Y-101441476D01*
X132493000Y-101320155D01*
X132493000Y-100127000D01*
X132747000Y-100127000D01*
X132747000Y-101320155D01*
X132976890Y-101441476D01*
X133124099Y-101396825D01*
X133386920Y-101271641D01*
X133620269Y-101097588D01*
X133815178Y-100881355D01*
X133964157Y-100631252D01*
X134061481Y-100356891D01*
X133940814Y-100127000D01*
X132747000Y-100127000D01*
X132493000Y-100127000D01*
X132473000Y-100127000D01*
X132473000Y-99873000D01*
X132493000Y-99873000D01*
X132493000Y-98679845D01*
X132747000Y-98679845D01*
X132747000Y-99873000D01*
X133940814Y-99873000D01*
X134061481Y-99643109D01*
X133964157Y-99368748D01*
X133815178Y-99118645D01*
X133620269Y-98902412D01*
X133386920Y-98728359D01*
X133124099Y-98603175D01*
X132976890Y-98558524D01*
X132747000Y-98679845D01*
X132493000Y-98679845D01*
X132263110Y-98558524D01*
X132115901Y-98603175D01*
X131853080Y-98728359D01*
X131619731Y-98902412D01*
X131424822Y-99118645D01*
X131355201Y-99235523D01*
X131320706Y-99170986D01*
X131215000Y-99042183D01*
X131215000Y-98853670D01*
X131220491Y-98797919D01*
X131198577Y-98575420D01*
X131133676Y-98361472D01*
X131028284Y-98164296D01*
X130886449Y-97991470D01*
X130843140Y-97955927D01*
X130124076Y-97236864D01*
X130088530Y-97193551D01*
X129915704Y-97051716D01*
X129718528Y-96946324D01*
X129504580Y-96881423D01*
X129337833Y-96865000D01*
X129337832Y-96865000D01*
X129282081Y-96859509D01*
X129226330Y-96865000D01*
X125055751Y-96865000D01*
X125000000Y-96859509D01*
X124944248Y-96865000D01*
X120773671Y-96865000D01*
X120717919Y-96859509D01*
X120662167Y-96865000D01*
X118135000Y-96865000D01*
X118135000Y-94740132D01*
X119158013Y-95763146D01*
X119193551Y-95806449D01*
X119236854Y-95841987D01*
X119236856Y-95841989D01*
X119366377Y-95948284D01*
X119563553Y-96053676D01*
X119777501Y-96118577D01*
X120000000Y-96140491D01*
X120055752Y-96135000D01*
X131944249Y-96135000D01*
X132000000Y-96140491D01*
X132055751Y-96135000D01*
X132055752Y-96135000D01*
X132222499Y-96118577D01*
X132436447Y-96053676D01*
X132633623Y-95948284D01*
X132806449Y-95806449D01*
X132841996Y-95763135D01*
X137470132Y-91135000D01*
X139295712Y-91135000D01*
X139367641Y-91183061D01*
X139610595Y-91283696D01*
X139868514Y-91335000D01*
X140131486Y-91335000D01*
X140389405Y-91283696D01*
X140632359Y-91183061D01*
X140851013Y-91036962D01*
X141036962Y-90851013D01*
X141183061Y-90632359D01*
X141283696Y-90389405D01*
X141335000Y-90131486D01*
X141335000Y-89868514D01*
X141283696Y-89610595D01*
X141183061Y-89367641D01*
X141135000Y-89295712D01*
X141135000Y-85828572D01*
X141239347Y-85633354D01*
X141315683Y-85381706D01*
X141341459Y-85120000D01*
X141315683Y-84858294D01*
X141239347Y-84606646D01*
X141115382Y-84374725D01*
X140948555Y-84171445D01*
X140745275Y-84004618D01*
X140513354Y-83880653D01*
X140261706Y-83804317D01*
X140065579Y-83785000D01*
X139934421Y-83785000D01*
X139738294Y-83804317D01*
X139486646Y-83880653D01*
X139254725Y-84004618D01*
X139051445Y-84171445D01*
X138884618Y-84374725D01*
X138760653Y-84606646D01*
X138684317Y-84858294D01*
X138658541Y-85120000D01*
X138684317Y-85381706D01*
X138760653Y-85633354D01*
X138865001Y-85828574D01*
X138865000Y-88865000D01*
X137055752Y-88865000D01*
X137000000Y-88859509D01*
X136944248Y-88865000D01*
X136777501Y-88881423D01*
X136563553Y-88946324D01*
X136366377Y-89051716D01*
X136193551Y-89193551D01*
X136158009Y-89236859D01*
X131529869Y-93865000D01*
X120470133Y-93865000D01*
X118135000Y-91529869D01*
X118135000Y-90587964D01*
X118217392Y-90505573D01*
X118267818Y-90671808D01*
X118401068Y-90921101D01*
X118580392Y-91139608D01*
X118798899Y-91318932D01*
X119048192Y-91452182D01*
X119318691Y-91534236D01*
X119529508Y-91555000D01*
X120470492Y-91555000D01*
X120681309Y-91534236D01*
X120951808Y-91452182D01*
X121201101Y-91318932D01*
X121279002Y-91255000D01*
X122144249Y-91255000D01*
X122200000Y-91260491D01*
X122255751Y-91255000D01*
X122255752Y-91255000D01*
X122422499Y-91238577D01*
X122636447Y-91173676D01*
X122833623Y-91068284D01*
X123006449Y-90926449D01*
X123041996Y-90883135D01*
X125123141Y-88801991D01*
X125166449Y-88766449D01*
X125308284Y-88593623D01*
X125413676Y-88396447D01*
X125478577Y-88182499D01*
X125495000Y-88015752D01*
X125495000Y-88015743D01*
X125500490Y-87960001D01*
X125495000Y-87904259D01*
X125495000Y-83635000D01*
X126340998Y-83635000D01*
X126418899Y-83698932D01*
X126551858Y-83770000D01*
X126418899Y-83841068D01*
X126200392Y-84020392D01*
X126021068Y-84238899D01*
X125887818Y-84488192D01*
X125805764Y-84758691D01*
X125778057Y-85040000D01*
X125805764Y-85321309D01*
X125887818Y-85591808D01*
X126021068Y-85841101D01*
X126200392Y-86059608D01*
X126418899Y-86238932D01*
X126485000Y-86274264D01*
X126485000Y-86345736D01*
X126418899Y-86381068D01*
X126200392Y-86560392D01*
X126021068Y-86778899D01*
X125887818Y-87028192D01*
X125805764Y-87298691D01*
X125778057Y-87580000D01*
X125805764Y-87861309D01*
X125887818Y-88131808D01*
X126021068Y-88381101D01*
X126200392Y-88599608D01*
X126418899Y-88778932D01*
X126551858Y-88850000D01*
X126418899Y-88921068D01*
X126200392Y-89100392D01*
X126021068Y-89318899D01*
X125887818Y-89568192D01*
X125805764Y-89838691D01*
X125778057Y-90120000D01*
X125805764Y-90401309D01*
X125887818Y-90671808D01*
X126021068Y-90921101D01*
X126200392Y-91139608D01*
X126418899Y-91318932D01*
X126668192Y-91452182D01*
X126938691Y-91534236D01*
X127149508Y-91555000D01*
X128090492Y-91555000D01*
X128301309Y-91534236D01*
X128571808Y-91452182D01*
X128821101Y-91318932D01*
X128899002Y-91255000D01*
X131795310Y-91255000D01*
X131820273Y-91271680D01*
X132081426Y-91379853D01*
X132358665Y-91435000D01*
X132641335Y-91435000D01*
X132918574Y-91379853D01*
X133179727Y-91271680D01*
X133414759Y-91114637D01*
X133614637Y-90914759D01*
X133771680Y-90679727D01*
X133879853Y-90418574D01*
X133935000Y-90141335D01*
X133935000Y-89858665D01*
X133879853Y-89581426D01*
X133771680Y-89320273D01*
X133614637Y-89085241D01*
X133414759Y-88885363D01*
X133179727Y-88728320D01*
X132918574Y-88620147D01*
X132641335Y-88565000D01*
X132358665Y-88565000D01*
X132081426Y-88620147D01*
X131820273Y-88728320D01*
X131585241Y-88885363D01*
X131485604Y-88985000D01*
X128899002Y-88985000D01*
X128821101Y-88921068D01*
X128688142Y-88850000D01*
X128821101Y-88778932D01*
X129039608Y-88599608D01*
X129218932Y-88381101D01*
X129352182Y-88131808D01*
X129434236Y-87861309D01*
X129461943Y-87580000D01*
X129434236Y-87298691D01*
X129385171Y-87136943D01*
X129513623Y-87068284D01*
X129686449Y-86926449D01*
X129721996Y-86883136D01*
X130612430Y-85992702D01*
X131686903Y-85992702D01*
X131758486Y-86236671D01*
X132013996Y-86357571D01*
X132288184Y-86426300D01*
X132570512Y-86440217D01*
X132850130Y-86398787D01*
X133116292Y-86303603D01*
X133241514Y-86236671D01*
X133313097Y-85992702D01*
X132500000Y-85179605D01*
X131686903Y-85992702D01*
X130612430Y-85992702D01*
X130623150Y-85981982D01*
X130666459Y-85946439D01*
X130808294Y-85773613D01*
X130913686Y-85576437D01*
X130978587Y-85362489D01*
X130995010Y-85195742D01*
X130995010Y-85195733D01*
X131000500Y-85139991D01*
X130995010Y-85084249D01*
X130995010Y-85070512D01*
X131059783Y-85070512D01*
X131101213Y-85350130D01*
X131196397Y-85616292D01*
X131263329Y-85741514D01*
X131507298Y-85813097D01*
X132320395Y-85000000D01*
X132679605Y-85000000D01*
X133492702Y-85813097D01*
X133736671Y-85741514D01*
X133857571Y-85486004D01*
X133926300Y-85211816D01*
X133940217Y-84929488D01*
X133898787Y-84649870D01*
X133803603Y-84383708D01*
X133736671Y-84258486D01*
X133492702Y-84186903D01*
X132679605Y-85000000D01*
X132320395Y-85000000D01*
X131507298Y-84186903D01*
X131263329Y-84258486D01*
X131142429Y-84513996D01*
X131073700Y-84788184D01*
X131059783Y-85070512D01*
X130995010Y-85070512D01*
X130995010Y-84007298D01*
X131686903Y-84007298D01*
X132500000Y-84820395D01*
X133313097Y-84007298D01*
X133241514Y-83763329D01*
X132986004Y-83642429D01*
X132711816Y-83573700D01*
X132429488Y-83559783D01*
X132149870Y-83601213D01*
X131883708Y-83696397D01*
X131758486Y-83763329D01*
X131686903Y-84007298D01*
X130995010Y-84007298D01*
X130995010Y-83492702D01*
X144186903Y-83492702D01*
X144258486Y-83736671D01*
X144513996Y-83857571D01*
X144788184Y-83926300D01*
X145070512Y-83940217D01*
X145350130Y-83898787D01*
X145616292Y-83803603D01*
X145741514Y-83736671D01*
X145813097Y-83492702D01*
X145000000Y-82679605D01*
X144186903Y-83492702D01*
X130995010Y-83492702D01*
X130995010Y-80915762D01*
X131000501Y-80860010D01*
X130978587Y-80637511D01*
X130913686Y-80423563D01*
X130808294Y-80226387D01*
X130774920Y-80185721D01*
X130666459Y-80053561D01*
X130623151Y-80018019D01*
X128515000Y-77909869D01*
X128515000Y-75708572D01*
X128619347Y-75513354D01*
X128695683Y-75261706D01*
X128721459Y-75000000D01*
X128695683Y-74738294D01*
X128635000Y-74538247D01*
X128635000Y-70884284D01*
X128771680Y-70679727D01*
X128879853Y-70418574D01*
X128935000Y-70141335D01*
X128935000Y-69858665D01*
X128879853Y-69581426D01*
X128818766Y-69433948D01*
X133798053Y-74413236D01*
X133716304Y-74610595D01*
X133665000Y-74868514D01*
X133665000Y-75131486D01*
X133716304Y-75389405D01*
X133816939Y-75632359D01*
X133865000Y-75704288D01*
X133865000Y-75944249D01*
X133859509Y-76000000D01*
X133865000Y-76055751D01*
X133865000Y-76055752D01*
X133881423Y-76222499D01*
X133946324Y-76436447D01*
X134051717Y-76633623D01*
X134193552Y-76806449D01*
X134236858Y-76841989D01*
X138818008Y-81423140D01*
X138853550Y-81466448D01*
X138994957Y-81582498D01*
X139026376Y-81608283D01*
X139223552Y-81713675D01*
X139437500Y-81778576D01*
X139659999Y-81800490D01*
X139715751Y-81794999D01*
X143746052Y-81794999D01*
X143642429Y-82013996D01*
X143573700Y-82288184D01*
X143559783Y-82570512D01*
X143601213Y-82850130D01*
X143696397Y-83116292D01*
X143763329Y-83241514D01*
X144007298Y-83313097D01*
X144820395Y-82500000D01*
X144806253Y-82485858D01*
X144985858Y-82306253D01*
X145000000Y-82320395D01*
X145014143Y-82306253D01*
X145193748Y-82485858D01*
X145179605Y-82500000D01*
X145992702Y-83313097D01*
X146236671Y-83241514D01*
X146357571Y-82986004D01*
X146406976Y-82788906D01*
X147001211Y-83383141D01*
X147036753Y-83426449D01*
X147209579Y-83568284D01*
X147406755Y-83673676D01*
X147620703Y-83738577D01*
X147748716Y-83751185D01*
X147843202Y-83760491D01*
X147898953Y-83755000D01*
X151220998Y-83755000D01*
X151298899Y-83818932D01*
X151431858Y-83890000D01*
X151298899Y-83961068D01*
X151080392Y-84140392D01*
X150901068Y-84358899D01*
X150767818Y-84608192D01*
X150685764Y-84878691D01*
X150658057Y-85160000D01*
X150685764Y-85441309D01*
X150767818Y-85711808D01*
X150901068Y-85961101D01*
X151080392Y-86179608D01*
X151298899Y-86358932D01*
X151431858Y-86430000D01*
X151298899Y-86501068D01*
X151080392Y-86680392D01*
X150901068Y-86898899D01*
X150767818Y-87148192D01*
X150685764Y-87418691D01*
X150658057Y-87700000D01*
X150685764Y-87981309D01*
X150767818Y-88251808D01*
X150901068Y-88501101D01*
X151080392Y-88719608D01*
X151298899Y-88898932D01*
X151365000Y-88934264D01*
X151365000Y-88944248D01*
X151359509Y-89000000D01*
X151360320Y-89008238D01*
X151298899Y-89041068D01*
X151080392Y-89220392D01*
X150901068Y-89438899D01*
X150767818Y-89688192D01*
X150685764Y-89958691D01*
X150658057Y-90240000D01*
X150685764Y-90521309D01*
X150767818Y-90791808D01*
X150901068Y-91041101D01*
X151080392Y-91259608D01*
X151298899Y-91438932D01*
X151548192Y-91572182D01*
X151818691Y-91654236D01*
X152029508Y-91675000D01*
X152970492Y-91675000D01*
X153181309Y-91654236D01*
X153451808Y-91572182D01*
X153701101Y-91438932D01*
X153919608Y-91259608D01*
X154098932Y-91041101D01*
X154232182Y-90791808D01*
X154314236Y-90521309D01*
X154341943Y-90240000D01*
X154331601Y-90135000D01*
X154529869Y-90135000D01*
X157658009Y-93263141D01*
X157693551Y-93306449D01*
X157866377Y-93448284D01*
X158063553Y-93553676D01*
X158277501Y-93618577D01*
X158444248Y-93635000D01*
X158444257Y-93635000D01*
X158499999Y-93640490D01*
X158555741Y-93635000D01*
X166442168Y-93635000D01*
X166497919Y-93640491D01*
X166534052Y-93636932D01*
X167391098Y-95065341D01*
X167405938Y-95085331D01*
X167424393Y-95102042D01*
X167445753Y-95114832D01*
X167469198Y-95123208D01*
X167500000Y-95127000D01*
X171840001Y-95127000D01*
X171840001Y-105480393D01*
X170480394Y-106840000D01*
X81019606Y-106840000D01*
X80127000Y-105947394D01*
X80127000Y-102500000D01*
X138467815Y-102500000D01*
X138496487Y-102791111D01*
X138581401Y-103071034D01*
X138719294Y-103329014D01*
X138904866Y-103555134D01*
X139130986Y-103740706D01*
X139388966Y-103878599D01*
X139668889Y-103963513D01*
X139887050Y-103985000D01*
X140032950Y-103985000D01*
X140251111Y-103963513D01*
X140531034Y-103878599D01*
X140789014Y-103740706D01*
X141015134Y-103555134D01*
X141039607Y-103525313D01*
X141060498Y-103594180D01*
X141119463Y-103704494D01*
X141198815Y-103801185D01*
X141295506Y-103880537D01*
X141405820Y-103939502D01*
X141525518Y-103975812D01*
X141650000Y-103988072D01*
X142214250Y-103985000D01*
X142373000Y-103826250D01*
X142373000Y-102627000D01*
X142627000Y-102627000D01*
X142627000Y-103826250D01*
X142785750Y-103985000D01*
X143350000Y-103988072D01*
X143474482Y-103975812D01*
X143594180Y-103939502D01*
X143704494Y-103880537D01*
X143801185Y-103801185D01*
X143880537Y-103704494D01*
X143939502Y-103594180D01*
X143975812Y-103474482D01*
X143988072Y-103350000D01*
X143985000Y-102785750D01*
X143900131Y-102700881D01*
X164978724Y-102700881D01*
X165338912Y-103190548D01*
X166002882Y-103550849D01*
X166724385Y-103774694D01*
X167475695Y-103853480D01*
X168227938Y-103784178D01*
X168952208Y-103569452D01*
X169620670Y-103217555D01*
X169661088Y-103190548D01*
X170021276Y-102700881D01*
X167500000Y-100179605D01*
X164978724Y-102700881D01*
X143900131Y-102700881D01*
X143826250Y-102627000D01*
X142627000Y-102627000D01*
X142373000Y-102627000D01*
X142353000Y-102627000D01*
X142353000Y-102373000D01*
X142373000Y-102373000D01*
X142373000Y-101173750D01*
X142627000Y-101173750D01*
X142627000Y-102373000D01*
X143826250Y-102373000D01*
X143985000Y-102214250D01*
X143988072Y-101650000D01*
X143975812Y-101525518D01*
X143939502Y-101405820D01*
X143880537Y-101295506D01*
X143801185Y-101198815D01*
X143704494Y-101119463D01*
X143594180Y-101060498D01*
X143474482Y-101024188D01*
X143350000Y-101011928D01*
X142785750Y-101015000D01*
X142627000Y-101173750D01*
X142373000Y-101173750D01*
X142214250Y-101015000D01*
X141650000Y-101011928D01*
X141525518Y-101024188D01*
X141405820Y-101060498D01*
X141295506Y-101119463D01*
X141198815Y-101198815D01*
X141119463Y-101295506D01*
X141095000Y-101341272D01*
X141095000Y-99975695D01*
X163646520Y-99975695D01*
X163715822Y-100727938D01*
X163930548Y-101452208D01*
X164282445Y-102120670D01*
X164309452Y-102161088D01*
X164799119Y-102521276D01*
X167320395Y-100000000D01*
X167679605Y-100000000D01*
X170200881Y-102521276D01*
X170690548Y-102161088D01*
X171050849Y-101497118D01*
X171274694Y-100775615D01*
X171353480Y-100024305D01*
X171284178Y-99272062D01*
X171069452Y-98547792D01*
X170717555Y-97879330D01*
X170690548Y-97838912D01*
X170200881Y-97478724D01*
X167679605Y-100000000D01*
X167320395Y-100000000D01*
X164799119Y-97478724D01*
X164309452Y-97838912D01*
X163949151Y-98502882D01*
X163725306Y-99224385D01*
X163646520Y-99975695D01*
X141095000Y-99975695D01*
X141095000Y-98390111D01*
X141115382Y-98365275D01*
X141239347Y-98133354D01*
X141315683Y-97881706D01*
X141341459Y-97620000D01*
X141315683Y-97358294D01*
X141297733Y-97299119D01*
X164978724Y-97299119D01*
X167500000Y-99820395D01*
X170021276Y-97299119D01*
X169661088Y-96809452D01*
X168997118Y-96449151D01*
X168275615Y-96225306D01*
X167524305Y-96146520D01*
X166772062Y-96215822D01*
X166047792Y-96430548D01*
X165379330Y-96782445D01*
X165338912Y-96809452D01*
X164978724Y-97299119D01*
X141297733Y-97299119D01*
X141239347Y-97106646D01*
X141115382Y-96874725D01*
X140948555Y-96671445D01*
X140745275Y-96504618D01*
X140513354Y-96380653D01*
X140261706Y-96304317D01*
X140065579Y-96285000D01*
X139934421Y-96285000D01*
X139738294Y-96304317D01*
X139486646Y-96380653D01*
X139254725Y-96504618D01*
X139051445Y-96671445D01*
X138884618Y-96874725D01*
X138760653Y-97106646D01*
X138684317Y-97358294D01*
X138658541Y-97620000D01*
X138684317Y-97881706D01*
X138760653Y-98133354D01*
X138825001Y-98253740D01*
X138825000Y-101542183D01*
X138719294Y-101670986D01*
X138581401Y-101928966D01*
X138496487Y-102208889D01*
X138467815Y-102500000D01*
X80127000Y-102500000D01*
X80127000Y-95921269D01*
X81758336Y-95921269D01*
X81817797Y-96155037D01*
X82056242Y-96265934D01*
X82311740Y-96328183D01*
X82574473Y-96339390D01*
X82834344Y-96299125D01*
X83081366Y-96208935D01*
X83182203Y-96155037D01*
X83241664Y-95921269D01*
X82500000Y-95179605D01*
X81758336Y-95921269D01*
X80127000Y-95921269D01*
X80127000Y-95074473D01*
X81160610Y-95074473D01*
X81200875Y-95334344D01*
X81291065Y-95581366D01*
X81344963Y-95682203D01*
X81578731Y-95741664D01*
X82320395Y-95000000D01*
X82679605Y-95000000D01*
X83421269Y-95741664D01*
X83655037Y-95682203D01*
X83761482Y-95453330D01*
X88707278Y-95453330D01*
X88797147Y-95699123D01*
X88933241Y-95922660D01*
X89110330Y-96115351D01*
X89321608Y-96269792D01*
X89558956Y-96380047D01*
X89666671Y-96412716D01*
X89873000Y-96289374D01*
X89873000Y-95247000D01*
X90127000Y-95247000D01*
X90127000Y-96289374D01*
X90333329Y-96412716D01*
X90441044Y-96380047D01*
X90678392Y-96269792D01*
X90889670Y-96115351D01*
X91066759Y-95922660D01*
X91202853Y-95699123D01*
X91292722Y-95453330D01*
X91170201Y-95247000D01*
X90127000Y-95247000D01*
X89873000Y-95247000D01*
X88829799Y-95247000D01*
X88707278Y-95453330D01*
X83761482Y-95453330D01*
X83765934Y-95443758D01*
X83828183Y-95188260D01*
X83839390Y-94925527D01*
X83817876Y-94786670D01*
X88707278Y-94786670D01*
X88829799Y-94993000D01*
X89873000Y-94993000D01*
X89873000Y-93950626D01*
X90127000Y-93950626D01*
X90127000Y-94993000D01*
X91170201Y-94993000D01*
X91292722Y-94786670D01*
X91202853Y-94540877D01*
X91066759Y-94317340D01*
X90889670Y-94124649D01*
X90678392Y-93970208D01*
X90441044Y-93859953D01*
X90333329Y-93827284D01*
X90127000Y-93950626D01*
X89873000Y-93950626D01*
X89666671Y-93827284D01*
X89558956Y-93859953D01*
X89321608Y-93970208D01*
X89110330Y-94124649D01*
X88933241Y-94317340D01*
X88797147Y-94540877D01*
X88707278Y-94786670D01*
X83817876Y-94786670D01*
X83799125Y-94665656D01*
X83708935Y-94418634D01*
X83655037Y-94317797D01*
X83421269Y-94258336D01*
X82679605Y-95000000D01*
X82320395Y-95000000D01*
X81578731Y-94258336D01*
X81344963Y-94317797D01*
X81234066Y-94556242D01*
X81171817Y-94811740D01*
X81160610Y-95074473D01*
X80127000Y-95074473D01*
X80127000Y-94078731D01*
X81758336Y-94078731D01*
X82500000Y-94820395D01*
X83241664Y-94078731D01*
X83182203Y-93844963D01*
X82943758Y-93734066D01*
X82688260Y-93671817D01*
X82425527Y-93660610D01*
X82165656Y-93700875D01*
X81918634Y-93791065D01*
X81817797Y-93844963D01*
X81758336Y-94078731D01*
X80127000Y-94078731D01*
X80127000Y-90469039D01*
X103208096Y-90469039D01*
X103225633Y-90551818D01*
X103336285Y-90811646D01*
X103495500Y-91044895D01*
X103697161Y-91242601D01*
X103933517Y-91397166D01*
X104195486Y-91502650D01*
X104473000Y-91555000D01*
X104873000Y-91555000D01*
X104873000Y-90247000D01*
X105127000Y-90247000D01*
X105127000Y-91555000D01*
X105527000Y-91555000D01*
X105804514Y-91502650D01*
X106066483Y-91397166D01*
X106302839Y-91242601D01*
X106504500Y-91044895D01*
X106663715Y-90811646D01*
X106774367Y-90551818D01*
X106791904Y-90469039D01*
X106669915Y-90247000D01*
X105127000Y-90247000D01*
X104873000Y-90247000D01*
X103330085Y-90247000D01*
X103208096Y-90469039D01*
X80127000Y-90469039D01*
X80127000Y-65762001D01*
X80153542Y-65794342D01*
X80196856Y-65829889D01*
X83725011Y-69358045D01*
X83725011Y-71249707D01*
X83571808Y-71167818D01*
X83301309Y-71085764D01*
X83090492Y-71065000D01*
X82149508Y-71065000D01*
X81938691Y-71085764D01*
X81668192Y-71167818D01*
X81418899Y-71301068D01*
X81200392Y-71480392D01*
X81021068Y-71698899D01*
X80887818Y-71948192D01*
X80805764Y-72218691D01*
X80778057Y-72500000D01*
X80805764Y-72781309D01*
X80887818Y-73051808D01*
X81021068Y-73301101D01*
X81200392Y-73519608D01*
X81418899Y-73698932D01*
X81551858Y-73770000D01*
X81418899Y-73841068D01*
X81200392Y-74020392D01*
X81021068Y-74238899D01*
X80887818Y-74488192D01*
X80805764Y-74758691D01*
X80778057Y-75040000D01*
X80805764Y-75321309D01*
X80887818Y-75591808D01*
X81021068Y-75841101D01*
X81200392Y-76059608D01*
X81418899Y-76238932D01*
X81551858Y-76310000D01*
X81418899Y-76381068D01*
X81200392Y-76560392D01*
X81021068Y-76778899D01*
X80887818Y-77028192D01*
X80805764Y-77298691D01*
X80778057Y-77580000D01*
X80805764Y-77861309D01*
X80887818Y-78131808D01*
X81021068Y-78381101D01*
X81200392Y-78599608D01*
X81418899Y-78778932D01*
X81485000Y-78814264D01*
X81485001Y-86512408D01*
X81384618Y-86634725D01*
X81260653Y-86866646D01*
X81184317Y-87118294D01*
X81158541Y-87380000D01*
X81184317Y-87641706D01*
X81260653Y-87893354D01*
X81384618Y-88125275D01*
X81551445Y-88328555D01*
X81754725Y-88495382D01*
X81986646Y-88619347D01*
X82238294Y-88695683D01*
X82434421Y-88715000D01*
X82565579Y-88715000D01*
X82761706Y-88695683D01*
X83013354Y-88619347D01*
X83245275Y-88495382D01*
X83448555Y-88328555D01*
X83615382Y-88125275D01*
X83739347Y-87893354D01*
X83815683Y-87641706D01*
X83841459Y-87380000D01*
X83815683Y-87118294D01*
X83755000Y-86918247D01*
X83755000Y-78814264D01*
X83821101Y-78778932D01*
X83899002Y-78715000D01*
X86364248Y-78715000D01*
X86420000Y-78720491D01*
X86475751Y-78715000D01*
X88685532Y-78715000D01*
X88619463Y-78795506D01*
X88560498Y-78905820D01*
X88524188Y-79025518D01*
X88511928Y-79150000D01*
X88511928Y-80850000D01*
X88524188Y-80974482D01*
X88560498Y-81094180D01*
X88619463Y-81204494D01*
X88698815Y-81301185D01*
X88795506Y-81380537D01*
X88865000Y-81417683D01*
X88865001Y-86795711D01*
X88816939Y-86867641D01*
X88716304Y-87110595D01*
X88665000Y-87368514D01*
X88665000Y-87631486D01*
X88716304Y-87889405D01*
X88816939Y-88132359D01*
X88963038Y-88351013D01*
X89148987Y-88536962D01*
X89367641Y-88683061D01*
X89610595Y-88783696D01*
X89868514Y-88835000D01*
X90131486Y-88835000D01*
X90389405Y-88783696D01*
X90632359Y-88683061D01*
X90851013Y-88536962D01*
X91036962Y-88351013D01*
X91183061Y-88132359D01*
X91283696Y-87889405D01*
X91335000Y-87631486D01*
X91335000Y-87368514D01*
X91283696Y-87110595D01*
X91183061Y-86867641D01*
X91135000Y-86795712D01*
X91135000Y-84960000D01*
X96007815Y-84960000D01*
X96036487Y-85251111D01*
X96121401Y-85531034D01*
X96259294Y-85789014D01*
X96444866Y-86015134D01*
X96474687Y-86039607D01*
X96405820Y-86060498D01*
X96295506Y-86119463D01*
X96198815Y-86198815D01*
X96119463Y-86295506D01*
X96060498Y-86405820D01*
X96024188Y-86525518D01*
X96011928Y-86650000D01*
X96011928Y-88350000D01*
X96024188Y-88474482D01*
X96060498Y-88594180D01*
X96119463Y-88704494D01*
X96198815Y-88801185D01*
X96295506Y-88880537D01*
X96405820Y-88939502D01*
X96525518Y-88975812D01*
X96650000Y-88988072D01*
X98350000Y-88988072D01*
X98474482Y-88975812D01*
X98594180Y-88939502D01*
X98704494Y-88880537D01*
X98801185Y-88801185D01*
X98871915Y-88715000D01*
X103720998Y-88715000D01*
X103798899Y-88778932D01*
X103926741Y-88847265D01*
X103697161Y-88997399D01*
X103495500Y-89195105D01*
X103336285Y-89428354D01*
X103225633Y-89688182D01*
X103208096Y-89770961D01*
X103330085Y-89993000D01*
X104873000Y-89993000D01*
X104873000Y-89973000D01*
X105127000Y-89973000D01*
X105127000Y-89993000D01*
X106669915Y-89993000D01*
X106791904Y-89770961D01*
X106774367Y-89688182D01*
X106663715Y-89428354D01*
X106504500Y-89195105D01*
X106302839Y-88997399D01*
X106073259Y-88847265D01*
X106201101Y-88778932D01*
X106419608Y-88599608D01*
X106598932Y-88381101D01*
X106732182Y-88131808D01*
X106814236Y-87861309D01*
X106841943Y-87580000D01*
X106814236Y-87298691D01*
X106732182Y-87028192D01*
X106598932Y-86778899D01*
X106419608Y-86560392D01*
X106201101Y-86381068D01*
X106068142Y-86310000D01*
X106201101Y-86238932D01*
X106419608Y-86059608D01*
X106598932Y-85841101D01*
X106732182Y-85591808D01*
X106814236Y-85321309D01*
X106841943Y-85040000D01*
X106814236Y-84758691D01*
X106732182Y-84488192D01*
X106598932Y-84238899D01*
X106419608Y-84020392D01*
X106306518Y-83927581D01*
X106324482Y-83925812D01*
X106444180Y-83889502D01*
X106554494Y-83830537D01*
X106651185Y-83751185D01*
X106730537Y-83654494D01*
X106789502Y-83544180D01*
X106825812Y-83424482D01*
X106838072Y-83300000D01*
X106838072Y-81700000D01*
X106825812Y-81575518D01*
X106789502Y-81455820D01*
X106730537Y-81345506D01*
X106651185Y-81248815D01*
X106554494Y-81169463D01*
X106444180Y-81110498D01*
X106324482Y-81074188D01*
X106200000Y-81061928D01*
X103800000Y-81061928D01*
X103675518Y-81074188D01*
X103555820Y-81110498D01*
X103445506Y-81169463D01*
X103348815Y-81248815D01*
X103269463Y-81345506D01*
X103210498Y-81455820D01*
X103174188Y-81575518D01*
X103161928Y-81700000D01*
X103161928Y-83300000D01*
X103174188Y-83424482D01*
X103210498Y-83544180D01*
X103269463Y-83654494D01*
X103348815Y-83751185D01*
X103438759Y-83825000D01*
X98457817Y-83825000D01*
X98329014Y-83719294D01*
X98071034Y-83581401D01*
X97791111Y-83496487D01*
X97572950Y-83475000D01*
X97427050Y-83475000D01*
X97208889Y-83496487D01*
X96928966Y-83581401D01*
X96670986Y-83719294D01*
X96444866Y-83904866D01*
X96259294Y-84130986D01*
X96121401Y-84388966D01*
X96036487Y-84668889D01*
X96007815Y-84960000D01*
X91135000Y-84960000D01*
X91135000Y-81417683D01*
X91204494Y-81380537D01*
X91301185Y-81301185D01*
X91380537Y-81204494D01*
X91417683Y-81135000D01*
X91794249Y-81135000D01*
X91850000Y-81140491D01*
X91905751Y-81135000D01*
X91905752Y-81135000D01*
X92072499Y-81118577D01*
X92286447Y-81053676D01*
X92483623Y-80948284D01*
X92656449Y-80806449D01*
X92691995Y-80763136D01*
X93763146Y-79691987D01*
X93806449Y-79656449D01*
X93847587Y-79606323D01*
X93948284Y-79483623D01*
X94053676Y-79286447D01*
X94118577Y-79072499D01*
X94140491Y-78850000D01*
X94135000Y-78794248D01*
X94135000Y-73555743D01*
X94140490Y-73499999D01*
X94135000Y-73444255D01*
X94135000Y-73444248D01*
X94118577Y-73277501D01*
X94053676Y-73063553D01*
X93948284Y-72866377D01*
X93806449Y-72693551D01*
X93763140Y-72658008D01*
X92721996Y-71616864D01*
X92686449Y-71573551D01*
X92513623Y-71431716D01*
X92316447Y-71326324D01*
X92102499Y-71261423D01*
X91935752Y-71245000D01*
X91935751Y-71245000D01*
X91880000Y-71239509D01*
X91824249Y-71245000D01*
X91135000Y-71245000D01*
X91135000Y-68328572D01*
X91239347Y-68133354D01*
X91315683Y-67881706D01*
X91341459Y-67620000D01*
X91315683Y-67358294D01*
X91239347Y-67106646D01*
X91115382Y-66874725D01*
X90948555Y-66671445D01*
X90745275Y-66504618D01*
X90513354Y-66380653D01*
X90261706Y-66304317D01*
X90065579Y-66285000D01*
X89934421Y-66285000D01*
X89738294Y-66304317D01*
X89486646Y-66380653D01*
X89254725Y-66504618D01*
X89051445Y-66671445D01*
X88884618Y-66874725D01*
X88760653Y-67106646D01*
X88684317Y-67358294D01*
X88658541Y-67620000D01*
X88684317Y-67881706D01*
X88760653Y-68133354D01*
X88865001Y-68328574D01*
X88865000Y-71422183D01*
X88759294Y-71550986D01*
X88621401Y-71808966D01*
X88536487Y-72088889D01*
X88507815Y-72380000D01*
X88536487Y-72671111D01*
X88621401Y-72951034D01*
X88759294Y-73209014D01*
X88944866Y-73435134D01*
X89170986Y-73620706D01*
X89225791Y-73650000D01*
X89170986Y-73679294D01*
X88944866Y-73864866D01*
X88759294Y-74090986D01*
X88621401Y-74348966D01*
X88536487Y-74628889D01*
X88507815Y-74920000D01*
X88536487Y-75211111D01*
X88621401Y-75491034D01*
X88759294Y-75749014D01*
X88865001Y-75877818D01*
X88865000Y-76445000D01*
X87555000Y-76445000D01*
X87555000Y-68325743D01*
X87560490Y-68269999D01*
X87555000Y-68214255D01*
X87555000Y-68214248D01*
X87538577Y-68047501D01*
X87473676Y-67833553D01*
X87368284Y-67636377D01*
X87226449Y-67463551D01*
X87183141Y-67428009D01*
X83659642Y-63904511D01*
X83704494Y-63880537D01*
X83801185Y-63801185D01*
X83880537Y-63704494D01*
X83939502Y-63594180D01*
X83975812Y-63474482D01*
X83988072Y-63350000D01*
X83988072Y-61650000D01*
X83975812Y-61525518D01*
X83939502Y-61405820D01*
X83880537Y-61295506D01*
X83801185Y-61198815D01*
X83713678Y-61127000D01*
X89283740Y-61127000D01*
X89367641Y-61183061D01*
X89367641Y-61183061D01*
G37*
X89367641Y-61183061D02*
X89610595Y-61283696D01*
X89868514Y-61335000D01*
X90131486Y-61335000D01*
X90389405Y-61283696D01*
X90632359Y-61183061D01*
X90704288Y-61135000D01*
X92029869Y-61135000D01*
X94440377Y-63545509D01*
X95365001Y-64541258D01*
X95365000Y-72944248D01*
X95359509Y-73000000D01*
X95366234Y-73068284D01*
X95381423Y-73222498D01*
X95446324Y-73436446D01*
X95551716Y-73633623D01*
X95693551Y-73806449D01*
X95736865Y-73841996D01*
X98658013Y-76763146D01*
X98693551Y-76806449D01*
X98736854Y-76841987D01*
X98736856Y-76841989D01*
X98866377Y-76948284D01*
X99063553Y-77053676D01*
X99151150Y-77080248D01*
X99157349Y-77086861D01*
X99176075Y-77103267D01*
X99197642Y-77115705D01*
X99221220Y-77123696D01*
X99250000Y-77127000D01*
X99363022Y-77127000D01*
X99500000Y-77140491D01*
X99555752Y-77135000D01*
X111444249Y-77135000D01*
X111500000Y-77140491D01*
X111555751Y-77135000D01*
X111555752Y-77135000D01*
X111722499Y-77118577D01*
X111936447Y-77053676D01*
X112133623Y-76948284D01*
X112306449Y-76806449D01*
X112341996Y-76763135D01*
X116363265Y-72741867D01*
X116359509Y-72780000D01*
X116365000Y-72835751D01*
X116365001Y-72835760D01*
X116365000Y-80152035D01*
X114402608Y-82114427D01*
X114352182Y-81948192D01*
X114218932Y-81698899D01*
X114039608Y-81480392D01*
X113821101Y-81301068D01*
X113571808Y-81167818D01*
X113301309Y-81085764D01*
X113090492Y-81065000D01*
X112149508Y-81065000D01*
X111938691Y-81085764D01*
X111668192Y-81167818D01*
X111418899Y-81301068D01*
X111200392Y-81480392D01*
X111021068Y-81698899D01*
X110887818Y-81948192D01*
X110805764Y-82218691D01*
X110778057Y-82500000D01*
X110805764Y-82781309D01*
X110887818Y-83051808D01*
X111021068Y-83301101D01*
X111200392Y-83519608D01*
X111418899Y-83698932D01*
X111551858Y-83770000D01*
X111418899Y-83841068D01*
X111200392Y-84020392D01*
X111021068Y-84238899D01*
X110887818Y-84488192D01*
X110805764Y-84758691D01*
X110778057Y-85040000D01*
X110805764Y-85321309D01*
X110887818Y-85591808D01*
X111021068Y-85841101D01*
X111200392Y-86059608D01*
X111418899Y-86238932D01*
X111551858Y-86310000D01*
X111418899Y-86381068D01*
X111200392Y-86560392D01*
X111021068Y-86778899D01*
X110887818Y-87028192D01*
X110805764Y-87298691D01*
X110778057Y-87580000D01*
X110805764Y-87861309D01*
X110887818Y-88131808D01*
X111021068Y-88381101D01*
X111200392Y-88599608D01*
X111418899Y-88778932D01*
X111551858Y-88850000D01*
X111418899Y-88921068D01*
X111200392Y-89100392D01*
X111021068Y-89318899D01*
X110887818Y-89568192D01*
X110805764Y-89838691D01*
X110778057Y-90120000D01*
X110805764Y-90401309D01*
X110887818Y-90671808D01*
X111021068Y-90921101D01*
X111200392Y-91139608D01*
X111418899Y-91318932D01*
X111668192Y-91452182D01*
X111938691Y-91534236D01*
X112149508Y-91555000D01*
X113090492Y-91555000D01*
X113301309Y-91534236D01*
X113571808Y-91452182D01*
X113821101Y-91318932D01*
X114039608Y-91139608D01*
X114218932Y-90921101D01*
X114352182Y-90671808D01*
X114434236Y-90401309D01*
X114461943Y-90120000D01*
X114434236Y-89838691D01*
X114352182Y-89568192D01*
X114218932Y-89318899D01*
X114039608Y-89100392D01*
X113821101Y-88921068D01*
X113688142Y-88850000D01*
X113821101Y-88778932D01*
X113899002Y-88715000D01*
X114764249Y-88715000D01*
X114820000Y-88720491D01*
X114875751Y-88715000D01*
X114875752Y-88715000D01*
X115042499Y-88698577D01*
X115256447Y-88633676D01*
X115453623Y-88528284D01*
X115626449Y-88386449D01*
X115661996Y-88343135D01*
X117830132Y-86175000D01*
X118720998Y-86175000D01*
X118798899Y-86238932D01*
X118931858Y-86310000D01*
X118798899Y-86381068D01*
X118580392Y-86560392D01*
X118401068Y-86778899D01*
X118267818Y-87028192D01*
X118185764Y-87298691D01*
X118182678Y-87330023D01*
X116236865Y-89275837D01*
X116193551Y-89311384D01*
X116051716Y-89484210D01*
X115971855Y-89633622D01*
X115946324Y-89681387D01*
X115881423Y-89895335D01*
X115859509Y-90117833D01*
X115865000Y-90173585D01*
X115865000Y-91944246D01*
X115859509Y-92000000D01*
X115865000Y-92055752D01*
X115865001Y-96865000D01*
X115045751Y-96865000D01*
X114989999Y-96859509D01*
X114934248Y-96865000D01*
X114767501Y-96881423D01*
X114553553Y-96946324D01*
X114356377Y-97051716D01*
X114183551Y-97193551D01*
X114148004Y-97236865D01*
X114076865Y-97308004D01*
X114033551Y-97343551D01*
X113891716Y-97516377D01*
X113800850Y-97686377D01*
X113786324Y-97713554D01*
X113721423Y-97927502D01*
X113699509Y-98150000D01*
X113705000Y-98205752D01*
X113705000Y-98582317D01*
X113635506Y-98619463D01*
X113538815Y-98698815D01*
X113459463Y-98795506D01*
X113400498Y-98905820D01*
X113364188Y-99025518D01*
X113351928Y-99150000D01*
X113351928Y-100850000D01*
X113364188Y-100974482D01*
X113400498Y-101094180D01*
X113459463Y-101204494D01*
X113538815Y-101301185D01*
X113635506Y-101380537D01*
X113745820Y-101439502D01*
X113865518Y-101475812D01*
X113990000Y-101488072D01*
X115690000Y-101488072D01*
X115814482Y-101475812D01*
X115934180Y-101439502D01*
X116044494Y-101380537D01*
X116141185Y-101301185D01*
X116220537Y-101204494D01*
X116279502Y-101094180D01*
X116303966Y-101013534D01*
X116379731Y-101097588D01*
X116613080Y-101271641D01*
X116875901Y-101396825D01*
X117023110Y-101441476D01*
X117253000Y-101320155D01*
X117253000Y-100127000D01*
X117233000Y-100127000D01*
X117233000Y-99873000D01*
X117253000Y-99873000D01*
X117253000Y-99853000D01*
X117507000Y-99853000D01*
X117507000Y-99873000D01*
X117527000Y-99873000D01*
X117527000Y-100127000D01*
X117507000Y-100127000D01*
X117507000Y-101320155D01*
X117736890Y-101441476D01*
X117884099Y-101396825D01*
X118146920Y-101271641D01*
X118380269Y-101097588D01*
X118575178Y-100881355D01*
X118644799Y-100764477D01*
X118679294Y-100829014D01*
X118864866Y-101055134D01*
X119090986Y-101240706D01*
X119348966Y-101378599D01*
X119628889Y-101463513D01*
X119847050Y-101485000D01*
X119992950Y-101485000D01*
X120211111Y-101463513D01*
X120491034Y-101378599D01*
X120749014Y-101240706D01*
X120975134Y-101055134D01*
X121160706Y-100829014D01*
X121195201Y-100764477D01*
X121264822Y-100881355D01*
X121459731Y-101097588D01*
X121693080Y-101271641D01*
X121955901Y-101396825D01*
X122103110Y-101441476D01*
X122333000Y-101320155D01*
X122333000Y-100127000D01*
X122313000Y-100127000D01*
X122313000Y-99873000D01*
X122333000Y-99873000D01*
X122333000Y-99853000D01*
X122587000Y-99853000D01*
X122587000Y-99873000D01*
X122607000Y-99873000D01*
X122607000Y-100127000D01*
X122587000Y-100127000D01*
X122587000Y-101320155D01*
X122816890Y-101441476D01*
X122964099Y-101396825D01*
X123226920Y-101271641D01*
X123460269Y-101097588D01*
X123655178Y-100881355D01*
X123724799Y-100764477D01*
X123759294Y-100829014D01*
X123944866Y-101055134D01*
X124170986Y-101240706D01*
X124428966Y-101378599D01*
X124708889Y-101463513D01*
X124927050Y-101485000D01*
X125072950Y-101485000D01*
X125291111Y-101463513D01*
X125571034Y-101378599D01*
X125829014Y-101240706D01*
X126055134Y-101055134D01*
X126240706Y-100829014D01*
X126275201Y-100764477D01*
X126344822Y-100881355D01*
X126539731Y-101097588D01*
X126773080Y-101271641D01*
X127035901Y-101396825D01*
X127183110Y-101441476D01*
X127413000Y-101320155D01*
X127413000Y-100127000D01*
X127393000Y-100127000D01*
X127393000Y-99873000D01*
X127413000Y-99873000D01*
X127413000Y-99853000D01*
X127667000Y-99853000D01*
X127667000Y-99873000D01*
X127687000Y-99873000D01*
X127687000Y-100127000D01*
X127667000Y-100127000D01*
X127667000Y-101320155D01*
X127896890Y-101441476D01*
X128044099Y-101396825D01*
X128306920Y-101271641D01*
X128540269Y-101097588D01*
X128735178Y-100881355D01*
X128804799Y-100764477D01*
X128839294Y-100829014D01*
X129024866Y-101055134D01*
X129250986Y-101240706D01*
X129508966Y-101378599D01*
X129788889Y-101463513D01*
X130007050Y-101485000D01*
X130152950Y-101485000D01*
X130371111Y-101463513D01*
X130651034Y-101378599D01*
X130909014Y-101240706D01*
X131135134Y-101055134D01*
X131320706Y-100829014D01*
X131355201Y-100764477D01*
X131424822Y-100881355D01*
X131619731Y-101097588D01*
X131853080Y-101271641D01*
X132115901Y-101396825D01*
X132263110Y-101441476D01*
X132493000Y-101320155D01*
X132493000Y-100127000D01*
X132747000Y-100127000D01*
X132747000Y-101320155D01*
X132976890Y-101441476D01*
X133124099Y-101396825D01*
X133386920Y-101271641D01*
X133620269Y-101097588D01*
X133815178Y-100881355D01*
X133964157Y-100631252D01*
X134061481Y-100356891D01*
X133940814Y-100127000D01*
X132747000Y-100127000D01*
X132493000Y-100127000D01*
X132473000Y-100127000D01*
X132473000Y-99873000D01*
X132493000Y-99873000D01*
X132493000Y-98679845D01*
X132747000Y-98679845D01*
X132747000Y-99873000D01*
X133940814Y-99873000D01*
X134061481Y-99643109D01*
X133964157Y-99368748D01*
X133815178Y-99118645D01*
X133620269Y-98902412D01*
X133386920Y-98728359D01*
X133124099Y-98603175D01*
X132976890Y-98558524D01*
X132747000Y-98679845D01*
X132493000Y-98679845D01*
X132263110Y-98558524D01*
X132115901Y-98603175D01*
X131853080Y-98728359D01*
X131619731Y-98902412D01*
X131424822Y-99118645D01*
X131355201Y-99235523D01*
X131320706Y-99170986D01*
X131215000Y-99042183D01*
X131215000Y-98853670D01*
X131220491Y-98797919D01*
X131198577Y-98575420D01*
X131133676Y-98361472D01*
X131028284Y-98164296D01*
X130886449Y-97991470D01*
X130843140Y-97955927D01*
X130124076Y-97236864D01*
X130088530Y-97193551D01*
X129915704Y-97051716D01*
X129718528Y-96946324D01*
X129504580Y-96881423D01*
X129337833Y-96865000D01*
X129337832Y-96865000D01*
X129282081Y-96859509D01*
X129226330Y-96865000D01*
X125055751Y-96865000D01*
X125000000Y-96859509D01*
X124944248Y-96865000D01*
X120773671Y-96865000D01*
X120717919Y-96859509D01*
X120662167Y-96865000D01*
X118135000Y-96865000D01*
X118135000Y-94740132D01*
X119158013Y-95763146D01*
X119193551Y-95806449D01*
X119236854Y-95841987D01*
X119236856Y-95841989D01*
X119366377Y-95948284D01*
X119563553Y-96053676D01*
X119777501Y-96118577D01*
X120000000Y-96140491D01*
X120055752Y-96135000D01*
X131944249Y-96135000D01*
X132000000Y-96140491D01*
X132055751Y-96135000D01*
X132055752Y-96135000D01*
X132222499Y-96118577D01*
X132436447Y-96053676D01*
X132633623Y-95948284D01*
X132806449Y-95806449D01*
X132841996Y-95763135D01*
X137470132Y-91135000D01*
X139295712Y-91135000D01*
X139367641Y-91183061D01*
X139610595Y-91283696D01*
X139868514Y-91335000D01*
X140131486Y-91335000D01*
X140389405Y-91283696D01*
X140632359Y-91183061D01*
X140851013Y-91036962D01*
X141036962Y-90851013D01*
X141183061Y-90632359D01*
X141283696Y-90389405D01*
X141335000Y-90131486D01*
X141335000Y-89868514D01*
X141283696Y-89610595D01*
X141183061Y-89367641D01*
X141135000Y-89295712D01*
X141135000Y-85828572D01*
X141239347Y-85633354D01*
X141315683Y-85381706D01*
X141341459Y-85120000D01*
X141315683Y-84858294D01*
X141239347Y-84606646D01*
X141115382Y-84374725D01*
X140948555Y-84171445D01*
X140745275Y-84004618D01*
X140513354Y-83880653D01*
X140261706Y-83804317D01*
X140065579Y-83785000D01*
X139934421Y-83785000D01*
X139738294Y-83804317D01*
X139486646Y-83880653D01*
X139254725Y-84004618D01*
X139051445Y-84171445D01*
X138884618Y-84374725D01*
X138760653Y-84606646D01*
X138684317Y-84858294D01*
X138658541Y-85120000D01*
X138684317Y-85381706D01*
X138760653Y-85633354D01*
X138865001Y-85828574D01*
X138865000Y-88865000D01*
X137055752Y-88865000D01*
X137000000Y-88859509D01*
X136944248Y-88865000D01*
X136777501Y-88881423D01*
X136563553Y-88946324D01*
X136366377Y-89051716D01*
X136193551Y-89193551D01*
X136158009Y-89236859D01*
X131529869Y-93865000D01*
X120470133Y-93865000D01*
X118135000Y-91529869D01*
X118135000Y-90587964D01*
X118217392Y-90505573D01*
X118267818Y-90671808D01*
X118401068Y-90921101D01*
X118580392Y-91139608D01*
X118798899Y-91318932D01*
X119048192Y-91452182D01*
X119318691Y-91534236D01*
X119529508Y-91555000D01*
X120470492Y-91555000D01*
X120681309Y-91534236D01*
X120951808Y-91452182D01*
X121201101Y-91318932D01*
X121279002Y-91255000D01*
X122144249Y-91255000D01*
X122200000Y-91260491D01*
X122255751Y-91255000D01*
X122255752Y-91255000D01*
X122422499Y-91238577D01*
X122636447Y-91173676D01*
X122833623Y-91068284D01*
X123006449Y-90926449D01*
X123041996Y-90883135D01*
X125123141Y-88801991D01*
X125166449Y-88766449D01*
X125308284Y-88593623D01*
X125413676Y-88396447D01*
X125478577Y-88182499D01*
X125495000Y-88015752D01*
X125495000Y-88015743D01*
X125500490Y-87960001D01*
X125495000Y-87904259D01*
X125495000Y-83635000D01*
X126340998Y-83635000D01*
X126418899Y-83698932D01*
X126551858Y-83770000D01*
X126418899Y-83841068D01*
X126200392Y-84020392D01*
X126021068Y-84238899D01*
X125887818Y-84488192D01*
X125805764Y-84758691D01*
X125778057Y-85040000D01*
X125805764Y-85321309D01*
X125887818Y-85591808D01*
X126021068Y-85841101D01*
X126200392Y-86059608D01*
X126418899Y-86238932D01*
X126485000Y-86274264D01*
X126485000Y-86345736D01*
X126418899Y-86381068D01*
X126200392Y-86560392D01*
X126021068Y-86778899D01*
X125887818Y-87028192D01*
X125805764Y-87298691D01*
X125778057Y-87580000D01*
X125805764Y-87861309D01*
X125887818Y-88131808D01*
X126021068Y-88381101D01*
X126200392Y-88599608D01*
X126418899Y-88778932D01*
X126551858Y-88850000D01*
X126418899Y-88921068D01*
X126200392Y-89100392D01*
X126021068Y-89318899D01*
X125887818Y-89568192D01*
X125805764Y-89838691D01*
X125778057Y-90120000D01*
X125805764Y-90401309D01*
X125887818Y-90671808D01*
X126021068Y-90921101D01*
X126200392Y-91139608D01*
X126418899Y-91318932D01*
X126668192Y-91452182D01*
X126938691Y-91534236D01*
X127149508Y-91555000D01*
X128090492Y-91555000D01*
X128301309Y-91534236D01*
X128571808Y-91452182D01*
X128821101Y-91318932D01*
X128899002Y-91255000D01*
X131795310Y-91255000D01*
X131820273Y-91271680D01*
X132081426Y-91379853D01*
X132358665Y-91435000D01*
X132641335Y-91435000D01*
X132918574Y-91379853D01*
X133179727Y-91271680D01*
X133414759Y-91114637D01*
X133614637Y-90914759D01*
X133771680Y-90679727D01*
X133879853Y-90418574D01*
X133935000Y-90141335D01*
X133935000Y-89858665D01*
X133879853Y-89581426D01*
X133771680Y-89320273D01*
X133614637Y-89085241D01*
X133414759Y-88885363D01*
X133179727Y-88728320D01*
X132918574Y-88620147D01*
X132641335Y-88565000D01*
X132358665Y-88565000D01*
X132081426Y-88620147D01*
X131820273Y-88728320D01*
X131585241Y-88885363D01*
X131485604Y-88985000D01*
X128899002Y-88985000D01*
X128821101Y-88921068D01*
X128688142Y-88850000D01*
X128821101Y-88778932D01*
X129039608Y-88599608D01*
X129218932Y-88381101D01*
X129352182Y-88131808D01*
X129434236Y-87861309D01*
X129461943Y-87580000D01*
X129434236Y-87298691D01*
X129385171Y-87136943D01*
X129513623Y-87068284D01*
X129686449Y-86926449D01*
X129721996Y-86883136D01*
X130612430Y-85992702D01*
X131686903Y-85992702D01*
X131758486Y-86236671D01*
X132013996Y-86357571D01*
X132288184Y-86426300D01*
X132570512Y-86440217D01*
X132850130Y-86398787D01*
X133116292Y-86303603D01*
X133241514Y-86236671D01*
X133313097Y-85992702D01*
X132500000Y-85179605D01*
X131686903Y-85992702D01*
X130612430Y-85992702D01*
X130623150Y-85981982D01*
X130666459Y-85946439D01*
X130808294Y-85773613D01*
X130913686Y-85576437D01*
X130978587Y-85362489D01*
X130995010Y-85195742D01*
X130995010Y-85195733D01*
X131000500Y-85139991D01*
X130995010Y-85084249D01*
X130995010Y-85070512D01*
X131059783Y-85070512D01*
X131101213Y-85350130D01*
X131196397Y-85616292D01*
X131263329Y-85741514D01*
X131507298Y-85813097D01*
X132320395Y-85000000D01*
X132679605Y-85000000D01*
X133492702Y-85813097D01*
X133736671Y-85741514D01*
X133857571Y-85486004D01*
X133926300Y-85211816D01*
X133940217Y-84929488D01*
X133898787Y-84649870D01*
X133803603Y-84383708D01*
X133736671Y-84258486D01*
X133492702Y-84186903D01*
X132679605Y-85000000D01*
X132320395Y-85000000D01*
X131507298Y-84186903D01*
X131263329Y-84258486D01*
X131142429Y-84513996D01*
X131073700Y-84788184D01*
X131059783Y-85070512D01*
X130995010Y-85070512D01*
X130995010Y-84007298D01*
X131686903Y-84007298D01*
X132500000Y-84820395D01*
X133313097Y-84007298D01*
X133241514Y-83763329D01*
X132986004Y-83642429D01*
X132711816Y-83573700D01*
X132429488Y-83559783D01*
X132149870Y-83601213D01*
X131883708Y-83696397D01*
X131758486Y-83763329D01*
X131686903Y-84007298D01*
X130995010Y-84007298D01*
X130995010Y-83492702D01*
X144186903Y-83492702D01*
X144258486Y-83736671D01*
X144513996Y-83857571D01*
X144788184Y-83926300D01*
X145070512Y-83940217D01*
X145350130Y-83898787D01*
X145616292Y-83803603D01*
X145741514Y-83736671D01*
X145813097Y-83492702D01*
X145000000Y-82679605D01*
X144186903Y-83492702D01*
X130995010Y-83492702D01*
X130995010Y-80915762D01*
X131000501Y-80860010D01*
X130978587Y-80637511D01*
X130913686Y-80423563D01*
X130808294Y-80226387D01*
X130774920Y-80185721D01*
X130666459Y-80053561D01*
X130623151Y-80018019D01*
X128515000Y-77909869D01*
X128515000Y-75708572D01*
X128619347Y-75513354D01*
X128695683Y-75261706D01*
X128721459Y-75000000D01*
X128695683Y-74738294D01*
X128635000Y-74538247D01*
X128635000Y-70884284D01*
X128771680Y-70679727D01*
X128879853Y-70418574D01*
X128935000Y-70141335D01*
X128935000Y-69858665D01*
X128879853Y-69581426D01*
X128818766Y-69433948D01*
X133798053Y-74413236D01*
X133716304Y-74610595D01*
X133665000Y-74868514D01*
X133665000Y-75131486D01*
X133716304Y-75389405D01*
X133816939Y-75632359D01*
X133865000Y-75704288D01*
X133865000Y-75944249D01*
X133859509Y-76000000D01*
X133865000Y-76055751D01*
X133865000Y-76055752D01*
X133881423Y-76222499D01*
X133946324Y-76436447D01*
X134051717Y-76633623D01*
X134193552Y-76806449D01*
X134236858Y-76841989D01*
X138818008Y-81423140D01*
X138853550Y-81466448D01*
X138994957Y-81582498D01*
X139026376Y-81608283D01*
X139223552Y-81713675D01*
X139437500Y-81778576D01*
X139659999Y-81800490D01*
X139715751Y-81794999D01*
X143746052Y-81794999D01*
X143642429Y-82013996D01*
X143573700Y-82288184D01*
X143559783Y-82570512D01*
X143601213Y-82850130D01*
X143696397Y-83116292D01*
X143763329Y-83241514D01*
X144007298Y-83313097D01*
X144820395Y-82500000D01*
X144806253Y-82485858D01*
X144985858Y-82306253D01*
X145000000Y-82320395D01*
X145014143Y-82306253D01*
X145193748Y-82485858D01*
X145179605Y-82500000D01*
X145992702Y-83313097D01*
X146236671Y-83241514D01*
X146357571Y-82986004D01*
X146406976Y-82788906D01*
X147001211Y-83383141D01*
X147036753Y-83426449D01*
X147209579Y-83568284D01*
X147406755Y-83673676D01*
X147620703Y-83738577D01*
X147748716Y-83751185D01*
X147843202Y-83760491D01*
X147898953Y-83755000D01*
X151220998Y-83755000D01*
X151298899Y-83818932D01*
X151431858Y-83890000D01*
X151298899Y-83961068D01*
X151080392Y-84140392D01*
X150901068Y-84358899D01*
X150767818Y-84608192D01*
X150685764Y-84878691D01*
X150658057Y-85160000D01*
X150685764Y-85441309D01*
X150767818Y-85711808D01*
X150901068Y-85961101D01*
X151080392Y-86179608D01*
X151298899Y-86358932D01*
X151431858Y-86430000D01*
X151298899Y-86501068D01*
X151080392Y-86680392D01*
X150901068Y-86898899D01*
X150767818Y-87148192D01*
X150685764Y-87418691D01*
X150658057Y-87700000D01*
X150685764Y-87981309D01*
X150767818Y-88251808D01*
X150901068Y-88501101D01*
X151080392Y-88719608D01*
X151298899Y-88898932D01*
X151365000Y-88934264D01*
X151365000Y-88944248D01*
X151359509Y-89000000D01*
X151360320Y-89008238D01*
X151298899Y-89041068D01*
X151080392Y-89220392D01*
X150901068Y-89438899D01*
X150767818Y-89688192D01*
X150685764Y-89958691D01*
X150658057Y-90240000D01*
X150685764Y-90521309D01*
X150767818Y-90791808D01*
X150901068Y-91041101D01*
X151080392Y-91259608D01*
X151298899Y-91438932D01*
X151548192Y-91572182D01*
X151818691Y-91654236D01*
X152029508Y-91675000D01*
X152970492Y-91675000D01*
X153181309Y-91654236D01*
X153451808Y-91572182D01*
X153701101Y-91438932D01*
X153919608Y-91259608D01*
X154098932Y-91041101D01*
X154232182Y-90791808D01*
X154314236Y-90521309D01*
X154341943Y-90240000D01*
X154331601Y-90135000D01*
X154529869Y-90135000D01*
X157658009Y-93263141D01*
X157693551Y-93306449D01*
X157866377Y-93448284D01*
X158063553Y-93553676D01*
X158277501Y-93618577D01*
X158444248Y-93635000D01*
X158444257Y-93635000D01*
X158499999Y-93640490D01*
X158555741Y-93635000D01*
X166442168Y-93635000D01*
X166497919Y-93640491D01*
X166534052Y-93636932D01*
X167391098Y-95065341D01*
X167405938Y-95085331D01*
X167424393Y-95102042D01*
X167445753Y-95114832D01*
X167469198Y-95123208D01*
X167500000Y-95127000D01*
X171840001Y-95127000D01*
X171840001Y-105480393D01*
X170480394Y-106840000D01*
X81019606Y-106840000D01*
X80127000Y-105947394D01*
X80127000Y-102500000D01*
X138467815Y-102500000D01*
X138496487Y-102791111D01*
X138581401Y-103071034D01*
X138719294Y-103329014D01*
X138904866Y-103555134D01*
X139130986Y-103740706D01*
X139388966Y-103878599D01*
X139668889Y-103963513D01*
X139887050Y-103985000D01*
X140032950Y-103985000D01*
X140251111Y-103963513D01*
X140531034Y-103878599D01*
X140789014Y-103740706D01*
X141015134Y-103555134D01*
X141039607Y-103525313D01*
X141060498Y-103594180D01*
X141119463Y-103704494D01*
X141198815Y-103801185D01*
X141295506Y-103880537D01*
X141405820Y-103939502D01*
X141525518Y-103975812D01*
X141650000Y-103988072D01*
X142214250Y-103985000D01*
X142373000Y-103826250D01*
X142373000Y-102627000D01*
X142627000Y-102627000D01*
X142627000Y-103826250D01*
X142785750Y-103985000D01*
X143350000Y-103988072D01*
X143474482Y-103975812D01*
X143594180Y-103939502D01*
X143704494Y-103880537D01*
X143801185Y-103801185D01*
X143880537Y-103704494D01*
X143939502Y-103594180D01*
X143975812Y-103474482D01*
X143988072Y-103350000D01*
X143985000Y-102785750D01*
X143900131Y-102700881D01*
X164978724Y-102700881D01*
X165338912Y-103190548D01*
X166002882Y-103550849D01*
X166724385Y-103774694D01*
X167475695Y-103853480D01*
X168227938Y-103784178D01*
X168952208Y-103569452D01*
X169620670Y-103217555D01*
X169661088Y-103190548D01*
X170021276Y-102700881D01*
X167500000Y-100179605D01*
X164978724Y-102700881D01*
X143900131Y-102700881D01*
X143826250Y-102627000D01*
X142627000Y-102627000D01*
X142373000Y-102627000D01*
X142353000Y-102627000D01*
X142353000Y-102373000D01*
X142373000Y-102373000D01*
X142373000Y-101173750D01*
X142627000Y-101173750D01*
X142627000Y-102373000D01*
X143826250Y-102373000D01*
X143985000Y-102214250D01*
X143988072Y-101650000D01*
X143975812Y-101525518D01*
X143939502Y-101405820D01*
X143880537Y-101295506D01*
X143801185Y-101198815D01*
X143704494Y-101119463D01*
X143594180Y-101060498D01*
X143474482Y-101024188D01*
X143350000Y-101011928D01*
X142785750Y-101015000D01*
X142627000Y-101173750D01*
X142373000Y-101173750D01*
X142214250Y-101015000D01*
X141650000Y-101011928D01*
X141525518Y-101024188D01*
X141405820Y-101060498D01*
X141295506Y-101119463D01*
X141198815Y-101198815D01*
X141119463Y-101295506D01*
X141095000Y-101341272D01*
X141095000Y-99975695D01*
X163646520Y-99975695D01*
X163715822Y-100727938D01*
X163930548Y-101452208D01*
X164282445Y-102120670D01*
X164309452Y-102161088D01*
X164799119Y-102521276D01*
X167320395Y-100000000D01*
X167679605Y-100000000D01*
X170200881Y-102521276D01*
X170690548Y-102161088D01*
X171050849Y-101497118D01*
X171274694Y-100775615D01*
X171353480Y-100024305D01*
X171284178Y-99272062D01*
X171069452Y-98547792D01*
X170717555Y-97879330D01*
X170690548Y-97838912D01*
X170200881Y-97478724D01*
X167679605Y-100000000D01*
X167320395Y-100000000D01*
X164799119Y-97478724D01*
X164309452Y-97838912D01*
X163949151Y-98502882D01*
X163725306Y-99224385D01*
X163646520Y-99975695D01*
X141095000Y-99975695D01*
X141095000Y-98390111D01*
X141115382Y-98365275D01*
X141239347Y-98133354D01*
X141315683Y-97881706D01*
X141341459Y-97620000D01*
X141315683Y-97358294D01*
X141297733Y-97299119D01*
X164978724Y-97299119D01*
X167500000Y-99820395D01*
X170021276Y-97299119D01*
X169661088Y-96809452D01*
X168997118Y-96449151D01*
X168275615Y-96225306D01*
X167524305Y-96146520D01*
X166772062Y-96215822D01*
X166047792Y-96430548D01*
X165379330Y-96782445D01*
X165338912Y-96809452D01*
X164978724Y-97299119D01*
X141297733Y-97299119D01*
X141239347Y-97106646D01*
X141115382Y-96874725D01*
X140948555Y-96671445D01*
X140745275Y-96504618D01*
X140513354Y-96380653D01*
X140261706Y-96304317D01*
X140065579Y-96285000D01*
X139934421Y-96285000D01*
X139738294Y-96304317D01*
X139486646Y-96380653D01*
X139254725Y-96504618D01*
X139051445Y-96671445D01*
X138884618Y-96874725D01*
X138760653Y-97106646D01*
X138684317Y-97358294D01*
X138658541Y-97620000D01*
X138684317Y-97881706D01*
X138760653Y-98133354D01*
X138825001Y-98253740D01*
X138825000Y-101542183D01*
X138719294Y-101670986D01*
X138581401Y-101928966D01*
X138496487Y-102208889D01*
X138467815Y-102500000D01*
X80127000Y-102500000D01*
X80127000Y-95921269D01*
X81758336Y-95921269D01*
X81817797Y-96155037D01*
X82056242Y-96265934D01*
X82311740Y-96328183D01*
X82574473Y-96339390D01*
X82834344Y-96299125D01*
X83081366Y-96208935D01*
X83182203Y-96155037D01*
X83241664Y-95921269D01*
X82500000Y-95179605D01*
X81758336Y-95921269D01*
X80127000Y-95921269D01*
X80127000Y-95074473D01*
X81160610Y-95074473D01*
X81200875Y-95334344D01*
X81291065Y-95581366D01*
X81344963Y-95682203D01*
X81578731Y-95741664D01*
X82320395Y-95000000D01*
X82679605Y-95000000D01*
X83421269Y-95741664D01*
X83655037Y-95682203D01*
X83761482Y-95453330D01*
X88707278Y-95453330D01*
X88797147Y-95699123D01*
X88933241Y-95922660D01*
X89110330Y-96115351D01*
X89321608Y-96269792D01*
X89558956Y-96380047D01*
X89666671Y-96412716D01*
X89873000Y-96289374D01*
X89873000Y-95247000D01*
X90127000Y-95247000D01*
X90127000Y-96289374D01*
X90333329Y-96412716D01*
X90441044Y-96380047D01*
X90678392Y-96269792D01*
X90889670Y-96115351D01*
X91066759Y-95922660D01*
X91202853Y-95699123D01*
X91292722Y-95453330D01*
X91170201Y-95247000D01*
X90127000Y-95247000D01*
X89873000Y-95247000D01*
X88829799Y-95247000D01*
X88707278Y-95453330D01*
X83761482Y-95453330D01*
X83765934Y-95443758D01*
X83828183Y-95188260D01*
X83839390Y-94925527D01*
X83817876Y-94786670D01*
X88707278Y-94786670D01*
X88829799Y-94993000D01*
X89873000Y-94993000D01*
X89873000Y-93950626D01*
X90127000Y-93950626D01*
X90127000Y-94993000D01*
X91170201Y-94993000D01*
X91292722Y-94786670D01*
X91202853Y-94540877D01*
X91066759Y-94317340D01*
X90889670Y-94124649D01*
X90678392Y-93970208D01*
X90441044Y-93859953D01*
X90333329Y-93827284D01*
X90127000Y-93950626D01*
X89873000Y-93950626D01*
X89666671Y-93827284D01*
X89558956Y-93859953D01*
X89321608Y-93970208D01*
X89110330Y-94124649D01*
X88933241Y-94317340D01*
X88797147Y-94540877D01*
X88707278Y-94786670D01*
X83817876Y-94786670D01*
X83799125Y-94665656D01*
X83708935Y-94418634D01*
X83655037Y-94317797D01*
X83421269Y-94258336D01*
X82679605Y-95000000D01*
X82320395Y-95000000D01*
X81578731Y-94258336D01*
X81344963Y-94317797D01*
X81234066Y-94556242D01*
X81171817Y-94811740D01*
X81160610Y-95074473D01*
X80127000Y-95074473D01*
X80127000Y-94078731D01*
X81758336Y-94078731D01*
X82500000Y-94820395D01*
X83241664Y-94078731D01*
X83182203Y-93844963D01*
X82943758Y-93734066D01*
X82688260Y-93671817D01*
X82425527Y-93660610D01*
X82165656Y-93700875D01*
X81918634Y-93791065D01*
X81817797Y-93844963D01*
X81758336Y-94078731D01*
X80127000Y-94078731D01*
X80127000Y-90469039D01*
X103208096Y-90469039D01*
X103225633Y-90551818D01*
X103336285Y-90811646D01*
X103495500Y-91044895D01*
X103697161Y-91242601D01*
X103933517Y-91397166D01*
X104195486Y-91502650D01*
X104473000Y-91555000D01*
X104873000Y-91555000D01*
X104873000Y-90247000D01*
X105127000Y-90247000D01*
X105127000Y-91555000D01*
X105527000Y-91555000D01*
X105804514Y-91502650D01*
X106066483Y-91397166D01*
X106302839Y-91242601D01*
X106504500Y-91044895D01*
X106663715Y-90811646D01*
X106774367Y-90551818D01*
X106791904Y-90469039D01*
X106669915Y-90247000D01*
X105127000Y-90247000D01*
X104873000Y-90247000D01*
X103330085Y-90247000D01*
X103208096Y-90469039D01*
X80127000Y-90469039D01*
X80127000Y-65762001D01*
X80153542Y-65794342D01*
X80196856Y-65829889D01*
X83725011Y-69358045D01*
X83725011Y-71249707D01*
X83571808Y-71167818D01*
X83301309Y-71085764D01*
X83090492Y-71065000D01*
X82149508Y-71065000D01*
X81938691Y-71085764D01*
X81668192Y-71167818D01*
X81418899Y-71301068D01*
X81200392Y-71480392D01*
X81021068Y-71698899D01*
X80887818Y-71948192D01*
X80805764Y-72218691D01*
X80778057Y-72500000D01*
X80805764Y-72781309D01*
X80887818Y-73051808D01*
X81021068Y-73301101D01*
X81200392Y-73519608D01*
X81418899Y-73698932D01*
X81551858Y-73770000D01*
X81418899Y-73841068D01*
X81200392Y-74020392D01*
X81021068Y-74238899D01*
X80887818Y-74488192D01*
X80805764Y-74758691D01*
X80778057Y-75040000D01*
X80805764Y-75321309D01*
X80887818Y-75591808D01*
X81021068Y-75841101D01*
X81200392Y-76059608D01*
X81418899Y-76238932D01*
X81551858Y-76310000D01*
X81418899Y-76381068D01*
X81200392Y-76560392D01*
X81021068Y-76778899D01*
X80887818Y-77028192D01*
X80805764Y-77298691D01*
X80778057Y-77580000D01*
X80805764Y-77861309D01*
X80887818Y-78131808D01*
X81021068Y-78381101D01*
X81200392Y-78599608D01*
X81418899Y-78778932D01*
X81485000Y-78814264D01*
X81485001Y-86512408D01*
X81384618Y-86634725D01*
X81260653Y-86866646D01*
X81184317Y-87118294D01*
X81158541Y-87380000D01*
X81184317Y-87641706D01*
X81260653Y-87893354D01*
X81384618Y-88125275D01*
X81551445Y-88328555D01*
X81754725Y-88495382D01*
X81986646Y-88619347D01*
X82238294Y-88695683D01*
X82434421Y-88715000D01*
X82565579Y-88715000D01*
X82761706Y-88695683D01*
X83013354Y-88619347D01*
X83245275Y-88495382D01*
X83448555Y-88328555D01*
X83615382Y-88125275D01*
X83739347Y-87893354D01*
X83815683Y-87641706D01*
X83841459Y-87380000D01*
X83815683Y-87118294D01*
X83755000Y-86918247D01*
X83755000Y-78814264D01*
X83821101Y-78778932D01*
X83899002Y-78715000D01*
X86364248Y-78715000D01*
X86420000Y-78720491D01*
X86475751Y-78715000D01*
X88685532Y-78715000D01*
X88619463Y-78795506D01*
X88560498Y-78905820D01*
X88524188Y-79025518D01*
X88511928Y-79150000D01*
X88511928Y-80850000D01*
X88524188Y-80974482D01*
X88560498Y-81094180D01*
X88619463Y-81204494D01*
X88698815Y-81301185D01*
X88795506Y-81380537D01*
X88865000Y-81417683D01*
X88865001Y-86795711D01*
X88816939Y-86867641D01*
X88716304Y-87110595D01*
X88665000Y-87368514D01*
X88665000Y-87631486D01*
X88716304Y-87889405D01*
X88816939Y-88132359D01*
X88963038Y-88351013D01*
X89148987Y-88536962D01*
X89367641Y-88683061D01*
X89610595Y-88783696D01*
X89868514Y-88835000D01*
X90131486Y-88835000D01*
X90389405Y-88783696D01*
X90632359Y-88683061D01*
X90851013Y-88536962D01*
X91036962Y-88351013D01*
X91183061Y-88132359D01*
X91283696Y-87889405D01*
X91335000Y-87631486D01*
X91335000Y-87368514D01*
X91283696Y-87110595D01*
X91183061Y-86867641D01*
X91135000Y-86795712D01*
X91135000Y-84960000D01*
X96007815Y-84960000D01*
X96036487Y-85251111D01*
X96121401Y-85531034D01*
X96259294Y-85789014D01*
X96444866Y-86015134D01*
X96474687Y-86039607D01*
X96405820Y-86060498D01*
X96295506Y-86119463D01*
X96198815Y-86198815D01*
X96119463Y-86295506D01*
X96060498Y-86405820D01*
X96024188Y-86525518D01*
X96011928Y-86650000D01*
X96011928Y-88350000D01*
X96024188Y-88474482D01*
X96060498Y-88594180D01*
X96119463Y-88704494D01*
X96198815Y-88801185D01*
X96295506Y-88880537D01*
X96405820Y-88939502D01*
X96525518Y-88975812D01*
X96650000Y-88988072D01*
X98350000Y-88988072D01*
X98474482Y-88975812D01*
X98594180Y-88939502D01*
X98704494Y-88880537D01*
X98801185Y-88801185D01*
X98871915Y-88715000D01*
X103720998Y-88715000D01*
X103798899Y-88778932D01*
X103926741Y-88847265D01*
X103697161Y-88997399D01*
X103495500Y-89195105D01*
X103336285Y-89428354D01*
X103225633Y-89688182D01*
X103208096Y-89770961D01*
X103330085Y-89993000D01*
X104873000Y-89993000D01*
X104873000Y-89973000D01*
X105127000Y-89973000D01*
X105127000Y-89993000D01*
X106669915Y-89993000D01*
X106791904Y-89770961D01*
X106774367Y-89688182D01*
X106663715Y-89428354D01*
X106504500Y-89195105D01*
X106302839Y-88997399D01*
X106073259Y-88847265D01*
X106201101Y-88778932D01*
X106419608Y-88599608D01*
X106598932Y-88381101D01*
X106732182Y-88131808D01*
X106814236Y-87861309D01*
X106841943Y-87580000D01*
X106814236Y-87298691D01*
X106732182Y-87028192D01*
X106598932Y-86778899D01*
X106419608Y-86560392D01*
X106201101Y-86381068D01*
X106068142Y-86310000D01*
X106201101Y-86238932D01*
X106419608Y-86059608D01*
X106598932Y-85841101D01*
X106732182Y-85591808D01*
X106814236Y-85321309D01*
X106841943Y-85040000D01*
X106814236Y-84758691D01*
X106732182Y-84488192D01*
X106598932Y-84238899D01*
X106419608Y-84020392D01*
X106306518Y-83927581D01*
X106324482Y-83925812D01*
X106444180Y-83889502D01*
X106554494Y-83830537D01*
X106651185Y-83751185D01*
X106730537Y-83654494D01*
X106789502Y-83544180D01*
X106825812Y-83424482D01*
X106838072Y-83300000D01*
X106838072Y-81700000D01*
X106825812Y-81575518D01*
X106789502Y-81455820D01*
X106730537Y-81345506D01*
X106651185Y-81248815D01*
X106554494Y-81169463D01*
X106444180Y-81110498D01*
X106324482Y-81074188D01*
X106200000Y-81061928D01*
X103800000Y-81061928D01*
X103675518Y-81074188D01*
X103555820Y-81110498D01*
X103445506Y-81169463D01*
X103348815Y-81248815D01*
X103269463Y-81345506D01*
X103210498Y-81455820D01*
X103174188Y-81575518D01*
X103161928Y-81700000D01*
X103161928Y-83300000D01*
X103174188Y-83424482D01*
X103210498Y-83544180D01*
X103269463Y-83654494D01*
X103348815Y-83751185D01*
X103438759Y-83825000D01*
X98457817Y-83825000D01*
X98329014Y-83719294D01*
X98071034Y-83581401D01*
X97791111Y-83496487D01*
X97572950Y-83475000D01*
X97427050Y-83475000D01*
X97208889Y-83496487D01*
X96928966Y-83581401D01*
X96670986Y-83719294D01*
X96444866Y-83904866D01*
X96259294Y-84130986D01*
X96121401Y-84388966D01*
X96036487Y-84668889D01*
X96007815Y-84960000D01*
X91135000Y-84960000D01*
X91135000Y-81417683D01*
X91204494Y-81380537D01*
X91301185Y-81301185D01*
X91380537Y-81204494D01*
X91417683Y-81135000D01*
X91794249Y-81135000D01*
X91850000Y-81140491D01*
X91905751Y-81135000D01*
X91905752Y-81135000D01*
X92072499Y-81118577D01*
X92286447Y-81053676D01*
X92483623Y-80948284D01*
X92656449Y-80806449D01*
X92691995Y-80763136D01*
X93763146Y-79691987D01*
X93806449Y-79656449D01*
X93847587Y-79606323D01*
X93948284Y-79483623D01*
X94053676Y-79286447D01*
X94118577Y-79072499D01*
X94140491Y-78850000D01*
X94135000Y-78794248D01*
X94135000Y-73555743D01*
X94140490Y-73499999D01*
X94135000Y-73444255D01*
X94135000Y-73444248D01*
X94118577Y-73277501D01*
X94053676Y-73063553D01*
X93948284Y-72866377D01*
X93806449Y-72693551D01*
X93763140Y-72658008D01*
X92721996Y-71616864D01*
X92686449Y-71573551D01*
X92513623Y-71431716D01*
X92316447Y-71326324D01*
X92102499Y-71261423D01*
X91935752Y-71245000D01*
X91935751Y-71245000D01*
X91880000Y-71239509D01*
X91824249Y-71245000D01*
X91135000Y-71245000D01*
X91135000Y-68328572D01*
X91239347Y-68133354D01*
X91315683Y-67881706D01*
X91341459Y-67620000D01*
X91315683Y-67358294D01*
X91239347Y-67106646D01*
X91115382Y-66874725D01*
X90948555Y-66671445D01*
X90745275Y-66504618D01*
X90513354Y-66380653D01*
X90261706Y-66304317D01*
X90065579Y-66285000D01*
X89934421Y-66285000D01*
X89738294Y-66304317D01*
X89486646Y-66380653D01*
X89254725Y-66504618D01*
X89051445Y-66671445D01*
X88884618Y-66874725D01*
X88760653Y-67106646D01*
X88684317Y-67358294D01*
X88658541Y-67620000D01*
X88684317Y-67881706D01*
X88760653Y-68133354D01*
X88865001Y-68328574D01*
X88865000Y-71422183D01*
X88759294Y-71550986D01*
X88621401Y-71808966D01*
X88536487Y-72088889D01*
X88507815Y-72380000D01*
X88536487Y-72671111D01*
X88621401Y-72951034D01*
X88759294Y-73209014D01*
X88944866Y-73435134D01*
X89170986Y-73620706D01*
X89225791Y-73650000D01*
X89170986Y-73679294D01*
X88944866Y-73864866D01*
X88759294Y-74090986D01*
X88621401Y-74348966D01*
X88536487Y-74628889D01*
X88507815Y-74920000D01*
X88536487Y-75211111D01*
X88621401Y-75491034D01*
X88759294Y-75749014D01*
X88865001Y-75877818D01*
X88865000Y-76445000D01*
X87555000Y-76445000D01*
X87555000Y-68325743D01*
X87560490Y-68269999D01*
X87555000Y-68214255D01*
X87555000Y-68214248D01*
X87538577Y-68047501D01*
X87473676Y-67833553D01*
X87368284Y-67636377D01*
X87226449Y-67463551D01*
X87183141Y-67428009D01*
X83659642Y-63904511D01*
X83704494Y-63880537D01*
X83801185Y-63801185D01*
X83880537Y-63704494D01*
X83939502Y-63594180D01*
X83975812Y-63474482D01*
X83988072Y-63350000D01*
X83988072Y-61650000D01*
X83975812Y-61525518D01*
X83939502Y-61405820D01*
X83880537Y-61295506D01*
X83801185Y-61198815D01*
X83713678Y-61127000D01*
X89283740Y-61127000D01*
X89367641Y-61183061D01*
G36*
X123225000Y-80110132D02*
G01*
X123225000Y-81384249D01*
X123219509Y-81440000D01*
X123225001Y-81495761D01*
X123225000Y-87489868D01*
X121729869Y-88985000D01*
X121279002Y-88985000D01*
X121201101Y-88921068D01*
X121068142Y-88850000D01*
X121201101Y-88778932D01*
X121419608Y-88599608D01*
X121598932Y-88381101D01*
X121732182Y-88131808D01*
X121814236Y-87861309D01*
X121841943Y-87580000D01*
X121814236Y-87298691D01*
X121732182Y-87028192D01*
X121598932Y-86778899D01*
X121419608Y-86560392D01*
X121201101Y-86381068D01*
X121068142Y-86310000D01*
X121201101Y-86238932D01*
X121419608Y-86059608D01*
X121598932Y-85841101D01*
X121732182Y-85591808D01*
X121814236Y-85321309D01*
X121841943Y-85040000D01*
X121814236Y-84758691D01*
X121732182Y-84488192D01*
X121598932Y-84238899D01*
X121419608Y-84020392D01*
X121306518Y-83927581D01*
X121324482Y-83925812D01*
X121444180Y-83889502D01*
X121554494Y-83830537D01*
X121651185Y-83751185D01*
X121730537Y-83654494D01*
X121789502Y-83544180D01*
X121825812Y-83424482D01*
X121838072Y-83300000D01*
X121835000Y-82785750D01*
X121676250Y-82627000D01*
X120127000Y-82627000D01*
X120127000Y-82647000D01*
X119873000Y-82647000D01*
X119873000Y-82627000D01*
X118323750Y-82627000D01*
X118165000Y-82785750D01*
X118161928Y-83300000D01*
X118174188Y-83424482D01*
X118210498Y-83544180D01*
X118269463Y-83654494D01*
X118348815Y-83751185D01*
X118445506Y-83830537D01*
X118555820Y-83889502D01*
X118606910Y-83905000D01*
X117415741Y-83905000D01*
X117359999Y-83899510D01*
X117304257Y-83905000D01*
X117304248Y-83905000D01*
X117137501Y-83921423D01*
X116923553Y-83986324D01*
X116726377Y-84091716D01*
X116553551Y-84233551D01*
X116518011Y-84276857D01*
X114349869Y-86445000D01*
X113899002Y-86445000D01*
X113821101Y-86381068D01*
X113688142Y-86310000D01*
X113821101Y-86238932D01*
X114039608Y-86059608D01*
X114218932Y-85841101D01*
X114352182Y-85591808D01*
X114434236Y-85321309D01*
X114437322Y-85289976D01*
X118183945Y-81543354D01*
X118174188Y-81575518D01*
X118161928Y-81700000D01*
X118165000Y-82214250D01*
X118323750Y-82373000D01*
X119873000Y-82373000D01*
X119873000Y-81223750D01*
X120127000Y-81223750D01*
X120127000Y-82373000D01*
X121676250Y-82373000D01*
X121835000Y-82214250D01*
X121838072Y-81700000D01*
X121825812Y-81575518D01*
X121789502Y-81455820D01*
X121730537Y-81345506D01*
X121651185Y-81248815D01*
X121554494Y-81169463D01*
X121444180Y-81110498D01*
X121324482Y-81074188D01*
X121200000Y-81061928D01*
X120285750Y-81065000D01*
X120127000Y-81223750D01*
X119873000Y-81223750D01*
X119714250Y-81065000D01*
X118800000Y-81061928D01*
X118675518Y-81074188D01*
X118555820Y-81110498D01*
X118513994Y-81132855D01*
X118553676Y-81058614D01*
X118618577Y-80844666D01*
X118635000Y-80677919D01*
X118635000Y-80677910D01*
X118640490Y-80622168D01*
X118635000Y-80566426D01*
X118635000Y-75520131D01*
X123225000Y-80110132D01*
X123225000Y-80110132D01*
G37*
X123225000Y-80110132D02*
X123225000Y-81384249D01*
X123219509Y-81440000D01*
X123225001Y-81495761D01*
X123225000Y-87489868D01*
X121729869Y-88985000D01*
X121279002Y-88985000D01*
X121201101Y-88921068D01*
X121068142Y-88850000D01*
X121201101Y-88778932D01*
X121419608Y-88599608D01*
X121598932Y-88381101D01*
X121732182Y-88131808D01*
X121814236Y-87861309D01*
X121841943Y-87580000D01*
X121814236Y-87298691D01*
X121732182Y-87028192D01*
X121598932Y-86778899D01*
X121419608Y-86560392D01*
X121201101Y-86381068D01*
X121068142Y-86310000D01*
X121201101Y-86238932D01*
X121419608Y-86059608D01*
X121598932Y-85841101D01*
X121732182Y-85591808D01*
X121814236Y-85321309D01*
X121841943Y-85040000D01*
X121814236Y-84758691D01*
X121732182Y-84488192D01*
X121598932Y-84238899D01*
X121419608Y-84020392D01*
X121306518Y-83927581D01*
X121324482Y-83925812D01*
X121444180Y-83889502D01*
X121554494Y-83830537D01*
X121651185Y-83751185D01*
X121730537Y-83654494D01*
X121789502Y-83544180D01*
X121825812Y-83424482D01*
X121838072Y-83300000D01*
X121835000Y-82785750D01*
X121676250Y-82627000D01*
X120127000Y-82627000D01*
X120127000Y-82647000D01*
X119873000Y-82647000D01*
X119873000Y-82627000D01*
X118323750Y-82627000D01*
X118165000Y-82785750D01*
X118161928Y-83300000D01*
X118174188Y-83424482D01*
X118210498Y-83544180D01*
X118269463Y-83654494D01*
X118348815Y-83751185D01*
X118445506Y-83830537D01*
X118555820Y-83889502D01*
X118606910Y-83905000D01*
X117415741Y-83905000D01*
X117359999Y-83899510D01*
X117304257Y-83905000D01*
X117304248Y-83905000D01*
X117137501Y-83921423D01*
X116923553Y-83986324D01*
X116726377Y-84091716D01*
X116553551Y-84233551D01*
X116518011Y-84276857D01*
X114349869Y-86445000D01*
X113899002Y-86445000D01*
X113821101Y-86381068D01*
X113688142Y-86310000D01*
X113821101Y-86238932D01*
X114039608Y-86059608D01*
X114218932Y-85841101D01*
X114352182Y-85591808D01*
X114434236Y-85321309D01*
X114437322Y-85289976D01*
X118183945Y-81543354D01*
X118174188Y-81575518D01*
X118161928Y-81700000D01*
X118165000Y-82214250D01*
X118323750Y-82373000D01*
X119873000Y-82373000D01*
X119873000Y-81223750D01*
X120127000Y-81223750D01*
X120127000Y-82373000D01*
X121676250Y-82373000D01*
X121835000Y-82214250D01*
X121838072Y-81700000D01*
X121825812Y-81575518D01*
X121789502Y-81455820D01*
X121730537Y-81345506D01*
X121651185Y-81248815D01*
X121554494Y-81169463D01*
X121444180Y-81110498D01*
X121324482Y-81074188D01*
X121200000Y-81061928D01*
X120285750Y-81065000D01*
X120127000Y-81223750D01*
X119873000Y-81223750D01*
X119714250Y-81065000D01*
X118800000Y-81061928D01*
X118675518Y-81074188D01*
X118555820Y-81110498D01*
X118513994Y-81132855D01*
X118553676Y-81058614D01*
X118618577Y-80844666D01*
X118635000Y-80677919D01*
X118635000Y-80677910D01*
X118640490Y-80622168D01*
X118635000Y-80566426D01*
X118635000Y-75520131D01*
X123225000Y-80110132D01*
G36*
X74873000Y-64947394D02*
G01*
X73447394Y-66373000D01*
X54652000Y-66373000D01*
X54652000Y-54503756D01*
X54976719Y-54720726D01*
X55946171Y-55122286D01*
X56975336Y-55327000D01*
X58024664Y-55327000D01*
X59053829Y-55122286D01*
X60023281Y-54720726D01*
X60895765Y-54137751D01*
X61637751Y-53395765D01*
X62220726Y-52523281D01*
X62622286Y-51553829D01*
X62827000Y-50524664D01*
X62827000Y-49475336D01*
X62622286Y-48446171D01*
X62220726Y-47476719D01*
X62003756Y-47152000D01*
X74873000Y-47152000D01*
X74873000Y-64947394D01*
X74873000Y-64947394D01*
G37*
X74873000Y-64947394D02*
X73447394Y-66373000D01*
X54652000Y-66373000D01*
X54652000Y-54503756D01*
X54976719Y-54720726D01*
X55946171Y-55122286D01*
X56975336Y-55327000D01*
X58024664Y-55327000D01*
X59053829Y-55122286D01*
X60023281Y-54720726D01*
X60895765Y-54137751D01*
X61637751Y-53395765D01*
X62220726Y-52523281D01*
X62622286Y-51553829D01*
X62827000Y-50524664D01*
X62827000Y-49475336D01*
X62622286Y-48446171D01*
X62220726Y-47476719D01*
X62003756Y-47152000D01*
X74873000Y-47152000D01*
X74873000Y-64947394D01*
G36*
X74873000Y-85552606D02*
G01*
X74873000Y-105348000D01*
X62003756Y-105348000D01*
X62220726Y-105023281D01*
X62622286Y-104053829D01*
X62827000Y-103024664D01*
X62827000Y-101975336D01*
X62622286Y-100946171D01*
X62220726Y-99976719D01*
X61637751Y-99104235D01*
X60895765Y-98362249D01*
X60023281Y-97779274D01*
X59053829Y-97377714D01*
X58024664Y-97173000D01*
X56975336Y-97173000D01*
X55946171Y-97377714D01*
X54976719Y-97779274D01*
X54652000Y-97996244D01*
X54652000Y-84127000D01*
X73447394Y-84127000D01*
X74873000Y-85552606D01*
X74873000Y-85552606D01*
G37*
X74873000Y-85552606D02*
X74873000Y-105348000D01*
X62003756Y-105348000D01*
X62220726Y-105023281D01*
X62622286Y-104053829D01*
X62827000Y-103024664D01*
X62827000Y-101975336D01*
X62622286Y-100946171D01*
X62220726Y-99976719D01*
X61637751Y-99104235D01*
X60895765Y-98362249D01*
X60023281Y-97779274D01*
X59053829Y-97377714D01*
X58024664Y-97173000D01*
X56975336Y-97173000D01*
X55946171Y-97377714D01*
X54976719Y-97779274D01*
X54652000Y-97996244D01*
X54652000Y-84127000D01*
X73447394Y-84127000D01*
X74873000Y-85552606D01*
G36*
X98865001Y-61615715D02*
G01*
X98728320Y-61820273D01*
X98620147Y-62081426D01*
X98565000Y-62358665D01*
X98565000Y-62641335D01*
X98620147Y-62918574D01*
X98728320Y-63179727D01*
X98865000Y-63384284D01*
X98865001Y-67944239D01*
X98859509Y-68000000D01*
X98881423Y-68222498D01*
X98946324Y-68436446D01*
X98980295Y-68500001D01*
X99051717Y-68633623D01*
X99193552Y-68806449D01*
X99236860Y-68841991D01*
X100180394Y-69785526D01*
X100398400Y-70076200D01*
X100415218Y-70094557D01*
X100435294Y-70109280D01*
X100457857Y-70119804D01*
X100482039Y-70125724D01*
X100500000Y-70127000D01*
X100521868Y-70127000D01*
X101158009Y-70763141D01*
X101193551Y-70806449D01*
X101366377Y-70948284D01*
X101563553Y-71053676D01*
X101727705Y-71103471D01*
X101777500Y-71118577D01*
X101999999Y-71140491D01*
X102055751Y-71135000D01*
X104240321Y-71135000D01*
X104312421Y-71194171D01*
X104513940Y-71301885D01*
X104732600Y-71368215D01*
X104960000Y-71390612D01*
X105187399Y-71368215D01*
X105406059Y-71301885D01*
X105594999Y-71200894D01*
X105783940Y-71301885D01*
X106002600Y-71368215D01*
X106230000Y-71390612D01*
X106457399Y-71368215D01*
X106666098Y-71304907D01*
X106730820Y-71339502D01*
X106850518Y-71375812D01*
X106975000Y-71388072D01*
X108025000Y-71388072D01*
X108149482Y-71375812D01*
X108269180Y-71339502D01*
X108379494Y-71280537D01*
X108476185Y-71201185D01*
X108555537Y-71104494D01*
X108614502Y-70994180D01*
X108650812Y-70874482D01*
X108663072Y-70750000D01*
X108663072Y-70127000D01*
X111065000Y-70127000D01*
X111065000Y-70141335D01*
X111120147Y-70418574D01*
X111228320Y-70679727D01*
X111385363Y-70914759D01*
X111585241Y-71114637D01*
X111820273Y-71271680D01*
X112081426Y-71379853D01*
X112358665Y-71435000D01*
X112641335Y-71435000D01*
X112918574Y-71379853D01*
X113179727Y-71271680D01*
X113414759Y-71114637D01*
X113614637Y-70914759D01*
X113771680Y-70679727D01*
X113879853Y-70418574D01*
X113935000Y-70141335D01*
X113935000Y-70127000D01*
X116065000Y-70127000D01*
X116065000Y-70141335D01*
X116120147Y-70418574D01*
X116202647Y-70617747D01*
X111447394Y-75373000D01*
X99552606Y-75373000D01*
X97127000Y-72947394D01*
X97127000Y-64000000D01*
X97124560Y-63975224D01*
X97117333Y-63951399D01*
X97105597Y-63929443D01*
X97084374Y-63905079D01*
X92627000Y-59942969D01*
X92627000Y-59627000D01*
X98865001Y-59627000D01*
X98865001Y-61615715D01*
X98865001Y-61615715D01*
G37*
X98865001Y-61615715D02*
X98728320Y-61820273D01*
X98620147Y-62081426D01*
X98565000Y-62358665D01*
X98565000Y-62641335D01*
X98620147Y-62918574D01*
X98728320Y-63179727D01*
X98865000Y-63384284D01*
X98865001Y-67944239D01*
X98859509Y-68000000D01*
X98881423Y-68222498D01*
X98946324Y-68436446D01*
X98980295Y-68500001D01*
X99051717Y-68633623D01*
X99193552Y-68806449D01*
X99236860Y-68841991D01*
X100180394Y-69785526D01*
X100398400Y-70076200D01*
X100415218Y-70094557D01*
X100435294Y-70109280D01*
X100457857Y-70119804D01*
X100482039Y-70125724D01*
X100500000Y-70127000D01*
X100521868Y-70127000D01*
X101158009Y-70763141D01*
X101193551Y-70806449D01*
X101366377Y-70948284D01*
X101563553Y-71053676D01*
X101727705Y-71103471D01*
X101777500Y-71118577D01*
X101999999Y-71140491D01*
X102055751Y-71135000D01*
X104240321Y-71135000D01*
X104312421Y-71194171D01*
X104513940Y-71301885D01*
X104732600Y-71368215D01*
X104960000Y-71390612D01*
X105187399Y-71368215D01*
X105406059Y-71301885D01*
X105594999Y-71200894D01*
X105783940Y-71301885D01*
X106002600Y-71368215D01*
X106230000Y-71390612D01*
X106457399Y-71368215D01*
X106666098Y-71304907D01*
X106730820Y-71339502D01*
X106850518Y-71375812D01*
X106975000Y-71388072D01*
X108025000Y-71388072D01*
X108149482Y-71375812D01*
X108269180Y-71339502D01*
X108379494Y-71280537D01*
X108476185Y-71201185D01*
X108555537Y-71104494D01*
X108614502Y-70994180D01*
X108650812Y-70874482D01*
X108663072Y-70750000D01*
X108663072Y-70127000D01*
X111065000Y-70127000D01*
X111065000Y-70141335D01*
X111120147Y-70418574D01*
X111228320Y-70679727D01*
X111385363Y-70914759D01*
X111585241Y-71114637D01*
X111820273Y-71271680D01*
X112081426Y-71379853D01*
X112358665Y-71435000D01*
X112641335Y-71435000D01*
X112918574Y-71379853D01*
X113179727Y-71271680D01*
X113414759Y-71114637D01*
X113614637Y-70914759D01*
X113771680Y-70679727D01*
X113879853Y-70418574D01*
X113935000Y-70141335D01*
X113935000Y-70127000D01*
X116065000Y-70127000D01*
X116065000Y-70141335D01*
X116120147Y-70418574D01*
X116202647Y-70617747D01*
X111447394Y-75373000D01*
X99552606Y-75373000D01*
X97127000Y-72947394D01*
X97127000Y-64000000D01*
X97124560Y-63975224D01*
X97117333Y-63951399D01*
X97105597Y-63929443D01*
X97084374Y-63905079D01*
X92627000Y-59942969D01*
X92627000Y-59627000D01*
X98865001Y-59627000D01*
X98865001Y-61615715D01*
M02*
