G04 #@! TF.GenerationSoftware,KiCad,Pcbnew,(5.1.9)-1*
G04 #@! TF.CreationDate,2021-05-01T23:11:57+02:00*
G04 #@! TF.ProjectId,usb_pcb,7573625f-7063-4622-9e6b-696361645f70,0*
G04 #@! TF.SameCoordinates,Original*
G04 #@! TF.FileFunction,Soldermask,Bot*
G04 #@! TF.FilePolarity,Negative*
%FSLAX46Y46*%
G04 Gerber Fmt 4.6, Leading zero omitted, Abs format (unit mm)*
G04 Created by KiCad (PCBNEW (5.1.9)-1) date 2021-05-01 23:11:57*
%MOMM*%
%LPD*%
G01*
G04 APERTURE LIST*
%ADD10C,0.902000*%
%ADD11C,6.502000*%
%ADD12O,1.802000X1.802000*%
%ADD13O,1.502000X1.502000*%
%ADD14C,1.502000*%
%ADD15O,1.152000X1.602000*%
%ADD16O,2.302000X2.302000*%
%ADD17C,1.702000*%
%ADD18O,2.502000X1.702000*%
%ADD19C,0.100000*%
G04 APERTURE END LIST*
D10*
X59197056Y-100802944D03*
X57500000Y-100100000D03*
X55802944Y-100802944D03*
X55100000Y-102500000D03*
X55802944Y-104197056D03*
X57500000Y-104900000D03*
X59197056Y-104197056D03*
X59900000Y-102500000D03*
D11*
X57500000Y-102500000D03*
D10*
X59197056Y-48302944D03*
X57500000Y-47600000D03*
X55802944Y-48302944D03*
X55100000Y-50000000D03*
X55802944Y-51697056D03*
X57500000Y-52400000D03*
X59197056Y-51697056D03*
X59900000Y-50000000D03*
D11*
X57500000Y-50000000D03*
D10*
X169197056Y-98302944D03*
X167500000Y-97600000D03*
X165802944Y-98302944D03*
X165100000Y-100000000D03*
X165802944Y-101697056D03*
X167500000Y-102400000D03*
X169197056Y-101697056D03*
X169900000Y-100000000D03*
D11*
X167500000Y-100000000D03*
D10*
X169197056Y-48302944D03*
X167500000Y-47600000D03*
X165802944Y-48302944D03*
X165100000Y-50000000D03*
X165802944Y-51697056D03*
X167500000Y-52400000D03*
X169197056Y-51697056D03*
X169900000Y-50000000D03*
D11*
X167500000Y-50000000D03*
D12*
X90000000Y-72380000D03*
X90000000Y-74920000D03*
X90000000Y-77460000D03*
G36*
G01*
X90901000Y-79150000D02*
X90901000Y-80850000D01*
G75*
G02*
X90850000Y-80901000I-51000J0D01*
G01*
X89150000Y-80901000D01*
G75*
G02*
X89099000Y-80850000I0J51000D01*
G01*
X89099000Y-79150000D01*
G75*
G02*
X89150000Y-79099000I51000J0D01*
G01*
X90850000Y-79099000D01*
G75*
G02*
X90901000Y-79150000I0J-51000D01*
G01*
G37*
X170000000Y-74960000D03*
X170000000Y-77500000D03*
X170000000Y-80040000D03*
X170000000Y-82580000D03*
X170000000Y-85120000D03*
X170000000Y-87660000D03*
X170000000Y-90200000D03*
G36*
G01*
X170901000Y-91890000D02*
X170901000Y-93590000D01*
G75*
G02*
X170850000Y-93641000I-51000J0D01*
G01*
X169150000Y-93641000D01*
G75*
G02*
X169099000Y-93590000I0J51000D01*
G01*
X169099000Y-91890000D01*
G75*
G02*
X169150000Y-91839000I51000J0D01*
G01*
X170850000Y-91839000D01*
G75*
G02*
X170901000Y-91890000I0J-51000D01*
G01*
G37*
X132620000Y-100000000D03*
X130080000Y-100000000D03*
X127540000Y-100000000D03*
X125000000Y-100000000D03*
X122460000Y-100000000D03*
X119920000Y-100000000D03*
X117380000Y-100000000D03*
G36*
G01*
X115690000Y-100901000D02*
X113990000Y-100901000D01*
G75*
G02*
X113939000Y-100850000I0J51000D01*
G01*
X113939000Y-99150000D01*
G75*
G02*
X113990000Y-99099000I51000J0D01*
G01*
X115690000Y-99099000D01*
G75*
G02*
X115741000Y-99150000I0J-51000D01*
G01*
X115741000Y-100850000D01*
G75*
G02*
X115690000Y-100901000I-51000J0D01*
G01*
G37*
D13*
X107380000Y-57500000D03*
D14*
X115000000Y-57500000D03*
D12*
X112540000Y-50000000D03*
G36*
G01*
X110850000Y-50901000D02*
X109150000Y-50901000D01*
G75*
G02*
X109099000Y-50850000I0J51000D01*
G01*
X109099000Y-49150000D01*
G75*
G02*
X109150000Y-49099000I51000J0D01*
G01*
X110850000Y-49099000D01*
G75*
G02*
X110901000Y-49150000I0J-51000D01*
G01*
X110901000Y-50850000D01*
G75*
G02*
X110850000Y-50901000I-51000J0D01*
G01*
G37*
X102540000Y-57500000D03*
G36*
G01*
X100850000Y-58401000D02*
X99150000Y-58401000D01*
G75*
G02*
X99099000Y-58350000I0J51000D01*
G01*
X99099000Y-56650000D01*
G75*
G02*
X99150000Y-56599000I51000J0D01*
G01*
X100850000Y-56599000D01*
G75*
G02*
X100901000Y-56650000I0J-51000D01*
G01*
X100901000Y-58350000D01*
G75*
G02*
X100850000Y-58401000I-51000J0D01*
G01*
G37*
X102540000Y-50000000D03*
G36*
G01*
X100850000Y-50901000D02*
X99150000Y-50901000D01*
G75*
G02*
X99099000Y-50850000I0J51000D01*
G01*
X99099000Y-49150000D01*
G75*
G02*
X99150000Y-49099000I51000J0D01*
G01*
X100850000Y-49099000D01*
G75*
G02*
X100901000Y-49150000I0J-51000D01*
G01*
X100901000Y-50850000D01*
G75*
G02*
X100850000Y-50901000I-51000J0D01*
G01*
G37*
X139960000Y-102500000D03*
G36*
G01*
X141650000Y-101599000D02*
X143350000Y-101599000D01*
G75*
G02*
X143401000Y-101650000I0J-51000D01*
G01*
X143401000Y-103350000D01*
G75*
G02*
X143350000Y-103401000I-51000J0D01*
G01*
X141650000Y-103401000D01*
G75*
G02*
X141599000Y-103350000I0J51000D01*
G01*
X141599000Y-101650000D01*
G75*
G02*
X141650000Y-101599000I51000J0D01*
G01*
G37*
X97500000Y-84960000D03*
G36*
G01*
X98401000Y-86650000D02*
X98401000Y-88350000D01*
G75*
G02*
X98350000Y-88401000I-51000J0D01*
G01*
X96650000Y-88401000D01*
G75*
G02*
X96599000Y-88350000I0J51000D01*
G01*
X96599000Y-86650000D01*
G75*
G02*
X96650000Y-86599000I51000J0D01*
G01*
X98350000Y-86599000D01*
G75*
G02*
X98401000Y-86650000I0J-51000D01*
G01*
G37*
X104040000Y-100000000D03*
G36*
G01*
X102350000Y-100901000D02*
X100650000Y-100901000D01*
G75*
G02*
X100599000Y-100850000I0J51000D01*
G01*
X100599000Y-99150000D01*
G75*
G02*
X100650000Y-99099000I51000J0D01*
G01*
X102350000Y-99099000D01*
G75*
G02*
X102401000Y-99150000I0J-51000D01*
G01*
X102401000Y-100850000D01*
G75*
G02*
X102350000Y-100901000I-51000J0D01*
G01*
G37*
X55000000Y-75040000D03*
G36*
G01*
X54099000Y-73350000D02*
X54099000Y-71650000D01*
G75*
G02*
X54150000Y-71599000I51000J0D01*
G01*
X55850000Y-71599000D01*
G75*
G02*
X55901000Y-71650000I0J-51000D01*
G01*
X55901000Y-73350000D01*
G75*
G02*
X55850000Y-73401000I-51000J0D01*
G01*
X54150000Y-73401000D01*
G75*
G02*
X54099000Y-73350000I0J51000D01*
G01*
G37*
G36*
G01*
X108076000Y-69250000D02*
X108076000Y-70750000D01*
G75*
G02*
X108025000Y-70801000I-51000J0D01*
G01*
X106975000Y-70801000D01*
G75*
G02*
X106924000Y-70750000I0J51000D01*
G01*
X106924000Y-69250000D01*
G75*
G02*
X106975000Y-69199000I51000J0D01*
G01*
X108025000Y-69199000D01*
G75*
G02*
X108076000Y-69250000I0J-51000D01*
G01*
G37*
D15*
X104960000Y-70000000D03*
X106230000Y-70000000D03*
D13*
X165120000Y-67500000D03*
D14*
X157500000Y-67500000D03*
D13*
X157380000Y-62500000D03*
D14*
X165000000Y-62500000D03*
D13*
X67500000Y-72380000D03*
D14*
X67500000Y-80000000D03*
D16*
X62500000Y-69840000D03*
G36*
G01*
X63600000Y-81151000D02*
X61400000Y-81151000D01*
G75*
G02*
X61349000Y-81100000I0J51000D01*
G01*
X61349000Y-78900000D01*
G75*
G02*
X61400000Y-78849000I51000J0D01*
G01*
X63600000Y-78849000D01*
G75*
G02*
X63651000Y-78900000I0J-51000D01*
G01*
X63651000Y-81100000D01*
G75*
G02*
X63600000Y-81151000I-51000J0D01*
G01*
G37*
D17*
X105000000Y-62500000D03*
X100000000Y-62500000D03*
D18*
X160120000Y-75000000D03*
X152500000Y-90240000D03*
X160120000Y-77540000D03*
X152500000Y-87700000D03*
X160120000Y-80080000D03*
X152500000Y-85160000D03*
X160120000Y-82620000D03*
X152500000Y-82620000D03*
X160120000Y-85160000D03*
X152500000Y-80080000D03*
X160120000Y-87700000D03*
X152500000Y-77540000D03*
X160120000Y-90240000D03*
G36*
G01*
X151249000Y-75800000D02*
X151249000Y-74200000D01*
G75*
G02*
X151300000Y-74149000I51000J0D01*
G01*
X153700000Y-74149000D01*
G75*
G02*
X153751000Y-74200000I0J-51000D01*
G01*
X153751000Y-75800000D01*
G75*
G02*
X153700000Y-75851000I-51000J0D01*
G01*
X151300000Y-75851000D01*
G75*
G02*
X151249000Y-75800000I0J51000D01*
G01*
G37*
X112620000Y-82500000D03*
X105000000Y-90120000D03*
X112620000Y-85040000D03*
X105000000Y-87580000D03*
X112620000Y-87580000D03*
X105000000Y-85040000D03*
X112620000Y-90120000D03*
G36*
G01*
X103749000Y-83300000D02*
X103749000Y-81700000D01*
G75*
G02*
X103800000Y-81649000I51000J0D01*
G01*
X106200000Y-81649000D01*
G75*
G02*
X106251000Y-81700000I0J-51000D01*
G01*
X106251000Y-83300000D01*
G75*
G02*
X106200000Y-83351000I-51000J0D01*
G01*
X103800000Y-83351000D01*
G75*
G02*
X103749000Y-83300000I0J51000D01*
G01*
G37*
X82620000Y-72500000D03*
X75000000Y-77580000D03*
X82620000Y-75040000D03*
X75000000Y-75040000D03*
X82620000Y-77580000D03*
G36*
G01*
X73749000Y-73300000D02*
X73749000Y-71700000D01*
G75*
G02*
X73800000Y-71649000I51000J0D01*
G01*
X76200000Y-71649000D01*
G75*
G02*
X76251000Y-71700000I0J-51000D01*
G01*
X76251000Y-73300000D01*
G75*
G02*
X76200000Y-73351000I-51000J0D01*
G01*
X73800000Y-73351000D01*
G75*
G02*
X73749000Y-73300000I0J51000D01*
G01*
G37*
X127620000Y-82500000D03*
X120000000Y-90120000D03*
X127620000Y-85040000D03*
X120000000Y-87580000D03*
X127620000Y-87580000D03*
X120000000Y-85040000D03*
X127620000Y-90120000D03*
G36*
G01*
X118749000Y-83300000D02*
X118749000Y-81700000D01*
G75*
G02*
X118800000Y-81649000I51000J0D01*
G01*
X121200000Y-81649000D01*
G75*
G02*
X121251000Y-81700000I0J-51000D01*
G01*
X121251000Y-83300000D01*
G75*
G02*
X121200000Y-83351000I-51000J0D01*
G01*
X118800000Y-83351000D01*
G75*
G02*
X118749000Y-83300000I0J51000D01*
G01*
G37*
D13*
X90000000Y-95120000D03*
D14*
X90000000Y-87500000D03*
D13*
X90000000Y-67620000D03*
D14*
X90000000Y-60000000D03*
D13*
X140000000Y-85120000D03*
D14*
X140000000Y-77500000D03*
D13*
X82500000Y-87380000D03*
D14*
X82500000Y-95000000D03*
D13*
X127380000Y-75000000D03*
D14*
X135000000Y-75000000D03*
D13*
X140000000Y-97620000D03*
D14*
X140000000Y-90000000D03*
D17*
X117500000Y-65000000D03*
X117500000Y-70000000D03*
X112500000Y-65000000D03*
X112500000Y-70000000D03*
X127500000Y-65000000D03*
X127500000Y-70000000D03*
X145000000Y-82500000D03*
X145000000Y-77500000D03*
X132500000Y-85000000D03*
X132500000Y-90000000D03*
D19*
G36*
X106925084Y-69366979D02*
G01*
X106926000Y-69368660D01*
X106926000Y-70631340D01*
X106925000Y-70633072D01*
X106923000Y-70633072D01*
X106922010Y-70631536D01*
X106919628Y-70607349D01*
X106912628Y-70584274D01*
X106901263Y-70563010D01*
X106885968Y-70544373D01*
X106867331Y-70529078D01*
X106846067Y-70517713D01*
X106822992Y-70510713D01*
X106799001Y-70508350D01*
X106775010Y-70510713D01*
X106751935Y-70517713D01*
X106730715Y-70529055D01*
X106706757Y-70550769D01*
X106704802Y-70551191D01*
X106703459Y-70549709D01*
X106703868Y-70548018D01*
X106707255Y-70543892D01*
X106760298Y-70444657D01*
X106792962Y-70336977D01*
X106804000Y-70224906D01*
X106804000Y-69775095D01*
X106792962Y-69663023D01*
X106760298Y-69555343D01*
X106707255Y-69456108D01*
X106705170Y-69453568D01*
X106704844Y-69451594D01*
X106706390Y-69450326D01*
X106708130Y-69450885D01*
X106720976Y-69463731D01*
X106741024Y-69477126D01*
X106763297Y-69486353D01*
X106786948Y-69491057D01*
X106811054Y-69491057D01*
X106834704Y-69486353D01*
X106856978Y-69477126D01*
X106877025Y-69463732D01*
X106894072Y-69446685D01*
X106907467Y-69426637D01*
X106916694Y-69404364D01*
X106921407Y-69380667D01*
X106922002Y-69368562D01*
X106923086Y-69366881D01*
X106925084Y-69366979D01*
G37*
G36*
X105489836Y-69546013D02*
G01*
X105499929Y-69561118D01*
X105516976Y-69578165D01*
X105537024Y-69591560D01*
X105559298Y-69600786D01*
X105582948Y-69605490D01*
X105607054Y-69605490D01*
X105630704Y-69600785D01*
X105652978Y-69591559D01*
X105673025Y-69578164D01*
X105690072Y-69561117D01*
X105700164Y-69546013D01*
X105701958Y-69545128D01*
X105703621Y-69546239D01*
X105703591Y-69548067D01*
X105699702Y-69555343D01*
X105667038Y-69663023D01*
X105656000Y-69775094D01*
X105656000Y-70224906D01*
X105667038Y-70336976D01*
X105699702Y-70444656D01*
X105703591Y-70451932D01*
X105703525Y-70453931D01*
X105701762Y-70454874D01*
X105700164Y-70453986D01*
X105690071Y-70438881D01*
X105673024Y-70421834D01*
X105652976Y-70408439D01*
X105630702Y-70399213D01*
X105607052Y-70394509D01*
X105582946Y-70394509D01*
X105559296Y-70399214D01*
X105537022Y-70408440D01*
X105516975Y-70421835D01*
X105499928Y-70438882D01*
X105489839Y-70453982D01*
X105488045Y-70454867D01*
X105486382Y-70453756D01*
X105486412Y-70451928D01*
X105490298Y-70444657D01*
X105522962Y-70336977D01*
X105534000Y-70224906D01*
X105534000Y-69775095D01*
X105522962Y-69663023D01*
X105490298Y-69555343D01*
X105486409Y-69548067D01*
X105486475Y-69546068D01*
X105488238Y-69545125D01*
X105489836Y-69546013D01*
G37*
M02*
