G04 #@! TF.GenerationSoftware,KiCad,Pcbnew,(5.1.9)-1*
G04 #@! TF.CreationDate,2021-05-02T21:25:52+02:00*
G04 #@! TF.ProjectId,usb_pcb,7573625f-7063-4622-9e6b-696361645f70,0*
G04 #@! TF.SameCoordinates,Original*
G04 #@! TF.FileFunction,Soldermask,Bot*
G04 #@! TF.FilePolarity,Negative*
%FSLAX46Y46*%
G04 Gerber Fmt 4.6, Leading zero omitted, Abs format (unit mm)*
G04 Created by KiCad (PCBNEW (5.1.9)-1) date 2021-05-02 21:25:52*
%MOMM*%
%LPD*%
G01*
G04 APERTURE LIST*
%ADD10C,0.902000*%
%ADD11C,6.502000*%
%ADD12O,1.802000X1.802000*%
%ADD13O,1.502000X1.502000*%
%ADD14C,1.502000*%
%ADD15O,1.602000X1.152000*%
%ADD16O,2.302000X2.302000*%
%ADD17C,1.702000*%
%ADD18O,2.502000X1.702000*%
%ADD19C,0.100000*%
G04 APERTURE END LIST*
D10*
X59197056Y-100802944D03*
X57500000Y-100100000D03*
X55802944Y-100802944D03*
X55100000Y-102500000D03*
X55802944Y-104197056D03*
X57500000Y-104900000D03*
X59197056Y-104197056D03*
X59900000Y-102500000D03*
D11*
X57500000Y-102500000D03*
D10*
X59197056Y-48302944D03*
X57500000Y-47600000D03*
X55802944Y-48302944D03*
X55100000Y-50000000D03*
X55802944Y-51697056D03*
X57500000Y-52400000D03*
X59197056Y-51697056D03*
X59900000Y-50000000D03*
D11*
X57500000Y-50000000D03*
D10*
X169197056Y-98302944D03*
X167500000Y-97600000D03*
X165802944Y-98302944D03*
X165100000Y-100000000D03*
X165802944Y-101697056D03*
X167500000Y-102400000D03*
X169197056Y-101697056D03*
X169900000Y-100000000D03*
D11*
X167500000Y-100000000D03*
D10*
X169197056Y-48302944D03*
X167500000Y-47600000D03*
X165802944Y-48302944D03*
X165100000Y-50000000D03*
X165802944Y-51697056D03*
X167500000Y-52400000D03*
X169197056Y-51697056D03*
X169900000Y-50000000D03*
D11*
X167500000Y-50000000D03*
D12*
X90000000Y-72380000D03*
X90000000Y-74920000D03*
X90000000Y-77460000D03*
G36*
G01*
X90901000Y-79150000D02*
X90901000Y-80850000D01*
G75*
G02*
X90850000Y-80901000I-51000J0D01*
G01*
X89150000Y-80901000D01*
G75*
G02*
X89099000Y-80850000I0J51000D01*
G01*
X89099000Y-79150000D01*
G75*
G02*
X89150000Y-79099000I51000J0D01*
G01*
X90850000Y-79099000D01*
G75*
G02*
X90901000Y-79150000I0J-51000D01*
G01*
G37*
X170000000Y-74960000D03*
X170000000Y-77500000D03*
X170000000Y-80040000D03*
X170000000Y-82580000D03*
X170000000Y-85120000D03*
X170000000Y-87660000D03*
X170000000Y-90200000D03*
G36*
G01*
X170901000Y-91890000D02*
X170901000Y-93590000D01*
G75*
G02*
X170850000Y-93641000I-51000J0D01*
G01*
X169150000Y-93641000D01*
G75*
G02*
X169099000Y-93590000I0J51000D01*
G01*
X169099000Y-91890000D01*
G75*
G02*
X169150000Y-91839000I51000J0D01*
G01*
X170850000Y-91839000D01*
G75*
G02*
X170901000Y-91890000I0J-51000D01*
G01*
G37*
X132620000Y-100000000D03*
X130080000Y-100000000D03*
X127540000Y-100000000D03*
X125000000Y-100000000D03*
X122460000Y-100000000D03*
X119920000Y-100000000D03*
X117380000Y-100000000D03*
G36*
G01*
X115690000Y-100901000D02*
X113990000Y-100901000D01*
G75*
G02*
X113939000Y-100850000I0J51000D01*
G01*
X113939000Y-99150000D01*
G75*
G02*
X113990000Y-99099000I51000J0D01*
G01*
X115690000Y-99099000D01*
G75*
G02*
X115741000Y-99150000I0J-51000D01*
G01*
X115741000Y-100850000D01*
G75*
G02*
X115690000Y-100901000I-51000J0D01*
G01*
G37*
D13*
X106620000Y-58000000D03*
D14*
X99000000Y-58000000D03*
D12*
X98960000Y-52000000D03*
G36*
G01*
X100650000Y-51099000D02*
X102350000Y-51099000D01*
G75*
G02*
X102401000Y-51150000I0J-51000D01*
G01*
X102401000Y-52850000D01*
G75*
G02*
X102350000Y-52901000I-51000J0D01*
G01*
X100650000Y-52901000D01*
G75*
G02*
X100599000Y-52850000I0J51000D01*
G01*
X100599000Y-51150000D01*
G75*
G02*
X100650000Y-51099000I51000J0D01*
G01*
G37*
X111460000Y-58000000D03*
G36*
G01*
X113150000Y-57099000D02*
X114850000Y-57099000D01*
G75*
G02*
X114901000Y-57150000I0J-51000D01*
G01*
X114901000Y-58850000D01*
G75*
G02*
X114850000Y-58901000I-51000J0D01*
G01*
X113150000Y-58901000D01*
G75*
G02*
X113099000Y-58850000I0J51000D01*
G01*
X113099000Y-57150000D01*
G75*
G02*
X113150000Y-57099000I51000J0D01*
G01*
G37*
X111460000Y-52000000D03*
G36*
G01*
X113150000Y-51099000D02*
X114850000Y-51099000D01*
G75*
G02*
X114901000Y-51150000I0J-51000D01*
G01*
X114901000Y-52850000D01*
G75*
G02*
X114850000Y-52901000I-51000J0D01*
G01*
X113150000Y-52901000D01*
G75*
G02*
X113099000Y-52850000I0J51000D01*
G01*
X113099000Y-51150000D01*
G75*
G02*
X113150000Y-51099000I51000J0D01*
G01*
G37*
X139960000Y-102500000D03*
G36*
G01*
X141650000Y-101599000D02*
X143350000Y-101599000D01*
G75*
G02*
X143401000Y-101650000I0J-51000D01*
G01*
X143401000Y-103350000D01*
G75*
G02*
X143350000Y-103401000I-51000J0D01*
G01*
X141650000Y-103401000D01*
G75*
G02*
X141599000Y-103350000I0J51000D01*
G01*
X141599000Y-101650000D01*
G75*
G02*
X141650000Y-101599000I51000J0D01*
G01*
G37*
X97500000Y-84960000D03*
G36*
G01*
X98401000Y-86650000D02*
X98401000Y-88350000D01*
G75*
G02*
X98350000Y-88401000I-51000J0D01*
G01*
X96650000Y-88401000D01*
G75*
G02*
X96599000Y-88350000I0J51000D01*
G01*
X96599000Y-86650000D01*
G75*
G02*
X96650000Y-86599000I51000J0D01*
G01*
X98350000Y-86599000D01*
G75*
G02*
X98401000Y-86650000I0J-51000D01*
G01*
G37*
X104040000Y-100000000D03*
G36*
G01*
X102350000Y-100901000D02*
X100650000Y-100901000D01*
G75*
G02*
X100599000Y-100850000I0J51000D01*
G01*
X100599000Y-99150000D01*
G75*
G02*
X100650000Y-99099000I51000J0D01*
G01*
X102350000Y-99099000D01*
G75*
G02*
X102401000Y-99150000I0J-51000D01*
G01*
X102401000Y-100850000D01*
G75*
G02*
X102350000Y-100901000I-51000J0D01*
G01*
G37*
X55000000Y-75040000D03*
G36*
G01*
X54099000Y-73350000D02*
X54099000Y-71650000D01*
G75*
G02*
X54150000Y-71599000I51000J0D01*
G01*
X55850000Y-71599000D01*
G75*
G02*
X55901000Y-71650000I0J-51000D01*
G01*
X55901000Y-73350000D01*
G75*
G02*
X55850000Y-73401000I-51000J0D01*
G01*
X54150000Y-73401000D01*
G75*
G02*
X54099000Y-73350000I0J51000D01*
G01*
G37*
G36*
G01*
X107750000Y-70576000D02*
X106250000Y-70576000D01*
G75*
G02*
X106199000Y-70525000I0J51000D01*
G01*
X106199000Y-69475000D01*
G75*
G02*
X106250000Y-69424000I51000J0D01*
G01*
X107750000Y-69424000D01*
G75*
G02*
X107801000Y-69475000I0J-51000D01*
G01*
X107801000Y-70525000D01*
G75*
G02*
X107750000Y-70576000I-51000J0D01*
G01*
G37*
D15*
X107000000Y-67460000D03*
X107000000Y-68730000D03*
D13*
X165120000Y-67500000D03*
D14*
X157500000Y-67500000D03*
D13*
X157380000Y-62500000D03*
D14*
X165000000Y-62500000D03*
D13*
X67500000Y-72380000D03*
D14*
X67500000Y-80000000D03*
D16*
X62500000Y-69840000D03*
G36*
G01*
X63600000Y-81151000D02*
X61400000Y-81151000D01*
G75*
G02*
X61349000Y-81100000I0J51000D01*
G01*
X61349000Y-78900000D01*
G75*
G02*
X61400000Y-78849000I51000J0D01*
G01*
X63600000Y-78849000D01*
G75*
G02*
X63651000Y-78900000I0J-51000D01*
G01*
X63651000Y-81100000D01*
G75*
G02*
X63600000Y-81151000I-51000J0D01*
G01*
G37*
D17*
X99000000Y-63000000D03*
X104000000Y-63000000D03*
D18*
X160120000Y-75000000D03*
X152500000Y-90240000D03*
X160120000Y-77540000D03*
X152500000Y-87700000D03*
X160120000Y-80080000D03*
X152500000Y-85160000D03*
X160120000Y-82620000D03*
X152500000Y-82620000D03*
X160120000Y-85160000D03*
X152500000Y-80080000D03*
X160120000Y-87700000D03*
X152500000Y-77540000D03*
X160120000Y-90240000D03*
G36*
G01*
X151249000Y-75800000D02*
X151249000Y-74200000D01*
G75*
G02*
X151300000Y-74149000I51000J0D01*
G01*
X153700000Y-74149000D01*
G75*
G02*
X153751000Y-74200000I0J-51000D01*
G01*
X153751000Y-75800000D01*
G75*
G02*
X153700000Y-75851000I-51000J0D01*
G01*
X151300000Y-75851000D01*
G75*
G02*
X151249000Y-75800000I0J51000D01*
G01*
G37*
X112620000Y-82500000D03*
X105000000Y-90120000D03*
X112620000Y-85040000D03*
X105000000Y-87580000D03*
X112620000Y-87580000D03*
X105000000Y-85040000D03*
X112620000Y-90120000D03*
G36*
G01*
X103749000Y-83300000D02*
X103749000Y-81700000D01*
G75*
G02*
X103800000Y-81649000I51000J0D01*
G01*
X106200000Y-81649000D01*
G75*
G02*
X106251000Y-81700000I0J-51000D01*
G01*
X106251000Y-83300000D01*
G75*
G02*
X106200000Y-83351000I-51000J0D01*
G01*
X103800000Y-83351000D01*
G75*
G02*
X103749000Y-83300000I0J51000D01*
G01*
G37*
X82620000Y-72500000D03*
X75000000Y-77580000D03*
X82620000Y-75040000D03*
X75000000Y-75040000D03*
X82620000Y-77580000D03*
G36*
G01*
X73749000Y-73300000D02*
X73749000Y-71700000D01*
G75*
G02*
X73800000Y-71649000I51000J0D01*
G01*
X76200000Y-71649000D01*
G75*
G02*
X76251000Y-71700000I0J-51000D01*
G01*
X76251000Y-73300000D01*
G75*
G02*
X76200000Y-73351000I-51000J0D01*
G01*
X73800000Y-73351000D01*
G75*
G02*
X73749000Y-73300000I0J51000D01*
G01*
G37*
X127620000Y-82500000D03*
X120000000Y-90120000D03*
X127620000Y-85040000D03*
X120000000Y-87580000D03*
X127620000Y-87580000D03*
X120000000Y-85040000D03*
X127620000Y-90120000D03*
G36*
G01*
X118749000Y-83300000D02*
X118749000Y-81700000D01*
G75*
G02*
X118800000Y-81649000I51000J0D01*
G01*
X121200000Y-81649000D01*
G75*
G02*
X121251000Y-81700000I0J-51000D01*
G01*
X121251000Y-83300000D01*
G75*
G02*
X121200000Y-83351000I-51000J0D01*
G01*
X118800000Y-83351000D01*
G75*
G02*
X118749000Y-83300000I0J51000D01*
G01*
G37*
D13*
X90000000Y-95120000D03*
D14*
X90000000Y-87500000D03*
D13*
X90000000Y-67620000D03*
D14*
X90000000Y-60000000D03*
D13*
X140000000Y-85120000D03*
D14*
X140000000Y-77500000D03*
D13*
X82500000Y-87380000D03*
D14*
X82500000Y-95000000D03*
D13*
X127380000Y-75000000D03*
D14*
X135000000Y-75000000D03*
D13*
X140000000Y-97620000D03*
D14*
X140000000Y-90000000D03*
D17*
X117500000Y-65000000D03*
X117500000Y-70000000D03*
X112500000Y-65000000D03*
X112500000Y-70000000D03*
X127500000Y-65000000D03*
X127500000Y-70000000D03*
X145000000Y-82500000D03*
X145000000Y-77500000D03*
X132500000Y-85000000D03*
X132500000Y-90000000D03*
D19*
G36*
X107549674Y-69206390D02*
G01*
X107549115Y-69208130D01*
X107536269Y-69220976D01*
X107522874Y-69241024D01*
X107513647Y-69263297D01*
X107508943Y-69286948D01*
X107508943Y-69311054D01*
X107513647Y-69334704D01*
X107522874Y-69356978D01*
X107536268Y-69377025D01*
X107553315Y-69394072D01*
X107573363Y-69407467D01*
X107595636Y-69416694D01*
X107619333Y-69421407D01*
X107631438Y-69422002D01*
X107633119Y-69423086D01*
X107633021Y-69425084D01*
X107631340Y-69426000D01*
X106368660Y-69426000D01*
X106366928Y-69425000D01*
X106366928Y-69423000D01*
X106368464Y-69422010D01*
X106392651Y-69419628D01*
X106415726Y-69412628D01*
X106436990Y-69401263D01*
X106455627Y-69385968D01*
X106470922Y-69367331D01*
X106482287Y-69346067D01*
X106489287Y-69322992D01*
X106491650Y-69299001D01*
X106489287Y-69275010D01*
X106482287Y-69251935D01*
X106470922Y-69230671D01*
X106455595Y-69211995D01*
X106454123Y-69210661D01*
X106453511Y-69208757D01*
X106454854Y-69207275D01*
X106456409Y-69207415D01*
X106555343Y-69260298D01*
X106663023Y-69292962D01*
X106775094Y-69304000D01*
X107224906Y-69304000D01*
X107336977Y-69292962D01*
X107444657Y-69260298D01*
X107543892Y-69207255D01*
X107546432Y-69205170D01*
X107548406Y-69204844D01*
X107549674Y-69206390D01*
G37*
G36*
X106548067Y-67986409D02*
G01*
X106555343Y-67990298D01*
X106663023Y-68022962D01*
X106775094Y-68034000D01*
X107224906Y-68034000D01*
X107336977Y-68022962D01*
X107444657Y-67990298D01*
X107451933Y-67986409D01*
X107453932Y-67986475D01*
X107454875Y-67988238D01*
X107453987Y-67989836D01*
X107438882Y-67999929D01*
X107421835Y-68016976D01*
X107408440Y-68037024D01*
X107399214Y-68059298D01*
X107394510Y-68082948D01*
X107394510Y-68107054D01*
X107399215Y-68130704D01*
X107408441Y-68152978D01*
X107421836Y-68173025D01*
X107438883Y-68190072D01*
X107453987Y-68200164D01*
X107454872Y-68201958D01*
X107453761Y-68203621D01*
X107451933Y-68203591D01*
X107444657Y-68199702D01*
X107336977Y-68167038D01*
X107224906Y-68156000D01*
X106775094Y-68156000D01*
X106663023Y-68167038D01*
X106555343Y-68199702D01*
X106548067Y-68203591D01*
X106546068Y-68203525D01*
X106545125Y-68201762D01*
X106546013Y-68200164D01*
X106561118Y-68190071D01*
X106578165Y-68173024D01*
X106591560Y-68152976D01*
X106600786Y-68130702D01*
X106605490Y-68107052D01*
X106605490Y-68082946D01*
X106600785Y-68059296D01*
X106591559Y-68037022D01*
X106578164Y-68016975D01*
X106561117Y-67999928D01*
X106546013Y-67989836D01*
X106545128Y-67988042D01*
X106546239Y-67986379D01*
X106548067Y-67986409D01*
G37*
M02*
