G04 #@! TF.GenerationSoftware,KiCad,Pcbnew,5.1.4+dfsg1-1*
G04 #@! TF.CreationDate,2020-06-16T22:38:04+02:00*
G04 #@! TF.ProjectId,usb_pcb,7573625f-7063-4622-9e6b-696361645f70,0*
G04 #@! TF.SameCoordinates,Original*
G04 #@! TF.FileFunction,Legend,Top*
G04 #@! TF.FilePolarity,Positive*
%FSLAX46Y46*%
G04 Gerber Fmt 4.6, Leading zero omitted, Abs format (unit mm)*
G04 Created by KiCad (PCBNEW 5.1.4+dfsg1-1) date 2020-06-16 22:38:04*
%MOMM*%
%LPD*%
G04 APERTURE LIST*
%ADD10C,0.120000*%
%ADD11C,0.150000*%
G04 APERTURE END LIST*
D10*
X91330000Y-81330000D02*
X90000000Y-81330000D01*
X91330000Y-80000000D02*
X91330000Y-81330000D01*
X91330000Y-78730000D02*
X88670000Y-78730000D01*
X88670000Y-78730000D02*
X88670000Y-71050000D01*
X91330000Y-78730000D02*
X91330000Y-71050000D01*
X91330000Y-71050000D02*
X88670000Y-71050000D01*
X171330000Y-94070000D02*
X170000000Y-94070000D01*
X171330000Y-92740000D02*
X171330000Y-94070000D01*
X171330000Y-91470000D02*
X168670000Y-91470000D01*
X168670000Y-91470000D02*
X168670000Y-73630000D01*
X171330000Y-91470000D02*
X171330000Y-73630000D01*
X171330000Y-73630000D02*
X168670000Y-73630000D01*
X113510000Y-101330000D02*
X113510000Y-100000000D01*
X114840000Y-101330000D02*
X113510000Y-101330000D01*
X116110000Y-101330000D02*
X116110000Y-98670000D01*
X116110000Y-98670000D02*
X133950000Y-98670000D01*
X116110000Y-101330000D02*
X133950000Y-101330000D01*
X133950000Y-101330000D02*
X133950000Y-98670000D01*
X108320000Y-57500000D02*
X109270000Y-57500000D01*
X114060000Y-57500000D02*
X113110000Y-57500000D01*
X109270000Y-58420000D02*
X113110000Y-58420000D01*
X109270000Y-56580000D02*
X109270000Y-58420000D01*
X113110000Y-56580000D02*
X109270000Y-56580000D01*
X113110000Y-58420000D02*
X113110000Y-56580000D01*
X108670000Y-51330000D02*
X108670000Y-50000000D01*
X110000000Y-51330000D02*
X108670000Y-51330000D01*
X111270000Y-51330000D02*
X111270000Y-48670000D01*
X111270000Y-48670000D02*
X113870000Y-48670000D01*
X111270000Y-51330000D02*
X113870000Y-51330000D01*
X113870000Y-51330000D02*
X113870000Y-48670000D01*
X98670000Y-58830000D02*
X98670000Y-57500000D01*
X100000000Y-58830000D02*
X98670000Y-58830000D01*
X101270000Y-58830000D02*
X101270000Y-56170000D01*
X101270000Y-56170000D02*
X103870000Y-56170000D01*
X101270000Y-58830000D02*
X103870000Y-58830000D01*
X103870000Y-58830000D02*
X103870000Y-56170000D01*
X98670000Y-51330000D02*
X98670000Y-50000000D01*
X100000000Y-51330000D02*
X98670000Y-51330000D01*
X101270000Y-51330000D02*
X101270000Y-48670000D01*
X101270000Y-48670000D02*
X103870000Y-48670000D01*
X101270000Y-51330000D02*
X103870000Y-51330000D01*
X103870000Y-51330000D02*
X103870000Y-48670000D01*
X143830000Y-101170000D02*
X143830000Y-102500000D01*
X142500000Y-101170000D02*
X143830000Y-101170000D01*
X141230000Y-101170000D02*
X141230000Y-103830000D01*
X141230000Y-103830000D02*
X138630000Y-103830000D01*
X141230000Y-101170000D02*
X138630000Y-101170000D01*
X138630000Y-101170000D02*
X138630000Y-103830000D01*
X98830000Y-88830000D02*
X97500000Y-88830000D01*
X98830000Y-87500000D02*
X98830000Y-88830000D01*
X98830000Y-86230000D02*
X96170000Y-86230000D01*
X96170000Y-86230000D02*
X96170000Y-83630000D01*
X98830000Y-86230000D02*
X98830000Y-83630000D01*
X98830000Y-83630000D02*
X96170000Y-83630000D01*
X83830000Y-63830000D02*
X82500000Y-63830000D01*
X83830000Y-62500000D02*
X83830000Y-63830000D01*
X83830000Y-61230000D02*
X81170000Y-61230000D01*
X81170000Y-61230000D02*
X81170000Y-58630000D01*
X83830000Y-61230000D02*
X83830000Y-58630000D01*
X83830000Y-58630000D02*
X81170000Y-58630000D01*
X53670000Y-71170000D02*
X55000000Y-71170000D01*
X53670000Y-72500000D02*
X53670000Y-71170000D01*
X53670000Y-73770000D02*
X56330000Y-73770000D01*
X56330000Y-73770000D02*
X56330000Y-76370000D01*
X53670000Y-73770000D02*
X53670000Y-76370000D01*
X53670000Y-76370000D02*
X56330000Y-76370000D01*
X104391522Y-68161522D02*
G75*
G03X106230000Y-72600000I1838478J-1838478D01*
G01*
X108068478Y-68161522D02*
G75*
G02X106230000Y-72600000I-1838478J-1838478D01*
G01*
X108030000Y-68150000D02*
X104430000Y-68150000D01*
X164180000Y-67500000D02*
X163230000Y-67500000D01*
X158440000Y-67500000D02*
X159390000Y-67500000D01*
X163230000Y-66580000D02*
X159390000Y-66580000D01*
X163230000Y-68420000D02*
X163230000Y-66580000D01*
X159390000Y-68420000D02*
X163230000Y-68420000D01*
X159390000Y-66580000D02*
X159390000Y-68420000D01*
X158320000Y-62500000D02*
X159270000Y-62500000D01*
X164060000Y-62500000D02*
X163110000Y-62500000D01*
X159270000Y-63420000D02*
X163110000Y-63420000D01*
X159270000Y-61580000D02*
X159270000Y-63420000D01*
X163110000Y-61580000D02*
X159270000Y-61580000D01*
X163110000Y-63420000D02*
X163110000Y-61580000D01*
X67500000Y-73320000D02*
X67500000Y-74270000D01*
X67500000Y-79060000D02*
X67500000Y-78110000D01*
X66580000Y-74270000D02*
X66580000Y-78110000D01*
X68420000Y-74270000D02*
X66580000Y-74270000D01*
X68420000Y-78110000D02*
X68420000Y-74270000D01*
X66580000Y-78110000D02*
X68420000Y-78110000D01*
X61030000Y-76860000D02*
X63970000Y-76860000D01*
X61030000Y-76620000D02*
X63970000Y-76620000D01*
X61030000Y-76740000D02*
X63970000Y-76740000D01*
X62500000Y-71180000D02*
X62500000Y-72200000D01*
X62500000Y-78660000D02*
X62500000Y-77640000D01*
X61030000Y-72200000D02*
X61030000Y-77640000D01*
X63970000Y-72200000D02*
X61030000Y-72200000D01*
X63970000Y-77640000D02*
X63970000Y-72200000D01*
X61030000Y-77640000D02*
X63970000Y-77640000D01*
X104770000Y-63555000D02*
X104770000Y-63570000D01*
X104770000Y-61430000D02*
X104770000Y-61445000D01*
X100230000Y-63555000D02*
X100230000Y-63570000D01*
X100230000Y-61430000D02*
X100230000Y-61445000D01*
X100230000Y-63570000D02*
X104770000Y-63570000D01*
X100230000Y-61430000D02*
X104770000Y-61430000D01*
X158560000Y-73670000D02*
X157310000Y-73670000D01*
X158560000Y-91570000D02*
X158560000Y-73670000D01*
X154060000Y-91570000D02*
X158560000Y-91570000D01*
X154060000Y-73670000D02*
X154060000Y-91570000D01*
X155310000Y-73670000D02*
X154060000Y-73670000D01*
X157310000Y-73670000D02*
G75*
G02X155310000Y-73670000I-1000000J0D01*
G01*
X111060000Y-81170000D02*
X109810000Y-81170000D01*
X111060000Y-91450000D02*
X111060000Y-81170000D01*
X106560000Y-91450000D02*
X111060000Y-91450000D01*
X106560000Y-81170000D02*
X106560000Y-91450000D01*
X107810000Y-81170000D02*
X106560000Y-81170000D01*
X109810000Y-81170000D02*
G75*
G02X107810000Y-81170000I-1000000J0D01*
G01*
X81060000Y-71170000D02*
X79810000Y-71170000D01*
X81060000Y-78910000D02*
X81060000Y-71170000D01*
X76560000Y-78910000D02*
X81060000Y-78910000D01*
X76560000Y-71170000D02*
X76560000Y-78910000D01*
X77810000Y-71170000D02*
X76560000Y-71170000D01*
X79810000Y-71170000D02*
G75*
G02X77810000Y-71170000I-1000000J0D01*
G01*
X126060000Y-81170000D02*
X124810000Y-81170000D01*
X126060000Y-91450000D02*
X126060000Y-81170000D01*
X121560000Y-91450000D02*
X126060000Y-91450000D01*
X121560000Y-81170000D02*
X121560000Y-91450000D01*
X122810000Y-81170000D02*
X121560000Y-81170000D01*
X124810000Y-81170000D02*
G75*
G02X122810000Y-81170000I-1000000J0D01*
G01*
X90000000Y-94180000D02*
X90000000Y-93230000D01*
X90000000Y-88440000D02*
X90000000Y-89390000D01*
X90920000Y-93230000D02*
X90920000Y-89390000D01*
X89080000Y-93230000D02*
X90920000Y-93230000D01*
X89080000Y-89390000D02*
X89080000Y-93230000D01*
X90920000Y-89390000D02*
X89080000Y-89390000D01*
X90000000Y-66680000D02*
X90000000Y-65730000D01*
X90000000Y-60940000D02*
X90000000Y-61890000D01*
X90920000Y-65730000D02*
X90920000Y-61890000D01*
X89080000Y-65730000D02*
X90920000Y-65730000D01*
X89080000Y-61890000D02*
X89080000Y-65730000D01*
X90920000Y-61890000D02*
X89080000Y-61890000D01*
X140000000Y-84180000D02*
X140000000Y-83230000D01*
X140000000Y-78440000D02*
X140000000Y-79390000D01*
X140920000Y-83230000D02*
X140920000Y-79390000D01*
X139080000Y-83230000D02*
X140920000Y-83230000D01*
X139080000Y-79390000D02*
X139080000Y-83230000D01*
X140920000Y-79390000D02*
X139080000Y-79390000D01*
X82500000Y-88320000D02*
X82500000Y-89270000D01*
X82500000Y-94060000D02*
X82500000Y-93110000D01*
X81580000Y-89270000D02*
X81580000Y-93110000D01*
X83420000Y-89270000D02*
X81580000Y-89270000D01*
X83420000Y-93110000D02*
X83420000Y-89270000D01*
X81580000Y-93110000D02*
X83420000Y-93110000D01*
X128320000Y-75000000D02*
X129270000Y-75000000D01*
X134060000Y-75000000D02*
X133110000Y-75000000D01*
X129270000Y-75920000D02*
X133110000Y-75920000D01*
X129270000Y-74080000D02*
X129270000Y-75920000D01*
X133110000Y-74080000D02*
X129270000Y-74080000D01*
X133110000Y-75920000D02*
X133110000Y-74080000D01*
X140000000Y-96680000D02*
X140000000Y-95730000D01*
X140000000Y-90940000D02*
X140000000Y-91890000D01*
X140920000Y-95730000D02*
X140920000Y-91890000D01*
X139080000Y-95730000D02*
X140920000Y-95730000D01*
X139080000Y-91890000D02*
X139080000Y-95730000D01*
X140920000Y-91890000D02*
X139080000Y-91890000D01*
X118555000Y-65230000D02*
X118570000Y-65230000D01*
X116430000Y-65230000D02*
X116445000Y-65230000D01*
X118555000Y-69770000D02*
X118570000Y-69770000D01*
X116430000Y-69770000D02*
X116445000Y-69770000D01*
X118570000Y-69770000D02*
X118570000Y-65230000D01*
X116430000Y-69770000D02*
X116430000Y-65230000D01*
X113555000Y-65230000D02*
X113570000Y-65230000D01*
X111430000Y-65230000D02*
X111445000Y-65230000D01*
X113555000Y-69770000D02*
X113570000Y-69770000D01*
X111430000Y-69770000D02*
X111445000Y-69770000D01*
X113570000Y-69770000D02*
X113570000Y-65230000D01*
X111430000Y-69770000D02*
X111430000Y-65230000D01*
X128555000Y-65230000D02*
X128570000Y-65230000D01*
X126430000Y-65230000D02*
X126445000Y-65230000D01*
X128555000Y-69770000D02*
X128570000Y-69770000D01*
X126430000Y-69770000D02*
X126445000Y-69770000D01*
X128570000Y-69770000D02*
X128570000Y-65230000D01*
X126430000Y-69770000D02*
X126430000Y-65230000D01*
X143945000Y-82270000D02*
X143930000Y-82270000D01*
X146070000Y-82270000D02*
X146055000Y-82270000D01*
X143945000Y-77730000D02*
X143930000Y-77730000D01*
X146070000Y-77730000D02*
X146055000Y-77730000D01*
X143930000Y-77730000D02*
X143930000Y-82270000D01*
X146070000Y-77730000D02*
X146070000Y-82270000D01*
X133555000Y-85230000D02*
X133570000Y-85230000D01*
X131430000Y-85230000D02*
X131445000Y-85230000D01*
X133555000Y-89770000D02*
X133570000Y-89770000D01*
X131430000Y-89770000D02*
X131445000Y-89770000D01*
X133570000Y-89770000D02*
X133570000Y-85230000D01*
X131430000Y-89770000D02*
X131430000Y-85230000D01*
D11*
X56738095Y-98752380D02*
X56738095Y-97752380D01*
X56738095Y-98228571D02*
X57309523Y-98228571D01*
X57309523Y-98752380D02*
X57309523Y-97752380D01*
X57690476Y-97752380D02*
X58309523Y-97752380D01*
X57976190Y-98133333D01*
X58119047Y-98133333D01*
X58214285Y-98180952D01*
X58261904Y-98228571D01*
X58309523Y-98323809D01*
X58309523Y-98561904D01*
X58261904Y-98657142D01*
X58214285Y-98704761D01*
X58119047Y-98752380D01*
X57833333Y-98752380D01*
X57738095Y-98704761D01*
X57690476Y-98657142D01*
X56738095Y-46252380D02*
X56738095Y-45252380D01*
X56738095Y-45728571D02*
X57309523Y-45728571D01*
X57309523Y-46252380D02*
X57309523Y-45252380D01*
X58309523Y-46252380D02*
X57738095Y-46252380D01*
X58023809Y-46252380D02*
X58023809Y-45252380D01*
X57928571Y-45395238D01*
X57833333Y-45490476D01*
X57738095Y-45538095D01*
X166738095Y-96252380D02*
X166738095Y-95252380D01*
X166738095Y-95728571D02*
X167309523Y-95728571D01*
X167309523Y-96252380D02*
X167309523Y-95252380D01*
X168214285Y-95585714D02*
X168214285Y-96252380D01*
X167976190Y-95204761D02*
X167738095Y-95919047D01*
X168357142Y-95919047D01*
X166738095Y-46252380D02*
X166738095Y-45252380D01*
X166738095Y-45728571D02*
X167309523Y-45728571D01*
X167309523Y-46252380D02*
X167309523Y-45252380D01*
X167738095Y-45347619D02*
X167785714Y-45300000D01*
X167880952Y-45252380D01*
X168119047Y-45252380D01*
X168214285Y-45300000D01*
X168261904Y-45347619D01*
X168309523Y-45442857D01*
X168309523Y-45538095D01*
X168261904Y-45680952D01*
X167690476Y-46252380D01*
X168309523Y-46252380D01*
X89261904Y-82782380D02*
X89261904Y-81782380D01*
X89642857Y-81782380D01*
X89738095Y-81830000D01*
X89785714Y-81877619D01*
X89833333Y-81972857D01*
X89833333Y-82115714D01*
X89785714Y-82210952D01*
X89738095Y-82258571D01*
X89642857Y-82306190D01*
X89261904Y-82306190D01*
X90166666Y-81782380D02*
X90785714Y-81782380D01*
X90452380Y-82163333D01*
X90595238Y-82163333D01*
X90690476Y-82210952D01*
X90738095Y-82258571D01*
X90785714Y-82353809D01*
X90785714Y-82591904D01*
X90738095Y-82687142D01*
X90690476Y-82734761D01*
X90595238Y-82782380D01*
X90309523Y-82782380D01*
X90214285Y-82734761D01*
X90166666Y-82687142D01*
X169261904Y-95522380D02*
X169261904Y-94522380D01*
X169642857Y-94522380D01*
X169738095Y-94570000D01*
X169785714Y-94617619D01*
X169833333Y-94712857D01*
X169833333Y-94855714D01*
X169785714Y-94950952D01*
X169738095Y-94998571D01*
X169642857Y-95046190D01*
X169261904Y-95046190D01*
X170166666Y-94522380D02*
X170833333Y-94522380D01*
X170404761Y-95522380D01*
X112962380Y-100738095D02*
X111962380Y-100738095D01*
X111962380Y-100357142D01*
X112010000Y-100261904D01*
X112057619Y-100214285D01*
X112152857Y-100166666D01*
X112295714Y-100166666D01*
X112390952Y-100214285D01*
X112438571Y-100261904D01*
X112486190Y-100357142D01*
X112486190Y-100738095D01*
X111962380Y-99309523D02*
X111962380Y-99500000D01*
X112010000Y-99595238D01*
X112057619Y-99642857D01*
X112200476Y-99738095D01*
X112390952Y-99785714D01*
X112771904Y-99785714D01*
X112867142Y-99738095D01*
X112914761Y-99690476D01*
X112962380Y-99595238D01*
X112962380Y-99404761D01*
X112914761Y-99309523D01*
X112867142Y-99261904D01*
X112771904Y-99214285D01*
X112533809Y-99214285D01*
X112438571Y-99261904D01*
X112390952Y-99309523D01*
X112343333Y-99404761D01*
X112343333Y-99595238D01*
X112390952Y-99690476D01*
X112438571Y-99738095D01*
X112533809Y-99785714D01*
X111023333Y-59872380D02*
X110690000Y-59396190D01*
X110451904Y-59872380D02*
X110451904Y-58872380D01*
X110832857Y-58872380D01*
X110928095Y-58920000D01*
X110975714Y-58967619D01*
X111023333Y-59062857D01*
X111023333Y-59205714D01*
X110975714Y-59300952D01*
X110928095Y-59348571D01*
X110832857Y-59396190D01*
X110451904Y-59396190D01*
X111880476Y-58872380D02*
X111690000Y-58872380D01*
X111594761Y-58920000D01*
X111547142Y-58967619D01*
X111451904Y-59110476D01*
X111404285Y-59300952D01*
X111404285Y-59681904D01*
X111451904Y-59777142D01*
X111499523Y-59824761D01*
X111594761Y-59872380D01*
X111785238Y-59872380D01*
X111880476Y-59824761D01*
X111928095Y-59777142D01*
X111975714Y-59681904D01*
X111975714Y-59443809D01*
X111928095Y-59348571D01*
X111880476Y-59300952D01*
X111785238Y-59253333D01*
X111594761Y-59253333D01*
X111499523Y-59300952D01*
X111451904Y-59348571D01*
X111404285Y-59443809D01*
X108122380Y-51214285D02*
X107122380Y-51214285D01*
X107122380Y-50833333D01*
X107170000Y-50738095D01*
X107217619Y-50690476D01*
X107312857Y-50642857D01*
X107455714Y-50642857D01*
X107550952Y-50690476D01*
X107598571Y-50738095D01*
X107646190Y-50833333D01*
X107646190Y-51214285D01*
X108122380Y-49690476D02*
X108122380Y-50261904D01*
X108122380Y-49976190D02*
X107122380Y-49976190D01*
X107265238Y-50071428D01*
X107360476Y-50166666D01*
X107408095Y-50261904D01*
X107122380Y-49071428D02*
X107122380Y-48976190D01*
X107170000Y-48880952D01*
X107217619Y-48833333D01*
X107312857Y-48785714D01*
X107503333Y-48738095D01*
X107741428Y-48738095D01*
X107931904Y-48785714D01*
X108027142Y-48833333D01*
X108074761Y-48880952D01*
X108122380Y-48976190D01*
X108122380Y-49071428D01*
X108074761Y-49166666D01*
X108027142Y-49214285D01*
X107931904Y-49261904D01*
X107741428Y-49309523D01*
X107503333Y-49309523D01*
X107312857Y-49261904D01*
X107217619Y-49214285D01*
X107170000Y-49166666D01*
X107122380Y-49071428D01*
X98122380Y-58238095D02*
X97122380Y-58238095D01*
X97122380Y-57857142D01*
X97170000Y-57761904D01*
X97217619Y-57714285D01*
X97312857Y-57666666D01*
X97455714Y-57666666D01*
X97550952Y-57714285D01*
X97598571Y-57761904D01*
X97646190Y-57857142D01*
X97646190Y-58238095D01*
X98122380Y-57190476D02*
X98122380Y-57000000D01*
X98074761Y-56904761D01*
X98027142Y-56857142D01*
X97884285Y-56761904D01*
X97693809Y-56714285D01*
X97312857Y-56714285D01*
X97217619Y-56761904D01*
X97170000Y-56809523D01*
X97122380Y-56904761D01*
X97122380Y-57095238D01*
X97170000Y-57190476D01*
X97217619Y-57238095D01*
X97312857Y-57285714D01*
X97550952Y-57285714D01*
X97646190Y-57238095D01*
X97693809Y-57190476D01*
X97741428Y-57095238D01*
X97741428Y-56904761D01*
X97693809Y-56809523D01*
X97646190Y-56761904D01*
X97550952Y-56714285D01*
X98122380Y-50738095D02*
X97122380Y-50738095D01*
X97122380Y-50357142D01*
X97170000Y-50261904D01*
X97217619Y-50214285D01*
X97312857Y-50166666D01*
X97455714Y-50166666D01*
X97550952Y-50214285D01*
X97598571Y-50261904D01*
X97646190Y-50357142D01*
X97646190Y-50738095D01*
X97550952Y-49595238D02*
X97503333Y-49690476D01*
X97455714Y-49738095D01*
X97360476Y-49785714D01*
X97312857Y-49785714D01*
X97217619Y-49738095D01*
X97170000Y-49690476D01*
X97122380Y-49595238D01*
X97122380Y-49404761D01*
X97170000Y-49309523D01*
X97217619Y-49261904D01*
X97312857Y-49214285D01*
X97360476Y-49214285D01*
X97455714Y-49261904D01*
X97503333Y-49309523D01*
X97550952Y-49404761D01*
X97550952Y-49595238D01*
X97598571Y-49690476D01*
X97646190Y-49738095D01*
X97741428Y-49785714D01*
X97931904Y-49785714D01*
X98027142Y-49738095D01*
X98074761Y-49690476D01*
X98122380Y-49595238D01*
X98122380Y-49404761D01*
X98074761Y-49309523D01*
X98027142Y-49261904D01*
X97931904Y-49214285D01*
X97741428Y-49214285D01*
X97646190Y-49261904D01*
X97598571Y-49309523D01*
X97550952Y-49404761D01*
X145282380Y-103238095D02*
X144282380Y-103238095D01*
X144282380Y-102857142D01*
X144330000Y-102761904D01*
X144377619Y-102714285D01*
X144472857Y-102666666D01*
X144615714Y-102666666D01*
X144710952Y-102714285D01*
X144758571Y-102761904D01*
X144806190Y-102857142D01*
X144806190Y-103238095D01*
X144282380Y-101761904D02*
X144282380Y-102238095D01*
X144758571Y-102285714D01*
X144710952Y-102238095D01*
X144663333Y-102142857D01*
X144663333Y-101904761D01*
X144710952Y-101809523D01*
X144758571Y-101761904D01*
X144853809Y-101714285D01*
X145091904Y-101714285D01*
X145187142Y-101761904D01*
X145234761Y-101809523D01*
X145282380Y-101904761D01*
X145282380Y-102142857D01*
X145234761Y-102238095D01*
X145187142Y-102285714D01*
X96761904Y-90282380D02*
X96761904Y-89282380D01*
X97142857Y-89282380D01*
X97238095Y-89330000D01*
X97285714Y-89377619D01*
X97333333Y-89472857D01*
X97333333Y-89615714D01*
X97285714Y-89710952D01*
X97238095Y-89758571D01*
X97142857Y-89806190D01*
X96761904Y-89806190D01*
X98190476Y-89615714D02*
X98190476Y-90282380D01*
X97952380Y-89234761D02*
X97714285Y-89949047D01*
X98333333Y-89949047D01*
X81761904Y-65282380D02*
X81761904Y-64282380D01*
X82142857Y-64282380D01*
X82238095Y-64330000D01*
X82285714Y-64377619D01*
X82333333Y-64472857D01*
X82333333Y-64615714D01*
X82285714Y-64710952D01*
X82238095Y-64758571D01*
X82142857Y-64806190D01*
X81761904Y-64806190D01*
X82714285Y-64377619D02*
X82761904Y-64330000D01*
X82857142Y-64282380D01*
X83095238Y-64282380D01*
X83190476Y-64330000D01*
X83238095Y-64377619D01*
X83285714Y-64472857D01*
X83285714Y-64568095D01*
X83238095Y-64710952D01*
X82666666Y-65282380D01*
X83285714Y-65282380D01*
X54261904Y-70622380D02*
X54261904Y-69622380D01*
X54642857Y-69622380D01*
X54738095Y-69670000D01*
X54785714Y-69717619D01*
X54833333Y-69812857D01*
X54833333Y-69955714D01*
X54785714Y-70050952D01*
X54738095Y-70098571D01*
X54642857Y-70146190D01*
X54261904Y-70146190D01*
X55785714Y-70622380D02*
X55214285Y-70622380D01*
X55500000Y-70622380D02*
X55500000Y-69622380D01*
X55404761Y-69765238D01*
X55309523Y-69860476D01*
X55214285Y-69908095D01*
X105468095Y-73012380D02*
X105468095Y-73821904D01*
X105515714Y-73917142D01*
X105563333Y-73964761D01*
X105658571Y-74012380D01*
X105849047Y-74012380D01*
X105944285Y-73964761D01*
X105991904Y-73917142D01*
X106039523Y-73821904D01*
X106039523Y-73012380D01*
X106991904Y-73012380D02*
X106515714Y-73012380D01*
X106468095Y-73488571D01*
X106515714Y-73440952D01*
X106610952Y-73393333D01*
X106849047Y-73393333D01*
X106944285Y-73440952D01*
X106991904Y-73488571D01*
X107039523Y-73583809D01*
X107039523Y-73821904D01*
X106991904Y-73917142D01*
X106944285Y-73964761D01*
X106849047Y-74012380D01*
X106610952Y-74012380D01*
X106515714Y-73964761D01*
X106468095Y-73917142D01*
X161143333Y-66032380D02*
X160810000Y-65556190D01*
X160571904Y-66032380D02*
X160571904Y-65032380D01*
X160952857Y-65032380D01*
X161048095Y-65080000D01*
X161095714Y-65127619D01*
X161143333Y-65222857D01*
X161143333Y-65365714D01*
X161095714Y-65460952D01*
X161048095Y-65508571D01*
X160952857Y-65556190D01*
X160571904Y-65556190D01*
X162048095Y-65032380D02*
X161571904Y-65032380D01*
X161524285Y-65508571D01*
X161571904Y-65460952D01*
X161667142Y-65413333D01*
X161905238Y-65413333D01*
X162000476Y-65460952D01*
X162048095Y-65508571D01*
X162095714Y-65603809D01*
X162095714Y-65841904D01*
X162048095Y-65937142D01*
X162000476Y-65984761D01*
X161905238Y-66032380D01*
X161667142Y-66032380D01*
X161571904Y-65984761D01*
X161524285Y-65937142D01*
X161023333Y-64872380D02*
X160690000Y-64396190D01*
X160451904Y-64872380D02*
X160451904Y-63872380D01*
X160832857Y-63872380D01*
X160928095Y-63920000D01*
X160975714Y-63967619D01*
X161023333Y-64062857D01*
X161023333Y-64205714D01*
X160975714Y-64300952D01*
X160928095Y-64348571D01*
X160832857Y-64396190D01*
X160451904Y-64396190D01*
X161880476Y-64205714D02*
X161880476Y-64872380D01*
X161642380Y-63824761D02*
X161404285Y-64539047D01*
X162023333Y-64539047D01*
X66032380Y-76356666D02*
X65556190Y-76690000D01*
X66032380Y-76928095D02*
X65032380Y-76928095D01*
X65032380Y-76547142D01*
X65080000Y-76451904D01*
X65127619Y-76404285D01*
X65222857Y-76356666D01*
X65365714Y-76356666D01*
X65460952Y-76404285D01*
X65508571Y-76451904D01*
X65556190Y-76547142D01*
X65556190Y-76928095D01*
X66032380Y-75404285D02*
X66032380Y-75975714D01*
X66032380Y-75690000D02*
X65032380Y-75690000D01*
X65175238Y-75785238D01*
X65270476Y-75880476D01*
X65318095Y-75975714D01*
X60482380Y-75658095D02*
X59482380Y-75658095D01*
X59482380Y-75420000D01*
X59530000Y-75277142D01*
X59625238Y-75181904D01*
X59720476Y-75134285D01*
X59910952Y-75086666D01*
X60053809Y-75086666D01*
X60244285Y-75134285D01*
X60339523Y-75181904D01*
X60434761Y-75277142D01*
X60482380Y-75420000D01*
X60482380Y-75658095D01*
X59577619Y-74705714D02*
X59530000Y-74658095D01*
X59482380Y-74562857D01*
X59482380Y-74324761D01*
X59530000Y-74229523D01*
X59577619Y-74181904D01*
X59672857Y-74134285D01*
X59768095Y-74134285D01*
X59910952Y-74181904D01*
X60482380Y-74753333D01*
X60482380Y-74134285D01*
X60852380Y-80261904D02*
X59852380Y-80261904D01*
X60852380Y-79690476D02*
X60280952Y-80119047D01*
X59852380Y-79690476D02*
X60423809Y-80261904D01*
X102333333Y-60657142D02*
X102285714Y-60704761D01*
X102142857Y-60752380D01*
X102047619Y-60752380D01*
X101904761Y-60704761D01*
X101809523Y-60609523D01*
X101761904Y-60514285D01*
X101714285Y-60323809D01*
X101714285Y-60180952D01*
X101761904Y-59990476D01*
X101809523Y-59895238D01*
X101904761Y-59800000D01*
X102047619Y-59752380D01*
X102142857Y-59752380D01*
X102285714Y-59800000D01*
X102333333Y-59847619D01*
X102904761Y-60180952D02*
X102809523Y-60133333D01*
X102761904Y-60085714D01*
X102714285Y-59990476D01*
X102714285Y-59942857D01*
X102761904Y-59847619D01*
X102809523Y-59800000D01*
X102904761Y-59752380D01*
X103095238Y-59752380D01*
X103190476Y-59800000D01*
X103238095Y-59847619D01*
X103285714Y-59942857D01*
X103285714Y-59990476D01*
X103238095Y-60085714D01*
X103190476Y-60133333D01*
X103095238Y-60180952D01*
X102904761Y-60180952D01*
X102809523Y-60228571D01*
X102761904Y-60276190D01*
X102714285Y-60371428D01*
X102714285Y-60561904D01*
X102761904Y-60657142D01*
X102809523Y-60704761D01*
X102904761Y-60752380D01*
X103095238Y-60752380D01*
X103190476Y-60704761D01*
X103238095Y-60657142D01*
X103285714Y-60561904D01*
X103285714Y-60371428D01*
X103238095Y-60276190D01*
X103190476Y-60228571D01*
X103095238Y-60180952D01*
X155548095Y-72122380D02*
X155548095Y-72931904D01*
X155595714Y-73027142D01*
X155643333Y-73074761D01*
X155738571Y-73122380D01*
X155929047Y-73122380D01*
X156024285Y-73074761D01*
X156071904Y-73027142D01*
X156119523Y-72931904D01*
X156119523Y-72122380D01*
X157119523Y-73122380D02*
X156548095Y-73122380D01*
X156833809Y-73122380D02*
X156833809Y-72122380D01*
X156738571Y-72265238D01*
X156643333Y-72360476D01*
X156548095Y-72408095D01*
X108048095Y-79622380D02*
X108048095Y-80431904D01*
X108095714Y-80527142D01*
X108143333Y-80574761D01*
X108238571Y-80622380D01*
X108429047Y-80622380D01*
X108524285Y-80574761D01*
X108571904Y-80527142D01*
X108619523Y-80431904D01*
X108619523Y-79622380D01*
X109524285Y-79955714D02*
X109524285Y-80622380D01*
X109286190Y-79574761D02*
X109048095Y-80289047D01*
X109667142Y-80289047D01*
X78048095Y-69622380D02*
X78048095Y-70431904D01*
X78095714Y-70527142D01*
X78143333Y-70574761D01*
X78238571Y-70622380D01*
X78429047Y-70622380D01*
X78524285Y-70574761D01*
X78571904Y-70527142D01*
X78619523Y-70431904D01*
X78619523Y-69622380D01*
X79000476Y-69622380D02*
X79619523Y-69622380D01*
X79286190Y-70003333D01*
X79429047Y-70003333D01*
X79524285Y-70050952D01*
X79571904Y-70098571D01*
X79619523Y-70193809D01*
X79619523Y-70431904D01*
X79571904Y-70527142D01*
X79524285Y-70574761D01*
X79429047Y-70622380D01*
X79143333Y-70622380D01*
X79048095Y-70574761D01*
X79000476Y-70527142D01*
X123048095Y-79622380D02*
X123048095Y-80431904D01*
X123095714Y-80527142D01*
X123143333Y-80574761D01*
X123238571Y-80622380D01*
X123429047Y-80622380D01*
X123524285Y-80574761D01*
X123571904Y-80527142D01*
X123619523Y-80431904D01*
X123619523Y-79622380D01*
X124048095Y-79717619D02*
X124095714Y-79670000D01*
X124190952Y-79622380D01*
X124429047Y-79622380D01*
X124524285Y-79670000D01*
X124571904Y-79717619D01*
X124619523Y-79812857D01*
X124619523Y-79908095D01*
X124571904Y-80050952D01*
X124000476Y-80622380D01*
X124619523Y-80622380D01*
X92372380Y-91952857D02*
X91896190Y-92286190D01*
X92372380Y-92524285D02*
X91372380Y-92524285D01*
X91372380Y-92143333D01*
X91420000Y-92048095D01*
X91467619Y-92000476D01*
X91562857Y-91952857D01*
X91705714Y-91952857D01*
X91800952Y-92000476D01*
X91848571Y-92048095D01*
X91896190Y-92143333D01*
X91896190Y-92524285D01*
X92372380Y-91000476D02*
X92372380Y-91571904D01*
X92372380Y-91286190D02*
X91372380Y-91286190D01*
X91515238Y-91381428D01*
X91610476Y-91476666D01*
X91658095Y-91571904D01*
X91467619Y-90619523D02*
X91420000Y-90571904D01*
X91372380Y-90476666D01*
X91372380Y-90238571D01*
X91420000Y-90143333D01*
X91467619Y-90095714D01*
X91562857Y-90048095D01*
X91658095Y-90048095D01*
X91800952Y-90095714D01*
X92372380Y-90667142D01*
X92372380Y-90048095D01*
X92372380Y-64452857D02*
X91896190Y-64786190D01*
X92372380Y-65024285D02*
X91372380Y-65024285D01*
X91372380Y-64643333D01*
X91420000Y-64548095D01*
X91467619Y-64500476D01*
X91562857Y-64452857D01*
X91705714Y-64452857D01*
X91800952Y-64500476D01*
X91848571Y-64548095D01*
X91896190Y-64643333D01*
X91896190Y-65024285D01*
X92372380Y-63500476D02*
X92372380Y-64071904D01*
X92372380Y-63786190D02*
X91372380Y-63786190D01*
X91515238Y-63881428D01*
X91610476Y-63976666D01*
X91658095Y-64071904D01*
X92372380Y-62548095D02*
X92372380Y-63119523D01*
X92372380Y-62833809D02*
X91372380Y-62833809D01*
X91515238Y-62929047D01*
X91610476Y-63024285D01*
X91658095Y-63119523D01*
X142372380Y-81476666D02*
X141896190Y-81810000D01*
X142372380Y-82048095D02*
X141372380Y-82048095D01*
X141372380Y-81667142D01*
X141420000Y-81571904D01*
X141467619Y-81524285D01*
X141562857Y-81476666D01*
X141705714Y-81476666D01*
X141800952Y-81524285D01*
X141848571Y-81571904D01*
X141896190Y-81667142D01*
X141896190Y-82048095D01*
X141800952Y-80905238D02*
X141753333Y-81000476D01*
X141705714Y-81048095D01*
X141610476Y-81095714D01*
X141562857Y-81095714D01*
X141467619Y-81048095D01*
X141420000Y-81000476D01*
X141372380Y-80905238D01*
X141372380Y-80714761D01*
X141420000Y-80619523D01*
X141467619Y-80571904D01*
X141562857Y-80524285D01*
X141610476Y-80524285D01*
X141705714Y-80571904D01*
X141753333Y-80619523D01*
X141800952Y-80714761D01*
X141800952Y-80905238D01*
X141848571Y-81000476D01*
X141896190Y-81048095D01*
X141991428Y-81095714D01*
X142181904Y-81095714D01*
X142277142Y-81048095D01*
X142324761Y-81000476D01*
X142372380Y-80905238D01*
X142372380Y-80714761D01*
X142324761Y-80619523D01*
X142277142Y-80571904D01*
X142181904Y-80524285D01*
X141991428Y-80524285D01*
X141896190Y-80571904D01*
X141848571Y-80619523D01*
X141800952Y-80714761D01*
X81032380Y-91356666D02*
X80556190Y-91690000D01*
X81032380Y-91928095D02*
X80032380Y-91928095D01*
X80032380Y-91547142D01*
X80080000Y-91451904D01*
X80127619Y-91404285D01*
X80222857Y-91356666D01*
X80365714Y-91356666D01*
X80460952Y-91404285D01*
X80508571Y-91451904D01*
X80556190Y-91547142D01*
X80556190Y-91928095D01*
X80032380Y-91023333D02*
X80032380Y-90356666D01*
X81032380Y-90785238D01*
X131023333Y-77372380D02*
X130690000Y-76896190D01*
X130451904Y-77372380D02*
X130451904Y-76372380D01*
X130832857Y-76372380D01*
X130928095Y-76420000D01*
X130975714Y-76467619D01*
X131023333Y-76562857D01*
X131023333Y-76705714D01*
X130975714Y-76800952D01*
X130928095Y-76848571D01*
X130832857Y-76896190D01*
X130451904Y-76896190D01*
X131356666Y-76372380D02*
X131975714Y-76372380D01*
X131642380Y-76753333D01*
X131785238Y-76753333D01*
X131880476Y-76800952D01*
X131928095Y-76848571D01*
X131975714Y-76943809D01*
X131975714Y-77181904D01*
X131928095Y-77277142D01*
X131880476Y-77324761D01*
X131785238Y-77372380D01*
X131499523Y-77372380D01*
X131404285Y-77324761D01*
X131356666Y-77277142D01*
X142372380Y-93976666D02*
X141896190Y-94310000D01*
X142372380Y-94548095D02*
X141372380Y-94548095D01*
X141372380Y-94167142D01*
X141420000Y-94071904D01*
X141467619Y-94024285D01*
X141562857Y-93976666D01*
X141705714Y-93976666D01*
X141800952Y-94024285D01*
X141848571Y-94071904D01*
X141896190Y-94167142D01*
X141896190Y-94548095D01*
X141467619Y-93595714D02*
X141420000Y-93548095D01*
X141372380Y-93452857D01*
X141372380Y-93214761D01*
X141420000Y-93119523D01*
X141467619Y-93071904D01*
X141562857Y-93024285D01*
X141658095Y-93024285D01*
X141800952Y-93071904D01*
X142372380Y-93643333D01*
X142372380Y-93024285D01*
X115657142Y-67666666D02*
X115704761Y-67714285D01*
X115752380Y-67857142D01*
X115752380Y-67952380D01*
X115704761Y-68095238D01*
X115609523Y-68190476D01*
X115514285Y-68238095D01*
X115323809Y-68285714D01*
X115180952Y-68285714D01*
X114990476Y-68238095D01*
X114895238Y-68190476D01*
X114800000Y-68095238D01*
X114752380Y-67952380D01*
X114752380Y-67857142D01*
X114800000Y-67714285D01*
X114847619Y-67666666D01*
X114752380Y-67333333D02*
X114752380Y-66666666D01*
X115752380Y-67095238D01*
X110657142Y-67666666D02*
X110704761Y-67714285D01*
X110752380Y-67857142D01*
X110752380Y-67952380D01*
X110704761Y-68095238D01*
X110609523Y-68190476D01*
X110514285Y-68238095D01*
X110323809Y-68285714D01*
X110180952Y-68285714D01*
X109990476Y-68238095D01*
X109895238Y-68190476D01*
X109800000Y-68095238D01*
X109752380Y-67952380D01*
X109752380Y-67857142D01*
X109800000Y-67714285D01*
X109847619Y-67666666D01*
X109752380Y-66809523D02*
X109752380Y-67000000D01*
X109800000Y-67095238D01*
X109847619Y-67142857D01*
X109990476Y-67238095D01*
X110180952Y-67285714D01*
X110561904Y-67285714D01*
X110657142Y-67238095D01*
X110704761Y-67190476D01*
X110752380Y-67095238D01*
X110752380Y-66904761D01*
X110704761Y-66809523D01*
X110657142Y-66761904D01*
X110561904Y-66714285D01*
X110323809Y-66714285D01*
X110228571Y-66761904D01*
X110180952Y-66809523D01*
X110133333Y-66904761D01*
X110133333Y-67095238D01*
X110180952Y-67190476D01*
X110228571Y-67238095D01*
X110323809Y-67285714D01*
X125657142Y-67666666D02*
X125704761Y-67714285D01*
X125752380Y-67857142D01*
X125752380Y-67952380D01*
X125704761Y-68095238D01*
X125609523Y-68190476D01*
X125514285Y-68238095D01*
X125323809Y-68285714D01*
X125180952Y-68285714D01*
X124990476Y-68238095D01*
X124895238Y-68190476D01*
X124800000Y-68095238D01*
X124752380Y-67952380D01*
X124752380Y-67857142D01*
X124800000Y-67714285D01*
X124847619Y-67666666D01*
X125085714Y-66809523D02*
X125752380Y-66809523D01*
X124704761Y-67047619D02*
X125419047Y-67285714D01*
X125419047Y-66666666D01*
X147557142Y-80166666D02*
X147604761Y-80214285D01*
X147652380Y-80357142D01*
X147652380Y-80452380D01*
X147604761Y-80595238D01*
X147509523Y-80690476D01*
X147414285Y-80738095D01*
X147223809Y-80785714D01*
X147080952Y-80785714D01*
X146890476Y-80738095D01*
X146795238Y-80690476D01*
X146700000Y-80595238D01*
X146652380Y-80452380D01*
X146652380Y-80357142D01*
X146700000Y-80214285D01*
X146747619Y-80166666D01*
X146652380Y-79833333D02*
X146652380Y-79214285D01*
X147033333Y-79547619D01*
X147033333Y-79404761D01*
X147080952Y-79309523D01*
X147128571Y-79261904D01*
X147223809Y-79214285D01*
X147461904Y-79214285D01*
X147557142Y-79261904D01*
X147604761Y-79309523D01*
X147652380Y-79404761D01*
X147652380Y-79690476D01*
X147604761Y-79785714D01*
X147557142Y-79833333D01*
X130657142Y-87666666D02*
X130704761Y-87714285D01*
X130752380Y-87857142D01*
X130752380Y-87952380D01*
X130704761Y-88095238D01*
X130609523Y-88190476D01*
X130514285Y-88238095D01*
X130323809Y-88285714D01*
X130180952Y-88285714D01*
X129990476Y-88238095D01*
X129895238Y-88190476D01*
X129800000Y-88095238D01*
X129752380Y-87952380D01*
X129752380Y-87857142D01*
X129800000Y-87714285D01*
X129847619Y-87666666D01*
X130752380Y-86714285D02*
X130752380Y-87285714D01*
X130752380Y-87000000D02*
X129752380Y-87000000D01*
X129895238Y-87095238D01*
X129990476Y-87190476D01*
X130038095Y-87285714D01*
M02*
