G04 #@! TF.GenerationSoftware,KiCad,Pcbnew,5.1.4+dfsg1-1*
G04 #@! TF.CreationDate,2020-06-16T22:38:04+02:00*
G04 #@! TF.ProjectId,usb_pcb,7573625f-7063-4622-9e6b-696361645f70,0*
G04 #@! TF.SameCoordinates,Original*
G04 #@! TF.FileFunction,Copper,L2,Bot*
G04 #@! TF.FilePolarity,Positive*
%FSLAX46Y46*%
G04 Gerber Fmt 4.6, Leading zero omitted, Abs format (unit mm)*
G04 Created by KiCad (PCBNEW 5.1.4+dfsg1-1) date 2020-06-16 22:38:04*
%MOMM*%
%LPD*%
G04 APERTURE LIST*
%ADD10C,0.800000*%
%ADD11C,6.400000*%
%ADD12O,1.700000X1.700000*%
%ADD13R,1.700000X1.700000*%
%ADD14O,1.400000X1.400000*%
%ADD15C,1.400000*%
%ADD16R,1.050000X1.500000*%
%ADD17O,1.050000X1.500000*%
%ADD18O,2.200000X2.200000*%
%ADD19R,2.200000X2.200000*%
%ADD20C,1.600000*%
%ADD21O,2.400000X1.600000*%
%ADD22R,2.400000X1.600000*%
%ADD23C,2.000000*%
%ADD24C,1.000000*%
%ADD25C,0.254000*%
G04 APERTURE END LIST*
D10*
X59197056Y-100802944D03*
X57500000Y-100100000D03*
X55802944Y-100802944D03*
X55100000Y-102500000D03*
X55802944Y-104197056D03*
X57500000Y-104900000D03*
X59197056Y-104197056D03*
X59900000Y-102500000D03*
D11*
X57500000Y-102500000D03*
D10*
X59197056Y-48302944D03*
X57500000Y-47600000D03*
X55802944Y-48302944D03*
X55100000Y-50000000D03*
X55802944Y-51697056D03*
X57500000Y-52400000D03*
X59197056Y-51697056D03*
X59900000Y-50000000D03*
D11*
X57500000Y-50000000D03*
D10*
X169197056Y-98302944D03*
X167500000Y-97600000D03*
X165802944Y-98302944D03*
X165100000Y-100000000D03*
X165802944Y-101697056D03*
X167500000Y-102400000D03*
X169197056Y-101697056D03*
X169900000Y-100000000D03*
D11*
X167500000Y-100000000D03*
D10*
X169197056Y-48302944D03*
X167500000Y-47600000D03*
X165802944Y-48302944D03*
X165100000Y-50000000D03*
X165802944Y-51697056D03*
X167500000Y-52400000D03*
X169197056Y-51697056D03*
X169900000Y-50000000D03*
D11*
X167500000Y-50000000D03*
D12*
X90000000Y-72380000D03*
X90000000Y-74920000D03*
X90000000Y-77460000D03*
D13*
X90000000Y-80000000D03*
D12*
X170000000Y-74960000D03*
X170000000Y-77500000D03*
X170000000Y-80040000D03*
X170000000Y-82580000D03*
X170000000Y-85120000D03*
X170000000Y-87660000D03*
X170000000Y-90200000D03*
D13*
X170000000Y-92740000D03*
D12*
X132620000Y-100000000D03*
X130080000Y-100000000D03*
X127540000Y-100000000D03*
X125000000Y-100000000D03*
X122460000Y-100000000D03*
X119920000Y-100000000D03*
X117380000Y-100000000D03*
D13*
X114840000Y-100000000D03*
D14*
X107380000Y-57500000D03*
D15*
X115000000Y-57500000D03*
D12*
X112540000Y-50000000D03*
D13*
X110000000Y-50000000D03*
D12*
X102540000Y-57500000D03*
D13*
X100000000Y-57500000D03*
D12*
X102540000Y-50000000D03*
D13*
X100000000Y-50000000D03*
D12*
X139960000Y-102500000D03*
D13*
X142500000Y-102500000D03*
D12*
X97500000Y-84960000D03*
D13*
X97500000Y-87500000D03*
D12*
X82500000Y-59960000D03*
D13*
X82500000Y-62500000D03*
D12*
X55000000Y-75040000D03*
D13*
X55000000Y-72500000D03*
D16*
X107500000Y-70000000D03*
D17*
X104960000Y-70000000D03*
X106230000Y-70000000D03*
D14*
X165120000Y-67500000D03*
D15*
X157500000Y-67500000D03*
D14*
X157380000Y-62500000D03*
D15*
X165000000Y-62500000D03*
D14*
X67500000Y-72380000D03*
D15*
X67500000Y-80000000D03*
D18*
X62500000Y-69840000D03*
D19*
X62500000Y-80000000D03*
D20*
X105000000Y-62500000D03*
X100000000Y-62500000D03*
D21*
X160120000Y-75000000D03*
X152500000Y-90240000D03*
X160120000Y-77540000D03*
X152500000Y-87700000D03*
X160120000Y-80080000D03*
X152500000Y-85160000D03*
X160120000Y-82620000D03*
X152500000Y-82620000D03*
X160120000Y-85160000D03*
X152500000Y-80080000D03*
X160120000Y-87700000D03*
X152500000Y-77540000D03*
X160120000Y-90240000D03*
D22*
X152500000Y-75000000D03*
D21*
X112620000Y-82500000D03*
X105000000Y-90120000D03*
X112620000Y-85040000D03*
X105000000Y-87580000D03*
X112620000Y-87580000D03*
X105000000Y-85040000D03*
X112620000Y-90120000D03*
D22*
X105000000Y-82500000D03*
D21*
X82620000Y-72500000D03*
X75000000Y-77580000D03*
X82620000Y-75040000D03*
X75000000Y-75040000D03*
X82620000Y-77580000D03*
D22*
X75000000Y-72500000D03*
D21*
X127620000Y-82500000D03*
X120000000Y-90120000D03*
X127620000Y-85040000D03*
X120000000Y-87580000D03*
X127620000Y-87580000D03*
X120000000Y-85040000D03*
X127620000Y-90120000D03*
D22*
X120000000Y-82500000D03*
D14*
X90000000Y-95120000D03*
D15*
X90000000Y-87500000D03*
D14*
X90000000Y-67620000D03*
D15*
X90000000Y-60000000D03*
D14*
X140000000Y-85120000D03*
D15*
X140000000Y-77500000D03*
D14*
X82500000Y-87380000D03*
D15*
X82500000Y-95000000D03*
D14*
X127380000Y-75000000D03*
D15*
X135000000Y-75000000D03*
D14*
X140000000Y-97620000D03*
D15*
X140000000Y-90000000D03*
D20*
X117500000Y-65000000D03*
X117500000Y-70000000D03*
X112500000Y-65000000D03*
X112500000Y-70000000D03*
X127500000Y-65000000D03*
X127500000Y-70000000D03*
X145000000Y-82500000D03*
X145000000Y-77500000D03*
X132500000Y-85000000D03*
X132500000Y-90000000D03*
D23*
X160120000Y-82620000D02*
X162320000Y-82620000D01*
D24*
X162320000Y-82620000D02*
X162360000Y-82580000D01*
X168797919Y-87660000D02*
X170000000Y-87660000D01*
X162360000Y-82580000D02*
X163580000Y-82580000D01*
X167500000Y-83000000D02*
X167920000Y-82580000D01*
X163580000Y-82580000D02*
X167920000Y-82580000D01*
X167500000Y-86362081D02*
X167500000Y-83000000D01*
X168797919Y-87660000D02*
X167500000Y-86362081D01*
X167920000Y-82580000D02*
X170000000Y-82580000D01*
X168797919Y-77500000D02*
X170000000Y-77500000D01*
X167500000Y-78797919D02*
X168797919Y-77500000D01*
X167500000Y-83000000D02*
X167500000Y-78797919D01*
X168150000Y-92740000D02*
X170000000Y-92740000D01*
X167500000Y-92090000D02*
X168150000Y-92740000D01*
X167500000Y-86362081D02*
X167500000Y-92090000D01*
X135500000Y-65000000D02*
X127500000Y-65000000D01*
X138000000Y-67500000D02*
X135500000Y-65000000D01*
X157500000Y-67500000D02*
X156500000Y-67500000D01*
X154500000Y-67500000D02*
X156500000Y-69500000D01*
X156500000Y-67500000D02*
X154500000Y-67500000D01*
X156500000Y-69500000D02*
X156500000Y-81000000D01*
X157620000Y-82620000D02*
X156500000Y-81500000D01*
D23*
X160120000Y-82620000D02*
X157620000Y-82620000D01*
D24*
X156500000Y-81000000D02*
X156500000Y-81500000D01*
X140000000Y-67500000D02*
X138000000Y-67500000D01*
X154500000Y-67500000D02*
X140000000Y-67500000D01*
X138000000Y-67500000D02*
X142000000Y-71500000D01*
X142000000Y-79500000D02*
X145000000Y-82500000D01*
X142000000Y-71500000D02*
X142000000Y-79500000D01*
X117500000Y-65000000D02*
X119000000Y-65000000D01*
X120000000Y-66000000D02*
X120000000Y-82500000D01*
X119000000Y-65000000D02*
X120000000Y-66000000D01*
X122200000Y-82500000D02*
X122500000Y-82800000D01*
X120000000Y-82500000D02*
X122200000Y-82500000D01*
X122500000Y-85000000D02*
X122460000Y-85040000D01*
X122500000Y-82800000D02*
X122500000Y-85000000D01*
X122460000Y-84657833D02*
X122460000Y-85040000D01*
X122460000Y-85040000D02*
X122460000Y-100000000D01*
X130000000Y-72575202D02*
X130000000Y-67500000D01*
X130000000Y-67500000D02*
X130000000Y-65000000D01*
D25*
G36*
X171840000Y-46527441D02*
G01*
X171840001Y-105472558D01*
X170472559Y-106840000D01*
X81019606Y-106840000D01*
X80127000Y-105947394D01*
X80126995Y-102500000D01*
X138467815Y-102500000D01*
X138496487Y-102791111D01*
X138581401Y-103071034D01*
X138719294Y-103329014D01*
X138904866Y-103555134D01*
X139130986Y-103740706D01*
X139388966Y-103878599D01*
X139668889Y-103963513D01*
X139887050Y-103985000D01*
X140032950Y-103985000D01*
X140251111Y-103963513D01*
X140531034Y-103878599D01*
X140789014Y-103740706D01*
X141015134Y-103555134D01*
X141039607Y-103525313D01*
X141060498Y-103594180D01*
X141119463Y-103704494D01*
X141198815Y-103801185D01*
X141295506Y-103880537D01*
X141405820Y-103939502D01*
X141525518Y-103975812D01*
X141650000Y-103988072D01*
X142214250Y-103985000D01*
X142373000Y-103826250D01*
X142373000Y-102627000D01*
X142627000Y-102627000D01*
X142627000Y-103826250D01*
X142785750Y-103985000D01*
X143350000Y-103988072D01*
X143474482Y-103975812D01*
X143594180Y-103939502D01*
X143704494Y-103880537D01*
X143801185Y-103801185D01*
X143880537Y-103704494D01*
X143939502Y-103594180D01*
X143975812Y-103474482D01*
X143988072Y-103350000D01*
X143985000Y-102785750D01*
X143900131Y-102700881D01*
X164978724Y-102700881D01*
X165338912Y-103190548D01*
X166002882Y-103550849D01*
X166724385Y-103774694D01*
X167475695Y-103853480D01*
X168227938Y-103784178D01*
X168952208Y-103569452D01*
X169620670Y-103217555D01*
X169661088Y-103190548D01*
X170021276Y-102700881D01*
X167500000Y-100179605D01*
X164978724Y-102700881D01*
X143900131Y-102700881D01*
X143826250Y-102627000D01*
X142627000Y-102627000D01*
X142373000Y-102627000D01*
X142353000Y-102627000D01*
X142353000Y-102373000D01*
X142373000Y-102373000D01*
X142373000Y-101173750D01*
X142627000Y-101173750D01*
X142627000Y-102373000D01*
X143826250Y-102373000D01*
X143985000Y-102214250D01*
X143988072Y-101650000D01*
X143975812Y-101525518D01*
X143939502Y-101405820D01*
X143880537Y-101295506D01*
X143801185Y-101198815D01*
X143704494Y-101119463D01*
X143594180Y-101060498D01*
X143474482Y-101024188D01*
X143350000Y-101011928D01*
X142785750Y-101015000D01*
X142627000Y-101173750D01*
X142373000Y-101173750D01*
X142214250Y-101015000D01*
X141650000Y-101011928D01*
X141525518Y-101024188D01*
X141405820Y-101060498D01*
X141295506Y-101119463D01*
X141198815Y-101198815D01*
X141119463Y-101295506D01*
X141060498Y-101405820D01*
X141039607Y-101474687D01*
X141015134Y-101444866D01*
X140789014Y-101259294D01*
X140531034Y-101121401D01*
X140251111Y-101036487D01*
X140032950Y-101015000D01*
X139887050Y-101015000D01*
X139668889Y-101036487D01*
X139388966Y-101121401D01*
X139130986Y-101259294D01*
X138904866Y-101444866D01*
X138719294Y-101670986D01*
X138581401Y-101928966D01*
X138496487Y-102208889D01*
X138467815Y-102500000D01*
X80126995Y-102500000D01*
X80126990Y-99150000D01*
X113351928Y-99150000D01*
X113351928Y-100850000D01*
X113364188Y-100974482D01*
X113400498Y-101094180D01*
X113459463Y-101204494D01*
X113538815Y-101301185D01*
X113635506Y-101380537D01*
X113745820Y-101439502D01*
X113865518Y-101475812D01*
X113990000Y-101488072D01*
X115690000Y-101488072D01*
X115814482Y-101475812D01*
X115934180Y-101439502D01*
X116044494Y-101380537D01*
X116141185Y-101301185D01*
X116220537Y-101204494D01*
X116279502Y-101094180D01*
X116303966Y-101013534D01*
X116379731Y-101097588D01*
X116613080Y-101271641D01*
X116875901Y-101396825D01*
X117023110Y-101441476D01*
X117253000Y-101320155D01*
X117253000Y-100127000D01*
X117233000Y-100127000D01*
X117233000Y-99873000D01*
X117253000Y-99873000D01*
X117253000Y-98679845D01*
X117507000Y-98679845D01*
X117507000Y-99873000D01*
X117527000Y-99873000D01*
X117527000Y-100127000D01*
X117507000Y-100127000D01*
X117507000Y-101320155D01*
X117736890Y-101441476D01*
X117884099Y-101396825D01*
X118146920Y-101271641D01*
X118380269Y-101097588D01*
X118575178Y-100881355D01*
X118644799Y-100764477D01*
X118679294Y-100829014D01*
X118864866Y-101055134D01*
X119090986Y-101240706D01*
X119348966Y-101378599D01*
X119628889Y-101463513D01*
X119847050Y-101485000D01*
X119992950Y-101485000D01*
X120211111Y-101463513D01*
X120491034Y-101378599D01*
X120749014Y-101240706D01*
X120975134Y-101055134D01*
X121160706Y-100829014D01*
X121195201Y-100764477D01*
X121264822Y-100881355D01*
X121459731Y-101097588D01*
X121693080Y-101271641D01*
X121955901Y-101396825D01*
X122103110Y-101441476D01*
X122333000Y-101320155D01*
X122333000Y-100127000D01*
X122313000Y-100127000D01*
X122313000Y-99873000D01*
X122333000Y-99873000D01*
X122333000Y-98679845D01*
X122587000Y-98679845D01*
X122587000Y-99873000D01*
X122607000Y-99873000D01*
X122607000Y-100127000D01*
X122587000Y-100127000D01*
X122587000Y-101320155D01*
X122816890Y-101441476D01*
X122964099Y-101396825D01*
X123226920Y-101271641D01*
X123460269Y-101097588D01*
X123655178Y-100881355D01*
X123724799Y-100764477D01*
X123759294Y-100829014D01*
X123944866Y-101055134D01*
X124170986Y-101240706D01*
X124428966Y-101378599D01*
X124708889Y-101463513D01*
X124927050Y-101485000D01*
X125072950Y-101485000D01*
X125291111Y-101463513D01*
X125571034Y-101378599D01*
X125829014Y-101240706D01*
X126055134Y-101055134D01*
X126240706Y-100829014D01*
X126275201Y-100764477D01*
X126344822Y-100881355D01*
X126539731Y-101097588D01*
X126773080Y-101271641D01*
X127035901Y-101396825D01*
X127183110Y-101441476D01*
X127413000Y-101320155D01*
X127413000Y-100127000D01*
X127393000Y-100127000D01*
X127393000Y-99873000D01*
X127413000Y-99873000D01*
X127413000Y-98679845D01*
X127667000Y-98679845D01*
X127667000Y-99873000D01*
X127687000Y-99873000D01*
X127687000Y-100127000D01*
X127667000Y-100127000D01*
X127667000Y-101320155D01*
X127896890Y-101441476D01*
X128044099Y-101396825D01*
X128306920Y-101271641D01*
X128540269Y-101097588D01*
X128735178Y-100881355D01*
X128804799Y-100764477D01*
X128839294Y-100829014D01*
X129024866Y-101055134D01*
X129250986Y-101240706D01*
X129508966Y-101378599D01*
X129788889Y-101463513D01*
X130007050Y-101485000D01*
X130152950Y-101485000D01*
X130371111Y-101463513D01*
X130651034Y-101378599D01*
X130909014Y-101240706D01*
X131135134Y-101055134D01*
X131320706Y-100829014D01*
X131355201Y-100764477D01*
X131424822Y-100881355D01*
X131619731Y-101097588D01*
X131853080Y-101271641D01*
X132115901Y-101396825D01*
X132263110Y-101441476D01*
X132493000Y-101320155D01*
X132493000Y-100127000D01*
X132747000Y-100127000D01*
X132747000Y-101320155D01*
X132976890Y-101441476D01*
X133124099Y-101396825D01*
X133386920Y-101271641D01*
X133620269Y-101097588D01*
X133815178Y-100881355D01*
X133964157Y-100631252D01*
X134061481Y-100356891D01*
X133940814Y-100127000D01*
X132747000Y-100127000D01*
X132493000Y-100127000D01*
X132473000Y-100127000D01*
X132473000Y-99975695D01*
X163646520Y-99975695D01*
X163715822Y-100727938D01*
X163930548Y-101452208D01*
X164282445Y-102120670D01*
X164309452Y-102161088D01*
X164799119Y-102521276D01*
X167320395Y-100000000D01*
X167679605Y-100000000D01*
X170200881Y-102521276D01*
X170690548Y-102161088D01*
X171050849Y-101497118D01*
X171274694Y-100775615D01*
X171353480Y-100024305D01*
X171284178Y-99272062D01*
X171069452Y-98547792D01*
X170717555Y-97879330D01*
X170690548Y-97838912D01*
X170200881Y-97478724D01*
X167679605Y-100000000D01*
X167320395Y-100000000D01*
X164799119Y-97478724D01*
X164309452Y-97838912D01*
X163949151Y-98502882D01*
X163725306Y-99224385D01*
X163646520Y-99975695D01*
X132473000Y-99975695D01*
X132473000Y-99873000D01*
X132493000Y-99873000D01*
X132493000Y-98679845D01*
X132747000Y-98679845D01*
X132747000Y-99873000D01*
X133940814Y-99873000D01*
X134061481Y-99643109D01*
X133964157Y-99368748D01*
X133815178Y-99118645D01*
X133620269Y-98902412D01*
X133386920Y-98728359D01*
X133124099Y-98603175D01*
X132976890Y-98558524D01*
X132747000Y-98679845D01*
X132493000Y-98679845D01*
X132263110Y-98558524D01*
X132115901Y-98603175D01*
X131853080Y-98728359D01*
X131619731Y-98902412D01*
X131424822Y-99118645D01*
X131355201Y-99235523D01*
X131320706Y-99170986D01*
X131135134Y-98944866D01*
X130909014Y-98759294D01*
X130651034Y-98621401D01*
X130371111Y-98536487D01*
X130152950Y-98515000D01*
X130007050Y-98515000D01*
X129788889Y-98536487D01*
X129508966Y-98621401D01*
X129250986Y-98759294D01*
X129024866Y-98944866D01*
X128839294Y-99170986D01*
X128804799Y-99235523D01*
X128735178Y-99118645D01*
X128540269Y-98902412D01*
X128306920Y-98728359D01*
X128044099Y-98603175D01*
X127896890Y-98558524D01*
X127667000Y-98679845D01*
X127413000Y-98679845D01*
X127183110Y-98558524D01*
X127035901Y-98603175D01*
X126773080Y-98728359D01*
X126539731Y-98902412D01*
X126344822Y-99118645D01*
X126275201Y-99235523D01*
X126240706Y-99170986D01*
X126055134Y-98944866D01*
X125829014Y-98759294D01*
X125571034Y-98621401D01*
X125291111Y-98536487D01*
X125072950Y-98515000D01*
X124927050Y-98515000D01*
X124708889Y-98536487D01*
X124428966Y-98621401D01*
X124170986Y-98759294D01*
X123944866Y-98944866D01*
X123759294Y-99170986D01*
X123724799Y-99235523D01*
X123655178Y-99118645D01*
X123460269Y-98902412D01*
X123226920Y-98728359D01*
X122964099Y-98603175D01*
X122816890Y-98558524D01*
X122587000Y-98679845D01*
X122333000Y-98679845D01*
X122103110Y-98558524D01*
X121955901Y-98603175D01*
X121693080Y-98728359D01*
X121459731Y-98902412D01*
X121264822Y-99118645D01*
X121195201Y-99235523D01*
X121160706Y-99170986D01*
X120975134Y-98944866D01*
X120749014Y-98759294D01*
X120491034Y-98621401D01*
X120211111Y-98536487D01*
X119992950Y-98515000D01*
X119847050Y-98515000D01*
X119628889Y-98536487D01*
X119348966Y-98621401D01*
X119090986Y-98759294D01*
X118864866Y-98944866D01*
X118679294Y-99170986D01*
X118644799Y-99235523D01*
X118575178Y-99118645D01*
X118380269Y-98902412D01*
X118146920Y-98728359D01*
X117884099Y-98603175D01*
X117736890Y-98558524D01*
X117507000Y-98679845D01*
X117253000Y-98679845D01*
X117023110Y-98558524D01*
X116875901Y-98603175D01*
X116613080Y-98728359D01*
X116379731Y-98902412D01*
X116303966Y-98986466D01*
X116279502Y-98905820D01*
X116220537Y-98795506D01*
X116141185Y-98698815D01*
X116044494Y-98619463D01*
X115934180Y-98560498D01*
X115814482Y-98524188D01*
X115690000Y-98511928D01*
X113990000Y-98511928D01*
X113865518Y-98524188D01*
X113745820Y-98560498D01*
X113635506Y-98619463D01*
X113538815Y-98698815D01*
X113459463Y-98795506D01*
X113400498Y-98905820D01*
X113364188Y-99025518D01*
X113351928Y-99150000D01*
X80126990Y-99150000D01*
X80126988Y-97620000D01*
X138658541Y-97620000D01*
X138684317Y-97881706D01*
X138760653Y-98133354D01*
X138884618Y-98365275D01*
X139051445Y-98568555D01*
X139254725Y-98735382D01*
X139486646Y-98859347D01*
X139738294Y-98935683D01*
X139934421Y-98955000D01*
X140065579Y-98955000D01*
X140261706Y-98935683D01*
X140513354Y-98859347D01*
X140745275Y-98735382D01*
X140948555Y-98568555D01*
X141115382Y-98365275D01*
X141239347Y-98133354D01*
X141315683Y-97881706D01*
X141341459Y-97620000D01*
X141315683Y-97358294D01*
X141297733Y-97299119D01*
X164978724Y-97299119D01*
X167500000Y-99820395D01*
X170021276Y-97299119D01*
X169661088Y-96809452D01*
X168997118Y-96449151D01*
X168275615Y-96225306D01*
X167524305Y-96146520D01*
X166772062Y-96215822D01*
X166047792Y-96430548D01*
X165379330Y-96782445D01*
X165338912Y-96809452D01*
X164978724Y-97299119D01*
X141297733Y-97299119D01*
X141239347Y-97106646D01*
X141115382Y-96874725D01*
X140948555Y-96671445D01*
X140745275Y-96504618D01*
X140513354Y-96380653D01*
X140261706Y-96304317D01*
X140065579Y-96285000D01*
X139934421Y-96285000D01*
X139738294Y-96304317D01*
X139486646Y-96380653D01*
X139254725Y-96504618D01*
X139051445Y-96671445D01*
X138884618Y-96874725D01*
X138760653Y-97106646D01*
X138684317Y-97358294D01*
X138658541Y-97620000D01*
X80126988Y-97620000D01*
X80126984Y-95921269D01*
X81758336Y-95921269D01*
X81817797Y-96155037D01*
X82056242Y-96265934D01*
X82311740Y-96328183D01*
X82574473Y-96339390D01*
X82834344Y-96299125D01*
X83081366Y-96208935D01*
X83182203Y-96155037D01*
X83241664Y-95921269D01*
X82500000Y-95179605D01*
X81758336Y-95921269D01*
X80126984Y-95921269D01*
X80126982Y-95074473D01*
X81160610Y-95074473D01*
X81200875Y-95334344D01*
X81291065Y-95581366D01*
X81344963Y-95682203D01*
X81578731Y-95741664D01*
X82320395Y-95000000D01*
X82679605Y-95000000D01*
X83421269Y-95741664D01*
X83655037Y-95682203D01*
X83761482Y-95453330D01*
X88707278Y-95453330D01*
X88797147Y-95699123D01*
X88933241Y-95922660D01*
X89110330Y-96115351D01*
X89321608Y-96269792D01*
X89558956Y-96380047D01*
X89666671Y-96412716D01*
X89873000Y-96289374D01*
X89873000Y-95247000D01*
X90127000Y-95247000D01*
X90127000Y-96289374D01*
X90333329Y-96412716D01*
X90441044Y-96380047D01*
X90678392Y-96269792D01*
X90889670Y-96115351D01*
X91066759Y-95922660D01*
X91202853Y-95699123D01*
X91292722Y-95453330D01*
X91170201Y-95247000D01*
X90127000Y-95247000D01*
X89873000Y-95247000D01*
X88829799Y-95247000D01*
X88707278Y-95453330D01*
X83761482Y-95453330D01*
X83765934Y-95443758D01*
X83828183Y-95188260D01*
X83839390Y-94925527D01*
X83817876Y-94786670D01*
X88707278Y-94786670D01*
X88829799Y-94993000D01*
X89873000Y-94993000D01*
X89873000Y-93950626D01*
X90127000Y-93950626D01*
X90127000Y-94993000D01*
X91170201Y-94993000D01*
X91292722Y-94786670D01*
X91202853Y-94540877D01*
X91066759Y-94317340D01*
X90889670Y-94124649D01*
X90678392Y-93970208D01*
X90441044Y-93859953D01*
X90333329Y-93827284D01*
X90127000Y-93950626D01*
X89873000Y-93950626D01*
X89666671Y-93827284D01*
X89558956Y-93859953D01*
X89321608Y-93970208D01*
X89110330Y-94124649D01*
X88933241Y-94317340D01*
X88797147Y-94540877D01*
X88707278Y-94786670D01*
X83817876Y-94786670D01*
X83799125Y-94665656D01*
X83708935Y-94418634D01*
X83655037Y-94317797D01*
X83421269Y-94258336D01*
X82679605Y-95000000D01*
X82320395Y-95000000D01*
X81578731Y-94258336D01*
X81344963Y-94317797D01*
X81234066Y-94556242D01*
X81171817Y-94811740D01*
X81160610Y-95074473D01*
X80126982Y-95074473D01*
X80126981Y-94078731D01*
X81758336Y-94078731D01*
X82500000Y-94820395D01*
X83241664Y-94078731D01*
X83182203Y-93844963D01*
X82943758Y-93734066D01*
X82688260Y-93671817D01*
X82425527Y-93660610D01*
X82165656Y-93700875D01*
X81918634Y-93791065D01*
X81817797Y-93844963D01*
X81758336Y-94078731D01*
X80126981Y-94078731D01*
X80126981Y-93590000D01*
X168511928Y-93590000D01*
X168524188Y-93714482D01*
X168560498Y-93834180D01*
X168619463Y-93944494D01*
X168698815Y-94041185D01*
X168795506Y-94120537D01*
X168905820Y-94179502D01*
X169025518Y-94215812D01*
X169150000Y-94228072D01*
X169714250Y-94225000D01*
X169873000Y-94066250D01*
X169873000Y-92867000D01*
X170127000Y-92867000D01*
X170127000Y-94066250D01*
X170285750Y-94225000D01*
X170850000Y-94228072D01*
X170974482Y-94215812D01*
X171094180Y-94179502D01*
X171204494Y-94120537D01*
X171301185Y-94041185D01*
X171380537Y-93944494D01*
X171439502Y-93834180D01*
X171475812Y-93714482D01*
X171488072Y-93590000D01*
X171485000Y-93025750D01*
X171326250Y-92867000D01*
X170127000Y-92867000D01*
X169873000Y-92867000D01*
X168673750Y-92867000D01*
X168515000Y-93025750D01*
X168511928Y-93590000D01*
X80126981Y-93590000D01*
X80126974Y-90469039D01*
X103208096Y-90469039D01*
X103225633Y-90551818D01*
X103336285Y-90811646D01*
X103495500Y-91044895D01*
X103697161Y-91242601D01*
X103933517Y-91397166D01*
X104195486Y-91502650D01*
X104473000Y-91555000D01*
X104873000Y-91555000D01*
X104873000Y-90247000D01*
X105127000Y-90247000D01*
X105127000Y-91555000D01*
X105527000Y-91555000D01*
X105804514Y-91502650D01*
X106066483Y-91397166D01*
X106302839Y-91242601D01*
X106504500Y-91044895D01*
X106663715Y-90811646D01*
X106774367Y-90551818D01*
X106791904Y-90469039D01*
X106669915Y-90247000D01*
X105127000Y-90247000D01*
X104873000Y-90247000D01*
X103330085Y-90247000D01*
X103208096Y-90469039D01*
X80126974Y-90469039D01*
X80126968Y-87380000D01*
X81158541Y-87380000D01*
X81184317Y-87641706D01*
X81260653Y-87893354D01*
X81384618Y-88125275D01*
X81551445Y-88328555D01*
X81754725Y-88495382D01*
X81986646Y-88619347D01*
X82238294Y-88695683D01*
X82434421Y-88715000D01*
X82565579Y-88715000D01*
X82761706Y-88695683D01*
X83013354Y-88619347D01*
X83245275Y-88495382D01*
X83448555Y-88328555D01*
X83615382Y-88125275D01*
X83739347Y-87893354D01*
X83815683Y-87641706D01*
X83841459Y-87380000D01*
X83840328Y-87368514D01*
X88665000Y-87368514D01*
X88665000Y-87631486D01*
X88716304Y-87889405D01*
X88816939Y-88132359D01*
X88963038Y-88351013D01*
X89148987Y-88536962D01*
X89367641Y-88683061D01*
X89610595Y-88783696D01*
X89868514Y-88835000D01*
X90131486Y-88835000D01*
X90389405Y-88783696D01*
X90632359Y-88683061D01*
X90851013Y-88536962D01*
X91036962Y-88351013D01*
X91183061Y-88132359D01*
X91283696Y-87889405D01*
X91335000Y-87631486D01*
X91335000Y-87368514D01*
X91283696Y-87110595D01*
X91183061Y-86867641D01*
X91036962Y-86648987D01*
X90851013Y-86463038D01*
X90632359Y-86316939D01*
X90389405Y-86216304D01*
X90131486Y-86165000D01*
X89868514Y-86165000D01*
X89610595Y-86216304D01*
X89367641Y-86316939D01*
X89148987Y-86463038D01*
X88963038Y-86648987D01*
X88816939Y-86867641D01*
X88716304Y-87110595D01*
X88665000Y-87368514D01*
X83840328Y-87368514D01*
X83815683Y-87118294D01*
X83739347Y-86866646D01*
X83615382Y-86634725D01*
X83448555Y-86431445D01*
X83245275Y-86264618D01*
X83013354Y-86140653D01*
X82761706Y-86064317D01*
X82565579Y-86045000D01*
X82434421Y-86045000D01*
X82238294Y-86064317D01*
X81986646Y-86140653D01*
X81754725Y-86264618D01*
X81551445Y-86431445D01*
X81384618Y-86634725D01*
X81260653Y-86866646D01*
X81184317Y-87118294D01*
X81158541Y-87380000D01*
X80126968Y-87380000D01*
X80126964Y-84960000D01*
X96007815Y-84960000D01*
X96036487Y-85251111D01*
X96121401Y-85531034D01*
X96259294Y-85789014D01*
X96444866Y-86015134D01*
X96474687Y-86039607D01*
X96405820Y-86060498D01*
X96295506Y-86119463D01*
X96198815Y-86198815D01*
X96119463Y-86295506D01*
X96060498Y-86405820D01*
X96024188Y-86525518D01*
X96011928Y-86650000D01*
X96011928Y-88350000D01*
X96024188Y-88474482D01*
X96060498Y-88594180D01*
X96119463Y-88704494D01*
X96198815Y-88801185D01*
X96295506Y-88880537D01*
X96405820Y-88939502D01*
X96525518Y-88975812D01*
X96650000Y-88988072D01*
X98350000Y-88988072D01*
X98474482Y-88975812D01*
X98594180Y-88939502D01*
X98704494Y-88880537D01*
X98801185Y-88801185D01*
X98880537Y-88704494D01*
X98939502Y-88594180D01*
X98975812Y-88474482D01*
X98988072Y-88350000D01*
X98988072Y-86650000D01*
X98975812Y-86525518D01*
X98939502Y-86405820D01*
X98880537Y-86295506D01*
X98801185Y-86198815D01*
X98704494Y-86119463D01*
X98594180Y-86060498D01*
X98525313Y-86039607D01*
X98555134Y-86015134D01*
X98740706Y-85789014D01*
X98878599Y-85531034D01*
X98963513Y-85251111D01*
X98984305Y-85040000D01*
X103158057Y-85040000D01*
X103185764Y-85321309D01*
X103267818Y-85591808D01*
X103401068Y-85841101D01*
X103580392Y-86059608D01*
X103798899Y-86238932D01*
X103931858Y-86310000D01*
X103798899Y-86381068D01*
X103580392Y-86560392D01*
X103401068Y-86778899D01*
X103267818Y-87028192D01*
X103185764Y-87298691D01*
X103158057Y-87580000D01*
X103185764Y-87861309D01*
X103267818Y-88131808D01*
X103401068Y-88381101D01*
X103580392Y-88599608D01*
X103798899Y-88778932D01*
X103926741Y-88847265D01*
X103697161Y-88997399D01*
X103495500Y-89195105D01*
X103336285Y-89428354D01*
X103225633Y-89688182D01*
X103208096Y-89770961D01*
X103330085Y-89993000D01*
X104873000Y-89993000D01*
X104873000Y-89973000D01*
X105127000Y-89973000D01*
X105127000Y-89993000D01*
X106669915Y-89993000D01*
X106791904Y-89770961D01*
X106774367Y-89688182D01*
X106663715Y-89428354D01*
X106504500Y-89195105D01*
X106302839Y-88997399D01*
X106073259Y-88847265D01*
X106201101Y-88778932D01*
X106419608Y-88599608D01*
X106598932Y-88381101D01*
X106732182Y-88131808D01*
X106814236Y-87861309D01*
X106841943Y-87580000D01*
X106814236Y-87298691D01*
X106732182Y-87028192D01*
X106598932Y-86778899D01*
X106419608Y-86560392D01*
X106201101Y-86381068D01*
X106068142Y-86310000D01*
X106201101Y-86238932D01*
X106419608Y-86059608D01*
X106598932Y-85841101D01*
X106732182Y-85591808D01*
X106814236Y-85321309D01*
X106841943Y-85040000D01*
X106814236Y-84758691D01*
X106732182Y-84488192D01*
X106598932Y-84238899D01*
X106419608Y-84020392D01*
X106306518Y-83927581D01*
X106324482Y-83925812D01*
X106444180Y-83889502D01*
X106554494Y-83830537D01*
X106651185Y-83751185D01*
X106730537Y-83654494D01*
X106789502Y-83544180D01*
X106825812Y-83424482D01*
X106838072Y-83300000D01*
X106838072Y-82500000D01*
X110778057Y-82500000D01*
X110805764Y-82781309D01*
X110887818Y-83051808D01*
X111021068Y-83301101D01*
X111200392Y-83519608D01*
X111418899Y-83698932D01*
X111551858Y-83770000D01*
X111418899Y-83841068D01*
X111200392Y-84020392D01*
X111021068Y-84238899D01*
X110887818Y-84488192D01*
X110805764Y-84758691D01*
X110778057Y-85040000D01*
X110805764Y-85321309D01*
X110887818Y-85591808D01*
X111021068Y-85841101D01*
X111200392Y-86059608D01*
X111418899Y-86238932D01*
X111551858Y-86310000D01*
X111418899Y-86381068D01*
X111200392Y-86560392D01*
X111021068Y-86778899D01*
X110887818Y-87028192D01*
X110805764Y-87298691D01*
X110778057Y-87580000D01*
X110805764Y-87861309D01*
X110887818Y-88131808D01*
X111021068Y-88381101D01*
X111200392Y-88599608D01*
X111418899Y-88778932D01*
X111551858Y-88850000D01*
X111418899Y-88921068D01*
X111200392Y-89100392D01*
X111021068Y-89318899D01*
X110887818Y-89568192D01*
X110805764Y-89838691D01*
X110778057Y-90120000D01*
X110805764Y-90401309D01*
X110887818Y-90671808D01*
X111021068Y-90921101D01*
X111200392Y-91139608D01*
X111418899Y-91318932D01*
X111668192Y-91452182D01*
X111938691Y-91534236D01*
X112149508Y-91555000D01*
X113090492Y-91555000D01*
X113301309Y-91534236D01*
X113571808Y-91452182D01*
X113821101Y-91318932D01*
X114039608Y-91139608D01*
X114218932Y-90921101D01*
X114352182Y-90671808D01*
X114434236Y-90401309D01*
X114461943Y-90120000D01*
X114434236Y-89838691D01*
X114352182Y-89568192D01*
X114218932Y-89318899D01*
X114039608Y-89100392D01*
X113821101Y-88921068D01*
X113688142Y-88850000D01*
X113821101Y-88778932D01*
X114039608Y-88599608D01*
X114218932Y-88381101D01*
X114352182Y-88131808D01*
X114434236Y-87861309D01*
X114461943Y-87580000D01*
X114434236Y-87298691D01*
X114352182Y-87028192D01*
X114218932Y-86778899D01*
X114039608Y-86560392D01*
X113821101Y-86381068D01*
X113688142Y-86310000D01*
X113821101Y-86238932D01*
X114039608Y-86059608D01*
X114218932Y-85841101D01*
X114352182Y-85591808D01*
X114434236Y-85321309D01*
X114461943Y-85040000D01*
X118158057Y-85040000D01*
X118185764Y-85321309D01*
X118267818Y-85591808D01*
X118401068Y-85841101D01*
X118580392Y-86059608D01*
X118798899Y-86238932D01*
X118931858Y-86310000D01*
X118798899Y-86381068D01*
X118580392Y-86560392D01*
X118401068Y-86778899D01*
X118267818Y-87028192D01*
X118185764Y-87298691D01*
X118158057Y-87580000D01*
X118185764Y-87861309D01*
X118267818Y-88131808D01*
X118401068Y-88381101D01*
X118580392Y-88599608D01*
X118798899Y-88778932D01*
X118931858Y-88850000D01*
X118798899Y-88921068D01*
X118580392Y-89100392D01*
X118401068Y-89318899D01*
X118267818Y-89568192D01*
X118185764Y-89838691D01*
X118158057Y-90120000D01*
X118185764Y-90401309D01*
X118267818Y-90671808D01*
X118401068Y-90921101D01*
X118580392Y-91139608D01*
X118798899Y-91318932D01*
X119048192Y-91452182D01*
X119318691Y-91534236D01*
X119529508Y-91555000D01*
X120470492Y-91555000D01*
X120681309Y-91534236D01*
X120951808Y-91452182D01*
X121201101Y-91318932D01*
X121419608Y-91139608D01*
X121598932Y-90921101D01*
X121732182Y-90671808D01*
X121814236Y-90401309D01*
X121841943Y-90120000D01*
X121814236Y-89838691D01*
X121732182Y-89568192D01*
X121598932Y-89318899D01*
X121419608Y-89100392D01*
X121201101Y-88921068D01*
X121068142Y-88850000D01*
X121201101Y-88778932D01*
X121419608Y-88599608D01*
X121598932Y-88381101D01*
X121732182Y-88131808D01*
X121814236Y-87861309D01*
X121841943Y-87580000D01*
X121814236Y-87298691D01*
X121732182Y-87028192D01*
X121598932Y-86778899D01*
X121419608Y-86560392D01*
X121201101Y-86381068D01*
X121068142Y-86310000D01*
X121201101Y-86238932D01*
X121419608Y-86059608D01*
X121598932Y-85841101D01*
X121732182Y-85591808D01*
X121814236Y-85321309D01*
X121841943Y-85040000D01*
X121814236Y-84758691D01*
X121732182Y-84488192D01*
X121598932Y-84238899D01*
X121419608Y-84020392D01*
X121306518Y-83927581D01*
X121324482Y-83925812D01*
X121444180Y-83889502D01*
X121554494Y-83830537D01*
X121651185Y-83751185D01*
X121730537Y-83654494D01*
X121789502Y-83544180D01*
X121825812Y-83424482D01*
X121838072Y-83300000D01*
X121835000Y-82785750D01*
X121676250Y-82627000D01*
X120127000Y-82627000D01*
X120127000Y-82647000D01*
X119873000Y-82647000D01*
X119873000Y-82627000D01*
X118323750Y-82627000D01*
X118165000Y-82785750D01*
X118161928Y-83300000D01*
X118174188Y-83424482D01*
X118210498Y-83544180D01*
X118269463Y-83654494D01*
X118348815Y-83751185D01*
X118445506Y-83830537D01*
X118555820Y-83889502D01*
X118675518Y-83925812D01*
X118693482Y-83927581D01*
X118580392Y-84020392D01*
X118401068Y-84238899D01*
X118267818Y-84488192D01*
X118185764Y-84758691D01*
X118158057Y-85040000D01*
X114461943Y-85040000D01*
X114434236Y-84758691D01*
X114352182Y-84488192D01*
X114218932Y-84238899D01*
X114039608Y-84020392D01*
X113821101Y-83841068D01*
X113688142Y-83770000D01*
X113821101Y-83698932D01*
X114039608Y-83519608D01*
X114218932Y-83301101D01*
X114352182Y-83051808D01*
X114434236Y-82781309D01*
X114461943Y-82500000D01*
X125778057Y-82500000D01*
X125805764Y-82781309D01*
X125887818Y-83051808D01*
X126021068Y-83301101D01*
X126200392Y-83519608D01*
X126418899Y-83698932D01*
X126551858Y-83770000D01*
X126418899Y-83841068D01*
X126200392Y-84020392D01*
X126021068Y-84238899D01*
X125887818Y-84488192D01*
X125805764Y-84758691D01*
X125778057Y-85040000D01*
X125805764Y-85321309D01*
X125887818Y-85591808D01*
X126021068Y-85841101D01*
X126200392Y-86059608D01*
X126418899Y-86238932D01*
X126551858Y-86310000D01*
X126418899Y-86381068D01*
X126200392Y-86560392D01*
X126021068Y-86778899D01*
X125887818Y-87028192D01*
X125805764Y-87298691D01*
X125778057Y-87580000D01*
X125805764Y-87861309D01*
X125887818Y-88131808D01*
X126021068Y-88381101D01*
X126200392Y-88599608D01*
X126418899Y-88778932D01*
X126551858Y-88850000D01*
X126418899Y-88921068D01*
X126200392Y-89100392D01*
X126021068Y-89318899D01*
X125887818Y-89568192D01*
X125805764Y-89838691D01*
X125778057Y-90120000D01*
X125805764Y-90401309D01*
X125887818Y-90671808D01*
X126021068Y-90921101D01*
X126200392Y-91139608D01*
X126418899Y-91318932D01*
X126668192Y-91452182D01*
X126938691Y-91534236D01*
X127149508Y-91555000D01*
X128090492Y-91555000D01*
X128301309Y-91534236D01*
X128571808Y-91452182D01*
X128821101Y-91318932D01*
X129039608Y-91139608D01*
X129218932Y-90921101D01*
X129352182Y-90671808D01*
X129434236Y-90401309D01*
X129461943Y-90120000D01*
X129436204Y-89858665D01*
X131065000Y-89858665D01*
X131065000Y-90141335D01*
X131120147Y-90418574D01*
X131228320Y-90679727D01*
X131385363Y-90914759D01*
X131585241Y-91114637D01*
X131820273Y-91271680D01*
X132081426Y-91379853D01*
X132358665Y-91435000D01*
X132641335Y-91435000D01*
X132918574Y-91379853D01*
X133179727Y-91271680D01*
X133414759Y-91114637D01*
X133614637Y-90914759D01*
X133771680Y-90679727D01*
X133879853Y-90418574D01*
X133935000Y-90141335D01*
X133935000Y-89868514D01*
X138665000Y-89868514D01*
X138665000Y-90131486D01*
X138716304Y-90389405D01*
X138816939Y-90632359D01*
X138963038Y-90851013D01*
X139148987Y-91036962D01*
X139367641Y-91183061D01*
X139610595Y-91283696D01*
X139868514Y-91335000D01*
X140131486Y-91335000D01*
X140389405Y-91283696D01*
X140632359Y-91183061D01*
X140851013Y-91036962D01*
X141036962Y-90851013D01*
X141183061Y-90632359D01*
X141283696Y-90389405D01*
X141335000Y-90131486D01*
X141335000Y-89868514D01*
X141283696Y-89610595D01*
X141183061Y-89367641D01*
X141036962Y-89148987D01*
X140851013Y-88963038D01*
X140632359Y-88816939D01*
X140389405Y-88716304D01*
X140131486Y-88665000D01*
X139868514Y-88665000D01*
X139610595Y-88716304D01*
X139367641Y-88816939D01*
X139148987Y-88963038D01*
X138963038Y-89148987D01*
X138816939Y-89367641D01*
X138716304Y-89610595D01*
X138665000Y-89868514D01*
X133935000Y-89868514D01*
X133935000Y-89858665D01*
X133879853Y-89581426D01*
X133771680Y-89320273D01*
X133614637Y-89085241D01*
X133414759Y-88885363D01*
X133179727Y-88728320D01*
X132918574Y-88620147D01*
X132641335Y-88565000D01*
X132358665Y-88565000D01*
X132081426Y-88620147D01*
X131820273Y-88728320D01*
X131585241Y-88885363D01*
X131385363Y-89085241D01*
X131228320Y-89320273D01*
X131120147Y-89581426D01*
X131065000Y-89858665D01*
X129436204Y-89858665D01*
X129434236Y-89838691D01*
X129352182Y-89568192D01*
X129218932Y-89318899D01*
X129039608Y-89100392D01*
X128821101Y-88921068D01*
X128688142Y-88850000D01*
X128821101Y-88778932D01*
X129039608Y-88599608D01*
X129218932Y-88381101D01*
X129352182Y-88131808D01*
X129434236Y-87861309D01*
X129461943Y-87580000D01*
X129434236Y-87298691D01*
X129352182Y-87028192D01*
X129218932Y-86778899D01*
X129039608Y-86560392D01*
X128821101Y-86381068D01*
X128688142Y-86310000D01*
X128821101Y-86238932D01*
X129039608Y-86059608D01*
X129094516Y-85992702D01*
X131686903Y-85992702D01*
X131758486Y-86236671D01*
X132013996Y-86357571D01*
X132288184Y-86426300D01*
X132570512Y-86440217D01*
X132850130Y-86398787D01*
X133116292Y-86303603D01*
X133241514Y-86236671D01*
X133313097Y-85992702D01*
X132500000Y-85179605D01*
X131686903Y-85992702D01*
X129094516Y-85992702D01*
X129218932Y-85841101D01*
X129352182Y-85591808D01*
X129434236Y-85321309D01*
X129458937Y-85070512D01*
X131059783Y-85070512D01*
X131101213Y-85350130D01*
X131196397Y-85616292D01*
X131263329Y-85741514D01*
X131507298Y-85813097D01*
X132320395Y-85000000D01*
X132679605Y-85000000D01*
X133492702Y-85813097D01*
X133736671Y-85741514D01*
X133857571Y-85486004D01*
X133926300Y-85211816D01*
X133930825Y-85120000D01*
X138658541Y-85120000D01*
X138684317Y-85381706D01*
X138760653Y-85633354D01*
X138884618Y-85865275D01*
X139051445Y-86068555D01*
X139254725Y-86235382D01*
X139486646Y-86359347D01*
X139738294Y-86435683D01*
X139934421Y-86455000D01*
X140065579Y-86455000D01*
X140261706Y-86435683D01*
X140513354Y-86359347D01*
X140745275Y-86235382D01*
X140948555Y-86068555D01*
X141115382Y-85865275D01*
X141239347Y-85633354D01*
X141315683Y-85381706D01*
X141341459Y-85120000D01*
X141315683Y-84858294D01*
X141239347Y-84606646D01*
X141115382Y-84374725D01*
X140948555Y-84171445D01*
X140745275Y-84004618D01*
X140513354Y-83880653D01*
X140261706Y-83804317D01*
X140065579Y-83785000D01*
X139934421Y-83785000D01*
X139738294Y-83804317D01*
X139486646Y-83880653D01*
X139254725Y-84004618D01*
X139051445Y-84171445D01*
X138884618Y-84374725D01*
X138760653Y-84606646D01*
X138684317Y-84858294D01*
X138658541Y-85120000D01*
X133930825Y-85120000D01*
X133940217Y-84929488D01*
X133898787Y-84649870D01*
X133803603Y-84383708D01*
X133736671Y-84258486D01*
X133492702Y-84186903D01*
X132679605Y-85000000D01*
X132320395Y-85000000D01*
X131507298Y-84186903D01*
X131263329Y-84258486D01*
X131142429Y-84513996D01*
X131073700Y-84788184D01*
X131059783Y-85070512D01*
X129458937Y-85070512D01*
X129461943Y-85040000D01*
X129434236Y-84758691D01*
X129352182Y-84488192D01*
X129218932Y-84238899D01*
X129039608Y-84020392D01*
X129023653Y-84007298D01*
X131686903Y-84007298D01*
X132500000Y-84820395D01*
X133313097Y-84007298D01*
X133241514Y-83763329D01*
X132986004Y-83642429D01*
X132711816Y-83573700D01*
X132429488Y-83559783D01*
X132149870Y-83601213D01*
X131883708Y-83696397D01*
X131758486Y-83763329D01*
X131686903Y-84007298D01*
X129023653Y-84007298D01*
X128821101Y-83841068D01*
X128688142Y-83770000D01*
X128821101Y-83698932D01*
X129039608Y-83519608D01*
X129061689Y-83492702D01*
X144186903Y-83492702D01*
X144258486Y-83736671D01*
X144513996Y-83857571D01*
X144788184Y-83926300D01*
X145070512Y-83940217D01*
X145350130Y-83898787D01*
X145616292Y-83803603D01*
X145741514Y-83736671D01*
X145813097Y-83492702D01*
X145000000Y-82679605D01*
X144186903Y-83492702D01*
X129061689Y-83492702D01*
X129218932Y-83301101D01*
X129352182Y-83051808D01*
X129434236Y-82781309D01*
X129454998Y-82570512D01*
X143559783Y-82570512D01*
X143601213Y-82850130D01*
X143696397Y-83116292D01*
X143763329Y-83241514D01*
X144007298Y-83313097D01*
X144820395Y-82500000D01*
X145179605Y-82500000D01*
X145992702Y-83313097D01*
X146236671Y-83241514D01*
X146357571Y-82986004D01*
X146426300Y-82711816D01*
X146440217Y-82429488D01*
X146398787Y-82149870D01*
X146303603Y-81883708D01*
X146236671Y-81758486D01*
X145992702Y-81686903D01*
X145179605Y-82500000D01*
X144820395Y-82500000D01*
X144007298Y-81686903D01*
X143763329Y-81758486D01*
X143642429Y-82013996D01*
X143573700Y-82288184D01*
X143559783Y-82570512D01*
X129454998Y-82570512D01*
X129461943Y-82500000D01*
X129434236Y-82218691D01*
X129352182Y-81948192D01*
X129218932Y-81698899D01*
X129061690Y-81507298D01*
X144186903Y-81507298D01*
X145000000Y-82320395D01*
X145813097Y-81507298D01*
X145741514Y-81263329D01*
X145486004Y-81142429D01*
X145211816Y-81073700D01*
X144929488Y-81059783D01*
X144649870Y-81101213D01*
X144383708Y-81196397D01*
X144258486Y-81263329D01*
X144186903Y-81507298D01*
X129061690Y-81507298D01*
X129039608Y-81480392D01*
X128821101Y-81301068D01*
X128571808Y-81167818D01*
X128301309Y-81085764D01*
X128090492Y-81065000D01*
X127149508Y-81065000D01*
X126938691Y-81085764D01*
X126668192Y-81167818D01*
X126418899Y-81301068D01*
X126200392Y-81480392D01*
X126021068Y-81698899D01*
X125887818Y-81948192D01*
X125805764Y-82218691D01*
X125778057Y-82500000D01*
X114461943Y-82500000D01*
X114434236Y-82218691D01*
X114352182Y-81948192D01*
X114219521Y-81700000D01*
X118161928Y-81700000D01*
X118165000Y-82214250D01*
X118323750Y-82373000D01*
X119873000Y-82373000D01*
X119873000Y-81223750D01*
X120127000Y-81223750D01*
X120127000Y-82373000D01*
X121676250Y-82373000D01*
X121835000Y-82214250D01*
X121838072Y-81700000D01*
X121825812Y-81575518D01*
X121789502Y-81455820D01*
X121730537Y-81345506D01*
X121651185Y-81248815D01*
X121554494Y-81169463D01*
X121444180Y-81110498D01*
X121324482Y-81074188D01*
X121200000Y-81061928D01*
X120285750Y-81065000D01*
X120127000Y-81223750D01*
X119873000Y-81223750D01*
X119714250Y-81065000D01*
X118800000Y-81061928D01*
X118675518Y-81074188D01*
X118555820Y-81110498D01*
X118445506Y-81169463D01*
X118348815Y-81248815D01*
X118269463Y-81345506D01*
X118210498Y-81455820D01*
X118174188Y-81575518D01*
X118161928Y-81700000D01*
X114219521Y-81700000D01*
X114218932Y-81698899D01*
X114039608Y-81480392D01*
X113821101Y-81301068D01*
X113571808Y-81167818D01*
X113301309Y-81085764D01*
X113090492Y-81065000D01*
X112149508Y-81065000D01*
X111938691Y-81085764D01*
X111668192Y-81167818D01*
X111418899Y-81301068D01*
X111200392Y-81480392D01*
X111021068Y-81698899D01*
X110887818Y-81948192D01*
X110805764Y-82218691D01*
X110778057Y-82500000D01*
X106838072Y-82500000D01*
X106838072Y-81700000D01*
X106825812Y-81575518D01*
X106789502Y-81455820D01*
X106730537Y-81345506D01*
X106651185Y-81248815D01*
X106554494Y-81169463D01*
X106444180Y-81110498D01*
X106324482Y-81074188D01*
X106200000Y-81061928D01*
X103800000Y-81061928D01*
X103675518Y-81074188D01*
X103555820Y-81110498D01*
X103445506Y-81169463D01*
X103348815Y-81248815D01*
X103269463Y-81345506D01*
X103210498Y-81455820D01*
X103174188Y-81575518D01*
X103161928Y-81700000D01*
X103161928Y-83300000D01*
X103174188Y-83424482D01*
X103210498Y-83544180D01*
X103269463Y-83654494D01*
X103348815Y-83751185D01*
X103445506Y-83830537D01*
X103555820Y-83889502D01*
X103675518Y-83925812D01*
X103693482Y-83927581D01*
X103580392Y-84020392D01*
X103401068Y-84238899D01*
X103267818Y-84488192D01*
X103185764Y-84758691D01*
X103158057Y-85040000D01*
X98984305Y-85040000D01*
X98992185Y-84960000D01*
X98963513Y-84668889D01*
X98878599Y-84388966D01*
X98740706Y-84130986D01*
X98555134Y-83904866D01*
X98329014Y-83719294D01*
X98071034Y-83581401D01*
X97791111Y-83496487D01*
X97572950Y-83475000D01*
X97427050Y-83475000D01*
X97208889Y-83496487D01*
X96928966Y-83581401D01*
X96670986Y-83719294D01*
X96444866Y-83904866D01*
X96259294Y-84130986D01*
X96121401Y-84388966D01*
X96036487Y-84668889D01*
X96007815Y-84960000D01*
X80126964Y-84960000D01*
X80126941Y-72500000D01*
X80778057Y-72500000D01*
X80805764Y-72781309D01*
X80887818Y-73051808D01*
X81021068Y-73301101D01*
X81200392Y-73519608D01*
X81418899Y-73698932D01*
X81551858Y-73770000D01*
X81418899Y-73841068D01*
X81200392Y-74020392D01*
X81021068Y-74238899D01*
X80887818Y-74488192D01*
X80805764Y-74758691D01*
X80778057Y-75040000D01*
X80805764Y-75321309D01*
X80887818Y-75591808D01*
X81021068Y-75841101D01*
X81200392Y-76059608D01*
X81418899Y-76238932D01*
X81551858Y-76310000D01*
X81418899Y-76381068D01*
X81200392Y-76560392D01*
X81021068Y-76778899D01*
X80887818Y-77028192D01*
X80805764Y-77298691D01*
X80778057Y-77580000D01*
X80805764Y-77861309D01*
X80887818Y-78131808D01*
X81021068Y-78381101D01*
X81200392Y-78599608D01*
X81418899Y-78778932D01*
X81668192Y-78912182D01*
X81938691Y-78994236D01*
X82149508Y-79015000D01*
X83090492Y-79015000D01*
X83301309Y-78994236D01*
X83571808Y-78912182D01*
X83821101Y-78778932D01*
X84039608Y-78599608D01*
X84218932Y-78381101D01*
X84352182Y-78131808D01*
X84434236Y-77861309D01*
X84461943Y-77580000D01*
X84434236Y-77298691D01*
X84352182Y-77028192D01*
X84218932Y-76778899D01*
X84039608Y-76560392D01*
X83821101Y-76381068D01*
X83688142Y-76310000D01*
X83821101Y-76238932D01*
X84039608Y-76059608D01*
X84218932Y-75841101D01*
X84352182Y-75591808D01*
X84434236Y-75321309D01*
X84461943Y-75040000D01*
X84434236Y-74758691D01*
X84352182Y-74488192D01*
X84218932Y-74238899D01*
X84039608Y-74020392D01*
X83821101Y-73841068D01*
X83688142Y-73770000D01*
X83821101Y-73698932D01*
X84039608Y-73519608D01*
X84218932Y-73301101D01*
X84352182Y-73051808D01*
X84434236Y-72781309D01*
X84461943Y-72500000D01*
X84450124Y-72380000D01*
X88507815Y-72380000D01*
X88536487Y-72671111D01*
X88621401Y-72951034D01*
X88759294Y-73209014D01*
X88944866Y-73435134D01*
X89170986Y-73620706D01*
X89225791Y-73650000D01*
X89170986Y-73679294D01*
X88944866Y-73864866D01*
X88759294Y-74090986D01*
X88621401Y-74348966D01*
X88536487Y-74628889D01*
X88507815Y-74920000D01*
X88536487Y-75211111D01*
X88621401Y-75491034D01*
X88759294Y-75749014D01*
X88944866Y-75975134D01*
X89170986Y-76160706D01*
X89225791Y-76190000D01*
X89170986Y-76219294D01*
X88944866Y-76404866D01*
X88759294Y-76630986D01*
X88621401Y-76888966D01*
X88536487Y-77168889D01*
X88507815Y-77460000D01*
X88536487Y-77751111D01*
X88621401Y-78031034D01*
X88759294Y-78289014D01*
X88944866Y-78515134D01*
X88974687Y-78539607D01*
X88905820Y-78560498D01*
X88795506Y-78619463D01*
X88698815Y-78698815D01*
X88619463Y-78795506D01*
X88560498Y-78905820D01*
X88524188Y-79025518D01*
X88511928Y-79150000D01*
X88511928Y-80850000D01*
X88524188Y-80974482D01*
X88560498Y-81094180D01*
X88619463Y-81204494D01*
X88698815Y-81301185D01*
X88795506Y-81380537D01*
X88905820Y-81439502D01*
X89025518Y-81475812D01*
X89150000Y-81488072D01*
X90850000Y-81488072D01*
X90974482Y-81475812D01*
X91094180Y-81439502D01*
X91204494Y-81380537D01*
X91301185Y-81301185D01*
X91380537Y-81204494D01*
X91439502Y-81094180D01*
X91475812Y-80974482D01*
X91488072Y-80850000D01*
X91488072Y-79150000D01*
X91475812Y-79025518D01*
X91439502Y-78905820D01*
X91380537Y-78795506D01*
X91301185Y-78698815D01*
X91204494Y-78619463D01*
X91094180Y-78560498D01*
X91025313Y-78539607D01*
X91055134Y-78515134D01*
X91240706Y-78289014D01*
X91378599Y-78031034D01*
X91463513Y-77751111D01*
X91492185Y-77460000D01*
X91483175Y-77368514D01*
X138665000Y-77368514D01*
X138665000Y-77631486D01*
X138716304Y-77889405D01*
X138816939Y-78132359D01*
X138963038Y-78351013D01*
X139148987Y-78536962D01*
X139367641Y-78683061D01*
X139610595Y-78783696D01*
X139868514Y-78835000D01*
X140131486Y-78835000D01*
X140389405Y-78783696D01*
X140632359Y-78683061D01*
X140851013Y-78536962D01*
X141036962Y-78351013D01*
X141183061Y-78132359D01*
X141283696Y-77889405D01*
X141335000Y-77631486D01*
X141335000Y-77368514D01*
X141333041Y-77358665D01*
X143565000Y-77358665D01*
X143565000Y-77641335D01*
X143620147Y-77918574D01*
X143728320Y-78179727D01*
X143885363Y-78414759D01*
X144085241Y-78614637D01*
X144320273Y-78771680D01*
X144581426Y-78879853D01*
X144858665Y-78935000D01*
X145141335Y-78935000D01*
X145418574Y-78879853D01*
X145679727Y-78771680D01*
X145914759Y-78614637D01*
X146114637Y-78414759D01*
X146271680Y-78179727D01*
X146379853Y-77918574D01*
X146435000Y-77641335D01*
X146435000Y-77540000D01*
X150658057Y-77540000D01*
X150685764Y-77821309D01*
X150767818Y-78091808D01*
X150901068Y-78341101D01*
X151080392Y-78559608D01*
X151298899Y-78738932D01*
X151431858Y-78810000D01*
X151298899Y-78881068D01*
X151080392Y-79060392D01*
X150901068Y-79278899D01*
X150767818Y-79528192D01*
X150685764Y-79798691D01*
X150658057Y-80080000D01*
X150685764Y-80361309D01*
X150767818Y-80631808D01*
X150901068Y-80881101D01*
X151080392Y-81099608D01*
X151298899Y-81278932D01*
X151431858Y-81350000D01*
X151298899Y-81421068D01*
X151080392Y-81600392D01*
X150901068Y-81818899D01*
X150767818Y-82068192D01*
X150685764Y-82338691D01*
X150658057Y-82620000D01*
X150685764Y-82901309D01*
X150767818Y-83171808D01*
X150901068Y-83421101D01*
X151080392Y-83639608D01*
X151298899Y-83818932D01*
X151431858Y-83890000D01*
X151298899Y-83961068D01*
X151080392Y-84140392D01*
X150901068Y-84358899D01*
X150767818Y-84608192D01*
X150685764Y-84878691D01*
X150658057Y-85160000D01*
X150685764Y-85441309D01*
X150767818Y-85711808D01*
X150901068Y-85961101D01*
X151080392Y-86179608D01*
X151298899Y-86358932D01*
X151431858Y-86430000D01*
X151298899Y-86501068D01*
X151080392Y-86680392D01*
X150901068Y-86898899D01*
X150767818Y-87148192D01*
X150685764Y-87418691D01*
X150658057Y-87700000D01*
X150685764Y-87981309D01*
X150767818Y-88251808D01*
X150901068Y-88501101D01*
X151080392Y-88719608D01*
X151298899Y-88898932D01*
X151431858Y-88970000D01*
X151298899Y-89041068D01*
X151080392Y-89220392D01*
X150901068Y-89438899D01*
X150767818Y-89688192D01*
X150685764Y-89958691D01*
X150658057Y-90240000D01*
X150685764Y-90521309D01*
X150767818Y-90791808D01*
X150901068Y-91041101D01*
X151080392Y-91259608D01*
X151298899Y-91438932D01*
X151548192Y-91572182D01*
X151818691Y-91654236D01*
X152029508Y-91675000D01*
X152970492Y-91675000D01*
X153181309Y-91654236D01*
X153451808Y-91572182D01*
X153701101Y-91438932D01*
X153919608Y-91259608D01*
X154098932Y-91041101D01*
X154232182Y-90791808D01*
X154314236Y-90521309D01*
X154341943Y-90240000D01*
X154314236Y-89958691D01*
X154232182Y-89688192D01*
X154098932Y-89438899D01*
X153919608Y-89220392D01*
X153701101Y-89041068D01*
X153568142Y-88970000D01*
X153701101Y-88898932D01*
X153919608Y-88719608D01*
X154098932Y-88501101D01*
X154232182Y-88251808D01*
X154314236Y-87981309D01*
X154341943Y-87700000D01*
X154314236Y-87418691D01*
X154232182Y-87148192D01*
X154098932Y-86898899D01*
X153919608Y-86680392D01*
X153701101Y-86501068D01*
X153568142Y-86430000D01*
X153701101Y-86358932D01*
X153919608Y-86179608D01*
X154098932Y-85961101D01*
X154232182Y-85711808D01*
X154314236Y-85441309D01*
X154341943Y-85160000D01*
X158278057Y-85160000D01*
X158305764Y-85441309D01*
X158387818Y-85711808D01*
X158521068Y-85961101D01*
X158700392Y-86179608D01*
X158918899Y-86358932D01*
X159051858Y-86430000D01*
X158918899Y-86501068D01*
X158700392Y-86680392D01*
X158521068Y-86898899D01*
X158387818Y-87148192D01*
X158305764Y-87418691D01*
X158278057Y-87700000D01*
X158305764Y-87981309D01*
X158387818Y-88251808D01*
X158521068Y-88501101D01*
X158700392Y-88719608D01*
X158918899Y-88898932D01*
X159051858Y-88970000D01*
X158918899Y-89041068D01*
X158700392Y-89220392D01*
X158521068Y-89438899D01*
X158387818Y-89688192D01*
X158305764Y-89958691D01*
X158278057Y-90240000D01*
X158305764Y-90521309D01*
X158387818Y-90791808D01*
X158521068Y-91041101D01*
X158700392Y-91259608D01*
X158918899Y-91438932D01*
X159168192Y-91572182D01*
X159438691Y-91654236D01*
X159649508Y-91675000D01*
X160590492Y-91675000D01*
X160801309Y-91654236D01*
X161071808Y-91572182D01*
X161321101Y-91438932D01*
X161539608Y-91259608D01*
X161718932Y-91041101D01*
X161852182Y-90791808D01*
X161934236Y-90521309D01*
X161961943Y-90240000D01*
X161958004Y-90200000D01*
X168507815Y-90200000D01*
X168536487Y-90491111D01*
X168621401Y-90771034D01*
X168759294Y-91029014D01*
X168944866Y-91255134D01*
X168974687Y-91279607D01*
X168905820Y-91300498D01*
X168795506Y-91359463D01*
X168698815Y-91438815D01*
X168619463Y-91535506D01*
X168560498Y-91645820D01*
X168524188Y-91765518D01*
X168511928Y-91890000D01*
X168515000Y-92454250D01*
X168673750Y-92613000D01*
X169873000Y-92613000D01*
X169873000Y-92593000D01*
X170127000Y-92593000D01*
X170127000Y-92613000D01*
X171326250Y-92613000D01*
X171485000Y-92454250D01*
X171488072Y-91890000D01*
X171475812Y-91765518D01*
X171439502Y-91645820D01*
X171380537Y-91535506D01*
X171301185Y-91438815D01*
X171204494Y-91359463D01*
X171094180Y-91300498D01*
X171025313Y-91279607D01*
X171055134Y-91255134D01*
X171240706Y-91029014D01*
X171378599Y-90771034D01*
X171463513Y-90491111D01*
X171492185Y-90200000D01*
X171463513Y-89908889D01*
X171378599Y-89628966D01*
X171240706Y-89370986D01*
X171055134Y-89144866D01*
X170829014Y-88959294D01*
X170764477Y-88924799D01*
X170881355Y-88855178D01*
X171097588Y-88660269D01*
X171271641Y-88426920D01*
X171396825Y-88164099D01*
X171441476Y-88016890D01*
X171320155Y-87787000D01*
X170127000Y-87787000D01*
X170127000Y-87807000D01*
X169873000Y-87807000D01*
X169873000Y-87787000D01*
X168679845Y-87787000D01*
X168558524Y-88016890D01*
X168603175Y-88164099D01*
X168728359Y-88426920D01*
X168902412Y-88660269D01*
X169118645Y-88855178D01*
X169235523Y-88924799D01*
X169170986Y-88959294D01*
X168944866Y-89144866D01*
X168759294Y-89370986D01*
X168621401Y-89628966D01*
X168536487Y-89908889D01*
X168507815Y-90200000D01*
X161958004Y-90200000D01*
X161934236Y-89958691D01*
X161852182Y-89688192D01*
X161718932Y-89438899D01*
X161539608Y-89220392D01*
X161321101Y-89041068D01*
X161188142Y-88970000D01*
X161321101Y-88898932D01*
X161539608Y-88719608D01*
X161718932Y-88501101D01*
X161852182Y-88251808D01*
X161934236Y-87981309D01*
X161961943Y-87700000D01*
X161934236Y-87418691D01*
X161852182Y-87148192D01*
X161718932Y-86898899D01*
X161539608Y-86680392D01*
X161321101Y-86501068D01*
X161188142Y-86430000D01*
X161321101Y-86358932D01*
X161539608Y-86179608D01*
X161718932Y-85961101D01*
X161852182Y-85711808D01*
X161934236Y-85441309D01*
X161961943Y-85160000D01*
X161958004Y-85120000D01*
X168507815Y-85120000D01*
X168536487Y-85411111D01*
X168621401Y-85691034D01*
X168759294Y-85949014D01*
X168944866Y-86175134D01*
X169170986Y-86360706D01*
X169235523Y-86395201D01*
X169118645Y-86464822D01*
X168902412Y-86659731D01*
X168728359Y-86893080D01*
X168603175Y-87155901D01*
X168558524Y-87303110D01*
X168679845Y-87533000D01*
X169873000Y-87533000D01*
X169873000Y-87513000D01*
X170127000Y-87513000D01*
X170127000Y-87533000D01*
X171320155Y-87533000D01*
X171441476Y-87303110D01*
X171396825Y-87155901D01*
X171271641Y-86893080D01*
X171097588Y-86659731D01*
X170881355Y-86464822D01*
X170764477Y-86395201D01*
X170829014Y-86360706D01*
X171055134Y-86175134D01*
X171240706Y-85949014D01*
X171378599Y-85691034D01*
X171463513Y-85411111D01*
X171492185Y-85120000D01*
X171463513Y-84828889D01*
X171378599Y-84548966D01*
X171240706Y-84290986D01*
X171055134Y-84064866D01*
X170829014Y-83879294D01*
X170764477Y-83844799D01*
X170881355Y-83775178D01*
X171097588Y-83580269D01*
X171271641Y-83346920D01*
X171396825Y-83084099D01*
X171441476Y-82936890D01*
X171320155Y-82707000D01*
X170127000Y-82707000D01*
X170127000Y-82727000D01*
X169873000Y-82727000D01*
X169873000Y-82707000D01*
X168679845Y-82707000D01*
X168558524Y-82936890D01*
X168603175Y-83084099D01*
X168728359Y-83346920D01*
X168902412Y-83580269D01*
X169118645Y-83775178D01*
X169235523Y-83844799D01*
X169170986Y-83879294D01*
X168944866Y-84064866D01*
X168759294Y-84290986D01*
X168621401Y-84548966D01*
X168536487Y-84828889D01*
X168507815Y-85120000D01*
X161958004Y-85120000D01*
X161934236Y-84878691D01*
X161852182Y-84608192D01*
X161718932Y-84358899D01*
X161539608Y-84140392D01*
X161321101Y-83961068D01*
X161193259Y-83892735D01*
X161422839Y-83742601D01*
X161624500Y-83544895D01*
X161783715Y-83311646D01*
X161894367Y-83051818D01*
X161911904Y-82969039D01*
X161789915Y-82747000D01*
X160247000Y-82747000D01*
X160247000Y-82767000D01*
X159993000Y-82767000D01*
X159993000Y-82747000D01*
X158450085Y-82747000D01*
X158328096Y-82969039D01*
X158345633Y-83051818D01*
X158456285Y-83311646D01*
X158615500Y-83544895D01*
X158817161Y-83742601D01*
X159046741Y-83892735D01*
X158918899Y-83961068D01*
X158700392Y-84140392D01*
X158521068Y-84358899D01*
X158387818Y-84608192D01*
X158305764Y-84878691D01*
X158278057Y-85160000D01*
X154341943Y-85160000D01*
X154314236Y-84878691D01*
X154232182Y-84608192D01*
X154098932Y-84358899D01*
X153919608Y-84140392D01*
X153701101Y-83961068D01*
X153568142Y-83890000D01*
X153701101Y-83818932D01*
X153919608Y-83639608D01*
X154098932Y-83421101D01*
X154232182Y-83171808D01*
X154314236Y-82901309D01*
X154341943Y-82620000D01*
X154314236Y-82338691D01*
X154232182Y-82068192D01*
X154098932Y-81818899D01*
X153919608Y-81600392D01*
X153701101Y-81421068D01*
X153568142Y-81350000D01*
X153701101Y-81278932D01*
X153919608Y-81099608D01*
X154098932Y-80881101D01*
X154232182Y-80631808D01*
X154314236Y-80361309D01*
X154341943Y-80080000D01*
X154314236Y-79798691D01*
X154232182Y-79528192D01*
X154098932Y-79278899D01*
X153919608Y-79060392D01*
X153701101Y-78881068D01*
X153568142Y-78810000D01*
X153701101Y-78738932D01*
X153919608Y-78559608D01*
X154098932Y-78341101D01*
X154232182Y-78091808D01*
X154314236Y-77821309D01*
X154341943Y-77540000D01*
X154314236Y-77258691D01*
X154232182Y-76988192D01*
X154098932Y-76738899D01*
X153919608Y-76520392D01*
X153806518Y-76427581D01*
X153824482Y-76425812D01*
X153944180Y-76389502D01*
X154054494Y-76330537D01*
X154151185Y-76251185D01*
X154230537Y-76154494D01*
X154289502Y-76044180D01*
X154325812Y-75924482D01*
X154338072Y-75800000D01*
X154338072Y-75000000D01*
X158278057Y-75000000D01*
X158305764Y-75281309D01*
X158387818Y-75551808D01*
X158521068Y-75801101D01*
X158700392Y-76019608D01*
X158918899Y-76198932D01*
X159051858Y-76270000D01*
X158918899Y-76341068D01*
X158700392Y-76520392D01*
X158521068Y-76738899D01*
X158387818Y-76988192D01*
X158305764Y-77258691D01*
X158278057Y-77540000D01*
X158305764Y-77821309D01*
X158387818Y-78091808D01*
X158521068Y-78341101D01*
X158700392Y-78559608D01*
X158918899Y-78738932D01*
X159051858Y-78810000D01*
X158918899Y-78881068D01*
X158700392Y-79060392D01*
X158521068Y-79278899D01*
X158387818Y-79528192D01*
X158305764Y-79798691D01*
X158278057Y-80080000D01*
X158305764Y-80361309D01*
X158387818Y-80631808D01*
X158521068Y-80881101D01*
X158700392Y-81099608D01*
X158918899Y-81278932D01*
X159046741Y-81347265D01*
X158817161Y-81497399D01*
X158615500Y-81695105D01*
X158456285Y-81928354D01*
X158345633Y-82188182D01*
X158328096Y-82270961D01*
X158450085Y-82493000D01*
X159993000Y-82493000D01*
X159993000Y-82473000D01*
X160247000Y-82473000D01*
X160247000Y-82493000D01*
X161789915Y-82493000D01*
X161911904Y-82270961D01*
X161894367Y-82188182D01*
X161783715Y-81928354D01*
X161624500Y-81695105D01*
X161422839Y-81497399D01*
X161193259Y-81347265D01*
X161321101Y-81278932D01*
X161539608Y-81099608D01*
X161718932Y-80881101D01*
X161852182Y-80631808D01*
X161934236Y-80361309D01*
X161961943Y-80080000D01*
X161958004Y-80040000D01*
X168507815Y-80040000D01*
X168536487Y-80331111D01*
X168621401Y-80611034D01*
X168759294Y-80869014D01*
X168944866Y-81095134D01*
X169170986Y-81280706D01*
X169235523Y-81315201D01*
X169118645Y-81384822D01*
X168902412Y-81579731D01*
X168728359Y-81813080D01*
X168603175Y-82075901D01*
X168558524Y-82223110D01*
X168679845Y-82453000D01*
X169873000Y-82453000D01*
X169873000Y-82433000D01*
X170127000Y-82433000D01*
X170127000Y-82453000D01*
X171320155Y-82453000D01*
X171441476Y-82223110D01*
X171396825Y-82075901D01*
X171271641Y-81813080D01*
X171097588Y-81579731D01*
X170881355Y-81384822D01*
X170764477Y-81315201D01*
X170829014Y-81280706D01*
X171055134Y-81095134D01*
X171240706Y-80869014D01*
X171378599Y-80611034D01*
X171463513Y-80331111D01*
X171492185Y-80040000D01*
X171463513Y-79748889D01*
X171378599Y-79468966D01*
X171240706Y-79210986D01*
X171055134Y-78984866D01*
X170829014Y-78799294D01*
X170764477Y-78764799D01*
X170881355Y-78695178D01*
X171097588Y-78500269D01*
X171271641Y-78266920D01*
X171396825Y-78004099D01*
X171441476Y-77856890D01*
X171320155Y-77627000D01*
X170127000Y-77627000D01*
X170127000Y-77647000D01*
X169873000Y-77647000D01*
X169873000Y-77627000D01*
X168679845Y-77627000D01*
X168558524Y-77856890D01*
X168603175Y-78004099D01*
X168728359Y-78266920D01*
X168902412Y-78500269D01*
X169118645Y-78695178D01*
X169235523Y-78764799D01*
X169170986Y-78799294D01*
X168944866Y-78984866D01*
X168759294Y-79210986D01*
X168621401Y-79468966D01*
X168536487Y-79748889D01*
X168507815Y-80040000D01*
X161958004Y-80040000D01*
X161934236Y-79798691D01*
X161852182Y-79528192D01*
X161718932Y-79278899D01*
X161539608Y-79060392D01*
X161321101Y-78881068D01*
X161188142Y-78810000D01*
X161321101Y-78738932D01*
X161539608Y-78559608D01*
X161718932Y-78341101D01*
X161852182Y-78091808D01*
X161934236Y-77821309D01*
X161961943Y-77540000D01*
X161934236Y-77258691D01*
X161852182Y-76988192D01*
X161718932Y-76738899D01*
X161539608Y-76520392D01*
X161321101Y-76341068D01*
X161188142Y-76270000D01*
X161321101Y-76198932D01*
X161539608Y-76019608D01*
X161718932Y-75801101D01*
X161852182Y-75551808D01*
X161934236Y-75281309D01*
X161961943Y-75000000D01*
X161958004Y-74960000D01*
X168507815Y-74960000D01*
X168536487Y-75251111D01*
X168621401Y-75531034D01*
X168759294Y-75789014D01*
X168944866Y-76015134D01*
X169170986Y-76200706D01*
X169235523Y-76235201D01*
X169118645Y-76304822D01*
X168902412Y-76499731D01*
X168728359Y-76733080D01*
X168603175Y-76995901D01*
X168558524Y-77143110D01*
X168679845Y-77373000D01*
X169873000Y-77373000D01*
X169873000Y-77353000D01*
X170127000Y-77353000D01*
X170127000Y-77373000D01*
X171320155Y-77373000D01*
X171441476Y-77143110D01*
X171396825Y-76995901D01*
X171271641Y-76733080D01*
X171097588Y-76499731D01*
X170881355Y-76304822D01*
X170764477Y-76235201D01*
X170829014Y-76200706D01*
X171055134Y-76015134D01*
X171240706Y-75789014D01*
X171378599Y-75531034D01*
X171463513Y-75251111D01*
X171492185Y-74960000D01*
X171463513Y-74668889D01*
X171378599Y-74388966D01*
X171240706Y-74130986D01*
X171055134Y-73904866D01*
X170829014Y-73719294D01*
X170571034Y-73581401D01*
X170291111Y-73496487D01*
X170072950Y-73475000D01*
X169927050Y-73475000D01*
X169708889Y-73496487D01*
X169428966Y-73581401D01*
X169170986Y-73719294D01*
X168944866Y-73904866D01*
X168759294Y-74130986D01*
X168621401Y-74388966D01*
X168536487Y-74668889D01*
X168507815Y-74960000D01*
X161958004Y-74960000D01*
X161934236Y-74718691D01*
X161852182Y-74448192D01*
X161718932Y-74198899D01*
X161539608Y-73980392D01*
X161321101Y-73801068D01*
X161071808Y-73667818D01*
X160801309Y-73585764D01*
X160590492Y-73565000D01*
X159649508Y-73565000D01*
X159438691Y-73585764D01*
X159168192Y-73667818D01*
X158918899Y-73801068D01*
X158700392Y-73980392D01*
X158521068Y-74198899D01*
X158387818Y-74448192D01*
X158305764Y-74718691D01*
X158278057Y-75000000D01*
X154338072Y-75000000D01*
X154338072Y-74200000D01*
X154325812Y-74075518D01*
X154289502Y-73955820D01*
X154230537Y-73845506D01*
X154151185Y-73748815D01*
X154054494Y-73669463D01*
X153944180Y-73610498D01*
X153824482Y-73574188D01*
X153700000Y-73561928D01*
X151300000Y-73561928D01*
X151175518Y-73574188D01*
X151055820Y-73610498D01*
X150945506Y-73669463D01*
X150848815Y-73748815D01*
X150769463Y-73845506D01*
X150710498Y-73955820D01*
X150674188Y-74075518D01*
X150661928Y-74200000D01*
X150661928Y-75800000D01*
X150674188Y-75924482D01*
X150710498Y-76044180D01*
X150769463Y-76154494D01*
X150848815Y-76251185D01*
X150945506Y-76330537D01*
X151055820Y-76389502D01*
X151175518Y-76425812D01*
X151193482Y-76427581D01*
X151080392Y-76520392D01*
X150901068Y-76738899D01*
X150767818Y-76988192D01*
X150685764Y-77258691D01*
X150658057Y-77540000D01*
X146435000Y-77540000D01*
X146435000Y-77358665D01*
X146379853Y-77081426D01*
X146271680Y-76820273D01*
X146114637Y-76585241D01*
X145914759Y-76385363D01*
X145679727Y-76228320D01*
X145418574Y-76120147D01*
X145141335Y-76065000D01*
X144858665Y-76065000D01*
X144581426Y-76120147D01*
X144320273Y-76228320D01*
X144085241Y-76385363D01*
X143885363Y-76585241D01*
X143728320Y-76820273D01*
X143620147Y-77081426D01*
X143565000Y-77358665D01*
X141333041Y-77358665D01*
X141283696Y-77110595D01*
X141183061Y-76867641D01*
X141036962Y-76648987D01*
X140851013Y-76463038D01*
X140632359Y-76316939D01*
X140389405Y-76216304D01*
X140131486Y-76165000D01*
X139868514Y-76165000D01*
X139610595Y-76216304D01*
X139367641Y-76316939D01*
X139148987Y-76463038D01*
X138963038Y-76648987D01*
X138816939Y-76867641D01*
X138716304Y-77110595D01*
X138665000Y-77368514D01*
X91483175Y-77368514D01*
X91463513Y-77168889D01*
X91378599Y-76888966D01*
X91240706Y-76630986D01*
X91055134Y-76404866D01*
X90829014Y-76219294D01*
X90774209Y-76190000D01*
X90829014Y-76160706D01*
X91055134Y-75975134D01*
X91240706Y-75749014D01*
X91378599Y-75491034D01*
X91463513Y-75211111D01*
X91484305Y-75000000D01*
X126038541Y-75000000D01*
X126064317Y-75261706D01*
X126140653Y-75513354D01*
X126264618Y-75745275D01*
X126431445Y-75948555D01*
X126634725Y-76115382D01*
X126866646Y-76239347D01*
X127118294Y-76315683D01*
X127314421Y-76335000D01*
X127445579Y-76335000D01*
X127641706Y-76315683D01*
X127893354Y-76239347D01*
X128125275Y-76115382D01*
X128328555Y-75948555D01*
X128495382Y-75745275D01*
X128619347Y-75513354D01*
X128695683Y-75261706D01*
X128721459Y-75000000D01*
X128708509Y-74868514D01*
X133665000Y-74868514D01*
X133665000Y-75131486D01*
X133716304Y-75389405D01*
X133816939Y-75632359D01*
X133963038Y-75851013D01*
X134148987Y-76036962D01*
X134367641Y-76183061D01*
X134610595Y-76283696D01*
X134868514Y-76335000D01*
X135131486Y-76335000D01*
X135389405Y-76283696D01*
X135632359Y-76183061D01*
X135851013Y-76036962D01*
X136036962Y-75851013D01*
X136183061Y-75632359D01*
X136283696Y-75389405D01*
X136335000Y-75131486D01*
X136335000Y-74868514D01*
X136283696Y-74610595D01*
X136183061Y-74367641D01*
X136036962Y-74148987D01*
X135851013Y-73963038D01*
X135632359Y-73816939D01*
X135389405Y-73716304D01*
X135131486Y-73665000D01*
X134868514Y-73665000D01*
X134610595Y-73716304D01*
X134367641Y-73816939D01*
X134148987Y-73963038D01*
X133963038Y-74148987D01*
X133816939Y-74367641D01*
X133716304Y-74610595D01*
X133665000Y-74868514D01*
X128708509Y-74868514D01*
X128695683Y-74738294D01*
X128619347Y-74486646D01*
X128495382Y-74254725D01*
X128328555Y-74051445D01*
X128125275Y-73884618D01*
X127893354Y-73760653D01*
X127641706Y-73684317D01*
X127445579Y-73665000D01*
X127314421Y-73665000D01*
X127118294Y-73684317D01*
X126866646Y-73760653D01*
X126634725Y-73884618D01*
X126431445Y-74051445D01*
X126264618Y-74254725D01*
X126140653Y-74486646D01*
X126064317Y-74738294D01*
X126038541Y-75000000D01*
X91484305Y-75000000D01*
X91492185Y-74920000D01*
X91463513Y-74628889D01*
X91378599Y-74348966D01*
X91240706Y-74090986D01*
X91055134Y-73864866D01*
X90829014Y-73679294D01*
X90774209Y-73650000D01*
X90829014Y-73620706D01*
X91055134Y-73435134D01*
X91240706Y-73209014D01*
X91378599Y-72951034D01*
X91463513Y-72671111D01*
X91492185Y-72380000D01*
X91463513Y-72088889D01*
X91378599Y-71808966D01*
X91240706Y-71550986D01*
X91055134Y-71324866D01*
X90829014Y-71139294D01*
X90571034Y-71001401D01*
X90291111Y-70916487D01*
X90072950Y-70895000D01*
X89927050Y-70895000D01*
X89708889Y-70916487D01*
X89428966Y-71001401D01*
X89170986Y-71139294D01*
X88944866Y-71324866D01*
X88759294Y-71550986D01*
X88621401Y-71808966D01*
X88536487Y-72088889D01*
X88507815Y-72380000D01*
X84450124Y-72380000D01*
X84434236Y-72218691D01*
X84352182Y-71948192D01*
X84218932Y-71698899D01*
X84039608Y-71480392D01*
X83821101Y-71301068D01*
X83571808Y-71167818D01*
X83301309Y-71085764D01*
X83090492Y-71065000D01*
X82149508Y-71065000D01*
X81938691Y-71085764D01*
X81668192Y-71167818D01*
X81418899Y-71301068D01*
X81200392Y-71480392D01*
X81021068Y-71698899D01*
X80887818Y-71948192D01*
X80805764Y-72218691D01*
X80778057Y-72500000D01*
X80126941Y-72500000D01*
X80126936Y-69718021D01*
X103800000Y-69718021D01*
X103800000Y-70281978D01*
X103816785Y-70452399D01*
X103883115Y-70671059D01*
X103990829Y-70872578D01*
X104135788Y-71049212D01*
X104312421Y-71194171D01*
X104513940Y-71301885D01*
X104732600Y-71368215D01*
X104960000Y-71390612D01*
X105187399Y-71368215D01*
X105406059Y-71301885D01*
X105594669Y-71201071D01*
X105653118Y-71242275D01*
X105862663Y-71335272D01*
X105924190Y-71343964D01*
X106103000Y-71218163D01*
X106103000Y-70453109D01*
X106103215Y-70452400D01*
X106120000Y-70281979D01*
X106120000Y-69718022D01*
X106103215Y-69547601D01*
X106103000Y-69546892D01*
X106103000Y-69250000D01*
X106336928Y-69250000D01*
X106336928Y-70750000D01*
X106349188Y-70874482D01*
X106357000Y-70900235D01*
X106357000Y-71218163D01*
X106535810Y-71343964D01*
X106597337Y-71335272D01*
X106665943Y-71304824D01*
X106730820Y-71339502D01*
X106850518Y-71375812D01*
X106975000Y-71388072D01*
X108025000Y-71388072D01*
X108149482Y-71375812D01*
X108269180Y-71339502D01*
X108379494Y-71280537D01*
X108476185Y-71201185D01*
X108555537Y-71104494D01*
X108614502Y-70994180D01*
X108650812Y-70874482D01*
X108663072Y-70750000D01*
X108663072Y-69858665D01*
X111065000Y-69858665D01*
X111065000Y-70141335D01*
X111120147Y-70418574D01*
X111228320Y-70679727D01*
X111385363Y-70914759D01*
X111585241Y-71114637D01*
X111820273Y-71271680D01*
X112081426Y-71379853D01*
X112358665Y-71435000D01*
X112641335Y-71435000D01*
X112918574Y-71379853D01*
X113179727Y-71271680D01*
X113414759Y-71114637D01*
X113614637Y-70914759D01*
X113771680Y-70679727D01*
X113879853Y-70418574D01*
X113935000Y-70141335D01*
X113935000Y-69858665D01*
X116065000Y-69858665D01*
X116065000Y-70141335D01*
X116120147Y-70418574D01*
X116228320Y-70679727D01*
X116385363Y-70914759D01*
X116585241Y-71114637D01*
X116820273Y-71271680D01*
X117081426Y-71379853D01*
X117358665Y-71435000D01*
X117641335Y-71435000D01*
X117918574Y-71379853D01*
X118179727Y-71271680D01*
X118414759Y-71114637D01*
X118614637Y-70914759D01*
X118771680Y-70679727D01*
X118879853Y-70418574D01*
X118935000Y-70141335D01*
X118935000Y-69858665D01*
X126065000Y-69858665D01*
X126065000Y-70141335D01*
X126120147Y-70418574D01*
X126228320Y-70679727D01*
X126385363Y-70914759D01*
X126585241Y-71114637D01*
X126820273Y-71271680D01*
X127081426Y-71379853D01*
X127358665Y-71435000D01*
X127641335Y-71435000D01*
X127918574Y-71379853D01*
X128179727Y-71271680D01*
X128414759Y-71114637D01*
X128614637Y-70914759D01*
X128771680Y-70679727D01*
X128879853Y-70418574D01*
X128935000Y-70141335D01*
X128935000Y-69858665D01*
X128879853Y-69581426D01*
X128771680Y-69320273D01*
X128614637Y-69085241D01*
X128414759Y-68885363D01*
X128179727Y-68728320D01*
X127918574Y-68620147D01*
X127641335Y-68565000D01*
X127358665Y-68565000D01*
X127081426Y-68620147D01*
X126820273Y-68728320D01*
X126585241Y-68885363D01*
X126385363Y-69085241D01*
X126228320Y-69320273D01*
X126120147Y-69581426D01*
X126065000Y-69858665D01*
X118935000Y-69858665D01*
X118879853Y-69581426D01*
X118771680Y-69320273D01*
X118614637Y-69085241D01*
X118414759Y-68885363D01*
X118179727Y-68728320D01*
X117918574Y-68620147D01*
X117641335Y-68565000D01*
X117358665Y-68565000D01*
X117081426Y-68620147D01*
X116820273Y-68728320D01*
X116585241Y-68885363D01*
X116385363Y-69085241D01*
X116228320Y-69320273D01*
X116120147Y-69581426D01*
X116065000Y-69858665D01*
X113935000Y-69858665D01*
X113879853Y-69581426D01*
X113771680Y-69320273D01*
X113614637Y-69085241D01*
X113414759Y-68885363D01*
X113179727Y-68728320D01*
X112918574Y-68620147D01*
X112641335Y-68565000D01*
X112358665Y-68565000D01*
X112081426Y-68620147D01*
X111820273Y-68728320D01*
X111585241Y-68885363D01*
X111385363Y-69085241D01*
X111228320Y-69320273D01*
X111120147Y-69581426D01*
X111065000Y-69858665D01*
X108663072Y-69858665D01*
X108663072Y-69250000D01*
X108650812Y-69125518D01*
X108614502Y-69005820D01*
X108555537Y-68895506D01*
X108476185Y-68798815D01*
X108379494Y-68719463D01*
X108269180Y-68660498D01*
X108149482Y-68624188D01*
X108025000Y-68611928D01*
X106975000Y-68611928D01*
X106850518Y-68624188D01*
X106730820Y-68660498D01*
X106665943Y-68695176D01*
X106597337Y-68664728D01*
X106535810Y-68656036D01*
X106357000Y-68781837D01*
X106357000Y-69099765D01*
X106349188Y-69125518D01*
X106336928Y-69250000D01*
X106103000Y-69250000D01*
X106103000Y-68781837D01*
X105924190Y-68656036D01*
X105862663Y-68664728D01*
X105653118Y-68757725D01*
X105594669Y-68798929D01*
X105406060Y-68698115D01*
X105187400Y-68631785D01*
X104960000Y-68609388D01*
X104732601Y-68631785D01*
X104513941Y-68698115D01*
X104312422Y-68805829D01*
X104135789Y-68950788D01*
X103990830Y-69127421D01*
X103883115Y-69328940D01*
X103816785Y-69547600D01*
X103800000Y-69718021D01*
X80126936Y-69718021D01*
X80126932Y-67620000D01*
X88658541Y-67620000D01*
X88684317Y-67881706D01*
X88760653Y-68133354D01*
X88884618Y-68365275D01*
X89051445Y-68568555D01*
X89254725Y-68735382D01*
X89486646Y-68859347D01*
X89738294Y-68935683D01*
X89934421Y-68955000D01*
X90065579Y-68955000D01*
X90261706Y-68935683D01*
X90513354Y-68859347D01*
X90745275Y-68735382D01*
X90948555Y-68568555D01*
X91069429Y-68421269D01*
X156758336Y-68421269D01*
X156817797Y-68655037D01*
X157056242Y-68765934D01*
X157311740Y-68828183D01*
X157574473Y-68839390D01*
X157834344Y-68799125D01*
X158081366Y-68708935D01*
X158182203Y-68655037D01*
X158241664Y-68421269D01*
X157500000Y-67679605D01*
X156758336Y-68421269D01*
X91069429Y-68421269D01*
X91115382Y-68365275D01*
X91239347Y-68133354D01*
X91315683Y-67881706D01*
X91341459Y-67620000D01*
X91336975Y-67574473D01*
X156160610Y-67574473D01*
X156200875Y-67834344D01*
X156291065Y-68081366D01*
X156344963Y-68182203D01*
X156578731Y-68241664D01*
X157320395Y-67500000D01*
X157679605Y-67500000D01*
X158421269Y-68241664D01*
X158655037Y-68182203D01*
X158765934Y-67943758D01*
X158828183Y-67688260D01*
X158836213Y-67500000D01*
X163778541Y-67500000D01*
X163804317Y-67761706D01*
X163880653Y-68013354D01*
X164004618Y-68245275D01*
X164171445Y-68448555D01*
X164374725Y-68615382D01*
X164606646Y-68739347D01*
X164858294Y-68815683D01*
X165054421Y-68835000D01*
X165185579Y-68835000D01*
X165381706Y-68815683D01*
X165633354Y-68739347D01*
X165865275Y-68615382D01*
X166068555Y-68448555D01*
X166235382Y-68245275D01*
X166359347Y-68013354D01*
X166435683Y-67761706D01*
X166461459Y-67500000D01*
X166435683Y-67238294D01*
X166359347Y-66986646D01*
X166235382Y-66754725D01*
X166068555Y-66551445D01*
X165865275Y-66384618D01*
X165633354Y-66260653D01*
X165381706Y-66184317D01*
X165185579Y-66165000D01*
X165054421Y-66165000D01*
X164858294Y-66184317D01*
X164606646Y-66260653D01*
X164374725Y-66384618D01*
X164171445Y-66551445D01*
X164004618Y-66754725D01*
X163880653Y-66986646D01*
X163804317Y-67238294D01*
X163778541Y-67500000D01*
X158836213Y-67500000D01*
X158839390Y-67425527D01*
X158799125Y-67165656D01*
X158708935Y-66918634D01*
X158655037Y-66817797D01*
X158421269Y-66758336D01*
X157679605Y-67500000D01*
X157320395Y-67500000D01*
X156578731Y-66758336D01*
X156344963Y-66817797D01*
X156234066Y-67056242D01*
X156171817Y-67311740D01*
X156160610Y-67574473D01*
X91336975Y-67574473D01*
X91315683Y-67358294D01*
X91239347Y-67106646D01*
X91115382Y-66874725D01*
X90948555Y-66671445D01*
X90835583Y-66578731D01*
X156758336Y-66578731D01*
X157500000Y-67320395D01*
X158241664Y-66578731D01*
X158182203Y-66344963D01*
X157943758Y-66234066D01*
X157688260Y-66171817D01*
X157425527Y-66160610D01*
X157165656Y-66200875D01*
X156918634Y-66291065D01*
X156817797Y-66344963D01*
X156758336Y-66578731D01*
X90835583Y-66578731D01*
X90745275Y-66504618D01*
X90513354Y-66380653D01*
X90261706Y-66304317D01*
X90065579Y-66285000D01*
X89934421Y-66285000D01*
X89738294Y-66304317D01*
X89486646Y-66380653D01*
X89254725Y-66504618D01*
X89051445Y-66671445D01*
X88884618Y-66874725D01*
X88760653Y-67106646D01*
X88684317Y-67358294D01*
X88658541Y-67620000D01*
X80126932Y-67620000D01*
X80126930Y-65992702D01*
X111686903Y-65992702D01*
X111758486Y-66236671D01*
X112013996Y-66357571D01*
X112288184Y-66426300D01*
X112570512Y-66440217D01*
X112850130Y-66398787D01*
X113116292Y-66303603D01*
X113241514Y-66236671D01*
X113313097Y-65992702D01*
X116686903Y-65992702D01*
X116758486Y-66236671D01*
X117013996Y-66357571D01*
X117288184Y-66426300D01*
X117570512Y-66440217D01*
X117850130Y-66398787D01*
X118116292Y-66303603D01*
X118241514Y-66236671D01*
X118313097Y-65992702D01*
X126686903Y-65992702D01*
X126758486Y-66236671D01*
X127013996Y-66357571D01*
X127288184Y-66426300D01*
X127570512Y-66440217D01*
X127850130Y-66398787D01*
X128116292Y-66303603D01*
X128241514Y-66236671D01*
X128313097Y-65992702D01*
X127500000Y-65179605D01*
X126686903Y-65992702D01*
X118313097Y-65992702D01*
X117500000Y-65179605D01*
X116686903Y-65992702D01*
X113313097Y-65992702D01*
X112500000Y-65179605D01*
X111686903Y-65992702D01*
X80126930Y-65992702D01*
X80126928Y-65070512D01*
X111059783Y-65070512D01*
X111101213Y-65350130D01*
X111196397Y-65616292D01*
X111263329Y-65741514D01*
X111507298Y-65813097D01*
X112320395Y-65000000D01*
X112679605Y-65000000D01*
X113492702Y-65813097D01*
X113736671Y-65741514D01*
X113857571Y-65486004D01*
X113926300Y-65211816D01*
X113933265Y-65070512D01*
X116059783Y-65070512D01*
X116101213Y-65350130D01*
X116196397Y-65616292D01*
X116263329Y-65741514D01*
X116507298Y-65813097D01*
X117320395Y-65000000D01*
X117679605Y-65000000D01*
X118492702Y-65813097D01*
X118736671Y-65741514D01*
X118857571Y-65486004D01*
X118926300Y-65211816D01*
X118933265Y-65070512D01*
X126059783Y-65070512D01*
X126101213Y-65350130D01*
X126196397Y-65616292D01*
X126263329Y-65741514D01*
X126507298Y-65813097D01*
X127320395Y-65000000D01*
X127679605Y-65000000D01*
X128492702Y-65813097D01*
X128736671Y-65741514D01*
X128857571Y-65486004D01*
X128926300Y-65211816D01*
X128940217Y-64929488D01*
X128898787Y-64649870D01*
X128803603Y-64383708D01*
X128736671Y-64258486D01*
X128492702Y-64186903D01*
X127679605Y-65000000D01*
X127320395Y-65000000D01*
X126507298Y-64186903D01*
X126263329Y-64258486D01*
X126142429Y-64513996D01*
X126073700Y-64788184D01*
X126059783Y-65070512D01*
X118933265Y-65070512D01*
X118940217Y-64929488D01*
X118898787Y-64649870D01*
X118803603Y-64383708D01*
X118736671Y-64258486D01*
X118492702Y-64186903D01*
X117679605Y-65000000D01*
X117320395Y-65000000D01*
X116507298Y-64186903D01*
X116263329Y-64258486D01*
X116142429Y-64513996D01*
X116073700Y-64788184D01*
X116059783Y-65070512D01*
X113933265Y-65070512D01*
X113940217Y-64929488D01*
X113898787Y-64649870D01*
X113803603Y-64383708D01*
X113736671Y-64258486D01*
X113492702Y-64186903D01*
X112679605Y-65000000D01*
X112320395Y-65000000D01*
X111507298Y-64186903D01*
X111263329Y-64258486D01*
X111142429Y-64513996D01*
X111073700Y-64788184D01*
X111059783Y-65070512D01*
X80126928Y-65070512D01*
X80126926Y-64007298D01*
X111686903Y-64007298D01*
X112500000Y-64820395D01*
X113313097Y-64007298D01*
X116686903Y-64007298D01*
X117500000Y-64820395D01*
X118313097Y-64007298D01*
X126686903Y-64007298D01*
X127500000Y-64820395D01*
X128313097Y-64007298D01*
X128241514Y-63763329D01*
X127986004Y-63642429D01*
X127711816Y-63573700D01*
X127429488Y-63559783D01*
X127149870Y-63601213D01*
X126883708Y-63696397D01*
X126758486Y-63763329D01*
X126686903Y-64007298D01*
X118313097Y-64007298D01*
X118241514Y-63763329D01*
X117986004Y-63642429D01*
X117711816Y-63573700D01*
X117429488Y-63559783D01*
X117149870Y-63601213D01*
X116883708Y-63696397D01*
X116758486Y-63763329D01*
X116686903Y-64007298D01*
X113313097Y-64007298D01*
X113241514Y-63763329D01*
X112986004Y-63642429D01*
X112711816Y-63573700D01*
X112429488Y-63559783D01*
X112149870Y-63601213D01*
X111883708Y-63696397D01*
X111758486Y-63763329D01*
X111686903Y-64007298D01*
X80126926Y-64007298D01*
X80126918Y-60052611D01*
X80552599Y-59627000D01*
X81049194Y-59627000D01*
X81036487Y-59668889D01*
X81007815Y-59960000D01*
X81036487Y-60251111D01*
X81121401Y-60531034D01*
X81259294Y-60789014D01*
X81444866Y-61015134D01*
X81474687Y-61039607D01*
X81405820Y-61060498D01*
X81295506Y-61119463D01*
X81198815Y-61198815D01*
X81119463Y-61295506D01*
X81060498Y-61405820D01*
X81024188Y-61525518D01*
X81011928Y-61650000D01*
X81011928Y-63350000D01*
X81024188Y-63474482D01*
X81060498Y-63594180D01*
X81119463Y-63704494D01*
X81198815Y-63801185D01*
X81295506Y-63880537D01*
X81405820Y-63939502D01*
X81525518Y-63975812D01*
X81650000Y-63988072D01*
X83350000Y-63988072D01*
X83474482Y-63975812D01*
X83594180Y-63939502D01*
X83704494Y-63880537D01*
X83801185Y-63801185D01*
X83880537Y-63704494D01*
X83939502Y-63594180D01*
X83975812Y-63474482D01*
X83988072Y-63350000D01*
X83988072Y-62358665D01*
X98565000Y-62358665D01*
X98565000Y-62641335D01*
X98620147Y-62918574D01*
X98728320Y-63179727D01*
X98885363Y-63414759D01*
X99085241Y-63614637D01*
X99320273Y-63771680D01*
X99581426Y-63879853D01*
X99858665Y-63935000D01*
X100141335Y-63935000D01*
X100418574Y-63879853D01*
X100679727Y-63771680D01*
X100914759Y-63614637D01*
X101036694Y-63492702D01*
X104186903Y-63492702D01*
X104258486Y-63736671D01*
X104513996Y-63857571D01*
X104788184Y-63926300D01*
X105070512Y-63940217D01*
X105350130Y-63898787D01*
X105616292Y-63803603D01*
X105741514Y-63736671D01*
X105813097Y-63492702D01*
X105000000Y-62679605D01*
X104186903Y-63492702D01*
X101036694Y-63492702D01*
X101114637Y-63414759D01*
X101271680Y-63179727D01*
X101379853Y-62918574D01*
X101435000Y-62641335D01*
X101435000Y-62570512D01*
X103559783Y-62570512D01*
X103601213Y-62850130D01*
X103696397Y-63116292D01*
X103763329Y-63241514D01*
X104007298Y-63313097D01*
X104820395Y-62500000D01*
X105179605Y-62500000D01*
X105992702Y-63313097D01*
X106236671Y-63241514D01*
X106357571Y-62986004D01*
X106426300Y-62711816D01*
X106436741Y-62500000D01*
X156038541Y-62500000D01*
X156064317Y-62761706D01*
X156140653Y-63013354D01*
X156264618Y-63245275D01*
X156431445Y-63448555D01*
X156634725Y-63615382D01*
X156866646Y-63739347D01*
X157118294Y-63815683D01*
X157314421Y-63835000D01*
X157445579Y-63835000D01*
X157641706Y-63815683D01*
X157893354Y-63739347D01*
X158125275Y-63615382D01*
X158328555Y-63448555D01*
X158495382Y-63245275D01*
X158619347Y-63013354D01*
X158695683Y-62761706D01*
X158721459Y-62500000D01*
X158708509Y-62368514D01*
X163665000Y-62368514D01*
X163665000Y-62631486D01*
X163716304Y-62889405D01*
X163816939Y-63132359D01*
X163963038Y-63351013D01*
X164148987Y-63536962D01*
X164367641Y-63683061D01*
X164610595Y-63783696D01*
X164868514Y-63835000D01*
X165131486Y-63835000D01*
X165389405Y-63783696D01*
X165632359Y-63683061D01*
X165851013Y-63536962D01*
X166036962Y-63351013D01*
X166183061Y-63132359D01*
X166283696Y-62889405D01*
X166335000Y-62631486D01*
X166335000Y-62368514D01*
X166283696Y-62110595D01*
X166183061Y-61867641D01*
X166036962Y-61648987D01*
X165851013Y-61463038D01*
X165632359Y-61316939D01*
X165389405Y-61216304D01*
X165131486Y-61165000D01*
X164868514Y-61165000D01*
X164610595Y-61216304D01*
X164367641Y-61316939D01*
X164148987Y-61463038D01*
X163963038Y-61648987D01*
X163816939Y-61867641D01*
X163716304Y-62110595D01*
X163665000Y-62368514D01*
X158708509Y-62368514D01*
X158695683Y-62238294D01*
X158619347Y-61986646D01*
X158495382Y-61754725D01*
X158328555Y-61551445D01*
X158125275Y-61384618D01*
X157893354Y-61260653D01*
X157641706Y-61184317D01*
X157445579Y-61165000D01*
X157314421Y-61165000D01*
X157118294Y-61184317D01*
X156866646Y-61260653D01*
X156634725Y-61384618D01*
X156431445Y-61551445D01*
X156264618Y-61754725D01*
X156140653Y-61986646D01*
X156064317Y-62238294D01*
X156038541Y-62500000D01*
X106436741Y-62500000D01*
X106440217Y-62429488D01*
X106398787Y-62149870D01*
X106303603Y-61883708D01*
X106236671Y-61758486D01*
X105992702Y-61686903D01*
X105179605Y-62500000D01*
X104820395Y-62500000D01*
X104007298Y-61686903D01*
X103763329Y-61758486D01*
X103642429Y-62013996D01*
X103573700Y-62288184D01*
X103559783Y-62570512D01*
X101435000Y-62570512D01*
X101435000Y-62358665D01*
X101379853Y-62081426D01*
X101271680Y-61820273D01*
X101114637Y-61585241D01*
X101036694Y-61507298D01*
X104186903Y-61507298D01*
X105000000Y-62320395D01*
X105813097Y-61507298D01*
X105741514Y-61263329D01*
X105486004Y-61142429D01*
X105211816Y-61073700D01*
X104929488Y-61059783D01*
X104649870Y-61101213D01*
X104383708Y-61196397D01*
X104258486Y-61263329D01*
X104186903Y-61507298D01*
X101036694Y-61507298D01*
X100914759Y-61385363D01*
X100679727Y-61228320D01*
X100418574Y-61120147D01*
X100141335Y-61065000D01*
X99858665Y-61065000D01*
X99581426Y-61120147D01*
X99320273Y-61228320D01*
X99085241Y-61385363D01*
X98885363Y-61585241D01*
X98728320Y-61820273D01*
X98620147Y-62081426D01*
X98565000Y-62358665D01*
X83988072Y-62358665D01*
X83988072Y-61650000D01*
X83975812Y-61525518D01*
X83939502Y-61405820D01*
X83880537Y-61295506D01*
X83801185Y-61198815D01*
X83704494Y-61119463D01*
X83594180Y-61060498D01*
X83525313Y-61039607D01*
X83555134Y-61015134D01*
X83740706Y-60789014D01*
X83878599Y-60531034D01*
X83963513Y-60251111D01*
X83992185Y-59960000D01*
X83963513Y-59668889D01*
X83950806Y-59627000D01*
X88713041Y-59627000D01*
X88665000Y-59868514D01*
X88665000Y-60131486D01*
X88716304Y-60389405D01*
X88816939Y-60632359D01*
X88963038Y-60851013D01*
X89148987Y-61036962D01*
X89367641Y-61183061D01*
X89610595Y-61283696D01*
X89868514Y-61335000D01*
X90131486Y-61335000D01*
X90389405Y-61283696D01*
X90632359Y-61183061D01*
X90851013Y-61036962D01*
X91036962Y-60851013D01*
X91183061Y-60632359D01*
X91283696Y-60389405D01*
X91335000Y-60131486D01*
X91335000Y-59868514D01*
X91286959Y-59627000D01*
X112500000Y-59627000D01*
X112524776Y-59624560D01*
X112548601Y-59617333D01*
X112570557Y-59605597D01*
X112589979Y-59589626D01*
X113753758Y-58421269D01*
X114258336Y-58421269D01*
X114317797Y-58655037D01*
X114556242Y-58765934D01*
X114811740Y-58828183D01*
X115074473Y-58839390D01*
X115334344Y-58799125D01*
X115581366Y-58708935D01*
X115682203Y-58655037D01*
X115741664Y-58421269D01*
X115000000Y-57679605D01*
X114258336Y-58421269D01*
X113753758Y-58421269D01*
X113962188Y-58212020D01*
X114078731Y-58241664D01*
X114693395Y-57627000D01*
X115306605Y-57627000D01*
X115921269Y-58241664D01*
X116155037Y-58182203D01*
X116265934Y-57943758D01*
X116328183Y-57688260D01*
X116330796Y-57627000D01*
X119492165Y-57627000D01*
X119516941Y-57624560D01*
X119540766Y-57617333D01*
X119562722Y-57605597D01*
X119581968Y-57589803D01*
X120081968Y-57089803D01*
X120097762Y-57070557D01*
X120109498Y-57048601D01*
X120116725Y-57024776D01*
X120119165Y-57000000D01*
X120119165Y-52700881D01*
X164978724Y-52700881D01*
X165338912Y-53190548D01*
X166002882Y-53550849D01*
X166724385Y-53774694D01*
X167475695Y-53853480D01*
X168227938Y-53784178D01*
X168952208Y-53569452D01*
X169620670Y-53217555D01*
X169661088Y-53190548D01*
X170021276Y-52700881D01*
X167500000Y-50179605D01*
X164978724Y-52700881D01*
X120119165Y-52700881D01*
X120119165Y-49975695D01*
X163646520Y-49975695D01*
X163715822Y-50727938D01*
X163930548Y-51452208D01*
X164282445Y-52120670D01*
X164309452Y-52161088D01*
X164799119Y-52521276D01*
X167320395Y-50000000D01*
X167679605Y-50000000D01*
X170200881Y-52521276D01*
X170690548Y-52161088D01*
X171050849Y-51497118D01*
X171274694Y-50775615D01*
X171353480Y-50024305D01*
X171284178Y-49272062D01*
X171069452Y-48547792D01*
X170717555Y-47879330D01*
X170690548Y-47838912D01*
X170200881Y-47478724D01*
X167679605Y-50000000D01*
X167320395Y-50000000D01*
X164799119Y-47478724D01*
X164309452Y-47838912D01*
X163949151Y-48502882D01*
X163725306Y-49224385D01*
X163646520Y-49975695D01*
X120119165Y-49975695D01*
X120119165Y-47299119D01*
X164978724Y-47299119D01*
X167500000Y-49820395D01*
X170021276Y-47299119D01*
X169661088Y-46809452D01*
X168997118Y-46449151D01*
X168275615Y-46225306D01*
X167524305Y-46146520D01*
X166772062Y-46215822D01*
X166047792Y-46430548D01*
X165379330Y-46782445D01*
X165338912Y-46809452D01*
X164978724Y-47299119D01*
X120119165Y-47299119D01*
X120119165Y-46552606D01*
X121011771Y-45660000D01*
X170972559Y-45660000D01*
X171840000Y-46527441D01*
X171840000Y-46527441D01*
G37*
X171840000Y-46527441D02*
X171840001Y-105472558D01*
X170472559Y-106840000D01*
X81019606Y-106840000D01*
X80127000Y-105947394D01*
X80126995Y-102500000D01*
X138467815Y-102500000D01*
X138496487Y-102791111D01*
X138581401Y-103071034D01*
X138719294Y-103329014D01*
X138904866Y-103555134D01*
X139130986Y-103740706D01*
X139388966Y-103878599D01*
X139668889Y-103963513D01*
X139887050Y-103985000D01*
X140032950Y-103985000D01*
X140251111Y-103963513D01*
X140531034Y-103878599D01*
X140789014Y-103740706D01*
X141015134Y-103555134D01*
X141039607Y-103525313D01*
X141060498Y-103594180D01*
X141119463Y-103704494D01*
X141198815Y-103801185D01*
X141295506Y-103880537D01*
X141405820Y-103939502D01*
X141525518Y-103975812D01*
X141650000Y-103988072D01*
X142214250Y-103985000D01*
X142373000Y-103826250D01*
X142373000Y-102627000D01*
X142627000Y-102627000D01*
X142627000Y-103826250D01*
X142785750Y-103985000D01*
X143350000Y-103988072D01*
X143474482Y-103975812D01*
X143594180Y-103939502D01*
X143704494Y-103880537D01*
X143801185Y-103801185D01*
X143880537Y-103704494D01*
X143939502Y-103594180D01*
X143975812Y-103474482D01*
X143988072Y-103350000D01*
X143985000Y-102785750D01*
X143900131Y-102700881D01*
X164978724Y-102700881D01*
X165338912Y-103190548D01*
X166002882Y-103550849D01*
X166724385Y-103774694D01*
X167475695Y-103853480D01*
X168227938Y-103784178D01*
X168952208Y-103569452D01*
X169620670Y-103217555D01*
X169661088Y-103190548D01*
X170021276Y-102700881D01*
X167500000Y-100179605D01*
X164978724Y-102700881D01*
X143900131Y-102700881D01*
X143826250Y-102627000D01*
X142627000Y-102627000D01*
X142373000Y-102627000D01*
X142353000Y-102627000D01*
X142353000Y-102373000D01*
X142373000Y-102373000D01*
X142373000Y-101173750D01*
X142627000Y-101173750D01*
X142627000Y-102373000D01*
X143826250Y-102373000D01*
X143985000Y-102214250D01*
X143988072Y-101650000D01*
X143975812Y-101525518D01*
X143939502Y-101405820D01*
X143880537Y-101295506D01*
X143801185Y-101198815D01*
X143704494Y-101119463D01*
X143594180Y-101060498D01*
X143474482Y-101024188D01*
X143350000Y-101011928D01*
X142785750Y-101015000D01*
X142627000Y-101173750D01*
X142373000Y-101173750D01*
X142214250Y-101015000D01*
X141650000Y-101011928D01*
X141525518Y-101024188D01*
X141405820Y-101060498D01*
X141295506Y-101119463D01*
X141198815Y-101198815D01*
X141119463Y-101295506D01*
X141060498Y-101405820D01*
X141039607Y-101474687D01*
X141015134Y-101444866D01*
X140789014Y-101259294D01*
X140531034Y-101121401D01*
X140251111Y-101036487D01*
X140032950Y-101015000D01*
X139887050Y-101015000D01*
X139668889Y-101036487D01*
X139388966Y-101121401D01*
X139130986Y-101259294D01*
X138904866Y-101444866D01*
X138719294Y-101670986D01*
X138581401Y-101928966D01*
X138496487Y-102208889D01*
X138467815Y-102500000D01*
X80126995Y-102500000D01*
X80126990Y-99150000D01*
X113351928Y-99150000D01*
X113351928Y-100850000D01*
X113364188Y-100974482D01*
X113400498Y-101094180D01*
X113459463Y-101204494D01*
X113538815Y-101301185D01*
X113635506Y-101380537D01*
X113745820Y-101439502D01*
X113865518Y-101475812D01*
X113990000Y-101488072D01*
X115690000Y-101488072D01*
X115814482Y-101475812D01*
X115934180Y-101439502D01*
X116044494Y-101380537D01*
X116141185Y-101301185D01*
X116220537Y-101204494D01*
X116279502Y-101094180D01*
X116303966Y-101013534D01*
X116379731Y-101097588D01*
X116613080Y-101271641D01*
X116875901Y-101396825D01*
X117023110Y-101441476D01*
X117253000Y-101320155D01*
X117253000Y-100127000D01*
X117233000Y-100127000D01*
X117233000Y-99873000D01*
X117253000Y-99873000D01*
X117253000Y-98679845D01*
X117507000Y-98679845D01*
X117507000Y-99873000D01*
X117527000Y-99873000D01*
X117527000Y-100127000D01*
X117507000Y-100127000D01*
X117507000Y-101320155D01*
X117736890Y-101441476D01*
X117884099Y-101396825D01*
X118146920Y-101271641D01*
X118380269Y-101097588D01*
X118575178Y-100881355D01*
X118644799Y-100764477D01*
X118679294Y-100829014D01*
X118864866Y-101055134D01*
X119090986Y-101240706D01*
X119348966Y-101378599D01*
X119628889Y-101463513D01*
X119847050Y-101485000D01*
X119992950Y-101485000D01*
X120211111Y-101463513D01*
X120491034Y-101378599D01*
X120749014Y-101240706D01*
X120975134Y-101055134D01*
X121160706Y-100829014D01*
X121195201Y-100764477D01*
X121264822Y-100881355D01*
X121459731Y-101097588D01*
X121693080Y-101271641D01*
X121955901Y-101396825D01*
X122103110Y-101441476D01*
X122333000Y-101320155D01*
X122333000Y-100127000D01*
X122313000Y-100127000D01*
X122313000Y-99873000D01*
X122333000Y-99873000D01*
X122333000Y-98679845D01*
X122587000Y-98679845D01*
X122587000Y-99873000D01*
X122607000Y-99873000D01*
X122607000Y-100127000D01*
X122587000Y-100127000D01*
X122587000Y-101320155D01*
X122816890Y-101441476D01*
X122964099Y-101396825D01*
X123226920Y-101271641D01*
X123460269Y-101097588D01*
X123655178Y-100881355D01*
X123724799Y-100764477D01*
X123759294Y-100829014D01*
X123944866Y-101055134D01*
X124170986Y-101240706D01*
X124428966Y-101378599D01*
X124708889Y-101463513D01*
X124927050Y-101485000D01*
X125072950Y-101485000D01*
X125291111Y-101463513D01*
X125571034Y-101378599D01*
X125829014Y-101240706D01*
X126055134Y-101055134D01*
X126240706Y-100829014D01*
X126275201Y-100764477D01*
X126344822Y-100881355D01*
X126539731Y-101097588D01*
X126773080Y-101271641D01*
X127035901Y-101396825D01*
X127183110Y-101441476D01*
X127413000Y-101320155D01*
X127413000Y-100127000D01*
X127393000Y-100127000D01*
X127393000Y-99873000D01*
X127413000Y-99873000D01*
X127413000Y-98679845D01*
X127667000Y-98679845D01*
X127667000Y-99873000D01*
X127687000Y-99873000D01*
X127687000Y-100127000D01*
X127667000Y-100127000D01*
X127667000Y-101320155D01*
X127896890Y-101441476D01*
X128044099Y-101396825D01*
X128306920Y-101271641D01*
X128540269Y-101097588D01*
X128735178Y-100881355D01*
X128804799Y-100764477D01*
X128839294Y-100829014D01*
X129024866Y-101055134D01*
X129250986Y-101240706D01*
X129508966Y-101378599D01*
X129788889Y-101463513D01*
X130007050Y-101485000D01*
X130152950Y-101485000D01*
X130371111Y-101463513D01*
X130651034Y-101378599D01*
X130909014Y-101240706D01*
X131135134Y-101055134D01*
X131320706Y-100829014D01*
X131355201Y-100764477D01*
X131424822Y-100881355D01*
X131619731Y-101097588D01*
X131853080Y-101271641D01*
X132115901Y-101396825D01*
X132263110Y-101441476D01*
X132493000Y-101320155D01*
X132493000Y-100127000D01*
X132747000Y-100127000D01*
X132747000Y-101320155D01*
X132976890Y-101441476D01*
X133124099Y-101396825D01*
X133386920Y-101271641D01*
X133620269Y-101097588D01*
X133815178Y-100881355D01*
X133964157Y-100631252D01*
X134061481Y-100356891D01*
X133940814Y-100127000D01*
X132747000Y-100127000D01*
X132493000Y-100127000D01*
X132473000Y-100127000D01*
X132473000Y-99975695D01*
X163646520Y-99975695D01*
X163715822Y-100727938D01*
X163930548Y-101452208D01*
X164282445Y-102120670D01*
X164309452Y-102161088D01*
X164799119Y-102521276D01*
X167320395Y-100000000D01*
X167679605Y-100000000D01*
X170200881Y-102521276D01*
X170690548Y-102161088D01*
X171050849Y-101497118D01*
X171274694Y-100775615D01*
X171353480Y-100024305D01*
X171284178Y-99272062D01*
X171069452Y-98547792D01*
X170717555Y-97879330D01*
X170690548Y-97838912D01*
X170200881Y-97478724D01*
X167679605Y-100000000D01*
X167320395Y-100000000D01*
X164799119Y-97478724D01*
X164309452Y-97838912D01*
X163949151Y-98502882D01*
X163725306Y-99224385D01*
X163646520Y-99975695D01*
X132473000Y-99975695D01*
X132473000Y-99873000D01*
X132493000Y-99873000D01*
X132493000Y-98679845D01*
X132747000Y-98679845D01*
X132747000Y-99873000D01*
X133940814Y-99873000D01*
X134061481Y-99643109D01*
X133964157Y-99368748D01*
X133815178Y-99118645D01*
X133620269Y-98902412D01*
X133386920Y-98728359D01*
X133124099Y-98603175D01*
X132976890Y-98558524D01*
X132747000Y-98679845D01*
X132493000Y-98679845D01*
X132263110Y-98558524D01*
X132115901Y-98603175D01*
X131853080Y-98728359D01*
X131619731Y-98902412D01*
X131424822Y-99118645D01*
X131355201Y-99235523D01*
X131320706Y-99170986D01*
X131135134Y-98944866D01*
X130909014Y-98759294D01*
X130651034Y-98621401D01*
X130371111Y-98536487D01*
X130152950Y-98515000D01*
X130007050Y-98515000D01*
X129788889Y-98536487D01*
X129508966Y-98621401D01*
X129250986Y-98759294D01*
X129024866Y-98944866D01*
X128839294Y-99170986D01*
X128804799Y-99235523D01*
X128735178Y-99118645D01*
X128540269Y-98902412D01*
X128306920Y-98728359D01*
X128044099Y-98603175D01*
X127896890Y-98558524D01*
X127667000Y-98679845D01*
X127413000Y-98679845D01*
X127183110Y-98558524D01*
X127035901Y-98603175D01*
X126773080Y-98728359D01*
X126539731Y-98902412D01*
X126344822Y-99118645D01*
X126275201Y-99235523D01*
X126240706Y-99170986D01*
X126055134Y-98944866D01*
X125829014Y-98759294D01*
X125571034Y-98621401D01*
X125291111Y-98536487D01*
X125072950Y-98515000D01*
X124927050Y-98515000D01*
X124708889Y-98536487D01*
X124428966Y-98621401D01*
X124170986Y-98759294D01*
X123944866Y-98944866D01*
X123759294Y-99170986D01*
X123724799Y-99235523D01*
X123655178Y-99118645D01*
X123460269Y-98902412D01*
X123226920Y-98728359D01*
X122964099Y-98603175D01*
X122816890Y-98558524D01*
X122587000Y-98679845D01*
X122333000Y-98679845D01*
X122103110Y-98558524D01*
X121955901Y-98603175D01*
X121693080Y-98728359D01*
X121459731Y-98902412D01*
X121264822Y-99118645D01*
X121195201Y-99235523D01*
X121160706Y-99170986D01*
X120975134Y-98944866D01*
X120749014Y-98759294D01*
X120491034Y-98621401D01*
X120211111Y-98536487D01*
X119992950Y-98515000D01*
X119847050Y-98515000D01*
X119628889Y-98536487D01*
X119348966Y-98621401D01*
X119090986Y-98759294D01*
X118864866Y-98944866D01*
X118679294Y-99170986D01*
X118644799Y-99235523D01*
X118575178Y-99118645D01*
X118380269Y-98902412D01*
X118146920Y-98728359D01*
X117884099Y-98603175D01*
X117736890Y-98558524D01*
X117507000Y-98679845D01*
X117253000Y-98679845D01*
X117023110Y-98558524D01*
X116875901Y-98603175D01*
X116613080Y-98728359D01*
X116379731Y-98902412D01*
X116303966Y-98986466D01*
X116279502Y-98905820D01*
X116220537Y-98795506D01*
X116141185Y-98698815D01*
X116044494Y-98619463D01*
X115934180Y-98560498D01*
X115814482Y-98524188D01*
X115690000Y-98511928D01*
X113990000Y-98511928D01*
X113865518Y-98524188D01*
X113745820Y-98560498D01*
X113635506Y-98619463D01*
X113538815Y-98698815D01*
X113459463Y-98795506D01*
X113400498Y-98905820D01*
X113364188Y-99025518D01*
X113351928Y-99150000D01*
X80126990Y-99150000D01*
X80126988Y-97620000D01*
X138658541Y-97620000D01*
X138684317Y-97881706D01*
X138760653Y-98133354D01*
X138884618Y-98365275D01*
X139051445Y-98568555D01*
X139254725Y-98735382D01*
X139486646Y-98859347D01*
X139738294Y-98935683D01*
X139934421Y-98955000D01*
X140065579Y-98955000D01*
X140261706Y-98935683D01*
X140513354Y-98859347D01*
X140745275Y-98735382D01*
X140948555Y-98568555D01*
X141115382Y-98365275D01*
X141239347Y-98133354D01*
X141315683Y-97881706D01*
X141341459Y-97620000D01*
X141315683Y-97358294D01*
X141297733Y-97299119D01*
X164978724Y-97299119D01*
X167500000Y-99820395D01*
X170021276Y-97299119D01*
X169661088Y-96809452D01*
X168997118Y-96449151D01*
X168275615Y-96225306D01*
X167524305Y-96146520D01*
X166772062Y-96215822D01*
X166047792Y-96430548D01*
X165379330Y-96782445D01*
X165338912Y-96809452D01*
X164978724Y-97299119D01*
X141297733Y-97299119D01*
X141239347Y-97106646D01*
X141115382Y-96874725D01*
X140948555Y-96671445D01*
X140745275Y-96504618D01*
X140513354Y-96380653D01*
X140261706Y-96304317D01*
X140065579Y-96285000D01*
X139934421Y-96285000D01*
X139738294Y-96304317D01*
X139486646Y-96380653D01*
X139254725Y-96504618D01*
X139051445Y-96671445D01*
X138884618Y-96874725D01*
X138760653Y-97106646D01*
X138684317Y-97358294D01*
X138658541Y-97620000D01*
X80126988Y-97620000D01*
X80126984Y-95921269D01*
X81758336Y-95921269D01*
X81817797Y-96155037D01*
X82056242Y-96265934D01*
X82311740Y-96328183D01*
X82574473Y-96339390D01*
X82834344Y-96299125D01*
X83081366Y-96208935D01*
X83182203Y-96155037D01*
X83241664Y-95921269D01*
X82500000Y-95179605D01*
X81758336Y-95921269D01*
X80126984Y-95921269D01*
X80126982Y-95074473D01*
X81160610Y-95074473D01*
X81200875Y-95334344D01*
X81291065Y-95581366D01*
X81344963Y-95682203D01*
X81578731Y-95741664D01*
X82320395Y-95000000D01*
X82679605Y-95000000D01*
X83421269Y-95741664D01*
X83655037Y-95682203D01*
X83761482Y-95453330D01*
X88707278Y-95453330D01*
X88797147Y-95699123D01*
X88933241Y-95922660D01*
X89110330Y-96115351D01*
X89321608Y-96269792D01*
X89558956Y-96380047D01*
X89666671Y-96412716D01*
X89873000Y-96289374D01*
X89873000Y-95247000D01*
X90127000Y-95247000D01*
X90127000Y-96289374D01*
X90333329Y-96412716D01*
X90441044Y-96380047D01*
X90678392Y-96269792D01*
X90889670Y-96115351D01*
X91066759Y-95922660D01*
X91202853Y-95699123D01*
X91292722Y-95453330D01*
X91170201Y-95247000D01*
X90127000Y-95247000D01*
X89873000Y-95247000D01*
X88829799Y-95247000D01*
X88707278Y-95453330D01*
X83761482Y-95453330D01*
X83765934Y-95443758D01*
X83828183Y-95188260D01*
X83839390Y-94925527D01*
X83817876Y-94786670D01*
X88707278Y-94786670D01*
X88829799Y-94993000D01*
X89873000Y-94993000D01*
X89873000Y-93950626D01*
X90127000Y-93950626D01*
X90127000Y-94993000D01*
X91170201Y-94993000D01*
X91292722Y-94786670D01*
X91202853Y-94540877D01*
X91066759Y-94317340D01*
X90889670Y-94124649D01*
X90678392Y-93970208D01*
X90441044Y-93859953D01*
X90333329Y-93827284D01*
X90127000Y-93950626D01*
X89873000Y-93950626D01*
X89666671Y-93827284D01*
X89558956Y-93859953D01*
X89321608Y-93970208D01*
X89110330Y-94124649D01*
X88933241Y-94317340D01*
X88797147Y-94540877D01*
X88707278Y-94786670D01*
X83817876Y-94786670D01*
X83799125Y-94665656D01*
X83708935Y-94418634D01*
X83655037Y-94317797D01*
X83421269Y-94258336D01*
X82679605Y-95000000D01*
X82320395Y-95000000D01*
X81578731Y-94258336D01*
X81344963Y-94317797D01*
X81234066Y-94556242D01*
X81171817Y-94811740D01*
X81160610Y-95074473D01*
X80126982Y-95074473D01*
X80126981Y-94078731D01*
X81758336Y-94078731D01*
X82500000Y-94820395D01*
X83241664Y-94078731D01*
X83182203Y-93844963D01*
X82943758Y-93734066D01*
X82688260Y-93671817D01*
X82425527Y-93660610D01*
X82165656Y-93700875D01*
X81918634Y-93791065D01*
X81817797Y-93844963D01*
X81758336Y-94078731D01*
X80126981Y-94078731D01*
X80126981Y-93590000D01*
X168511928Y-93590000D01*
X168524188Y-93714482D01*
X168560498Y-93834180D01*
X168619463Y-93944494D01*
X168698815Y-94041185D01*
X168795506Y-94120537D01*
X168905820Y-94179502D01*
X169025518Y-94215812D01*
X169150000Y-94228072D01*
X169714250Y-94225000D01*
X169873000Y-94066250D01*
X169873000Y-92867000D01*
X170127000Y-92867000D01*
X170127000Y-94066250D01*
X170285750Y-94225000D01*
X170850000Y-94228072D01*
X170974482Y-94215812D01*
X171094180Y-94179502D01*
X171204494Y-94120537D01*
X171301185Y-94041185D01*
X171380537Y-93944494D01*
X171439502Y-93834180D01*
X171475812Y-93714482D01*
X171488072Y-93590000D01*
X171485000Y-93025750D01*
X171326250Y-92867000D01*
X170127000Y-92867000D01*
X169873000Y-92867000D01*
X168673750Y-92867000D01*
X168515000Y-93025750D01*
X168511928Y-93590000D01*
X80126981Y-93590000D01*
X80126974Y-90469039D01*
X103208096Y-90469039D01*
X103225633Y-90551818D01*
X103336285Y-90811646D01*
X103495500Y-91044895D01*
X103697161Y-91242601D01*
X103933517Y-91397166D01*
X104195486Y-91502650D01*
X104473000Y-91555000D01*
X104873000Y-91555000D01*
X104873000Y-90247000D01*
X105127000Y-90247000D01*
X105127000Y-91555000D01*
X105527000Y-91555000D01*
X105804514Y-91502650D01*
X106066483Y-91397166D01*
X106302839Y-91242601D01*
X106504500Y-91044895D01*
X106663715Y-90811646D01*
X106774367Y-90551818D01*
X106791904Y-90469039D01*
X106669915Y-90247000D01*
X105127000Y-90247000D01*
X104873000Y-90247000D01*
X103330085Y-90247000D01*
X103208096Y-90469039D01*
X80126974Y-90469039D01*
X80126968Y-87380000D01*
X81158541Y-87380000D01*
X81184317Y-87641706D01*
X81260653Y-87893354D01*
X81384618Y-88125275D01*
X81551445Y-88328555D01*
X81754725Y-88495382D01*
X81986646Y-88619347D01*
X82238294Y-88695683D01*
X82434421Y-88715000D01*
X82565579Y-88715000D01*
X82761706Y-88695683D01*
X83013354Y-88619347D01*
X83245275Y-88495382D01*
X83448555Y-88328555D01*
X83615382Y-88125275D01*
X83739347Y-87893354D01*
X83815683Y-87641706D01*
X83841459Y-87380000D01*
X83840328Y-87368514D01*
X88665000Y-87368514D01*
X88665000Y-87631486D01*
X88716304Y-87889405D01*
X88816939Y-88132359D01*
X88963038Y-88351013D01*
X89148987Y-88536962D01*
X89367641Y-88683061D01*
X89610595Y-88783696D01*
X89868514Y-88835000D01*
X90131486Y-88835000D01*
X90389405Y-88783696D01*
X90632359Y-88683061D01*
X90851013Y-88536962D01*
X91036962Y-88351013D01*
X91183061Y-88132359D01*
X91283696Y-87889405D01*
X91335000Y-87631486D01*
X91335000Y-87368514D01*
X91283696Y-87110595D01*
X91183061Y-86867641D01*
X91036962Y-86648987D01*
X90851013Y-86463038D01*
X90632359Y-86316939D01*
X90389405Y-86216304D01*
X90131486Y-86165000D01*
X89868514Y-86165000D01*
X89610595Y-86216304D01*
X89367641Y-86316939D01*
X89148987Y-86463038D01*
X88963038Y-86648987D01*
X88816939Y-86867641D01*
X88716304Y-87110595D01*
X88665000Y-87368514D01*
X83840328Y-87368514D01*
X83815683Y-87118294D01*
X83739347Y-86866646D01*
X83615382Y-86634725D01*
X83448555Y-86431445D01*
X83245275Y-86264618D01*
X83013354Y-86140653D01*
X82761706Y-86064317D01*
X82565579Y-86045000D01*
X82434421Y-86045000D01*
X82238294Y-86064317D01*
X81986646Y-86140653D01*
X81754725Y-86264618D01*
X81551445Y-86431445D01*
X81384618Y-86634725D01*
X81260653Y-86866646D01*
X81184317Y-87118294D01*
X81158541Y-87380000D01*
X80126968Y-87380000D01*
X80126964Y-84960000D01*
X96007815Y-84960000D01*
X96036487Y-85251111D01*
X96121401Y-85531034D01*
X96259294Y-85789014D01*
X96444866Y-86015134D01*
X96474687Y-86039607D01*
X96405820Y-86060498D01*
X96295506Y-86119463D01*
X96198815Y-86198815D01*
X96119463Y-86295506D01*
X96060498Y-86405820D01*
X96024188Y-86525518D01*
X96011928Y-86650000D01*
X96011928Y-88350000D01*
X96024188Y-88474482D01*
X96060498Y-88594180D01*
X96119463Y-88704494D01*
X96198815Y-88801185D01*
X96295506Y-88880537D01*
X96405820Y-88939502D01*
X96525518Y-88975812D01*
X96650000Y-88988072D01*
X98350000Y-88988072D01*
X98474482Y-88975812D01*
X98594180Y-88939502D01*
X98704494Y-88880537D01*
X98801185Y-88801185D01*
X98880537Y-88704494D01*
X98939502Y-88594180D01*
X98975812Y-88474482D01*
X98988072Y-88350000D01*
X98988072Y-86650000D01*
X98975812Y-86525518D01*
X98939502Y-86405820D01*
X98880537Y-86295506D01*
X98801185Y-86198815D01*
X98704494Y-86119463D01*
X98594180Y-86060498D01*
X98525313Y-86039607D01*
X98555134Y-86015134D01*
X98740706Y-85789014D01*
X98878599Y-85531034D01*
X98963513Y-85251111D01*
X98984305Y-85040000D01*
X103158057Y-85040000D01*
X103185764Y-85321309D01*
X103267818Y-85591808D01*
X103401068Y-85841101D01*
X103580392Y-86059608D01*
X103798899Y-86238932D01*
X103931858Y-86310000D01*
X103798899Y-86381068D01*
X103580392Y-86560392D01*
X103401068Y-86778899D01*
X103267818Y-87028192D01*
X103185764Y-87298691D01*
X103158057Y-87580000D01*
X103185764Y-87861309D01*
X103267818Y-88131808D01*
X103401068Y-88381101D01*
X103580392Y-88599608D01*
X103798899Y-88778932D01*
X103926741Y-88847265D01*
X103697161Y-88997399D01*
X103495500Y-89195105D01*
X103336285Y-89428354D01*
X103225633Y-89688182D01*
X103208096Y-89770961D01*
X103330085Y-89993000D01*
X104873000Y-89993000D01*
X104873000Y-89973000D01*
X105127000Y-89973000D01*
X105127000Y-89993000D01*
X106669915Y-89993000D01*
X106791904Y-89770961D01*
X106774367Y-89688182D01*
X106663715Y-89428354D01*
X106504500Y-89195105D01*
X106302839Y-88997399D01*
X106073259Y-88847265D01*
X106201101Y-88778932D01*
X106419608Y-88599608D01*
X106598932Y-88381101D01*
X106732182Y-88131808D01*
X106814236Y-87861309D01*
X106841943Y-87580000D01*
X106814236Y-87298691D01*
X106732182Y-87028192D01*
X106598932Y-86778899D01*
X106419608Y-86560392D01*
X106201101Y-86381068D01*
X106068142Y-86310000D01*
X106201101Y-86238932D01*
X106419608Y-86059608D01*
X106598932Y-85841101D01*
X106732182Y-85591808D01*
X106814236Y-85321309D01*
X106841943Y-85040000D01*
X106814236Y-84758691D01*
X106732182Y-84488192D01*
X106598932Y-84238899D01*
X106419608Y-84020392D01*
X106306518Y-83927581D01*
X106324482Y-83925812D01*
X106444180Y-83889502D01*
X106554494Y-83830537D01*
X106651185Y-83751185D01*
X106730537Y-83654494D01*
X106789502Y-83544180D01*
X106825812Y-83424482D01*
X106838072Y-83300000D01*
X106838072Y-82500000D01*
X110778057Y-82500000D01*
X110805764Y-82781309D01*
X110887818Y-83051808D01*
X111021068Y-83301101D01*
X111200392Y-83519608D01*
X111418899Y-83698932D01*
X111551858Y-83770000D01*
X111418899Y-83841068D01*
X111200392Y-84020392D01*
X111021068Y-84238899D01*
X110887818Y-84488192D01*
X110805764Y-84758691D01*
X110778057Y-85040000D01*
X110805764Y-85321309D01*
X110887818Y-85591808D01*
X111021068Y-85841101D01*
X111200392Y-86059608D01*
X111418899Y-86238932D01*
X111551858Y-86310000D01*
X111418899Y-86381068D01*
X111200392Y-86560392D01*
X111021068Y-86778899D01*
X110887818Y-87028192D01*
X110805764Y-87298691D01*
X110778057Y-87580000D01*
X110805764Y-87861309D01*
X110887818Y-88131808D01*
X111021068Y-88381101D01*
X111200392Y-88599608D01*
X111418899Y-88778932D01*
X111551858Y-88850000D01*
X111418899Y-88921068D01*
X111200392Y-89100392D01*
X111021068Y-89318899D01*
X110887818Y-89568192D01*
X110805764Y-89838691D01*
X110778057Y-90120000D01*
X110805764Y-90401309D01*
X110887818Y-90671808D01*
X111021068Y-90921101D01*
X111200392Y-91139608D01*
X111418899Y-91318932D01*
X111668192Y-91452182D01*
X111938691Y-91534236D01*
X112149508Y-91555000D01*
X113090492Y-91555000D01*
X113301309Y-91534236D01*
X113571808Y-91452182D01*
X113821101Y-91318932D01*
X114039608Y-91139608D01*
X114218932Y-90921101D01*
X114352182Y-90671808D01*
X114434236Y-90401309D01*
X114461943Y-90120000D01*
X114434236Y-89838691D01*
X114352182Y-89568192D01*
X114218932Y-89318899D01*
X114039608Y-89100392D01*
X113821101Y-88921068D01*
X113688142Y-88850000D01*
X113821101Y-88778932D01*
X114039608Y-88599608D01*
X114218932Y-88381101D01*
X114352182Y-88131808D01*
X114434236Y-87861309D01*
X114461943Y-87580000D01*
X114434236Y-87298691D01*
X114352182Y-87028192D01*
X114218932Y-86778899D01*
X114039608Y-86560392D01*
X113821101Y-86381068D01*
X113688142Y-86310000D01*
X113821101Y-86238932D01*
X114039608Y-86059608D01*
X114218932Y-85841101D01*
X114352182Y-85591808D01*
X114434236Y-85321309D01*
X114461943Y-85040000D01*
X118158057Y-85040000D01*
X118185764Y-85321309D01*
X118267818Y-85591808D01*
X118401068Y-85841101D01*
X118580392Y-86059608D01*
X118798899Y-86238932D01*
X118931858Y-86310000D01*
X118798899Y-86381068D01*
X118580392Y-86560392D01*
X118401068Y-86778899D01*
X118267818Y-87028192D01*
X118185764Y-87298691D01*
X118158057Y-87580000D01*
X118185764Y-87861309D01*
X118267818Y-88131808D01*
X118401068Y-88381101D01*
X118580392Y-88599608D01*
X118798899Y-88778932D01*
X118931858Y-88850000D01*
X118798899Y-88921068D01*
X118580392Y-89100392D01*
X118401068Y-89318899D01*
X118267818Y-89568192D01*
X118185764Y-89838691D01*
X118158057Y-90120000D01*
X118185764Y-90401309D01*
X118267818Y-90671808D01*
X118401068Y-90921101D01*
X118580392Y-91139608D01*
X118798899Y-91318932D01*
X119048192Y-91452182D01*
X119318691Y-91534236D01*
X119529508Y-91555000D01*
X120470492Y-91555000D01*
X120681309Y-91534236D01*
X120951808Y-91452182D01*
X121201101Y-91318932D01*
X121419608Y-91139608D01*
X121598932Y-90921101D01*
X121732182Y-90671808D01*
X121814236Y-90401309D01*
X121841943Y-90120000D01*
X121814236Y-89838691D01*
X121732182Y-89568192D01*
X121598932Y-89318899D01*
X121419608Y-89100392D01*
X121201101Y-88921068D01*
X121068142Y-88850000D01*
X121201101Y-88778932D01*
X121419608Y-88599608D01*
X121598932Y-88381101D01*
X121732182Y-88131808D01*
X121814236Y-87861309D01*
X121841943Y-87580000D01*
X121814236Y-87298691D01*
X121732182Y-87028192D01*
X121598932Y-86778899D01*
X121419608Y-86560392D01*
X121201101Y-86381068D01*
X121068142Y-86310000D01*
X121201101Y-86238932D01*
X121419608Y-86059608D01*
X121598932Y-85841101D01*
X121732182Y-85591808D01*
X121814236Y-85321309D01*
X121841943Y-85040000D01*
X121814236Y-84758691D01*
X121732182Y-84488192D01*
X121598932Y-84238899D01*
X121419608Y-84020392D01*
X121306518Y-83927581D01*
X121324482Y-83925812D01*
X121444180Y-83889502D01*
X121554494Y-83830537D01*
X121651185Y-83751185D01*
X121730537Y-83654494D01*
X121789502Y-83544180D01*
X121825812Y-83424482D01*
X121838072Y-83300000D01*
X121835000Y-82785750D01*
X121676250Y-82627000D01*
X120127000Y-82627000D01*
X120127000Y-82647000D01*
X119873000Y-82647000D01*
X119873000Y-82627000D01*
X118323750Y-82627000D01*
X118165000Y-82785750D01*
X118161928Y-83300000D01*
X118174188Y-83424482D01*
X118210498Y-83544180D01*
X118269463Y-83654494D01*
X118348815Y-83751185D01*
X118445506Y-83830537D01*
X118555820Y-83889502D01*
X118675518Y-83925812D01*
X118693482Y-83927581D01*
X118580392Y-84020392D01*
X118401068Y-84238899D01*
X118267818Y-84488192D01*
X118185764Y-84758691D01*
X118158057Y-85040000D01*
X114461943Y-85040000D01*
X114434236Y-84758691D01*
X114352182Y-84488192D01*
X114218932Y-84238899D01*
X114039608Y-84020392D01*
X113821101Y-83841068D01*
X113688142Y-83770000D01*
X113821101Y-83698932D01*
X114039608Y-83519608D01*
X114218932Y-83301101D01*
X114352182Y-83051808D01*
X114434236Y-82781309D01*
X114461943Y-82500000D01*
X125778057Y-82500000D01*
X125805764Y-82781309D01*
X125887818Y-83051808D01*
X126021068Y-83301101D01*
X126200392Y-83519608D01*
X126418899Y-83698932D01*
X126551858Y-83770000D01*
X126418899Y-83841068D01*
X126200392Y-84020392D01*
X126021068Y-84238899D01*
X125887818Y-84488192D01*
X125805764Y-84758691D01*
X125778057Y-85040000D01*
X125805764Y-85321309D01*
X125887818Y-85591808D01*
X126021068Y-85841101D01*
X126200392Y-86059608D01*
X126418899Y-86238932D01*
X126551858Y-86310000D01*
X126418899Y-86381068D01*
X126200392Y-86560392D01*
X126021068Y-86778899D01*
X125887818Y-87028192D01*
X125805764Y-87298691D01*
X125778057Y-87580000D01*
X125805764Y-87861309D01*
X125887818Y-88131808D01*
X126021068Y-88381101D01*
X126200392Y-88599608D01*
X126418899Y-88778932D01*
X126551858Y-88850000D01*
X126418899Y-88921068D01*
X126200392Y-89100392D01*
X126021068Y-89318899D01*
X125887818Y-89568192D01*
X125805764Y-89838691D01*
X125778057Y-90120000D01*
X125805764Y-90401309D01*
X125887818Y-90671808D01*
X126021068Y-90921101D01*
X126200392Y-91139608D01*
X126418899Y-91318932D01*
X126668192Y-91452182D01*
X126938691Y-91534236D01*
X127149508Y-91555000D01*
X128090492Y-91555000D01*
X128301309Y-91534236D01*
X128571808Y-91452182D01*
X128821101Y-91318932D01*
X129039608Y-91139608D01*
X129218932Y-90921101D01*
X129352182Y-90671808D01*
X129434236Y-90401309D01*
X129461943Y-90120000D01*
X129436204Y-89858665D01*
X131065000Y-89858665D01*
X131065000Y-90141335D01*
X131120147Y-90418574D01*
X131228320Y-90679727D01*
X131385363Y-90914759D01*
X131585241Y-91114637D01*
X131820273Y-91271680D01*
X132081426Y-91379853D01*
X132358665Y-91435000D01*
X132641335Y-91435000D01*
X132918574Y-91379853D01*
X133179727Y-91271680D01*
X133414759Y-91114637D01*
X133614637Y-90914759D01*
X133771680Y-90679727D01*
X133879853Y-90418574D01*
X133935000Y-90141335D01*
X133935000Y-89868514D01*
X138665000Y-89868514D01*
X138665000Y-90131486D01*
X138716304Y-90389405D01*
X138816939Y-90632359D01*
X138963038Y-90851013D01*
X139148987Y-91036962D01*
X139367641Y-91183061D01*
X139610595Y-91283696D01*
X139868514Y-91335000D01*
X140131486Y-91335000D01*
X140389405Y-91283696D01*
X140632359Y-91183061D01*
X140851013Y-91036962D01*
X141036962Y-90851013D01*
X141183061Y-90632359D01*
X141283696Y-90389405D01*
X141335000Y-90131486D01*
X141335000Y-89868514D01*
X141283696Y-89610595D01*
X141183061Y-89367641D01*
X141036962Y-89148987D01*
X140851013Y-88963038D01*
X140632359Y-88816939D01*
X140389405Y-88716304D01*
X140131486Y-88665000D01*
X139868514Y-88665000D01*
X139610595Y-88716304D01*
X139367641Y-88816939D01*
X139148987Y-88963038D01*
X138963038Y-89148987D01*
X138816939Y-89367641D01*
X138716304Y-89610595D01*
X138665000Y-89868514D01*
X133935000Y-89868514D01*
X133935000Y-89858665D01*
X133879853Y-89581426D01*
X133771680Y-89320273D01*
X133614637Y-89085241D01*
X133414759Y-88885363D01*
X133179727Y-88728320D01*
X132918574Y-88620147D01*
X132641335Y-88565000D01*
X132358665Y-88565000D01*
X132081426Y-88620147D01*
X131820273Y-88728320D01*
X131585241Y-88885363D01*
X131385363Y-89085241D01*
X131228320Y-89320273D01*
X131120147Y-89581426D01*
X131065000Y-89858665D01*
X129436204Y-89858665D01*
X129434236Y-89838691D01*
X129352182Y-89568192D01*
X129218932Y-89318899D01*
X129039608Y-89100392D01*
X128821101Y-88921068D01*
X128688142Y-88850000D01*
X128821101Y-88778932D01*
X129039608Y-88599608D01*
X129218932Y-88381101D01*
X129352182Y-88131808D01*
X129434236Y-87861309D01*
X129461943Y-87580000D01*
X129434236Y-87298691D01*
X129352182Y-87028192D01*
X129218932Y-86778899D01*
X129039608Y-86560392D01*
X128821101Y-86381068D01*
X128688142Y-86310000D01*
X128821101Y-86238932D01*
X129039608Y-86059608D01*
X129094516Y-85992702D01*
X131686903Y-85992702D01*
X131758486Y-86236671D01*
X132013996Y-86357571D01*
X132288184Y-86426300D01*
X132570512Y-86440217D01*
X132850130Y-86398787D01*
X133116292Y-86303603D01*
X133241514Y-86236671D01*
X133313097Y-85992702D01*
X132500000Y-85179605D01*
X131686903Y-85992702D01*
X129094516Y-85992702D01*
X129218932Y-85841101D01*
X129352182Y-85591808D01*
X129434236Y-85321309D01*
X129458937Y-85070512D01*
X131059783Y-85070512D01*
X131101213Y-85350130D01*
X131196397Y-85616292D01*
X131263329Y-85741514D01*
X131507298Y-85813097D01*
X132320395Y-85000000D01*
X132679605Y-85000000D01*
X133492702Y-85813097D01*
X133736671Y-85741514D01*
X133857571Y-85486004D01*
X133926300Y-85211816D01*
X133930825Y-85120000D01*
X138658541Y-85120000D01*
X138684317Y-85381706D01*
X138760653Y-85633354D01*
X138884618Y-85865275D01*
X139051445Y-86068555D01*
X139254725Y-86235382D01*
X139486646Y-86359347D01*
X139738294Y-86435683D01*
X139934421Y-86455000D01*
X140065579Y-86455000D01*
X140261706Y-86435683D01*
X140513354Y-86359347D01*
X140745275Y-86235382D01*
X140948555Y-86068555D01*
X141115382Y-85865275D01*
X141239347Y-85633354D01*
X141315683Y-85381706D01*
X141341459Y-85120000D01*
X141315683Y-84858294D01*
X141239347Y-84606646D01*
X141115382Y-84374725D01*
X140948555Y-84171445D01*
X140745275Y-84004618D01*
X140513354Y-83880653D01*
X140261706Y-83804317D01*
X140065579Y-83785000D01*
X139934421Y-83785000D01*
X139738294Y-83804317D01*
X139486646Y-83880653D01*
X139254725Y-84004618D01*
X139051445Y-84171445D01*
X138884618Y-84374725D01*
X138760653Y-84606646D01*
X138684317Y-84858294D01*
X138658541Y-85120000D01*
X133930825Y-85120000D01*
X133940217Y-84929488D01*
X133898787Y-84649870D01*
X133803603Y-84383708D01*
X133736671Y-84258486D01*
X133492702Y-84186903D01*
X132679605Y-85000000D01*
X132320395Y-85000000D01*
X131507298Y-84186903D01*
X131263329Y-84258486D01*
X131142429Y-84513996D01*
X131073700Y-84788184D01*
X131059783Y-85070512D01*
X129458937Y-85070512D01*
X129461943Y-85040000D01*
X129434236Y-84758691D01*
X129352182Y-84488192D01*
X129218932Y-84238899D01*
X129039608Y-84020392D01*
X129023653Y-84007298D01*
X131686903Y-84007298D01*
X132500000Y-84820395D01*
X133313097Y-84007298D01*
X133241514Y-83763329D01*
X132986004Y-83642429D01*
X132711816Y-83573700D01*
X132429488Y-83559783D01*
X132149870Y-83601213D01*
X131883708Y-83696397D01*
X131758486Y-83763329D01*
X131686903Y-84007298D01*
X129023653Y-84007298D01*
X128821101Y-83841068D01*
X128688142Y-83770000D01*
X128821101Y-83698932D01*
X129039608Y-83519608D01*
X129061689Y-83492702D01*
X144186903Y-83492702D01*
X144258486Y-83736671D01*
X144513996Y-83857571D01*
X144788184Y-83926300D01*
X145070512Y-83940217D01*
X145350130Y-83898787D01*
X145616292Y-83803603D01*
X145741514Y-83736671D01*
X145813097Y-83492702D01*
X145000000Y-82679605D01*
X144186903Y-83492702D01*
X129061689Y-83492702D01*
X129218932Y-83301101D01*
X129352182Y-83051808D01*
X129434236Y-82781309D01*
X129454998Y-82570512D01*
X143559783Y-82570512D01*
X143601213Y-82850130D01*
X143696397Y-83116292D01*
X143763329Y-83241514D01*
X144007298Y-83313097D01*
X144820395Y-82500000D01*
X145179605Y-82500000D01*
X145992702Y-83313097D01*
X146236671Y-83241514D01*
X146357571Y-82986004D01*
X146426300Y-82711816D01*
X146440217Y-82429488D01*
X146398787Y-82149870D01*
X146303603Y-81883708D01*
X146236671Y-81758486D01*
X145992702Y-81686903D01*
X145179605Y-82500000D01*
X144820395Y-82500000D01*
X144007298Y-81686903D01*
X143763329Y-81758486D01*
X143642429Y-82013996D01*
X143573700Y-82288184D01*
X143559783Y-82570512D01*
X129454998Y-82570512D01*
X129461943Y-82500000D01*
X129434236Y-82218691D01*
X129352182Y-81948192D01*
X129218932Y-81698899D01*
X129061690Y-81507298D01*
X144186903Y-81507298D01*
X145000000Y-82320395D01*
X145813097Y-81507298D01*
X145741514Y-81263329D01*
X145486004Y-81142429D01*
X145211816Y-81073700D01*
X144929488Y-81059783D01*
X144649870Y-81101213D01*
X144383708Y-81196397D01*
X144258486Y-81263329D01*
X144186903Y-81507298D01*
X129061690Y-81507298D01*
X129039608Y-81480392D01*
X128821101Y-81301068D01*
X128571808Y-81167818D01*
X128301309Y-81085764D01*
X128090492Y-81065000D01*
X127149508Y-81065000D01*
X126938691Y-81085764D01*
X126668192Y-81167818D01*
X126418899Y-81301068D01*
X126200392Y-81480392D01*
X126021068Y-81698899D01*
X125887818Y-81948192D01*
X125805764Y-82218691D01*
X125778057Y-82500000D01*
X114461943Y-82500000D01*
X114434236Y-82218691D01*
X114352182Y-81948192D01*
X114219521Y-81700000D01*
X118161928Y-81700000D01*
X118165000Y-82214250D01*
X118323750Y-82373000D01*
X119873000Y-82373000D01*
X119873000Y-81223750D01*
X120127000Y-81223750D01*
X120127000Y-82373000D01*
X121676250Y-82373000D01*
X121835000Y-82214250D01*
X121838072Y-81700000D01*
X121825812Y-81575518D01*
X121789502Y-81455820D01*
X121730537Y-81345506D01*
X121651185Y-81248815D01*
X121554494Y-81169463D01*
X121444180Y-81110498D01*
X121324482Y-81074188D01*
X121200000Y-81061928D01*
X120285750Y-81065000D01*
X120127000Y-81223750D01*
X119873000Y-81223750D01*
X119714250Y-81065000D01*
X118800000Y-81061928D01*
X118675518Y-81074188D01*
X118555820Y-81110498D01*
X118445506Y-81169463D01*
X118348815Y-81248815D01*
X118269463Y-81345506D01*
X118210498Y-81455820D01*
X118174188Y-81575518D01*
X118161928Y-81700000D01*
X114219521Y-81700000D01*
X114218932Y-81698899D01*
X114039608Y-81480392D01*
X113821101Y-81301068D01*
X113571808Y-81167818D01*
X113301309Y-81085764D01*
X113090492Y-81065000D01*
X112149508Y-81065000D01*
X111938691Y-81085764D01*
X111668192Y-81167818D01*
X111418899Y-81301068D01*
X111200392Y-81480392D01*
X111021068Y-81698899D01*
X110887818Y-81948192D01*
X110805764Y-82218691D01*
X110778057Y-82500000D01*
X106838072Y-82500000D01*
X106838072Y-81700000D01*
X106825812Y-81575518D01*
X106789502Y-81455820D01*
X106730537Y-81345506D01*
X106651185Y-81248815D01*
X106554494Y-81169463D01*
X106444180Y-81110498D01*
X106324482Y-81074188D01*
X106200000Y-81061928D01*
X103800000Y-81061928D01*
X103675518Y-81074188D01*
X103555820Y-81110498D01*
X103445506Y-81169463D01*
X103348815Y-81248815D01*
X103269463Y-81345506D01*
X103210498Y-81455820D01*
X103174188Y-81575518D01*
X103161928Y-81700000D01*
X103161928Y-83300000D01*
X103174188Y-83424482D01*
X103210498Y-83544180D01*
X103269463Y-83654494D01*
X103348815Y-83751185D01*
X103445506Y-83830537D01*
X103555820Y-83889502D01*
X103675518Y-83925812D01*
X103693482Y-83927581D01*
X103580392Y-84020392D01*
X103401068Y-84238899D01*
X103267818Y-84488192D01*
X103185764Y-84758691D01*
X103158057Y-85040000D01*
X98984305Y-85040000D01*
X98992185Y-84960000D01*
X98963513Y-84668889D01*
X98878599Y-84388966D01*
X98740706Y-84130986D01*
X98555134Y-83904866D01*
X98329014Y-83719294D01*
X98071034Y-83581401D01*
X97791111Y-83496487D01*
X97572950Y-83475000D01*
X97427050Y-83475000D01*
X97208889Y-83496487D01*
X96928966Y-83581401D01*
X96670986Y-83719294D01*
X96444866Y-83904866D01*
X96259294Y-84130986D01*
X96121401Y-84388966D01*
X96036487Y-84668889D01*
X96007815Y-84960000D01*
X80126964Y-84960000D01*
X80126941Y-72500000D01*
X80778057Y-72500000D01*
X80805764Y-72781309D01*
X80887818Y-73051808D01*
X81021068Y-73301101D01*
X81200392Y-73519608D01*
X81418899Y-73698932D01*
X81551858Y-73770000D01*
X81418899Y-73841068D01*
X81200392Y-74020392D01*
X81021068Y-74238899D01*
X80887818Y-74488192D01*
X80805764Y-74758691D01*
X80778057Y-75040000D01*
X80805764Y-75321309D01*
X80887818Y-75591808D01*
X81021068Y-75841101D01*
X81200392Y-76059608D01*
X81418899Y-76238932D01*
X81551858Y-76310000D01*
X81418899Y-76381068D01*
X81200392Y-76560392D01*
X81021068Y-76778899D01*
X80887818Y-77028192D01*
X80805764Y-77298691D01*
X80778057Y-77580000D01*
X80805764Y-77861309D01*
X80887818Y-78131808D01*
X81021068Y-78381101D01*
X81200392Y-78599608D01*
X81418899Y-78778932D01*
X81668192Y-78912182D01*
X81938691Y-78994236D01*
X82149508Y-79015000D01*
X83090492Y-79015000D01*
X83301309Y-78994236D01*
X83571808Y-78912182D01*
X83821101Y-78778932D01*
X84039608Y-78599608D01*
X84218932Y-78381101D01*
X84352182Y-78131808D01*
X84434236Y-77861309D01*
X84461943Y-77580000D01*
X84434236Y-77298691D01*
X84352182Y-77028192D01*
X84218932Y-76778899D01*
X84039608Y-76560392D01*
X83821101Y-76381068D01*
X83688142Y-76310000D01*
X83821101Y-76238932D01*
X84039608Y-76059608D01*
X84218932Y-75841101D01*
X84352182Y-75591808D01*
X84434236Y-75321309D01*
X84461943Y-75040000D01*
X84434236Y-74758691D01*
X84352182Y-74488192D01*
X84218932Y-74238899D01*
X84039608Y-74020392D01*
X83821101Y-73841068D01*
X83688142Y-73770000D01*
X83821101Y-73698932D01*
X84039608Y-73519608D01*
X84218932Y-73301101D01*
X84352182Y-73051808D01*
X84434236Y-72781309D01*
X84461943Y-72500000D01*
X84450124Y-72380000D01*
X88507815Y-72380000D01*
X88536487Y-72671111D01*
X88621401Y-72951034D01*
X88759294Y-73209014D01*
X88944866Y-73435134D01*
X89170986Y-73620706D01*
X89225791Y-73650000D01*
X89170986Y-73679294D01*
X88944866Y-73864866D01*
X88759294Y-74090986D01*
X88621401Y-74348966D01*
X88536487Y-74628889D01*
X88507815Y-74920000D01*
X88536487Y-75211111D01*
X88621401Y-75491034D01*
X88759294Y-75749014D01*
X88944866Y-75975134D01*
X89170986Y-76160706D01*
X89225791Y-76190000D01*
X89170986Y-76219294D01*
X88944866Y-76404866D01*
X88759294Y-76630986D01*
X88621401Y-76888966D01*
X88536487Y-77168889D01*
X88507815Y-77460000D01*
X88536487Y-77751111D01*
X88621401Y-78031034D01*
X88759294Y-78289014D01*
X88944866Y-78515134D01*
X88974687Y-78539607D01*
X88905820Y-78560498D01*
X88795506Y-78619463D01*
X88698815Y-78698815D01*
X88619463Y-78795506D01*
X88560498Y-78905820D01*
X88524188Y-79025518D01*
X88511928Y-79150000D01*
X88511928Y-80850000D01*
X88524188Y-80974482D01*
X88560498Y-81094180D01*
X88619463Y-81204494D01*
X88698815Y-81301185D01*
X88795506Y-81380537D01*
X88905820Y-81439502D01*
X89025518Y-81475812D01*
X89150000Y-81488072D01*
X90850000Y-81488072D01*
X90974482Y-81475812D01*
X91094180Y-81439502D01*
X91204494Y-81380537D01*
X91301185Y-81301185D01*
X91380537Y-81204494D01*
X91439502Y-81094180D01*
X91475812Y-80974482D01*
X91488072Y-80850000D01*
X91488072Y-79150000D01*
X91475812Y-79025518D01*
X91439502Y-78905820D01*
X91380537Y-78795506D01*
X91301185Y-78698815D01*
X91204494Y-78619463D01*
X91094180Y-78560498D01*
X91025313Y-78539607D01*
X91055134Y-78515134D01*
X91240706Y-78289014D01*
X91378599Y-78031034D01*
X91463513Y-77751111D01*
X91492185Y-77460000D01*
X91483175Y-77368514D01*
X138665000Y-77368514D01*
X138665000Y-77631486D01*
X138716304Y-77889405D01*
X138816939Y-78132359D01*
X138963038Y-78351013D01*
X139148987Y-78536962D01*
X139367641Y-78683061D01*
X139610595Y-78783696D01*
X139868514Y-78835000D01*
X140131486Y-78835000D01*
X140389405Y-78783696D01*
X140632359Y-78683061D01*
X140851013Y-78536962D01*
X141036962Y-78351013D01*
X141183061Y-78132359D01*
X141283696Y-77889405D01*
X141335000Y-77631486D01*
X141335000Y-77368514D01*
X141333041Y-77358665D01*
X143565000Y-77358665D01*
X143565000Y-77641335D01*
X143620147Y-77918574D01*
X143728320Y-78179727D01*
X143885363Y-78414759D01*
X144085241Y-78614637D01*
X144320273Y-78771680D01*
X144581426Y-78879853D01*
X144858665Y-78935000D01*
X145141335Y-78935000D01*
X145418574Y-78879853D01*
X145679727Y-78771680D01*
X145914759Y-78614637D01*
X146114637Y-78414759D01*
X146271680Y-78179727D01*
X146379853Y-77918574D01*
X146435000Y-77641335D01*
X146435000Y-77540000D01*
X150658057Y-77540000D01*
X150685764Y-77821309D01*
X150767818Y-78091808D01*
X150901068Y-78341101D01*
X151080392Y-78559608D01*
X151298899Y-78738932D01*
X151431858Y-78810000D01*
X151298899Y-78881068D01*
X151080392Y-79060392D01*
X150901068Y-79278899D01*
X150767818Y-79528192D01*
X150685764Y-79798691D01*
X150658057Y-80080000D01*
X150685764Y-80361309D01*
X150767818Y-80631808D01*
X150901068Y-80881101D01*
X151080392Y-81099608D01*
X151298899Y-81278932D01*
X151431858Y-81350000D01*
X151298899Y-81421068D01*
X151080392Y-81600392D01*
X150901068Y-81818899D01*
X150767818Y-82068192D01*
X150685764Y-82338691D01*
X150658057Y-82620000D01*
X150685764Y-82901309D01*
X150767818Y-83171808D01*
X150901068Y-83421101D01*
X151080392Y-83639608D01*
X151298899Y-83818932D01*
X151431858Y-83890000D01*
X151298899Y-83961068D01*
X151080392Y-84140392D01*
X150901068Y-84358899D01*
X150767818Y-84608192D01*
X150685764Y-84878691D01*
X150658057Y-85160000D01*
X150685764Y-85441309D01*
X150767818Y-85711808D01*
X150901068Y-85961101D01*
X151080392Y-86179608D01*
X151298899Y-86358932D01*
X151431858Y-86430000D01*
X151298899Y-86501068D01*
X151080392Y-86680392D01*
X150901068Y-86898899D01*
X150767818Y-87148192D01*
X150685764Y-87418691D01*
X150658057Y-87700000D01*
X150685764Y-87981309D01*
X150767818Y-88251808D01*
X150901068Y-88501101D01*
X151080392Y-88719608D01*
X151298899Y-88898932D01*
X151431858Y-88970000D01*
X151298899Y-89041068D01*
X151080392Y-89220392D01*
X150901068Y-89438899D01*
X150767818Y-89688192D01*
X150685764Y-89958691D01*
X150658057Y-90240000D01*
X150685764Y-90521309D01*
X150767818Y-90791808D01*
X150901068Y-91041101D01*
X151080392Y-91259608D01*
X151298899Y-91438932D01*
X151548192Y-91572182D01*
X151818691Y-91654236D01*
X152029508Y-91675000D01*
X152970492Y-91675000D01*
X153181309Y-91654236D01*
X153451808Y-91572182D01*
X153701101Y-91438932D01*
X153919608Y-91259608D01*
X154098932Y-91041101D01*
X154232182Y-90791808D01*
X154314236Y-90521309D01*
X154341943Y-90240000D01*
X154314236Y-89958691D01*
X154232182Y-89688192D01*
X154098932Y-89438899D01*
X153919608Y-89220392D01*
X153701101Y-89041068D01*
X153568142Y-88970000D01*
X153701101Y-88898932D01*
X153919608Y-88719608D01*
X154098932Y-88501101D01*
X154232182Y-88251808D01*
X154314236Y-87981309D01*
X154341943Y-87700000D01*
X154314236Y-87418691D01*
X154232182Y-87148192D01*
X154098932Y-86898899D01*
X153919608Y-86680392D01*
X153701101Y-86501068D01*
X153568142Y-86430000D01*
X153701101Y-86358932D01*
X153919608Y-86179608D01*
X154098932Y-85961101D01*
X154232182Y-85711808D01*
X154314236Y-85441309D01*
X154341943Y-85160000D01*
X158278057Y-85160000D01*
X158305764Y-85441309D01*
X158387818Y-85711808D01*
X158521068Y-85961101D01*
X158700392Y-86179608D01*
X158918899Y-86358932D01*
X159051858Y-86430000D01*
X158918899Y-86501068D01*
X158700392Y-86680392D01*
X158521068Y-86898899D01*
X158387818Y-87148192D01*
X158305764Y-87418691D01*
X158278057Y-87700000D01*
X158305764Y-87981309D01*
X158387818Y-88251808D01*
X158521068Y-88501101D01*
X158700392Y-88719608D01*
X158918899Y-88898932D01*
X159051858Y-88970000D01*
X158918899Y-89041068D01*
X158700392Y-89220392D01*
X158521068Y-89438899D01*
X158387818Y-89688192D01*
X158305764Y-89958691D01*
X158278057Y-90240000D01*
X158305764Y-90521309D01*
X158387818Y-90791808D01*
X158521068Y-91041101D01*
X158700392Y-91259608D01*
X158918899Y-91438932D01*
X159168192Y-91572182D01*
X159438691Y-91654236D01*
X159649508Y-91675000D01*
X160590492Y-91675000D01*
X160801309Y-91654236D01*
X161071808Y-91572182D01*
X161321101Y-91438932D01*
X161539608Y-91259608D01*
X161718932Y-91041101D01*
X161852182Y-90791808D01*
X161934236Y-90521309D01*
X161961943Y-90240000D01*
X161958004Y-90200000D01*
X168507815Y-90200000D01*
X168536487Y-90491111D01*
X168621401Y-90771034D01*
X168759294Y-91029014D01*
X168944866Y-91255134D01*
X168974687Y-91279607D01*
X168905820Y-91300498D01*
X168795506Y-91359463D01*
X168698815Y-91438815D01*
X168619463Y-91535506D01*
X168560498Y-91645820D01*
X168524188Y-91765518D01*
X168511928Y-91890000D01*
X168515000Y-92454250D01*
X168673750Y-92613000D01*
X169873000Y-92613000D01*
X169873000Y-92593000D01*
X170127000Y-92593000D01*
X170127000Y-92613000D01*
X171326250Y-92613000D01*
X171485000Y-92454250D01*
X171488072Y-91890000D01*
X171475812Y-91765518D01*
X171439502Y-91645820D01*
X171380537Y-91535506D01*
X171301185Y-91438815D01*
X171204494Y-91359463D01*
X171094180Y-91300498D01*
X171025313Y-91279607D01*
X171055134Y-91255134D01*
X171240706Y-91029014D01*
X171378599Y-90771034D01*
X171463513Y-90491111D01*
X171492185Y-90200000D01*
X171463513Y-89908889D01*
X171378599Y-89628966D01*
X171240706Y-89370986D01*
X171055134Y-89144866D01*
X170829014Y-88959294D01*
X170764477Y-88924799D01*
X170881355Y-88855178D01*
X171097588Y-88660269D01*
X171271641Y-88426920D01*
X171396825Y-88164099D01*
X171441476Y-88016890D01*
X171320155Y-87787000D01*
X170127000Y-87787000D01*
X170127000Y-87807000D01*
X169873000Y-87807000D01*
X169873000Y-87787000D01*
X168679845Y-87787000D01*
X168558524Y-88016890D01*
X168603175Y-88164099D01*
X168728359Y-88426920D01*
X168902412Y-88660269D01*
X169118645Y-88855178D01*
X169235523Y-88924799D01*
X169170986Y-88959294D01*
X168944866Y-89144866D01*
X168759294Y-89370986D01*
X168621401Y-89628966D01*
X168536487Y-89908889D01*
X168507815Y-90200000D01*
X161958004Y-90200000D01*
X161934236Y-89958691D01*
X161852182Y-89688192D01*
X161718932Y-89438899D01*
X161539608Y-89220392D01*
X161321101Y-89041068D01*
X161188142Y-88970000D01*
X161321101Y-88898932D01*
X161539608Y-88719608D01*
X161718932Y-88501101D01*
X161852182Y-88251808D01*
X161934236Y-87981309D01*
X161961943Y-87700000D01*
X161934236Y-87418691D01*
X161852182Y-87148192D01*
X161718932Y-86898899D01*
X161539608Y-86680392D01*
X161321101Y-86501068D01*
X161188142Y-86430000D01*
X161321101Y-86358932D01*
X161539608Y-86179608D01*
X161718932Y-85961101D01*
X161852182Y-85711808D01*
X161934236Y-85441309D01*
X161961943Y-85160000D01*
X161958004Y-85120000D01*
X168507815Y-85120000D01*
X168536487Y-85411111D01*
X168621401Y-85691034D01*
X168759294Y-85949014D01*
X168944866Y-86175134D01*
X169170986Y-86360706D01*
X169235523Y-86395201D01*
X169118645Y-86464822D01*
X168902412Y-86659731D01*
X168728359Y-86893080D01*
X168603175Y-87155901D01*
X168558524Y-87303110D01*
X168679845Y-87533000D01*
X169873000Y-87533000D01*
X169873000Y-87513000D01*
X170127000Y-87513000D01*
X170127000Y-87533000D01*
X171320155Y-87533000D01*
X171441476Y-87303110D01*
X171396825Y-87155901D01*
X171271641Y-86893080D01*
X171097588Y-86659731D01*
X170881355Y-86464822D01*
X170764477Y-86395201D01*
X170829014Y-86360706D01*
X171055134Y-86175134D01*
X171240706Y-85949014D01*
X171378599Y-85691034D01*
X171463513Y-85411111D01*
X171492185Y-85120000D01*
X171463513Y-84828889D01*
X171378599Y-84548966D01*
X171240706Y-84290986D01*
X171055134Y-84064866D01*
X170829014Y-83879294D01*
X170764477Y-83844799D01*
X170881355Y-83775178D01*
X171097588Y-83580269D01*
X171271641Y-83346920D01*
X171396825Y-83084099D01*
X171441476Y-82936890D01*
X171320155Y-82707000D01*
X170127000Y-82707000D01*
X170127000Y-82727000D01*
X169873000Y-82727000D01*
X169873000Y-82707000D01*
X168679845Y-82707000D01*
X168558524Y-82936890D01*
X168603175Y-83084099D01*
X168728359Y-83346920D01*
X168902412Y-83580269D01*
X169118645Y-83775178D01*
X169235523Y-83844799D01*
X169170986Y-83879294D01*
X168944866Y-84064866D01*
X168759294Y-84290986D01*
X168621401Y-84548966D01*
X168536487Y-84828889D01*
X168507815Y-85120000D01*
X161958004Y-85120000D01*
X161934236Y-84878691D01*
X161852182Y-84608192D01*
X161718932Y-84358899D01*
X161539608Y-84140392D01*
X161321101Y-83961068D01*
X161193259Y-83892735D01*
X161422839Y-83742601D01*
X161624500Y-83544895D01*
X161783715Y-83311646D01*
X161894367Y-83051818D01*
X161911904Y-82969039D01*
X161789915Y-82747000D01*
X160247000Y-82747000D01*
X160247000Y-82767000D01*
X159993000Y-82767000D01*
X159993000Y-82747000D01*
X158450085Y-82747000D01*
X158328096Y-82969039D01*
X158345633Y-83051818D01*
X158456285Y-83311646D01*
X158615500Y-83544895D01*
X158817161Y-83742601D01*
X159046741Y-83892735D01*
X158918899Y-83961068D01*
X158700392Y-84140392D01*
X158521068Y-84358899D01*
X158387818Y-84608192D01*
X158305764Y-84878691D01*
X158278057Y-85160000D01*
X154341943Y-85160000D01*
X154314236Y-84878691D01*
X154232182Y-84608192D01*
X154098932Y-84358899D01*
X153919608Y-84140392D01*
X153701101Y-83961068D01*
X153568142Y-83890000D01*
X153701101Y-83818932D01*
X153919608Y-83639608D01*
X154098932Y-83421101D01*
X154232182Y-83171808D01*
X154314236Y-82901309D01*
X154341943Y-82620000D01*
X154314236Y-82338691D01*
X154232182Y-82068192D01*
X154098932Y-81818899D01*
X153919608Y-81600392D01*
X153701101Y-81421068D01*
X153568142Y-81350000D01*
X153701101Y-81278932D01*
X153919608Y-81099608D01*
X154098932Y-80881101D01*
X154232182Y-80631808D01*
X154314236Y-80361309D01*
X154341943Y-80080000D01*
X154314236Y-79798691D01*
X154232182Y-79528192D01*
X154098932Y-79278899D01*
X153919608Y-79060392D01*
X153701101Y-78881068D01*
X153568142Y-78810000D01*
X153701101Y-78738932D01*
X153919608Y-78559608D01*
X154098932Y-78341101D01*
X154232182Y-78091808D01*
X154314236Y-77821309D01*
X154341943Y-77540000D01*
X154314236Y-77258691D01*
X154232182Y-76988192D01*
X154098932Y-76738899D01*
X153919608Y-76520392D01*
X153806518Y-76427581D01*
X153824482Y-76425812D01*
X153944180Y-76389502D01*
X154054494Y-76330537D01*
X154151185Y-76251185D01*
X154230537Y-76154494D01*
X154289502Y-76044180D01*
X154325812Y-75924482D01*
X154338072Y-75800000D01*
X154338072Y-75000000D01*
X158278057Y-75000000D01*
X158305764Y-75281309D01*
X158387818Y-75551808D01*
X158521068Y-75801101D01*
X158700392Y-76019608D01*
X158918899Y-76198932D01*
X159051858Y-76270000D01*
X158918899Y-76341068D01*
X158700392Y-76520392D01*
X158521068Y-76738899D01*
X158387818Y-76988192D01*
X158305764Y-77258691D01*
X158278057Y-77540000D01*
X158305764Y-77821309D01*
X158387818Y-78091808D01*
X158521068Y-78341101D01*
X158700392Y-78559608D01*
X158918899Y-78738932D01*
X159051858Y-78810000D01*
X158918899Y-78881068D01*
X158700392Y-79060392D01*
X158521068Y-79278899D01*
X158387818Y-79528192D01*
X158305764Y-79798691D01*
X158278057Y-80080000D01*
X158305764Y-80361309D01*
X158387818Y-80631808D01*
X158521068Y-80881101D01*
X158700392Y-81099608D01*
X158918899Y-81278932D01*
X159046741Y-81347265D01*
X158817161Y-81497399D01*
X158615500Y-81695105D01*
X158456285Y-81928354D01*
X158345633Y-82188182D01*
X158328096Y-82270961D01*
X158450085Y-82493000D01*
X159993000Y-82493000D01*
X159993000Y-82473000D01*
X160247000Y-82473000D01*
X160247000Y-82493000D01*
X161789915Y-82493000D01*
X161911904Y-82270961D01*
X161894367Y-82188182D01*
X161783715Y-81928354D01*
X161624500Y-81695105D01*
X161422839Y-81497399D01*
X161193259Y-81347265D01*
X161321101Y-81278932D01*
X161539608Y-81099608D01*
X161718932Y-80881101D01*
X161852182Y-80631808D01*
X161934236Y-80361309D01*
X161961943Y-80080000D01*
X161958004Y-80040000D01*
X168507815Y-80040000D01*
X168536487Y-80331111D01*
X168621401Y-80611034D01*
X168759294Y-80869014D01*
X168944866Y-81095134D01*
X169170986Y-81280706D01*
X169235523Y-81315201D01*
X169118645Y-81384822D01*
X168902412Y-81579731D01*
X168728359Y-81813080D01*
X168603175Y-82075901D01*
X168558524Y-82223110D01*
X168679845Y-82453000D01*
X169873000Y-82453000D01*
X169873000Y-82433000D01*
X170127000Y-82433000D01*
X170127000Y-82453000D01*
X171320155Y-82453000D01*
X171441476Y-82223110D01*
X171396825Y-82075901D01*
X171271641Y-81813080D01*
X171097588Y-81579731D01*
X170881355Y-81384822D01*
X170764477Y-81315201D01*
X170829014Y-81280706D01*
X171055134Y-81095134D01*
X171240706Y-80869014D01*
X171378599Y-80611034D01*
X171463513Y-80331111D01*
X171492185Y-80040000D01*
X171463513Y-79748889D01*
X171378599Y-79468966D01*
X171240706Y-79210986D01*
X171055134Y-78984866D01*
X170829014Y-78799294D01*
X170764477Y-78764799D01*
X170881355Y-78695178D01*
X171097588Y-78500269D01*
X171271641Y-78266920D01*
X171396825Y-78004099D01*
X171441476Y-77856890D01*
X171320155Y-77627000D01*
X170127000Y-77627000D01*
X170127000Y-77647000D01*
X169873000Y-77647000D01*
X169873000Y-77627000D01*
X168679845Y-77627000D01*
X168558524Y-77856890D01*
X168603175Y-78004099D01*
X168728359Y-78266920D01*
X168902412Y-78500269D01*
X169118645Y-78695178D01*
X169235523Y-78764799D01*
X169170986Y-78799294D01*
X168944866Y-78984866D01*
X168759294Y-79210986D01*
X168621401Y-79468966D01*
X168536487Y-79748889D01*
X168507815Y-80040000D01*
X161958004Y-80040000D01*
X161934236Y-79798691D01*
X161852182Y-79528192D01*
X161718932Y-79278899D01*
X161539608Y-79060392D01*
X161321101Y-78881068D01*
X161188142Y-78810000D01*
X161321101Y-78738932D01*
X161539608Y-78559608D01*
X161718932Y-78341101D01*
X161852182Y-78091808D01*
X161934236Y-77821309D01*
X161961943Y-77540000D01*
X161934236Y-77258691D01*
X161852182Y-76988192D01*
X161718932Y-76738899D01*
X161539608Y-76520392D01*
X161321101Y-76341068D01*
X161188142Y-76270000D01*
X161321101Y-76198932D01*
X161539608Y-76019608D01*
X161718932Y-75801101D01*
X161852182Y-75551808D01*
X161934236Y-75281309D01*
X161961943Y-75000000D01*
X161958004Y-74960000D01*
X168507815Y-74960000D01*
X168536487Y-75251111D01*
X168621401Y-75531034D01*
X168759294Y-75789014D01*
X168944866Y-76015134D01*
X169170986Y-76200706D01*
X169235523Y-76235201D01*
X169118645Y-76304822D01*
X168902412Y-76499731D01*
X168728359Y-76733080D01*
X168603175Y-76995901D01*
X168558524Y-77143110D01*
X168679845Y-77373000D01*
X169873000Y-77373000D01*
X169873000Y-77353000D01*
X170127000Y-77353000D01*
X170127000Y-77373000D01*
X171320155Y-77373000D01*
X171441476Y-77143110D01*
X171396825Y-76995901D01*
X171271641Y-76733080D01*
X171097588Y-76499731D01*
X170881355Y-76304822D01*
X170764477Y-76235201D01*
X170829014Y-76200706D01*
X171055134Y-76015134D01*
X171240706Y-75789014D01*
X171378599Y-75531034D01*
X171463513Y-75251111D01*
X171492185Y-74960000D01*
X171463513Y-74668889D01*
X171378599Y-74388966D01*
X171240706Y-74130986D01*
X171055134Y-73904866D01*
X170829014Y-73719294D01*
X170571034Y-73581401D01*
X170291111Y-73496487D01*
X170072950Y-73475000D01*
X169927050Y-73475000D01*
X169708889Y-73496487D01*
X169428966Y-73581401D01*
X169170986Y-73719294D01*
X168944866Y-73904866D01*
X168759294Y-74130986D01*
X168621401Y-74388966D01*
X168536487Y-74668889D01*
X168507815Y-74960000D01*
X161958004Y-74960000D01*
X161934236Y-74718691D01*
X161852182Y-74448192D01*
X161718932Y-74198899D01*
X161539608Y-73980392D01*
X161321101Y-73801068D01*
X161071808Y-73667818D01*
X160801309Y-73585764D01*
X160590492Y-73565000D01*
X159649508Y-73565000D01*
X159438691Y-73585764D01*
X159168192Y-73667818D01*
X158918899Y-73801068D01*
X158700392Y-73980392D01*
X158521068Y-74198899D01*
X158387818Y-74448192D01*
X158305764Y-74718691D01*
X158278057Y-75000000D01*
X154338072Y-75000000D01*
X154338072Y-74200000D01*
X154325812Y-74075518D01*
X154289502Y-73955820D01*
X154230537Y-73845506D01*
X154151185Y-73748815D01*
X154054494Y-73669463D01*
X153944180Y-73610498D01*
X153824482Y-73574188D01*
X153700000Y-73561928D01*
X151300000Y-73561928D01*
X151175518Y-73574188D01*
X151055820Y-73610498D01*
X150945506Y-73669463D01*
X150848815Y-73748815D01*
X150769463Y-73845506D01*
X150710498Y-73955820D01*
X150674188Y-74075518D01*
X150661928Y-74200000D01*
X150661928Y-75800000D01*
X150674188Y-75924482D01*
X150710498Y-76044180D01*
X150769463Y-76154494D01*
X150848815Y-76251185D01*
X150945506Y-76330537D01*
X151055820Y-76389502D01*
X151175518Y-76425812D01*
X151193482Y-76427581D01*
X151080392Y-76520392D01*
X150901068Y-76738899D01*
X150767818Y-76988192D01*
X150685764Y-77258691D01*
X150658057Y-77540000D01*
X146435000Y-77540000D01*
X146435000Y-77358665D01*
X146379853Y-77081426D01*
X146271680Y-76820273D01*
X146114637Y-76585241D01*
X145914759Y-76385363D01*
X145679727Y-76228320D01*
X145418574Y-76120147D01*
X145141335Y-76065000D01*
X144858665Y-76065000D01*
X144581426Y-76120147D01*
X144320273Y-76228320D01*
X144085241Y-76385363D01*
X143885363Y-76585241D01*
X143728320Y-76820273D01*
X143620147Y-77081426D01*
X143565000Y-77358665D01*
X141333041Y-77358665D01*
X141283696Y-77110595D01*
X141183061Y-76867641D01*
X141036962Y-76648987D01*
X140851013Y-76463038D01*
X140632359Y-76316939D01*
X140389405Y-76216304D01*
X140131486Y-76165000D01*
X139868514Y-76165000D01*
X139610595Y-76216304D01*
X139367641Y-76316939D01*
X139148987Y-76463038D01*
X138963038Y-76648987D01*
X138816939Y-76867641D01*
X138716304Y-77110595D01*
X138665000Y-77368514D01*
X91483175Y-77368514D01*
X91463513Y-77168889D01*
X91378599Y-76888966D01*
X91240706Y-76630986D01*
X91055134Y-76404866D01*
X90829014Y-76219294D01*
X90774209Y-76190000D01*
X90829014Y-76160706D01*
X91055134Y-75975134D01*
X91240706Y-75749014D01*
X91378599Y-75491034D01*
X91463513Y-75211111D01*
X91484305Y-75000000D01*
X126038541Y-75000000D01*
X126064317Y-75261706D01*
X126140653Y-75513354D01*
X126264618Y-75745275D01*
X126431445Y-75948555D01*
X126634725Y-76115382D01*
X126866646Y-76239347D01*
X127118294Y-76315683D01*
X127314421Y-76335000D01*
X127445579Y-76335000D01*
X127641706Y-76315683D01*
X127893354Y-76239347D01*
X128125275Y-76115382D01*
X128328555Y-75948555D01*
X128495382Y-75745275D01*
X128619347Y-75513354D01*
X128695683Y-75261706D01*
X128721459Y-75000000D01*
X128708509Y-74868514D01*
X133665000Y-74868514D01*
X133665000Y-75131486D01*
X133716304Y-75389405D01*
X133816939Y-75632359D01*
X133963038Y-75851013D01*
X134148987Y-76036962D01*
X134367641Y-76183061D01*
X134610595Y-76283696D01*
X134868514Y-76335000D01*
X135131486Y-76335000D01*
X135389405Y-76283696D01*
X135632359Y-76183061D01*
X135851013Y-76036962D01*
X136036962Y-75851013D01*
X136183061Y-75632359D01*
X136283696Y-75389405D01*
X136335000Y-75131486D01*
X136335000Y-74868514D01*
X136283696Y-74610595D01*
X136183061Y-74367641D01*
X136036962Y-74148987D01*
X135851013Y-73963038D01*
X135632359Y-73816939D01*
X135389405Y-73716304D01*
X135131486Y-73665000D01*
X134868514Y-73665000D01*
X134610595Y-73716304D01*
X134367641Y-73816939D01*
X134148987Y-73963038D01*
X133963038Y-74148987D01*
X133816939Y-74367641D01*
X133716304Y-74610595D01*
X133665000Y-74868514D01*
X128708509Y-74868514D01*
X128695683Y-74738294D01*
X128619347Y-74486646D01*
X128495382Y-74254725D01*
X128328555Y-74051445D01*
X128125275Y-73884618D01*
X127893354Y-73760653D01*
X127641706Y-73684317D01*
X127445579Y-73665000D01*
X127314421Y-73665000D01*
X127118294Y-73684317D01*
X126866646Y-73760653D01*
X126634725Y-73884618D01*
X126431445Y-74051445D01*
X126264618Y-74254725D01*
X126140653Y-74486646D01*
X126064317Y-74738294D01*
X126038541Y-75000000D01*
X91484305Y-75000000D01*
X91492185Y-74920000D01*
X91463513Y-74628889D01*
X91378599Y-74348966D01*
X91240706Y-74090986D01*
X91055134Y-73864866D01*
X90829014Y-73679294D01*
X90774209Y-73650000D01*
X90829014Y-73620706D01*
X91055134Y-73435134D01*
X91240706Y-73209014D01*
X91378599Y-72951034D01*
X91463513Y-72671111D01*
X91492185Y-72380000D01*
X91463513Y-72088889D01*
X91378599Y-71808966D01*
X91240706Y-71550986D01*
X91055134Y-71324866D01*
X90829014Y-71139294D01*
X90571034Y-71001401D01*
X90291111Y-70916487D01*
X90072950Y-70895000D01*
X89927050Y-70895000D01*
X89708889Y-70916487D01*
X89428966Y-71001401D01*
X89170986Y-71139294D01*
X88944866Y-71324866D01*
X88759294Y-71550986D01*
X88621401Y-71808966D01*
X88536487Y-72088889D01*
X88507815Y-72380000D01*
X84450124Y-72380000D01*
X84434236Y-72218691D01*
X84352182Y-71948192D01*
X84218932Y-71698899D01*
X84039608Y-71480392D01*
X83821101Y-71301068D01*
X83571808Y-71167818D01*
X83301309Y-71085764D01*
X83090492Y-71065000D01*
X82149508Y-71065000D01*
X81938691Y-71085764D01*
X81668192Y-71167818D01*
X81418899Y-71301068D01*
X81200392Y-71480392D01*
X81021068Y-71698899D01*
X80887818Y-71948192D01*
X80805764Y-72218691D01*
X80778057Y-72500000D01*
X80126941Y-72500000D01*
X80126936Y-69718021D01*
X103800000Y-69718021D01*
X103800000Y-70281978D01*
X103816785Y-70452399D01*
X103883115Y-70671059D01*
X103990829Y-70872578D01*
X104135788Y-71049212D01*
X104312421Y-71194171D01*
X104513940Y-71301885D01*
X104732600Y-71368215D01*
X104960000Y-71390612D01*
X105187399Y-71368215D01*
X105406059Y-71301885D01*
X105594669Y-71201071D01*
X105653118Y-71242275D01*
X105862663Y-71335272D01*
X105924190Y-71343964D01*
X106103000Y-71218163D01*
X106103000Y-70453109D01*
X106103215Y-70452400D01*
X106120000Y-70281979D01*
X106120000Y-69718022D01*
X106103215Y-69547601D01*
X106103000Y-69546892D01*
X106103000Y-69250000D01*
X106336928Y-69250000D01*
X106336928Y-70750000D01*
X106349188Y-70874482D01*
X106357000Y-70900235D01*
X106357000Y-71218163D01*
X106535810Y-71343964D01*
X106597337Y-71335272D01*
X106665943Y-71304824D01*
X106730820Y-71339502D01*
X106850518Y-71375812D01*
X106975000Y-71388072D01*
X108025000Y-71388072D01*
X108149482Y-71375812D01*
X108269180Y-71339502D01*
X108379494Y-71280537D01*
X108476185Y-71201185D01*
X108555537Y-71104494D01*
X108614502Y-70994180D01*
X108650812Y-70874482D01*
X108663072Y-70750000D01*
X108663072Y-69858665D01*
X111065000Y-69858665D01*
X111065000Y-70141335D01*
X111120147Y-70418574D01*
X111228320Y-70679727D01*
X111385363Y-70914759D01*
X111585241Y-71114637D01*
X111820273Y-71271680D01*
X112081426Y-71379853D01*
X112358665Y-71435000D01*
X112641335Y-71435000D01*
X112918574Y-71379853D01*
X113179727Y-71271680D01*
X113414759Y-71114637D01*
X113614637Y-70914759D01*
X113771680Y-70679727D01*
X113879853Y-70418574D01*
X113935000Y-70141335D01*
X113935000Y-69858665D01*
X116065000Y-69858665D01*
X116065000Y-70141335D01*
X116120147Y-70418574D01*
X116228320Y-70679727D01*
X116385363Y-70914759D01*
X116585241Y-71114637D01*
X116820273Y-71271680D01*
X117081426Y-71379853D01*
X117358665Y-71435000D01*
X117641335Y-71435000D01*
X117918574Y-71379853D01*
X118179727Y-71271680D01*
X118414759Y-71114637D01*
X118614637Y-70914759D01*
X118771680Y-70679727D01*
X118879853Y-70418574D01*
X118935000Y-70141335D01*
X118935000Y-69858665D01*
X126065000Y-69858665D01*
X126065000Y-70141335D01*
X126120147Y-70418574D01*
X126228320Y-70679727D01*
X126385363Y-70914759D01*
X126585241Y-71114637D01*
X126820273Y-71271680D01*
X127081426Y-71379853D01*
X127358665Y-71435000D01*
X127641335Y-71435000D01*
X127918574Y-71379853D01*
X128179727Y-71271680D01*
X128414759Y-71114637D01*
X128614637Y-70914759D01*
X128771680Y-70679727D01*
X128879853Y-70418574D01*
X128935000Y-70141335D01*
X128935000Y-69858665D01*
X128879853Y-69581426D01*
X128771680Y-69320273D01*
X128614637Y-69085241D01*
X128414759Y-68885363D01*
X128179727Y-68728320D01*
X127918574Y-68620147D01*
X127641335Y-68565000D01*
X127358665Y-68565000D01*
X127081426Y-68620147D01*
X126820273Y-68728320D01*
X126585241Y-68885363D01*
X126385363Y-69085241D01*
X126228320Y-69320273D01*
X126120147Y-69581426D01*
X126065000Y-69858665D01*
X118935000Y-69858665D01*
X118879853Y-69581426D01*
X118771680Y-69320273D01*
X118614637Y-69085241D01*
X118414759Y-68885363D01*
X118179727Y-68728320D01*
X117918574Y-68620147D01*
X117641335Y-68565000D01*
X117358665Y-68565000D01*
X117081426Y-68620147D01*
X116820273Y-68728320D01*
X116585241Y-68885363D01*
X116385363Y-69085241D01*
X116228320Y-69320273D01*
X116120147Y-69581426D01*
X116065000Y-69858665D01*
X113935000Y-69858665D01*
X113879853Y-69581426D01*
X113771680Y-69320273D01*
X113614637Y-69085241D01*
X113414759Y-68885363D01*
X113179727Y-68728320D01*
X112918574Y-68620147D01*
X112641335Y-68565000D01*
X112358665Y-68565000D01*
X112081426Y-68620147D01*
X111820273Y-68728320D01*
X111585241Y-68885363D01*
X111385363Y-69085241D01*
X111228320Y-69320273D01*
X111120147Y-69581426D01*
X111065000Y-69858665D01*
X108663072Y-69858665D01*
X108663072Y-69250000D01*
X108650812Y-69125518D01*
X108614502Y-69005820D01*
X108555537Y-68895506D01*
X108476185Y-68798815D01*
X108379494Y-68719463D01*
X108269180Y-68660498D01*
X108149482Y-68624188D01*
X108025000Y-68611928D01*
X106975000Y-68611928D01*
X106850518Y-68624188D01*
X106730820Y-68660498D01*
X106665943Y-68695176D01*
X106597337Y-68664728D01*
X106535810Y-68656036D01*
X106357000Y-68781837D01*
X106357000Y-69099765D01*
X106349188Y-69125518D01*
X106336928Y-69250000D01*
X106103000Y-69250000D01*
X106103000Y-68781837D01*
X105924190Y-68656036D01*
X105862663Y-68664728D01*
X105653118Y-68757725D01*
X105594669Y-68798929D01*
X105406060Y-68698115D01*
X105187400Y-68631785D01*
X104960000Y-68609388D01*
X104732601Y-68631785D01*
X104513941Y-68698115D01*
X104312422Y-68805829D01*
X104135789Y-68950788D01*
X103990830Y-69127421D01*
X103883115Y-69328940D01*
X103816785Y-69547600D01*
X103800000Y-69718021D01*
X80126936Y-69718021D01*
X80126932Y-67620000D01*
X88658541Y-67620000D01*
X88684317Y-67881706D01*
X88760653Y-68133354D01*
X88884618Y-68365275D01*
X89051445Y-68568555D01*
X89254725Y-68735382D01*
X89486646Y-68859347D01*
X89738294Y-68935683D01*
X89934421Y-68955000D01*
X90065579Y-68955000D01*
X90261706Y-68935683D01*
X90513354Y-68859347D01*
X90745275Y-68735382D01*
X90948555Y-68568555D01*
X91069429Y-68421269D01*
X156758336Y-68421269D01*
X156817797Y-68655037D01*
X157056242Y-68765934D01*
X157311740Y-68828183D01*
X157574473Y-68839390D01*
X157834344Y-68799125D01*
X158081366Y-68708935D01*
X158182203Y-68655037D01*
X158241664Y-68421269D01*
X157500000Y-67679605D01*
X156758336Y-68421269D01*
X91069429Y-68421269D01*
X91115382Y-68365275D01*
X91239347Y-68133354D01*
X91315683Y-67881706D01*
X91341459Y-67620000D01*
X91336975Y-67574473D01*
X156160610Y-67574473D01*
X156200875Y-67834344D01*
X156291065Y-68081366D01*
X156344963Y-68182203D01*
X156578731Y-68241664D01*
X157320395Y-67500000D01*
X157679605Y-67500000D01*
X158421269Y-68241664D01*
X158655037Y-68182203D01*
X158765934Y-67943758D01*
X158828183Y-67688260D01*
X158836213Y-67500000D01*
X163778541Y-67500000D01*
X163804317Y-67761706D01*
X163880653Y-68013354D01*
X164004618Y-68245275D01*
X164171445Y-68448555D01*
X164374725Y-68615382D01*
X164606646Y-68739347D01*
X164858294Y-68815683D01*
X165054421Y-68835000D01*
X165185579Y-68835000D01*
X165381706Y-68815683D01*
X165633354Y-68739347D01*
X165865275Y-68615382D01*
X166068555Y-68448555D01*
X166235382Y-68245275D01*
X166359347Y-68013354D01*
X166435683Y-67761706D01*
X166461459Y-67500000D01*
X166435683Y-67238294D01*
X166359347Y-66986646D01*
X166235382Y-66754725D01*
X166068555Y-66551445D01*
X165865275Y-66384618D01*
X165633354Y-66260653D01*
X165381706Y-66184317D01*
X165185579Y-66165000D01*
X165054421Y-66165000D01*
X164858294Y-66184317D01*
X164606646Y-66260653D01*
X164374725Y-66384618D01*
X164171445Y-66551445D01*
X164004618Y-66754725D01*
X163880653Y-66986646D01*
X163804317Y-67238294D01*
X163778541Y-67500000D01*
X158836213Y-67500000D01*
X158839390Y-67425527D01*
X158799125Y-67165656D01*
X158708935Y-66918634D01*
X158655037Y-66817797D01*
X158421269Y-66758336D01*
X157679605Y-67500000D01*
X157320395Y-67500000D01*
X156578731Y-66758336D01*
X156344963Y-66817797D01*
X156234066Y-67056242D01*
X156171817Y-67311740D01*
X156160610Y-67574473D01*
X91336975Y-67574473D01*
X91315683Y-67358294D01*
X91239347Y-67106646D01*
X91115382Y-66874725D01*
X90948555Y-66671445D01*
X90835583Y-66578731D01*
X156758336Y-66578731D01*
X157500000Y-67320395D01*
X158241664Y-66578731D01*
X158182203Y-66344963D01*
X157943758Y-66234066D01*
X157688260Y-66171817D01*
X157425527Y-66160610D01*
X157165656Y-66200875D01*
X156918634Y-66291065D01*
X156817797Y-66344963D01*
X156758336Y-66578731D01*
X90835583Y-66578731D01*
X90745275Y-66504618D01*
X90513354Y-66380653D01*
X90261706Y-66304317D01*
X90065579Y-66285000D01*
X89934421Y-66285000D01*
X89738294Y-66304317D01*
X89486646Y-66380653D01*
X89254725Y-66504618D01*
X89051445Y-66671445D01*
X88884618Y-66874725D01*
X88760653Y-67106646D01*
X88684317Y-67358294D01*
X88658541Y-67620000D01*
X80126932Y-67620000D01*
X80126930Y-65992702D01*
X111686903Y-65992702D01*
X111758486Y-66236671D01*
X112013996Y-66357571D01*
X112288184Y-66426300D01*
X112570512Y-66440217D01*
X112850130Y-66398787D01*
X113116292Y-66303603D01*
X113241514Y-66236671D01*
X113313097Y-65992702D01*
X116686903Y-65992702D01*
X116758486Y-66236671D01*
X117013996Y-66357571D01*
X117288184Y-66426300D01*
X117570512Y-66440217D01*
X117850130Y-66398787D01*
X118116292Y-66303603D01*
X118241514Y-66236671D01*
X118313097Y-65992702D01*
X126686903Y-65992702D01*
X126758486Y-66236671D01*
X127013996Y-66357571D01*
X127288184Y-66426300D01*
X127570512Y-66440217D01*
X127850130Y-66398787D01*
X128116292Y-66303603D01*
X128241514Y-66236671D01*
X128313097Y-65992702D01*
X127500000Y-65179605D01*
X126686903Y-65992702D01*
X118313097Y-65992702D01*
X117500000Y-65179605D01*
X116686903Y-65992702D01*
X113313097Y-65992702D01*
X112500000Y-65179605D01*
X111686903Y-65992702D01*
X80126930Y-65992702D01*
X80126928Y-65070512D01*
X111059783Y-65070512D01*
X111101213Y-65350130D01*
X111196397Y-65616292D01*
X111263329Y-65741514D01*
X111507298Y-65813097D01*
X112320395Y-65000000D01*
X112679605Y-65000000D01*
X113492702Y-65813097D01*
X113736671Y-65741514D01*
X113857571Y-65486004D01*
X113926300Y-65211816D01*
X113933265Y-65070512D01*
X116059783Y-65070512D01*
X116101213Y-65350130D01*
X116196397Y-65616292D01*
X116263329Y-65741514D01*
X116507298Y-65813097D01*
X117320395Y-65000000D01*
X117679605Y-65000000D01*
X118492702Y-65813097D01*
X118736671Y-65741514D01*
X118857571Y-65486004D01*
X118926300Y-65211816D01*
X118933265Y-65070512D01*
X126059783Y-65070512D01*
X126101213Y-65350130D01*
X126196397Y-65616292D01*
X126263329Y-65741514D01*
X126507298Y-65813097D01*
X127320395Y-65000000D01*
X127679605Y-65000000D01*
X128492702Y-65813097D01*
X128736671Y-65741514D01*
X128857571Y-65486004D01*
X128926300Y-65211816D01*
X128940217Y-64929488D01*
X128898787Y-64649870D01*
X128803603Y-64383708D01*
X128736671Y-64258486D01*
X128492702Y-64186903D01*
X127679605Y-65000000D01*
X127320395Y-65000000D01*
X126507298Y-64186903D01*
X126263329Y-64258486D01*
X126142429Y-64513996D01*
X126073700Y-64788184D01*
X126059783Y-65070512D01*
X118933265Y-65070512D01*
X118940217Y-64929488D01*
X118898787Y-64649870D01*
X118803603Y-64383708D01*
X118736671Y-64258486D01*
X118492702Y-64186903D01*
X117679605Y-65000000D01*
X117320395Y-65000000D01*
X116507298Y-64186903D01*
X116263329Y-64258486D01*
X116142429Y-64513996D01*
X116073700Y-64788184D01*
X116059783Y-65070512D01*
X113933265Y-65070512D01*
X113940217Y-64929488D01*
X113898787Y-64649870D01*
X113803603Y-64383708D01*
X113736671Y-64258486D01*
X113492702Y-64186903D01*
X112679605Y-65000000D01*
X112320395Y-65000000D01*
X111507298Y-64186903D01*
X111263329Y-64258486D01*
X111142429Y-64513996D01*
X111073700Y-64788184D01*
X111059783Y-65070512D01*
X80126928Y-65070512D01*
X80126926Y-64007298D01*
X111686903Y-64007298D01*
X112500000Y-64820395D01*
X113313097Y-64007298D01*
X116686903Y-64007298D01*
X117500000Y-64820395D01*
X118313097Y-64007298D01*
X126686903Y-64007298D01*
X127500000Y-64820395D01*
X128313097Y-64007298D01*
X128241514Y-63763329D01*
X127986004Y-63642429D01*
X127711816Y-63573700D01*
X127429488Y-63559783D01*
X127149870Y-63601213D01*
X126883708Y-63696397D01*
X126758486Y-63763329D01*
X126686903Y-64007298D01*
X118313097Y-64007298D01*
X118241514Y-63763329D01*
X117986004Y-63642429D01*
X117711816Y-63573700D01*
X117429488Y-63559783D01*
X117149870Y-63601213D01*
X116883708Y-63696397D01*
X116758486Y-63763329D01*
X116686903Y-64007298D01*
X113313097Y-64007298D01*
X113241514Y-63763329D01*
X112986004Y-63642429D01*
X112711816Y-63573700D01*
X112429488Y-63559783D01*
X112149870Y-63601213D01*
X111883708Y-63696397D01*
X111758486Y-63763329D01*
X111686903Y-64007298D01*
X80126926Y-64007298D01*
X80126918Y-60052611D01*
X80552599Y-59627000D01*
X81049194Y-59627000D01*
X81036487Y-59668889D01*
X81007815Y-59960000D01*
X81036487Y-60251111D01*
X81121401Y-60531034D01*
X81259294Y-60789014D01*
X81444866Y-61015134D01*
X81474687Y-61039607D01*
X81405820Y-61060498D01*
X81295506Y-61119463D01*
X81198815Y-61198815D01*
X81119463Y-61295506D01*
X81060498Y-61405820D01*
X81024188Y-61525518D01*
X81011928Y-61650000D01*
X81011928Y-63350000D01*
X81024188Y-63474482D01*
X81060498Y-63594180D01*
X81119463Y-63704494D01*
X81198815Y-63801185D01*
X81295506Y-63880537D01*
X81405820Y-63939502D01*
X81525518Y-63975812D01*
X81650000Y-63988072D01*
X83350000Y-63988072D01*
X83474482Y-63975812D01*
X83594180Y-63939502D01*
X83704494Y-63880537D01*
X83801185Y-63801185D01*
X83880537Y-63704494D01*
X83939502Y-63594180D01*
X83975812Y-63474482D01*
X83988072Y-63350000D01*
X83988072Y-62358665D01*
X98565000Y-62358665D01*
X98565000Y-62641335D01*
X98620147Y-62918574D01*
X98728320Y-63179727D01*
X98885363Y-63414759D01*
X99085241Y-63614637D01*
X99320273Y-63771680D01*
X99581426Y-63879853D01*
X99858665Y-63935000D01*
X100141335Y-63935000D01*
X100418574Y-63879853D01*
X100679727Y-63771680D01*
X100914759Y-63614637D01*
X101036694Y-63492702D01*
X104186903Y-63492702D01*
X104258486Y-63736671D01*
X104513996Y-63857571D01*
X104788184Y-63926300D01*
X105070512Y-63940217D01*
X105350130Y-63898787D01*
X105616292Y-63803603D01*
X105741514Y-63736671D01*
X105813097Y-63492702D01*
X105000000Y-62679605D01*
X104186903Y-63492702D01*
X101036694Y-63492702D01*
X101114637Y-63414759D01*
X101271680Y-63179727D01*
X101379853Y-62918574D01*
X101435000Y-62641335D01*
X101435000Y-62570512D01*
X103559783Y-62570512D01*
X103601213Y-62850130D01*
X103696397Y-63116292D01*
X103763329Y-63241514D01*
X104007298Y-63313097D01*
X104820395Y-62500000D01*
X105179605Y-62500000D01*
X105992702Y-63313097D01*
X106236671Y-63241514D01*
X106357571Y-62986004D01*
X106426300Y-62711816D01*
X106436741Y-62500000D01*
X156038541Y-62500000D01*
X156064317Y-62761706D01*
X156140653Y-63013354D01*
X156264618Y-63245275D01*
X156431445Y-63448555D01*
X156634725Y-63615382D01*
X156866646Y-63739347D01*
X157118294Y-63815683D01*
X157314421Y-63835000D01*
X157445579Y-63835000D01*
X157641706Y-63815683D01*
X157893354Y-63739347D01*
X158125275Y-63615382D01*
X158328555Y-63448555D01*
X158495382Y-63245275D01*
X158619347Y-63013354D01*
X158695683Y-62761706D01*
X158721459Y-62500000D01*
X158708509Y-62368514D01*
X163665000Y-62368514D01*
X163665000Y-62631486D01*
X163716304Y-62889405D01*
X163816939Y-63132359D01*
X163963038Y-63351013D01*
X164148987Y-63536962D01*
X164367641Y-63683061D01*
X164610595Y-63783696D01*
X164868514Y-63835000D01*
X165131486Y-63835000D01*
X165389405Y-63783696D01*
X165632359Y-63683061D01*
X165851013Y-63536962D01*
X166036962Y-63351013D01*
X166183061Y-63132359D01*
X166283696Y-62889405D01*
X166335000Y-62631486D01*
X166335000Y-62368514D01*
X166283696Y-62110595D01*
X166183061Y-61867641D01*
X166036962Y-61648987D01*
X165851013Y-61463038D01*
X165632359Y-61316939D01*
X165389405Y-61216304D01*
X165131486Y-61165000D01*
X164868514Y-61165000D01*
X164610595Y-61216304D01*
X164367641Y-61316939D01*
X164148987Y-61463038D01*
X163963038Y-61648987D01*
X163816939Y-61867641D01*
X163716304Y-62110595D01*
X163665000Y-62368514D01*
X158708509Y-62368514D01*
X158695683Y-62238294D01*
X158619347Y-61986646D01*
X158495382Y-61754725D01*
X158328555Y-61551445D01*
X158125275Y-61384618D01*
X157893354Y-61260653D01*
X157641706Y-61184317D01*
X157445579Y-61165000D01*
X157314421Y-61165000D01*
X157118294Y-61184317D01*
X156866646Y-61260653D01*
X156634725Y-61384618D01*
X156431445Y-61551445D01*
X156264618Y-61754725D01*
X156140653Y-61986646D01*
X156064317Y-62238294D01*
X156038541Y-62500000D01*
X106436741Y-62500000D01*
X106440217Y-62429488D01*
X106398787Y-62149870D01*
X106303603Y-61883708D01*
X106236671Y-61758486D01*
X105992702Y-61686903D01*
X105179605Y-62500000D01*
X104820395Y-62500000D01*
X104007298Y-61686903D01*
X103763329Y-61758486D01*
X103642429Y-62013996D01*
X103573700Y-62288184D01*
X103559783Y-62570512D01*
X101435000Y-62570512D01*
X101435000Y-62358665D01*
X101379853Y-62081426D01*
X101271680Y-61820273D01*
X101114637Y-61585241D01*
X101036694Y-61507298D01*
X104186903Y-61507298D01*
X105000000Y-62320395D01*
X105813097Y-61507298D01*
X105741514Y-61263329D01*
X105486004Y-61142429D01*
X105211816Y-61073700D01*
X104929488Y-61059783D01*
X104649870Y-61101213D01*
X104383708Y-61196397D01*
X104258486Y-61263329D01*
X104186903Y-61507298D01*
X101036694Y-61507298D01*
X100914759Y-61385363D01*
X100679727Y-61228320D01*
X100418574Y-61120147D01*
X100141335Y-61065000D01*
X99858665Y-61065000D01*
X99581426Y-61120147D01*
X99320273Y-61228320D01*
X99085241Y-61385363D01*
X98885363Y-61585241D01*
X98728320Y-61820273D01*
X98620147Y-62081426D01*
X98565000Y-62358665D01*
X83988072Y-62358665D01*
X83988072Y-61650000D01*
X83975812Y-61525518D01*
X83939502Y-61405820D01*
X83880537Y-61295506D01*
X83801185Y-61198815D01*
X83704494Y-61119463D01*
X83594180Y-61060498D01*
X83525313Y-61039607D01*
X83555134Y-61015134D01*
X83740706Y-60789014D01*
X83878599Y-60531034D01*
X83963513Y-60251111D01*
X83992185Y-59960000D01*
X83963513Y-59668889D01*
X83950806Y-59627000D01*
X88713041Y-59627000D01*
X88665000Y-59868514D01*
X88665000Y-60131486D01*
X88716304Y-60389405D01*
X88816939Y-60632359D01*
X88963038Y-60851013D01*
X89148987Y-61036962D01*
X89367641Y-61183061D01*
X89610595Y-61283696D01*
X89868514Y-61335000D01*
X90131486Y-61335000D01*
X90389405Y-61283696D01*
X90632359Y-61183061D01*
X90851013Y-61036962D01*
X91036962Y-60851013D01*
X91183061Y-60632359D01*
X91283696Y-60389405D01*
X91335000Y-60131486D01*
X91335000Y-59868514D01*
X91286959Y-59627000D01*
X112500000Y-59627000D01*
X112524776Y-59624560D01*
X112548601Y-59617333D01*
X112570557Y-59605597D01*
X112589979Y-59589626D01*
X113753758Y-58421269D01*
X114258336Y-58421269D01*
X114317797Y-58655037D01*
X114556242Y-58765934D01*
X114811740Y-58828183D01*
X115074473Y-58839390D01*
X115334344Y-58799125D01*
X115581366Y-58708935D01*
X115682203Y-58655037D01*
X115741664Y-58421269D01*
X115000000Y-57679605D01*
X114258336Y-58421269D01*
X113753758Y-58421269D01*
X113962188Y-58212020D01*
X114078731Y-58241664D01*
X114693395Y-57627000D01*
X115306605Y-57627000D01*
X115921269Y-58241664D01*
X116155037Y-58182203D01*
X116265934Y-57943758D01*
X116328183Y-57688260D01*
X116330796Y-57627000D01*
X119492165Y-57627000D01*
X119516941Y-57624560D01*
X119540766Y-57617333D01*
X119562722Y-57605597D01*
X119581968Y-57589803D01*
X120081968Y-57089803D01*
X120097762Y-57070557D01*
X120109498Y-57048601D01*
X120116725Y-57024776D01*
X120119165Y-57000000D01*
X120119165Y-52700881D01*
X164978724Y-52700881D01*
X165338912Y-53190548D01*
X166002882Y-53550849D01*
X166724385Y-53774694D01*
X167475695Y-53853480D01*
X168227938Y-53784178D01*
X168952208Y-53569452D01*
X169620670Y-53217555D01*
X169661088Y-53190548D01*
X170021276Y-52700881D01*
X167500000Y-50179605D01*
X164978724Y-52700881D01*
X120119165Y-52700881D01*
X120119165Y-49975695D01*
X163646520Y-49975695D01*
X163715822Y-50727938D01*
X163930548Y-51452208D01*
X164282445Y-52120670D01*
X164309452Y-52161088D01*
X164799119Y-52521276D01*
X167320395Y-50000000D01*
X167679605Y-50000000D01*
X170200881Y-52521276D01*
X170690548Y-52161088D01*
X171050849Y-51497118D01*
X171274694Y-50775615D01*
X171353480Y-50024305D01*
X171284178Y-49272062D01*
X171069452Y-48547792D01*
X170717555Y-47879330D01*
X170690548Y-47838912D01*
X170200881Y-47478724D01*
X167679605Y-50000000D01*
X167320395Y-50000000D01*
X164799119Y-47478724D01*
X164309452Y-47838912D01*
X163949151Y-48502882D01*
X163725306Y-49224385D01*
X163646520Y-49975695D01*
X120119165Y-49975695D01*
X120119165Y-47299119D01*
X164978724Y-47299119D01*
X167500000Y-49820395D01*
X170021276Y-47299119D01*
X169661088Y-46809452D01*
X168997118Y-46449151D01*
X168275615Y-46225306D01*
X167524305Y-46146520D01*
X166772062Y-46215822D01*
X166047792Y-46430548D01*
X165379330Y-46782445D01*
X165338912Y-46809452D01*
X164978724Y-47299119D01*
X120119165Y-47299119D01*
X120119165Y-46552606D01*
X121011771Y-45660000D01*
X170972559Y-45660000D01*
X171840000Y-46527441D01*
G36*
X74873000Y-85552606D02*
G01*
X74873000Y-105348000D01*
X62003756Y-105348000D01*
X62220726Y-105023281D01*
X62622286Y-104053829D01*
X62827000Y-103024664D01*
X62827000Y-101975336D01*
X62622286Y-100946171D01*
X62220726Y-99976719D01*
X61637751Y-99104235D01*
X60895765Y-98362249D01*
X60023281Y-97779274D01*
X59053829Y-97377714D01*
X58024664Y-97173000D01*
X56975336Y-97173000D01*
X55946171Y-97377714D01*
X54976719Y-97779274D01*
X54652000Y-97996244D01*
X54652000Y-84127000D01*
X73447394Y-84127000D01*
X74873000Y-85552606D01*
X74873000Y-85552606D01*
G37*
X74873000Y-85552606D02*
X74873000Y-105348000D01*
X62003756Y-105348000D01*
X62220726Y-105023281D01*
X62622286Y-104053829D01*
X62827000Y-103024664D01*
X62827000Y-101975336D01*
X62622286Y-100946171D01*
X62220726Y-99976719D01*
X61637751Y-99104235D01*
X60895765Y-98362249D01*
X60023281Y-97779274D01*
X59053829Y-97377714D01*
X58024664Y-97173000D01*
X56975336Y-97173000D01*
X55946171Y-97377714D01*
X54976719Y-97779274D01*
X54652000Y-97996244D01*
X54652000Y-84127000D01*
X73447394Y-84127000D01*
X74873000Y-85552606D01*
G36*
X74873000Y-64947394D02*
G01*
X73447394Y-66373000D01*
X54652000Y-66373000D01*
X54652000Y-54503756D01*
X54976719Y-54720726D01*
X55946171Y-55122286D01*
X56975336Y-55327000D01*
X58024664Y-55327000D01*
X59053829Y-55122286D01*
X60023281Y-54720726D01*
X60895765Y-54137751D01*
X61637751Y-53395765D01*
X62220726Y-52523281D01*
X62622286Y-51553829D01*
X62827000Y-50524664D01*
X62827000Y-49475336D01*
X62622286Y-48446171D01*
X62220726Y-47476719D01*
X62003756Y-47152000D01*
X74873000Y-47152000D01*
X74873000Y-64947394D01*
X74873000Y-64947394D01*
G37*
X74873000Y-64947394D02*
X73447394Y-66373000D01*
X54652000Y-66373000D01*
X54652000Y-54503756D01*
X54976719Y-54720726D01*
X55946171Y-55122286D01*
X56975336Y-55327000D01*
X58024664Y-55327000D01*
X59053829Y-55122286D01*
X60023281Y-54720726D01*
X60895765Y-54137751D01*
X61637751Y-53395765D01*
X62220726Y-52523281D01*
X62622286Y-51553829D01*
X62827000Y-50524664D01*
X62827000Y-49475336D01*
X62622286Y-48446171D01*
X62220726Y-47476719D01*
X62003756Y-47152000D01*
X74873000Y-47152000D01*
X74873000Y-64947394D01*
M02*
