G04 #@! TF.GenerationSoftware,KiCad,Pcbnew,(5.1.9)-1*
G04 #@! TF.CreationDate,2021-05-02T21:25:52+02:00*
G04 #@! TF.ProjectId,usb_pcb,7573625f-7063-4622-9e6b-696361645f70,0*
G04 #@! TF.SameCoordinates,Original*
G04 #@! TF.FileFunction,Legend,Top*
G04 #@! TF.FilePolarity,Positive*
%FSLAX46Y46*%
G04 Gerber Fmt 4.6, Leading zero omitted, Abs format (unit mm)*
G04 Created by KiCad (PCBNEW (5.1.9)-1) date 2021-05-02 21:25:52*
%MOMM*%
%LPD*%
G01*
G04 APERTURE LIST*
%ADD10C,0.120000*%
%ADD11C,0.150000*%
G04 APERTURE END LIST*
D10*
X91330000Y-71050000D02*
X88670000Y-71050000D01*
X91330000Y-78730000D02*
X91330000Y-71050000D01*
X88670000Y-78730000D02*
X88670000Y-71050000D01*
X91330000Y-78730000D02*
X88670000Y-78730000D01*
X91330000Y-80000000D02*
X91330000Y-81330000D01*
X91330000Y-81330000D02*
X90000000Y-81330000D01*
X171330000Y-73630000D02*
X168670000Y-73630000D01*
X171330000Y-91470000D02*
X171330000Y-73630000D01*
X168670000Y-91470000D02*
X168670000Y-73630000D01*
X171330000Y-91470000D02*
X168670000Y-91470000D01*
X171330000Y-92740000D02*
X171330000Y-94070000D01*
X171330000Y-94070000D02*
X170000000Y-94070000D01*
X133950000Y-101330000D02*
X133950000Y-98670000D01*
X116110000Y-101330000D02*
X133950000Y-101330000D01*
X116110000Y-98670000D02*
X133950000Y-98670000D01*
X116110000Y-101330000D02*
X116110000Y-98670000D01*
X114840000Y-101330000D02*
X113510000Y-101330000D01*
X113510000Y-101330000D02*
X113510000Y-100000000D01*
X100890000Y-57080000D02*
X100890000Y-58920000D01*
X100890000Y-58920000D02*
X104730000Y-58920000D01*
X104730000Y-58920000D02*
X104730000Y-57080000D01*
X104730000Y-57080000D02*
X100890000Y-57080000D01*
X99940000Y-58000000D02*
X100890000Y-58000000D01*
X105680000Y-58000000D02*
X104730000Y-58000000D01*
X97630000Y-50670000D02*
X97630000Y-53330000D01*
X100230000Y-50670000D02*
X97630000Y-50670000D01*
X100230000Y-53330000D02*
X97630000Y-53330000D01*
X100230000Y-50670000D02*
X100230000Y-53330000D01*
X101500000Y-50670000D02*
X102830000Y-50670000D01*
X102830000Y-50670000D02*
X102830000Y-52000000D01*
X110130000Y-56670000D02*
X110130000Y-59330000D01*
X112730000Y-56670000D02*
X110130000Y-56670000D01*
X112730000Y-59330000D02*
X110130000Y-59330000D01*
X112730000Y-56670000D02*
X112730000Y-59330000D01*
X114000000Y-56670000D02*
X115330000Y-56670000D01*
X115330000Y-56670000D02*
X115330000Y-58000000D01*
X110130000Y-50670000D02*
X110130000Y-53330000D01*
X112730000Y-50670000D02*
X110130000Y-50670000D01*
X112730000Y-53330000D02*
X110130000Y-53330000D01*
X112730000Y-50670000D02*
X112730000Y-53330000D01*
X114000000Y-50670000D02*
X115330000Y-50670000D01*
X115330000Y-50670000D02*
X115330000Y-52000000D01*
X138630000Y-101170000D02*
X138630000Y-103830000D01*
X141230000Y-101170000D02*
X138630000Y-101170000D01*
X141230000Y-103830000D02*
X138630000Y-103830000D01*
X141230000Y-101170000D02*
X141230000Y-103830000D01*
X142500000Y-101170000D02*
X143830000Y-101170000D01*
X143830000Y-101170000D02*
X143830000Y-102500000D01*
X98830000Y-83630000D02*
X96170000Y-83630000D01*
X98830000Y-86230000D02*
X98830000Y-83630000D01*
X96170000Y-86230000D02*
X96170000Y-83630000D01*
X98830000Y-86230000D02*
X96170000Y-86230000D01*
X98830000Y-87500000D02*
X98830000Y-88830000D01*
X98830000Y-88830000D02*
X97500000Y-88830000D01*
X105370000Y-101330000D02*
X105370000Y-98670000D01*
X102770000Y-101330000D02*
X105370000Y-101330000D01*
X102770000Y-98670000D02*
X105370000Y-98670000D01*
X102770000Y-101330000D02*
X102770000Y-98670000D01*
X101500000Y-101330000D02*
X100170000Y-101330000D01*
X100170000Y-101330000D02*
X100170000Y-100000000D01*
X53670000Y-76370000D02*
X56330000Y-76370000D01*
X53670000Y-73770000D02*
X53670000Y-76370000D01*
X56330000Y-73770000D02*
X56330000Y-76370000D01*
X53670000Y-73770000D02*
X56330000Y-73770000D01*
X53670000Y-72500000D02*
X53670000Y-71170000D01*
X53670000Y-71170000D02*
X55000000Y-71170000D01*
X108850000Y-70530000D02*
X108850000Y-66930000D01*
X108838478Y-66891522D02*
G75*
G03*
X104400000Y-68730000I-1838478J-1838478D01*
G01*
X108838478Y-70568478D02*
G75*
G02*
X104400000Y-68730000I-1838478J1838478D01*
G01*
X159390000Y-66580000D02*
X159390000Y-68420000D01*
X159390000Y-68420000D02*
X163230000Y-68420000D01*
X163230000Y-68420000D02*
X163230000Y-66580000D01*
X163230000Y-66580000D02*
X159390000Y-66580000D01*
X158440000Y-67500000D02*
X159390000Y-67500000D01*
X164180000Y-67500000D02*
X163230000Y-67500000D01*
X163110000Y-63420000D02*
X163110000Y-61580000D01*
X163110000Y-61580000D02*
X159270000Y-61580000D01*
X159270000Y-61580000D02*
X159270000Y-63420000D01*
X159270000Y-63420000D02*
X163110000Y-63420000D01*
X164060000Y-62500000D02*
X163110000Y-62500000D01*
X158320000Y-62500000D02*
X159270000Y-62500000D01*
X66580000Y-78110000D02*
X68420000Y-78110000D01*
X68420000Y-78110000D02*
X68420000Y-74270000D01*
X68420000Y-74270000D02*
X66580000Y-74270000D01*
X66580000Y-74270000D02*
X66580000Y-78110000D01*
X67500000Y-79060000D02*
X67500000Y-78110000D01*
X67500000Y-73320000D02*
X67500000Y-74270000D01*
X61030000Y-77640000D02*
X63970000Y-77640000D01*
X63970000Y-77640000D02*
X63970000Y-72200000D01*
X63970000Y-72200000D02*
X61030000Y-72200000D01*
X61030000Y-72200000D02*
X61030000Y-77640000D01*
X62500000Y-78660000D02*
X62500000Y-77640000D01*
X62500000Y-71180000D02*
X62500000Y-72200000D01*
X61030000Y-76740000D02*
X63970000Y-76740000D01*
X61030000Y-76620000D02*
X63970000Y-76620000D01*
X61030000Y-76860000D02*
X63970000Y-76860000D01*
X103770000Y-64070000D02*
X99230000Y-64070000D01*
X103770000Y-61930000D02*
X99230000Y-61930000D01*
X103770000Y-64070000D02*
X103770000Y-64055000D01*
X103770000Y-61945000D02*
X103770000Y-61930000D01*
X99230000Y-64070000D02*
X99230000Y-64055000D01*
X99230000Y-61945000D02*
X99230000Y-61930000D01*
X155310000Y-73670000D02*
X154060000Y-73670000D01*
X154060000Y-73670000D02*
X154060000Y-91570000D01*
X154060000Y-91570000D02*
X158560000Y-91570000D01*
X158560000Y-91570000D02*
X158560000Y-73670000D01*
X158560000Y-73670000D02*
X157310000Y-73670000D01*
X157310000Y-73670000D02*
G75*
G02*
X155310000Y-73670000I-1000000J0D01*
G01*
X107810000Y-81170000D02*
X106560000Y-81170000D01*
X106560000Y-81170000D02*
X106560000Y-91450000D01*
X106560000Y-91450000D02*
X111060000Y-91450000D01*
X111060000Y-91450000D02*
X111060000Y-81170000D01*
X111060000Y-81170000D02*
X109810000Y-81170000D01*
X109810000Y-81170000D02*
G75*
G02*
X107810000Y-81170000I-1000000J0D01*
G01*
X77810000Y-71170000D02*
X76560000Y-71170000D01*
X76560000Y-71170000D02*
X76560000Y-78910000D01*
X76560000Y-78910000D02*
X81060000Y-78910000D01*
X81060000Y-78910000D02*
X81060000Y-71170000D01*
X81060000Y-71170000D02*
X79810000Y-71170000D01*
X79810000Y-71170000D02*
G75*
G02*
X77810000Y-71170000I-1000000J0D01*
G01*
X122810000Y-81170000D02*
X121560000Y-81170000D01*
X121560000Y-81170000D02*
X121560000Y-91450000D01*
X121560000Y-91450000D02*
X126060000Y-91450000D01*
X126060000Y-91450000D02*
X126060000Y-81170000D01*
X126060000Y-81170000D02*
X124810000Y-81170000D01*
X124810000Y-81170000D02*
G75*
G02*
X122810000Y-81170000I-1000000J0D01*
G01*
X90920000Y-89390000D02*
X89080000Y-89390000D01*
X89080000Y-89390000D02*
X89080000Y-93230000D01*
X89080000Y-93230000D02*
X90920000Y-93230000D01*
X90920000Y-93230000D02*
X90920000Y-89390000D01*
X90000000Y-88440000D02*
X90000000Y-89390000D01*
X90000000Y-94180000D02*
X90000000Y-93230000D01*
X90920000Y-61890000D02*
X89080000Y-61890000D01*
X89080000Y-61890000D02*
X89080000Y-65730000D01*
X89080000Y-65730000D02*
X90920000Y-65730000D01*
X90920000Y-65730000D02*
X90920000Y-61890000D01*
X90000000Y-60940000D02*
X90000000Y-61890000D01*
X90000000Y-66680000D02*
X90000000Y-65730000D01*
X140920000Y-79390000D02*
X139080000Y-79390000D01*
X139080000Y-79390000D02*
X139080000Y-83230000D01*
X139080000Y-83230000D02*
X140920000Y-83230000D01*
X140920000Y-83230000D02*
X140920000Y-79390000D01*
X140000000Y-78440000D02*
X140000000Y-79390000D01*
X140000000Y-84180000D02*
X140000000Y-83230000D01*
X81580000Y-93110000D02*
X83420000Y-93110000D01*
X83420000Y-93110000D02*
X83420000Y-89270000D01*
X83420000Y-89270000D02*
X81580000Y-89270000D01*
X81580000Y-89270000D02*
X81580000Y-93110000D01*
X82500000Y-94060000D02*
X82500000Y-93110000D01*
X82500000Y-88320000D02*
X82500000Y-89270000D01*
X133110000Y-75920000D02*
X133110000Y-74080000D01*
X133110000Y-74080000D02*
X129270000Y-74080000D01*
X129270000Y-74080000D02*
X129270000Y-75920000D01*
X129270000Y-75920000D02*
X133110000Y-75920000D01*
X134060000Y-75000000D02*
X133110000Y-75000000D01*
X128320000Y-75000000D02*
X129270000Y-75000000D01*
X140920000Y-91890000D02*
X139080000Y-91890000D01*
X139080000Y-91890000D02*
X139080000Y-95730000D01*
X139080000Y-95730000D02*
X140920000Y-95730000D01*
X140920000Y-95730000D02*
X140920000Y-91890000D01*
X140000000Y-90940000D02*
X140000000Y-91890000D01*
X140000000Y-96680000D02*
X140000000Y-95730000D01*
X116430000Y-69770000D02*
X116430000Y-65230000D01*
X118570000Y-69770000D02*
X118570000Y-65230000D01*
X116430000Y-69770000D02*
X116445000Y-69770000D01*
X118555000Y-69770000D02*
X118570000Y-69770000D01*
X116430000Y-65230000D02*
X116445000Y-65230000D01*
X118555000Y-65230000D02*
X118570000Y-65230000D01*
X111430000Y-69770000D02*
X111430000Y-65230000D01*
X113570000Y-69770000D02*
X113570000Y-65230000D01*
X111430000Y-69770000D02*
X111445000Y-69770000D01*
X113555000Y-69770000D02*
X113570000Y-69770000D01*
X111430000Y-65230000D02*
X111445000Y-65230000D01*
X113555000Y-65230000D02*
X113570000Y-65230000D01*
X126430000Y-69770000D02*
X126430000Y-65230000D01*
X128570000Y-69770000D02*
X128570000Y-65230000D01*
X126430000Y-69770000D02*
X126445000Y-69770000D01*
X128555000Y-69770000D02*
X128570000Y-69770000D01*
X126430000Y-65230000D02*
X126445000Y-65230000D01*
X128555000Y-65230000D02*
X128570000Y-65230000D01*
X146070000Y-77730000D02*
X146070000Y-82270000D01*
X143930000Y-77730000D02*
X143930000Y-82270000D01*
X146070000Y-77730000D02*
X146055000Y-77730000D01*
X143945000Y-77730000D02*
X143930000Y-77730000D01*
X146070000Y-82270000D02*
X146055000Y-82270000D01*
X143945000Y-82270000D02*
X143930000Y-82270000D01*
X131430000Y-89770000D02*
X131430000Y-85230000D01*
X133570000Y-89770000D02*
X133570000Y-85230000D01*
X131430000Y-89770000D02*
X131445000Y-89770000D01*
X133555000Y-89770000D02*
X133570000Y-89770000D01*
X131430000Y-85230000D02*
X131445000Y-85230000D01*
X133555000Y-85230000D02*
X133570000Y-85230000D01*
D11*
X56738095Y-98752380D02*
X56738095Y-97752380D01*
X56738095Y-98228571D02*
X57309523Y-98228571D01*
X57309523Y-98752380D02*
X57309523Y-97752380D01*
X57690476Y-97752380D02*
X58309523Y-97752380D01*
X57976190Y-98133333D01*
X58119047Y-98133333D01*
X58214285Y-98180952D01*
X58261904Y-98228571D01*
X58309523Y-98323809D01*
X58309523Y-98561904D01*
X58261904Y-98657142D01*
X58214285Y-98704761D01*
X58119047Y-98752380D01*
X57833333Y-98752380D01*
X57738095Y-98704761D01*
X57690476Y-98657142D01*
X56738095Y-46252380D02*
X56738095Y-45252380D01*
X56738095Y-45728571D02*
X57309523Y-45728571D01*
X57309523Y-46252380D02*
X57309523Y-45252380D01*
X58309523Y-46252380D02*
X57738095Y-46252380D01*
X58023809Y-46252380D02*
X58023809Y-45252380D01*
X57928571Y-45395238D01*
X57833333Y-45490476D01*
X57738095Y-45538095D01*
X161238095Y-100452380D02*
X161238095Y-99452380D01*
X161238095Y-99928571D02*
X161809523Y-99928571D01*
X161809523Y-100452380D02*
X161809523Y-99452380D01*
X162714285Y-99785714D02*
X162714285Y-100452380D01*
X162476190Y-99404761D02*
X162238095Y-100119047D01*
X162857142Y-100119047D01*
X161238095Y-50452380D02*
X161238095Y-49452380D01*
X161238095Y-49928571D02*
X161809523Y-49928571D01*
X161809523Y-50452380D02*
X161809523Y-49452380D01*
X162238095Y-49547619D02*
X162285714Y-49500000D01*
X162380952Y-49452380D01*
X162619047Y-49452380D01*
X162714285Y-49500000D01*
X162761904Y-49547619D01*
X162809523Y-49642857D01*
X162809523Y-49738095D01*
X162761904Y-49880952D01*
X162190476Y-50452380D01*
X162809523Y-50452380D01*
X92261904Y-82782380D02*
X92261904Y-81782380D01*
X92642857Y-81782380D01*
X92738095Y-81830000D01*
X92785714Y-81877619D01*
X92833333Y-81972857D01*
X92833333Y-82115714D01*
X92785714Y-82210952D01*
X92738095Y-82258571D01*
X92642857Y-82306190D01*
X92261904Y-82306190D01*
X93166666Y-81782380D02*
X93785714Y-81782380D01*
X93452380Y-82163333D01*
X93595238Y-82163333D01*
X93690476Y-82210952D01*
X93738095Y-82258571D01*
X93785714Y-82353809D01*
X93785714Y-82591904D01*
X93738095Y-82687142D01*
X93690476Y-82734761D01*
X93595238Y-82782380D01*
X93309523Y-82782380D01*
X93214285Y-82734761D01*
X93166666Y-82687142D01*
X166261904Y-94452380D02*
X166261904Y-93452380D01*
X166642857Y-93452380D01*
X166738095Y-93500000D01*
X166785714Y-93547619D01*
X166833333Y-93642857D01*
X166833333Y-93785714D01*
X166785714Y-93880952D01*
X166738095Y-93928571D01*
X166642857Y-93976190D01*
X166261904Y-93976190D01*
X167166666Y-93452380D02*
X167833333Y-93452380D01*
X167404761Y-94452380D01*
X111771904Y-101452380D02*
X111771904Y-100452380D01*
X112152857Y-100452380D01*
X112248095Y-100500000D01*
X112295714Y-100547619D01*
X112343333Y-100642857D01*
X112343333Y-100785714D01*
X112295714Y-100880952D01*
X112248095Y-100928571D01*
X112152857Y-100976190D01*
X111771904Y-100976190D01*
X113200476Y-100452380D02*
X113010000Y-100452380D01*
X112914761Y-100500000D01*
X112867142Y-100547619D01*
X112771904Y-100690476D01*
X112724285Y-100880952D01*
X112724285Y-101261904D01*
X112771904Y-101357142D01*
X112819523Y-101404761D01*
X112914761Y-101452380D01*
X113105238Y-101452380D01*
X113200476Y-101404761D01*
X113248095Y-101357142D01*
X113295714Y-101261904D01*
X113295714Y-101023809D01*
X113248095Y-100928571D01*
X113200476Y-100880952D01*
X113105238Y-100833333D01*
X112914761Y-100833333D01*
X112819523Y-100880952D01*
X112771904Y-100928571D01*
X112724285Y-101023809D01*
X95833333Y-58452380D02*
X95500000Y-57976190D01*
X95261904Y-58452380D02*
X95261904Y-57452380D01*
X95642857Y-57452380D01*
X95738095Y-57500000D01*
X95785714Y-57547619D01*
X95833333Y-57642857D01*
X95833333Y-57785714D01*
X95785714Y-57880952D01*
X95738095Y-57928571D01*
X95642857Y-57976190D01*
X95261904Y-57976190D01*
X96690476Y-57452380D02*
X96500000Y-57452380D01*
X96404761Y-57500000D01*
X96357142Y-57547619D01*
X96261904Y-57690476D01*
X96214285Y-57880952D01*
X96214285Y-58261904D01*
X96261904Y-58357142D01*
X96309523Y-58404761D01*
X96404761Y-58452380D01*
X96595238Y-58452380D01*
X96690476Y-58404761D01*
X96738095Y-58357142D01*
X96785714Y-58261904D01*
X96785714Y-58023809D01*
X96738095Y-57928571D01*
X96690476Y-57880952D01*
X96595238Y-57833333D01*
X96404761Y-57833333D01*
X96309523Y-57880952D01*
X96261904Y-57928571D01*
X96214285Y-58023809D01*
X94285714Y-52452380D02*
X94285714Y-51452380D01*
X94666666Y-51452380D01*
X94761904Y-51500000D01*
X94809523Y-51547619D01*
X94857142Y-51642857D01*
X94857142Y-51785714D01*
X94809523Y-51880952D01*
X94761904Y-51928571D01*
X94666666Y-51976190D01*
X94285714Y-51976190D01*
X95809523Y-52452380D02*
X95238095Y-52452380D01*
X95523809Y-52452380D02*
X95523809Y-51452380D01*
X95428571Y-51595238D01*
X95333333Y-51690476D01*
X95238095Y-51738095D01*
X96428571Y-51452380D02*
X96523809Y-51452380D01*
X96619047Y-51500000D01*
X96666666Y-51547619D01*
X96714285Y-51642857D01*
X96761904Y-51833333D01*
X96761904Y-52071428D01*
X96714285Y-52261904D01*
X96666666Y-52357142D01*
X96619047Y-52404761D01*
X96523809Y-52452380D01*
X96428571Y-52452380D01*
X96333333Y-52404761D01*
X96285714Y-52357142D01*
X96238095Y-52261904D01*
X96190476Y-52071428D01*
X96190476Y-51833333D01*
X96238095Y-51642857D01*
X96285714Y-51547619D01*
X96333333Y-51500000D01*
X96428571Y-51452380D01*
X116261904Y-58452380D02*
X116261904Y-57452380D01*
X116642857Y-57452380D01*
X116738095Y-57500000D01*
X116785714Y-57547619D01*
X116833333Y-57642857D01*
X116833333Y-57785714D01*
X116785714Y-57880952D01*
X116738095Y-57928571D01*
X116642857Y-57976190D01*
X116261904Y-57976190D01*
X117309523Y-58452380D02*
X117500000Y-58452380D01*
X117595238Y-58404761D01*
X117642857Y-58357142D01*
X117738095Y-58214285D01*
X117785714Y-58023809D01*
X117785714Y-57642857D01*
X117738095Y-57547619D01*
X117690476Y-57500000D01*
X117595238Y-57452380D01*
X117404761Y-57452380D01*
X117309523Y-57500000D01*
X117261904Y-57547619D01*
X117214285Y-57642857D01*
X117214285Y-57880952D01*
X117261904Y-57976190D01*
X117309523Y-58023809D01*
X117404761Y-58071428D01*
X117595238Y-58071428D01*
X117690476Y-58023809D01*
X117738095Y-57976190D01*
X117785714Y-57880952D01*
X116261904Y-52452380D02*
X116261904Y-51452380D01*
X116642857Y-51452380D01*
X116738095Y-51500000D01*
X116785714Y-51547619D01*
X116833333Y-51642857D01*
X116833333Y-51785714D01*
X116785714Y-51880952D01*
X116738095Y-51928571D01*
X116642857Y-51976190D01*
X116261904Y-51976190D01*
X117404761Y-51880952D02*
X117309523Y-51833333D01*
X117261904Y-51785714D01*
X117214285Y-51690476D01*
X117214285Y-51642857D01*
X117261904Y-51547619D01*
X117309523Y-51500000D01*
X117404761Y-51452380D01*
X117595238Y-51452380D01*
X117690476Y-51500000D01*
X117738095Y-51547619D01*
X117785714Y-51642857D01*
X117785714Y-51690476D01*
X117738095Y-51785714D01*
X117690476Y-51833333D01*
X117595238Y-51880952D01*
X117404761Y-51880952D01*
X117309523Y-51928571D01*
X117261904Y-51976190D01*
X117214285Y-52071428D01*
X117214285Y-52261904D01*
X117261904Y-52357142D01*
X117309523Y-52404761D01*
X117404761Y-52452380D01*
X117595238Y-52452380D01*
X117690476Y-52404761D01*
X117738095Y-52357142D01*
X117785714Y-52261904D01*
X117785714Y-52071428D01*
X117738095Y-51976190D01*
X117690476Y-51928571D01*
X117595238Y-51880952D01*
X136261904Y-103452380D02*
X136261904Y-102452380D01*
X136642857Y-102452380D01*
X136738095Y-102500000D01*
X136785714Y-102547619D01*
X136833333Y-102642857D01*
X136833333Y-102785714D01*
X136785714Y-102880952D01*
X136738095Y-102928571D01*
X136642857Y-102976190D01*
X136261904Y-102976190D01*
X137738095Y-102452380D02*
X137261904Y-102452380D01*
X137214285Y-102928571D01*
X137261904Y-102880952D01*
X137357142Y-102833333D01*
X137595238Y-102833333D01*
X137690476Y-102880952D01*
X137738095Y-102928571D01*
X137785714Y-103023809D01*
X137785714Y-103261904D01*
X137738095Y-103357142D01*
X137690476Y-103404761D01*
X137595238Y-103452380D01*
X137357142Y-103452380D01*
X137261904Y-103404761D01*
X137214285Y-103357142D01*
X96761904Y-90282380D02*
X96761904Y-89282380D01*
X97142857Y-89282380D01*
X97238095Y-89330000D01*
X97285714Y-89377619D01*
X97333333Y-89472857D01*
X97333333Y-89615714D01*
X97285714Y-89710952D01*
X97238095Y-89758571D01*
X97142857Y-89806190D01*
X96761904Y-89806190D01*
X98190476Y-89615714D02*
X98190476Y-90282380D01*
X97952380Y-89234761D02*
X97714285Y-89949047D01*
X98333333Y-89949047D01*
X98431904Y-100452380D02*
X98431904Y-99452380D01*
X98812857Y-99452380D01*
X98908095Y-99500000D01*
X98955714Y-99547619D01*
X99003333Y-99642857D01*
X99003333Y-99785714D01*
X98955714Y-99880952D01*
X98908095Y-99928571D01*
X98812857Y-99976190D01*
X98431904Y-99976190D01*
X99384285Y-99547619D02*
X99431904Y-99500000D01*
X99527142Y-99452380D01*
X99765238Y-99452380D01*
X99860476Y-99500000D01*
X99908095Y-99547619D01*
X99955714Y-99642857D01*
X99955714Y-99738095D01*
X99908095Y-99880952D01*
X99336666Y-100452380D01*
X99955714Y-100452380D01*
X54261904Y-70622380D02*
X54261904Y-69622380D01*
X54642857Y-69622380D01*
X54738095Y-69670000D01*
X54785714Y-69717619D01*
X54833333Y-69812857D01*
X54833333Y-69955714D01*
X54785714Y-70050952D01*
X54738095Y-70098571D01*
X54642857Y-70146190D01*
X54261904Y-70146190D01*
X55785714Y-70622380D02*
X55214285Y-70622380D01*
X55500000Y-70622380D02*
X55500000Y-69622380D01*
X55404761Y-69765238D01*
X55309523Y-69860476D01*
X55214285Y-69908095D01*
X102238095Y-70252380D02*
X102238095Y-71061904D01*
X102285714Y-71157142D01*
X102333333Y-71204761D01*
X102428571Y-71252380D01*
X102619047Y-71252380D01*
X102714285Y-71204761D01*
X102761904Y-71157142D01*
X102809523Y-71061904D01*
X102809523Y-70252380D01*
X103761904Y-70252380D02*
X103285714Y-70252380D01*
X103238095Y-70728571D01*
X103285714Y-70680952D01*
X103380952Y-70633333D01*
X103619047Y-70633333D01*
X103714285Y-70680952D01*
X103761904Y-70728571D01*
X103809523Y-70823809D01*
X103809523Y-71061904D01*
X103761904Y-71157142D01*
X103714285Y-71204761D01*
X103619047Y-71252380D01*
X103380952Y-71252380D01*
X103285714Y-71204761D01*
X103238095Y-71157142D01*
X161143333Y-66032380D02*
X160810000Y-65556190D01*
X160571904Y-66032380D02*
X160571904Y-65032380D01*
X160952857Y-65032380D01*
X161048095Y-65080000D01*
X161095714Y-65127619D01*
X161143333Y-65222857D01*
X161143333Y-65365714D01*
X161095714Y-65460952D01*
X161048095Y-65508571D01*
X160952857Y-65556190D01*
X160571904Y-65556190D01*
X162048095Y-65032380D02*
X161571904Y-65032380D01*
X161524285Y-65508571D01*
X161571904Y-65460952D01*
X161667142Y-65413333D01*
X161905238Y-65413333D01*
X162000476Y-65460952D01*
X162048095Y-65508571D01*
X162095714Y-65603809D01*
X162095714Y-65841904D01*
X162048095Y-65937142D01*
X162000476Y-65984761D01*
X161905238Y-66032380D01*
X161667142Y-66032380D01*
X161571904Y-65984761D01*
X161524285Y-65937142D01*
X161033333Y-61052380D02*
X160700000Y-60576190D01*
X160461904Y-61052380D02*
X160461904Y-60052380D01*
X160842857Y-60052380D01*
X160938095Y-60100000D01*
X160985714Y-60147619D01*
X161033333Y-60242857D01*
X161033333Y-60385714D01*
X160985714Y-60480952D01*
X160938095Y-60528571D01*
X160842857Y-60576190D01*
X160461904Y-60576190D01*
X161890476Y-60385714D02*
X161890476Y-61052380D01*
X161652380Y-60004761D02*
X161414285Y-60719047D01*
X162033333Y-60719047D01*
X69833333Y-78452380D02*
X69500000Y-77976190D01*
X69261904Y-78452380D02*
X69261904Y-77452380D01*
X69642857Y-77452380D01*
X69738095Y-77500000D01*
X69785714Y-77547619D01*
X69833333Y-77642857D01*
X69833333Y-77785714D01*
X69785714Y-77880952D01*
X69738095Y-77928571D01*
X69642857Y-77976190D01*
X69261904Y-77976190D01*
X70785714Y-78452380D02*
X70214285Y-78452380D01*
X70500000Y-78452380D02*
X70500000Y-77452380D01*
X70404761Y-77595238D01*
X70309523Y-77690476D01*
X70214285Y-77738095D01*
X58261904Y-77452380D02*
X58261904Y-76452380D01*
X58500000Y-76452380D01*
X58642857Y-76500000D01*
X58738095Y-76595238D01*
X58785714Y-76690476D01*
X58833333Y-76880952D01*
X58833333Y-77023809D01*
X58785714Y-77214285D01*
X58738095Y-77309523D01*
X58642857Y-77404761D01*
X58500000Y-77452380D01*
X58261904Y-77452380D01*
X59214285Y-76547619D02*
X59261904Y-76500000D01*
X59357142Y-76452380D01*
X59595238Y-76452380D01*
X59690476Y-76500000D01*
X59738095Y-76547619D01*
X59785714Y-76642857D01*
X59785714Y-76738095D01*
X59738095Y-76880952D01*
X59166666Y-77452380D01*
X59785714Y-77452380D01*
X60852380Y-80261904D02*
X59852380Y-80261904D01*
X60852380Y-79690476D02*
X60280952Y-80119047D01*
X59852380Y-79690476D02*
X60423809Y-80261904D01*
X95833333Y-63357142D02*
X95785714Y-63404761D01*
X95642857Y-63452380D01*
X95547619Y-63452380D01*
X95404761Y-63404761D01*
X95309523Y-63309523D01*
X95261904Y-63214285D01*
X95214285Y-63023809D01*
X95214285Y-62880952D01*
X95261904Y-62690476D01*
X95309523Y-62595238D01*
X95404761Y-62500000D01*
X95547619Y-62452380D01*
X95642857Y-62452380D01*
X95785714Y-62500000D01*
X95833333Y-62547619D01*
X96404761Y-62880952D02*
X96309523Y-62833333D01*
X96261904Y-62785714D01*
X96214285Y-62690476D01*
X96214285Y-62642857D01*
X96261904Y-62547619D01*
X96309523Y-62500000D01*
X96404761Y-62452380D01*
X96595238Y-62452380D01*
X96690476Y-62500000D01*
X96738095Y-62547619D01*
X96785714Y-62642857D01*
X96785714Y-62690476D01*
X96738095Y-62785714D01*
X96690476Y-62833333D01*
X96595238Y-62880952D01*
X96404761Y-62880952D01*
X96309523Y-62928571D01*
X96261904Y-62976190D01*
X96214285Y-63071428D01*
X96214285Y-63261904D01*
X96261904Y-63357142D01*
X96309523Y-63404761D01*
X96404761Y-63452380D01*
X96595238Y-63452380D01*
X96690476Y-63404761D01*
X96738095Y-63357142D01*
X96785714Y-63261904D01*
X96785714Y-63071428D01*
X96738095Y-62976190D01*
X96690476Y-62928571D01*
X96595238Y-62880952D01*
X155548095Y-72122380D02*
X155548095Y-72931904D01*
X155595714Y-73027142D01*
X155643333Y-73074761D01*
X155738571Y-73122380D01*
X155929047Y-73122380D01*
X156024285Y-73074761D01*
X156071904Y-73027142D01*
X156119523Y-72931904D01*
X156119523Y-72122380D01*
X157119523Y-73122380D02*
X156548095Y-73122380D01*
X156833809Y-73122380D02*
X156833809Y-72122380D01*
X156738571Y-72265238D01*
X156643333Y-72360476D01*
X156548095Y-72408095D01*
X108048095Y-79622380D02*
X108048095Y-80431904D01*
X108095714Y-80527142D01*
X108143333Y-80574761D01*
X108238571Y-80622380D01*
X108429047Y-80622380D01*
X108524285Y-80574761D01*
X108571904Y-80527142D01*
X108619523Y-80431904D01*
X108619523Y-79622380D01*
X109524285Y-79955714D02*
X109524285Y-80622380D01*
X109286190Y-79574761D02*
X109048095Y-80289047D01*
X109667142Y-80289047D01*
X78048095Y-69622380D02*
X78048095Y-70431904D01*
X78095714Y-70527142D01*
X78143333Y-70574761D01*
X78238571Y-70622380D01*
X78429047Y-70622380D01*
X78524285Y-70574761D01*
X78571904Y-70527142D01*
X78619523Y-70431904D01*
X78619523Y-69622380D01*
X79000476Y-69622380D02*
X79619523Y-69622380D01*
X79286190Y-70003333D01*
X79429047Y-70003333D01*
X79524285Y-70050952D01*
X79571904Y-70098571D01*
X79619523Y-70193809D01*
X79619523Y-70431904D01*
X79571904Y-70527142D01*
X79524285Y-70574761D01*
X79429047Y-70622380D01*
X79143333Y-70622380D01*
X79048095Y-70574761D01*
X79000476Y-70527142D01*
X123048095Y-79622380D02*
X123048095Y-80431904D01*
X123095714Y-80527142D01*
X123143333Y-80574761D01*
X123238571Y-80622380D01*
X123429047Y-80622380D01*
X123524285Y-80574761D01*
X123571904Y-80527142D01*
X123619523Y-80431904D01*
X123619523Y-79622380D01*
X124048095Y-79717619D02*
X124095714Y-79670000D01*
X124190952Y-79622380D01*
X124429047Y-79622380D01*
X124524285Y-79670000D01*
X124571904Y-79717619D01*
X124619523Y-79812857D01*
X124619523Y-79908095D01*
X124571904Y-80050952D01*
X124000476Y-80622380D01*
X124619523Y-80622380D01*
X92357142Y-93452380D02*
X92023809Y-92976190D01*
X91785714Y-93452380D02*
X91785714Y-92452380D01*
X92166666Y-92452380D01*
X92261904Y-92500000D01*
X92309523Y-92547619D01*
X92357142Y-92642857D01*
X92357142Y-92785714D01*
X92309523Y-92880952D01*
X92261904Y-92928571D01*
X92166666Y-92976190D01*
X91785714Y-92976190D01*
X93309523Y-93452380D02*
X92738095Y-93452380D01*
X93023809Y-93452380D02*
X93023809Y-92452380D01*
X92928571Y-92595238D01*
X92833333Y-92690476D01*
X92738095Y-92738095D01*
X93690476Y-92547619D02*
X93738095Y-92500000D01*
X93833333Y-92452380D01*
X94071428Y-92452380D01*
X94166666Y-92500000D01*
X94214285Y-92547619D01*
X94261904Y-92642857D01*
X94261904Y-92738095D01*
X94214285Y-92880952D01*
X93642857Y-93452380D01*
X94261904Y-93452380D01*
X92357142Y-66452380D02*
X92023809Y-65976190D01*
X91785714Y-66452380D02*
X91785714Y-65452380D01*
X92166666Y-65452380D01*
X92261904Y-65500000D01*
X92309523Y-65547619D01*
X92357142Y-65642857D01*
X92357142Y-65785714D01*
X92309523Y-65880952D01*
X92261904Y-65928571D01*
X92166666Y-65976190D01*
X91785714Y-65976190D01*
X93309523Y-66452380D02*
X92738095Y-66452380D01*
X93023809Y-66452380D02*
X93023809Y-65452380D01*
X92928571Y-65595238D01*
X92833333Y-65690476D01*
X92738095Y-65738095D01*
X94261904Y-66452380D02*
X93690476Y-66452380D01*
X93976190Y-66452380D02*
X93976190Y-65452380D01*
X93880952Y-65595238D01*
X93785714Y-65690476D01*
X93690476Y-65738095D01*
X139833333Y-75452380D02*
X139500000Y-74976190D01*
X139261904Y-75452380D02*
X139261904Y-74452380D01*
X139642857Y-74452380D01*
X139738095Y-74500000D01*
X139785714Y-74547619D01*
X139833333Y-74642857D01*
X139833333Y-74785714D01*
X139785714Y-74880952D01*
X139738095Y-74928571D01*
X139642857Y-74976190D01*
X139261904Y-74976190D01*
X140404761Y-74880952D02*
X140309523Y-74833333D01*
X140261904Y-74785714D01*
X140214285Y-74690476D01*
X140214285Y-74642857D01*
X140261904Y-74547619D01*
X140309523Y-74500000D01*
X140404761Y-74452380D01*
X140595238Y-74452380D01*
X140690476Y-74500000D01*
X140738095Y-74547619D01*
X140785714Y-74642857D01*
X140785714Y-74690476D01*
X140738095Y-74785714D01*
X140690476Y-74833333D01*
X140595238Y-74880952D01*
X140404761Y-74880952D01*
X140309523Y-74928571D01*
X140261904Y-74976190D01*
X140214285Y-75071428D01*
X140214285Y-75261904D01*
X140261904Y-75357142D01*
X140309523Y-75404761D01*
X140404761Y-75452380D01*
X140595238Y-75452380D01*
X140690476Y-75404761D01*
X140738095Y-75357142D01*
X140785714Y-75261904D01*
X140785714Y-75071428D01*
X140738095Y-74976190D01*
X140690476Y-74928571D01*
X140595238Y-74880952D01*
X84833333Y-93452380D02*
X84500000Y-92976190D01*
X84261904Y-93452380D02*
X84261904Y-92452380D01*
X84642857Y-92452380D01*
X84738095Y-92500000D01*
X84785714Y-92547619D01*
X84833333Y-92642857D01*
X84833333Y-92785714D01*
X84785714Y-92880952D01*
X84738095Y-92928571D01*
X84642857Y-92976190D01*
X84261904Y-92976190D01*
X85166666Y-92452380D02*
X85833333Y-92452380D01*
X85404761Y-93452380D01*
X131023333Y-77372380D02*
X130690000Y-76896190D01*
X130451904Y-77372380D02*
X130451904Y-76372380D01*
X130832857Y-76372380D01*
X130928095Y-76420000D01*
X130975714Y-76467619D01*
X131023333Y-76562857D01*
X131023333Y-76705714D01*
X130975714Y-76800952D01*
X130928095Y-76848571D01*
X130832857Y-76896190D01*
X130451904Y-76896190D01*
X131356666Y-76372380D02*
X131975714Y-76372380D01*
X131642380Y-76753333D01*
X131785238Y-76753333D01*
X131880476Y-76800952D01*
X131928095Y-76848571D01*
X131975714Y-76943809D01*
X131975714Y-77181904D01*
X131928095Y-77277142D01*
X131880476Y-77324761D01*
X131785238Y-77372380D01*
X131499523Y-77372380D01*
X131404285Y-77324761D01*
X131356666Y-77277142D01*
X137433333Y-93252380D02*
X137100000Y-92776190D01*
X136861904Y-93252380D02*
X136861904Y-92252380D01*
X137242857Y-92252380D01*
X137338095Y-92300000D01*
X137385714Y-92347619D01*
X137433333Y-92442857D01*
X137433333Y-92585714D01*
X137385714Y-92680952D01*
X137338095Y-92728571D01*
X137242857Y-92776190D01*
X136861904Y-92776190D01*
X137814285Y-92347619D02*
X137861904Y-92300000D01*
X137957142Y-92252380D01*
X138195238Y-92252380D01*
X138290476Y-92300000D01*
X138338095Y-92347619D01*
X138385714Y-92442857D01*
X138385714Y-92538095D01*
X138338095Y-92680952D01*
X137766666Y-93252380D01*
X138385714Y-93252380D01*
X115233333Y-71757142D02*
X115185714Y-71804761D01*
X115042857Y-71852380D01*
X114947619Y-71852380D01*
X114804761Y-71804761D01*
X114709523Y-71709523D01*
X114661904Y-71614285D01*
X114614285Y-71423809D01*
X114614285Y-71280952D01*
X114661904Y-71090476D01*
X114709523Y-70995238D01*
X114804761Y-70900000D01*
X114947619Y-70852380D01*
X115042857Y-70852380D01*
X115185714Y-70900000D01*
X115233333Y-70947619D01*
X115566666Y-70852380D02*
X116233333Y-70852380D01*
X115804761Y-71852380D01*
X110033333Y-71757142D02*
X109985714Y-71804761D01*
X109842857Y-71852380D01*
X109747619Y-71852380D01*
X109604761Y-71804761D01*
X109509523Y-71709523D01*
X109461904Y-71614285D01*
X109414285Y-71423809D01*
X109414285Y-71280952D01*
X109461904Y-71090476D01*
X109509523Y-70995238D01*
X109604761Y-70900000D01*
X109747619Y-70852380D01*
X109842857Y-70852380D01*
X109985714Y-70900000D01*
X110033333Y-70947619D01*
X110890476Y-70852380D02*
X110700000Y-70852380D01*
X110604761Y-70900000D01*
X110557142Y-70947619D01*
X110461904Y-71090476D01*
X110414285Y-71280952D01*
X110414285Y-71661904D01*
X110461904Y-71757142D01*
X110509523Y-71804761D01*
X110604761Y-71852380D01*
X110795238Y-71852380D01*
X110890476Y-71804761D01*
X110938095Y-71757142D01*
X110985714Y-71661904D01*
X110985714Y-71423809D01*
X110938095Y-71328571D01*
X110890476Y-71280952D01*
X110795238Y-71233333D01*
X110604761Y-71233333D01*
X110509523Y-71280952D01*
X110461904Y-71328571D01*
X110414285Y-71423809D01*
X124833333Y-70757142D02*
X124785714Y-70804761D01*
X124642857Y-70852380D01*
X124547619Y-70852380D01*
X124404761Y-70804761D01*
X124309523Y-70709523D01*
X124261904Y-70614285D01*
X124214285Y-70423809D01*
X124214285Y-70280952D01*
X124261904Y-70090476D01*
X124309523Y-69995238D01*
X124404761Y-69900000D01*
X124547619Y-69852380D01*
X124642857Y-69852380D01*
X124785714Y-69900000D01*
X124833333Y-69947619D01*
X125690476Y-70185714D02*
X125690476Y-70852380D01*
X125452380Y-69804761D02*
X125214285Y-70519047D01*
X125833333Y-70519047D01*
X144833333Y-75357142D02*
X144785714Y-75404761D01*
X144642857Y-75452380D01*
X144547619Y-75452380D01*
X144404761Y-75404761D01*
X144309523Y-75309523D01*
X144261904Y-75214285D01*
X144214285Y-75023809D01*
X144214285Y-74880952D01*
X144261904Y-74690476D01*
X144309523Y-74595238D01*
X144404761Y-74500000D01*
X144547619Y-74452380D01*
X144642857Y-74452380D01*
X144785714Y-74500000D01*
X144833333Y-74547619D01*
X145166666Y-74452380D02*
X145785714Y-74452380D01*
X145452380Y-74833333D01*
X145595238Y-74833333D01*
X145690476Y-74880952D01*
X145738095Y-74928571D01*
X145785714Y-75023809D01*
X145785714Y-75261904D01*
X145738095Y-75357142D01*
X145690476Y-75404761D01*
X145595238Y-75452380D01*
X145309523Y-75452380D01*
X145214285Y-75404761D01*
X145166666Y-75357142D01*
X134833333Y-89357142D02*
X134785714Y-89404761D01*
X134642857Y-89452380D01*
X134547619Y-89452380D01*
X134404761Y-89404761D01*
X134309523Y-89309523D01*
X134261904Y-89214285D01*
X134214285Y-89023809D01*
X134214285Y-88880952D01*
X134261904Y-88690476D01*
X134309523Y-88595238D01*
X134404761Y-88500000D01*
X134547619Y-88452380D01*
X134642857Y-88452380D01*
X134785714Y-88500000D01*
X134833333Y-88547619D01*
X135785714Y-89452380D02*
X135214285Y-89452380D01*
X135500000Y-89452380D02*
X135500000Y-88452380D01*
X135404761Y-88595238D01*
X135309523Y-88690476D01*
X135214285Y-88738095D01*
M02*
