M48
; DRILL file {KiCad (5.1.9)-1} date 05/02/21 21:26:00
; FORMAT={-:-/ absolute / inch / decimal}
; #@! TF.CreationDate,2021-05-02T21:26:00+02:00
; #@! TF.GenerationSoftware,Kicad,Pcbnew,(5.1.9)-1
; #@! TF.FileFunction,Plated,1,2,PTH
FMAT,2
INCH
T1C0.0197
T2C0.0276
T3C0.0295
T4C0.0315
T5C0.0394
T6C0.0433
T7C0.1260
%
G90
G05
T1
X2.1693Y-1.9685
X2.1693Y-4.0354
X2.197Y-1.9017
X2.197Y-2.0353
X2.197Y-3.9686
X2.197Y-4.1022
X2.2638Y-1.874
X2.2638Y-2.063
X2.2638Y-3.9409
X2.2638Y-4.1299
X2.3306Y-1.9017
X2.3306Y-2.0353
X2.3306Y-3.9686
X2.3306Y-4.1022
X2.3583Y-1.9685
X2.3583Y-4.0354
X6.5Y-1.9685
X6.5Y-3.937
X6.5277Y-1.9017
X6.5277Y-2.0353
X6.5277Y-3.8702
X6.5277Y-4.0038
X6.5945Y-1.874
X6.5945Y-2.063
X6.5945Y-3.8425
X6.5945Y-4.0315
X6.6613Y-1.9017
X6.6613Y-2.0353
X6.6613Y-3.8702
X6.6613Y-4.0038
X6.689Y-1.9685
X6.689Y-3.937
T2
X2.6575Y-2.8496
X2.6575Y-3.1496
X3.248Y-3.4402
X3.248Y-3.7402
X3.5433Y-2.3622
X3.5433Y-2.6622
X3.5433Y-3.4449
X3.5433Y-3.7449
X3.8976Y-2.2835
X4.1976Y-2.2835
X5.015Y-2.9528
X5.315Y-2.9528
X5.5118Y-3.0512
X5.5118Y-3.3512
X5.5118Y-3.5433
X5.5118Y-3.8433
X6.1961Y-2.4606
X6.2008Y-2.6575
X6.4961Y-2.4606
X6.5008Y-2.6575
T3
X4.2126Y-2.6559
X4.2126Y-2.7059
X4.2126Y-2.7559
T4
X2.9528Y-2.8543
X2.9528Y-2.9543
X2.9528Y-3.0543
X3.2528Y-2.8543
X3.2528Y-2.9543
X3.2528Y-3.0543
X3.8976Y-2.4803
X4.0945Y-2.4803
X4.1339Y-3.248
X4.1339Y-3.348
X4.1339Y-3.448
X4.1339Y-3.548
X4.4291Y-2.5591
X4.4291Y-2.7559
X4.4339Y-3.248
X4.4339Y-3.348
X4.4339Y-3.448
X4.4339Y-3.548
X4.626Y-2.4803
X4.626Y-2.5591
X4.626Y-2.6378
X4.626Y-2.7559
X4.7047Y-2.5591
X4.7244Y-3.248
X4.7244Y-3.348
X4.7244Y-3.448
X4.7244Y-3.548
X5.0197Y-2.5591
X5.0197Y-2.7559
X5.0244Y-3.248
X5.0244Y-3.348
X5.0244Y-3.448
X5.0244Y-3.548
X5.2165Y-3.3465
X5.2165Y-3.5433
X5.7087Y-3.0512
X5.7087Y-3.248
X6.0039Y-2.9528
X6.0039Y-3.0528
X6.0039Y-3.1528
X6.0039Y-3.2528
X6.0039Y-3.3528
X6.0039Y-3.4528
X6.0039Y-3.5528
X6.3039Y-2.9528
X6.3039Y-3.0528
X6.3039Y-3.1528
X6.3039Y-3.2528
X6.3039Y-3.3528
X6.3039Y-3.4528
X6.3039Y-3.5528
T5
X2.1654Y-2.8543
X2.1654Y-2.9543
X3.5433Y-2.8496
X3.5433Y-2.9496
X3.5433Y-3.0496
X3.5433Y-3.1496
X3.8386Y-3.3449
X3.8386Y-3.4449
X3.8961Y-2.0472
X3.9961Y-2.0472
X3.9961Y-3.937
X4.0961Y-3.937
X4.3882Y-2.0472
X4.3882Y-2.2835
X4.4882Y-2.0472
X4.4882Y-2.2835
X4.5213Y-3.937
X4.6213Y-3.937
X4.7213Y-3.937
X4.8213Y-3.937
X4.9213Y-3.937
X5.0213Y-3.937
X5.1213Y-3.937
X5.2213Y-3.937
X5.5102Y-4.0354
X5.6102Y-4.0354
X6.6929Y-2.9512
X6.6929Y-3.0512
X6.6929Y-3.1512
X6.6929Y-3.2512
X6.6929Y-3.3512
X6.6929Y-3.4512
X6.6929Y-3.5512
X6.6929Y-3.6512
T6
X2.4606Y-2.7496
X2.4606Y-3.1496
T7
X2.2638Y-1.9685
X2.2638Y-4.0354
X6.5945Y-1.9685
X6.5945Y-3.937
T0
M30
